<?xml version="1.0" standalone="no"?>
<!DOCTYPE svg PUBLIC "-//W3C//DTD SVG 1.1//EN" "http://www.w3.org/Graphics/SVG/1.1/DTD/svg11.dtd" >
<svg xmlns="http://www.w3.org/2000/svg">
<metadata>Generated by IcoMoon</metadata>
<defs>
<font id="icomoon" horiz-adv-x="1024">
<font-face units-per-em="1024" ascent="960" descent="-64" />
<missing-glyph horiz-adv-x="1024" />
<glyph unicode="&#x20;" horiz-adv-x="512" d="" />
<glyph unicode="&#xe900;" glyph-name="info" d="M511.978 938.667c-282.732 0-511.978-229.246-511.978-511.978s229.246-512.022 511.978-512.022 512.022 229.289 512.022 512.022-229.289 511.978-512.022 511.978zM618.561 145.17c-26.353-10.403-47.332-18.291-63.065-23.752-15.69-5.461-33.938-8.192-54.7-8.192-31.901 0-56.737 7.802-74.422 23.362s-26.483 35.282-26.483 59.251c0 9.319 0.65 18.855 1.95 28.564 1.344 9.709 3.468 20.632 6.372 32.898l32.985 116.508c2.904 11.183 5.418 21.802 7.412 31.684 1.994 9.969 2.947 19.115 2.947 27.437 0 14.824-3.077 25.226-9.189 31.078-6.198 5.851-17.858 8.712-35.239 8.712-8.495 0-17.251-1.257-26.223-3.901-8.886-2.731-16.601-5.201-22.929-7.629l8.712 35.889c21.585 8.799 42.26 16.341 61.982 22.582 19.721 6.328 38.359 9.449 55.914 9.449 31.684 0 56.13-7.715 73.338-22.972 17.121-15.3 25.746-35.195 25.746-59.641 0-5.071-0.607-14-1.777-26.743-1.17-12.786-3.381-24.446-6.588-35.152l-32.811-116.162c-2.687-9.319-5.071-19.982-7.238-31.901-2.124-11.92-3.164-21.022-3.164-27.133 0-15.43 3.424-25.963 10.359-31.554 6.848-5.591 18.855-8.409 35.845-8.409 8.019 0 16.991 1.43 27.133 4.204 10.056 2.774 17.338 5.245 21.932 7.368l-8.799-35.845zM612.753 616.665c-15.3-14.217-33.722-21.325-55.263-21.325-21.499 0-40.050 7.108-55.48 21.325-15.344 14.217-23.102 31.511-23.102 51.709 0 20.155 7.802 37.492 23.102 51.839 15.43 14.39 33.982 21.542 55.48 21.542 21.542 0 40.006-7.152 55.263-21.542 15.3-14.347 22.972-31.684 22.972-51.839 0-20.242-7.672-37.492-22.972-51.709z" />
<glyph unicode="&#xe901;" glyph-name="clear1" d="M518.4 42.667l409.6 460.8c38.4 44.8 38.4 115.2-6.4 160l-172.8 172.8c-19.2 25.6-51.2 38.4-83.2 38.4h-115.2c-32 0-64-12.8-89.6-38.4l-428.8-486.4c-38.4-44.8-38.4-121.6 6.4-160l172.8-172.8c19.2-25.6 51.2-38.4 83.2-38.4h729.6v64h-505.6zM435.2 49.067c0 0 0 6.4 0 0l-172.8 172.8c-25.6 25.6-25.6 57.6 0 83.2l217.6 249.6h-64l-192-211.2c-38.4-44.8-38.4-108.8 6.4-153.6l147.2-147.2h-83.2c-12.8 0-25.6 6.4-38.4 12.8l-179.2 179.2c-19.2 19.2-19.2 51.2 0 70.4l224 249.6h115.2l224 256h64l-224-256 198.4-236.8-224-256c-6.4-6.4-12.8-6.4-19.2-12.8z" />
<glyph unicode="&#xe902;" glyph-name="grid" d="M0 938.667v-1024h1024v1024h-1024zM320-21.333h-256v256h256v-256zM320 298.667h-256v256h256v-256zM320 618.667h-256v256h256v-256zM640-21.333h-256v256h256v-256zM640 298.667h-256v256h256v-256zM640 618.667h-256v256h256v-256zM960-21.333h-256v256h256v-256zM960 298.667h-256v256h256v-256zM960 618.667h-256v256h256v-256z" />
<glyph unicode="&#xe903;" glyph-name="center-h" d="M857.741 120.050v0zM638.583 694.396h222.937v-574.347h-222.937zM608.355 89.82h287.173v638.583h-287.173zM192.708 853.098h256.945v-895.528h-256.945v895.528zM30.229 428.556h989.993v-30.229h-989.993v30.229z" />
<glyph unicode="&#xe904;" glyph-name="center-v" d="M205.383 123.591v0zM779.731 342.75v-222.937h-574.347v222.937zM175.153 372.979v-287.173h638.583v287.173zM959.764 767.292v-256.945h-895.528v256.945h895.528zM513.889 951.104v-989.993h-30.229v989.993h30.229z" />
<glyph unicode="&#xe905;" glyph-name="flip-h" d="M0-21.333l384 320-384 313.6zM576 292.267l384-313.6v640l-384-326.4zM896 113.067l-217.6 179.2 217.6 192v-371.2zM448 618.667h64v-64h-64v64zM448 746.667h64v-64h-64v64zM448 490.667h64v-64h-64v64zM448 362.667h64v-64h-64v64zM448 234.667h64v-64h-64v64zM448 106.667h64v-64h-64v64zM448-21.333h64v-64h-64v64zM480 874.667v0c83.2 0 166.4-44.8 230.4-121.6l-70.4-70.4h192v192l-76.8-76.8c-76.8 89.6-172.8 140.8-275.2 140.8 0 0 0 0 0 0-121.6 0-230.4-64-313.6-185.6l51.2-38.4c70.4 102.4 160 160 262.4 160z" />
<glyph unicode="&#xe906;" glyph-name="flip-v" d="M64 938.667l320-384 313.6 384zM377.6 362.667l-313.6-384h640l-326.4 384zM198.4 42.667l179.2 217.6 192-217.6h-371.2zM640 490.667h64v-64h-64v64zM768 490.667h64v-64h-64v64zM512 490.667h64v-64h-64v64zM384 490.667h64v-64h-64v64zM256 490.667h64v-64h-64v64zM128 490.667h64v-64h-64v64zM0 490.667h64v-64h-64v64zM960 458.667v0c0-83.2-44.8-166.4-121.6-230.4l-70.4 70.4v-192h192l-76.8 76.8c89.6 76.8 140.8 172.8 140.8 275.2 0 0 0 0 0 0 0 121.6-64 230.4-185.6 313.6l-38.4-51.2c102.4-70.4 160-160 160-262.4z" />
<glyph unicode="&#xe907;" glyph-name="detras" d="M23.72 893.614v-728.019h252.665l4.283 471.071 471.071 4.283v252.665zM917.621 502.57v-507.955h-504.401v504.401zM981.563 562.956h-632.279v-632.279h632.279v632.279z" />
<glyph unicode="&#xe908;" glyph-name="delante" d="M1042.279-85.984v725.291h-725.291v-725.291zM74.919 885.082v-616.819h173.355v68.535h-104.819v479.748h479.748v-104.819h68.535v173.355z" />
<glyph unicode="&#xe909;" glyph-name="lock1" d="M813.463 512.151h-602.925c-47.012 0-85.796-35.259-85.796-79.92v-398.424c0-43.486 38.785-79.92 85.796-79.92h602.925c47.012 0 85.796 35.259 85.796 79.92v398.424c0 43.486-38.785 79.92-85.796 79.92zM813.463 34.983h-602.925v398.424h602.925v-398.424zM315.542 726.171c0 67.702 119.688 120.897 198.272 120.897s193.436-54.404 193.436-120.897v-162.002h87.046v122.106c0 132.987-126.942 240.586-282.9 240.586s-282.9-107.599-282.9-240.586v-122.106h87.046v162.002zM552.501 322.374h-81.001v-162.002h81.001z" />
<glyph unicode="&#xe90a;" glyph-name="group" d="M952.198 312.68c33.474 206.096-79.098 403.215-265.437 482.529-27.432 70.042-95.118 119.42-174.76 119.42-79.502 0-147.294-49.27-174.762-119.422-186.428-79.35-298.895-276.533-265.435-482.529-44.764-35.268-71.804-89.922-71.804-147.546 0-144.804 157.806-234.478 281.615-162.354 139.016-84.028 317.121-86.826 460.769 0.014 123.554-71.978 281.619 17.286 281.619 162.34 0 57.632-27.048 112.294-71.804 147.548zM512.001 849.571c65.964 0 122.528-53.566 122.528-122.53 0-67.564-54.968-122.53-122.528-122.53s-122.528 54.968-122.528 122.53c0 68.588 56.174 122.53 122.528 122.53zM187.59 42.601c-67.562 0.002-122.53 54.968-122.53 122.53 0 69.376 56.31 122.53 122.53 122.53 67.56 0 122.528-54.968 122.528-122.53 0-68.856-55.912-122.53-122.528-122.53zM689.943 47.825c-110.886-58.704-244.836-58.79-355.887-0.010 114.050 141.514-23.88 350.465-200.922 296.823-16.128 154.19 61.596 298.623 191.574 371.959 5.44-98.596 87.36-177.144 187.294-177.144s181.854 78.548 187.294 177.144c131.238-74.046 207.562-219.136 191.574-371.959-177.312 53.732-314.683-155.584-200.928-296.813zM836.412 42.603c-66.518 0-122.528 53.65-122.528 122.53 0 67.562 54.968 122.53 122.528 122.53 66.062 0 122.53-52.988 122.53-122.53 0-67.564-54.968-122.53-122.53-122.53z" />
<glyph unicode="&#xe90b;" glyph-name="clone1" d="M749.847 514.601c0-9.672-1.209-12.090-2.418-19.344 0-7.254 2.418-8.463 2.418-19.344 0-9.672-1.209-12.090-2.418-19.344 0-7.254 2.418-8.463 2.418-19.344 0-9.672-1.209-12.090-2.418-19.344 0-7.254 2.418-8.463 2.418-19.344 0-9.672-1.209-12.090-2.418-19.344 0-7.254 2.418-8.463 2.418-19.344 0-9.672-1.209-12.090-2.418-19.344 0-7.254 2.418-8.463 2.418-19.344 0-9.672-1.209-12.090-2.418-19.344 0-7.254 2.418-8.463 2.418-19.344 0-9.672-1.209-12.090-2.418-19.344 0-7.254 2.418-8.463 2.418-19.344 0-9.672-1.209-12.090-2.418-19.344 0-7.254 2.418-8.463 2.418-19.344 0-9.672-1.209-12.090-2.418-19.344 0-7.254 2.418-9.672 2.418-19.344s-1.209-12.090-2.418-19.344c0-7.254 2.418-8.463 2.418-19.344 0-9.672-1.209-12.090-2.418-19.344 0-16.926 9.672-49.568-21.762-78.583-9.672-8.463-22.97-14.508-36.269-14.508h-436.439c-26.597 0-56.822 30.224-56.822 56.822v587.561c0 26.597 30.224 56.822 56.822 56.822h322.796v-68.911c0-56.822 43.523-99.136 100.345-99.136h72.538l2.418-42.314zM223.943 836.188c12.090 0 64.076-2.418 71.329 1.209 4.836 1.209 21.762 25.388 45.941 25.388h463.037c30.224 0 59.24-30.224 59.24-60.449v-579.098c0-27.806-24.179-56.822-49.568-59.24v375.991c0 55.613-20.553 70.12-55.613 106.39l-108.808 108.808c-18.135 18.135-43.523 36.269-71.329 36.269h-328.841c-37.478 0-67.702-20.553-90.673-45.941-3.627-3.627-3.627-3.627-7.254-8.463-13.299-18.135-24.179-44.732-24.179-68.911v-587.561c0-62.867 60.449-123.315 122.106-123.315h442.484c33.851 0 71.329 22.97 88.255 41.105 9.672 10.881 19.344 26.597 25.388 39.896 8.463 19.344 8.463 31.433 8.463 58.031 41.105 9.672 53.195 14.508 79.792 39.896 20.553 20.553 36.269 53.195 36.269 83.419v587.561c0 44.732-33.851 91.882-72.538 110.017-12.090 6.045-31.433 13.299-49.568 13.299h-469.081c-50.777 0-105.181-45.941-116.061-93.091zM260.213 180.924c0-20.553 18.135-39.896 39.896-39.896h343.348c53.195 0 51.986 77.374 2.418 77.374h-348.184c-21.762 0-37.478-21.762-37.478-37.478zM260.213 346.554c0-18.135 18.135-37.478 36.269-37.478h351.811c33.851 0 48.359 47.15 21.762 67.702-8.463 7.254-20.553 9.672-35.060 9.672h-325.214c-20.553 0-35.060-6.045-44.732-21.762-2.418-3.627-4.836-13.299-4.836-18.135zM260.213 513.392c0-10.881 6.045-22.97 12.090-27.806 6.045-6.045 16.926-12.090 27.806-12.090h199.481c10.881 0 19.344 4.836 25.388 10.881 29.015 27.806 4.836 66.494-25.388 66.494h-197.063c-25.388 0-42.314-20.553-42.314-37.478z" />
<glyph unicode="&#xe90c;" glyph-name="trash" d="M800 810.667h-576c-53.020 0-96-42.98-96-96v-32h768v32c0 53.020-42.98 96-96 96zM632.32 874.667l14.118-101h-268.874l14.114 101h240.642zM640 938.667h-256c-26.4 0-50.99-21.392-54.642-47.538l-18.714-133.924c-3.654-26.146 14.956-47.538 41.356-47.538h320c26.398 0 45.012 21.392 41.36 47.538l-18.714 133.924c-3.658 26.146-28.248 47.538-54.646 47.538v0zM816 618.667h-608c-35.2 0-61.392-28.682-58.206-63.738l52.412-576.526c3.186-35.054 34.594-63.736 69.794-63.736h480c35.2 0 66.61 28.682 69.792 63.736l52.41 576.526c3.188 35.056-23.002 63.738-58.202 63.738zM384 42.667h-96l-32 448h128v-448zM576 42.667h-128v448h128v-448zM736 42.667h-96v448h128l-32-448z" />
<glyph unicode="&#xe90d;" glyph-name="undo2" d="M761.862-85.333c113.726 206.032 132.888 520.306-313.862 509.824v-253.824l-384 384 384 384v-248.372c534.962 13.942 594.57-472.214 313.862-775.628z" />
<glyph unicode="&#xe90e;" glyph-name="redo" d="M576 690.295v248.372l384-384-384-384v253.824c-446.75 10.482-427.588-303.792-313.86-509.824-280.712 303.414-221.1 789.57 313.86 775.628z" />
<glyph unicode="&#xe90f;" glyph-name="eyedropper" d="M986.51 901.177c-49.988 49.986-131.032 49.986-181.020 0l-172.118-172.118-121.372 121.372-135.764-135.764 106.426-106.426-472.118-472.118c-8.048-8.048-11.468-18.958-10.3-29.456h-0.244v-160c0-17.674 14.328-32 32-32h160c0 0 2.664 0 4 0 9.212 0 18.426 3.516 25.456 10.544l472.118 472.118 106.426-106.426 135.764 135.764-121.372 121.372 172.118 172.118c49.986 49.988 49.986 131.032 0 181.020zM173.090-21.333h-109.090v109.090l469.574 469.572 109.088-109.088-469.572-469.574z" />
<glyph unicode="&#xe910;" glyph-name="preview" d="M1019.998 410.895c5.338 9.828 5.338 21.716 0 31.545-97.822 180.109-288.627 302.381-507.996 302.381s-410.176-122.274-507.998-302.381c-5.338-9.828-5.338-21.716 0-31.545 97.824-180.109 288.626-302.383 507.996-302.383s410.174 122.274 507.998 302.383zM512 182.622c-134.783 0-244.045 109.263-244.045 244.045s109.262 244.047 244.045 244.047 244.047-109.263 244.047-244.047-109.263-244.045-244.047-244.045zM512 551.036c-10.267 0-20.237-1.253-29.78-3.597 9.773-11.311 15.7-26.040 15.7-42.161 0-35.639-28.891-64.532-64.532-64.532-16.121 0-30.851 5.925-42.161 15.7-2.344-9.542-3.597-19.513-3.597-29.78 0-68.688 55.683-124.369 124.369-124.369s124.369 55.683 124.369 124.369-55.679 124.371-124.367 124.371z" />
<glyph unicode="&#xe911;" glyph-name="exit" d="M640 170.667h-256v576l-256 128h512v-192h64v256h-704v-832l384-192v192h320v320h-64v-256zM1024 554.667l-256 192v-128h-256v-128h256v-128l256 192z" />
<glyph unicode="&#xe912;" glyph-name="small-upload-button-with-an-arrow" d="M387.104 208.097h249.795l-1.311 374.692h188.658l-312.244 312.244-312.246-312.244h187.348zM785.068 187.734v-136.533h-546.134v136.533h-136.533v-273.067h819.199v273.067z" />
<glyph unicode="&#xe913;" glyph-name="type" d="M896 938.667h-768c-17.664 0-32-14.336-32-32v-192c0-17.664 14.336-32 32-32h32c17.664 0 32 14.336 32 32l64 96h192v-768l-160-64c-17.664 0-32-14.304-32-32s14.336-32 32-32h448c17.696 0 32 14.304 32 32s-14.304 32-32 32l-160 64v768h192l64-96c0-17.664 14.304-32 32-32h32c17.696 0 32 14.336 32 32v192c0 17.664-14.304 32-32 32z" />
<glyph unicode="&#xe914;" glyph-name="image" d="M959.884 810.667c0.040-0.034 0.082-0.076 0.116-0.116v-767.77c-0.034-0.040-0.076-0.082-0.116-0.116h-895.77c-0.040 0.034-0.082 0.076-0.114 0.116v767.772c0.034 0.040 0.076 0.082 0.114 0.114h895.77zM960 874.667h-896c-35.2 0-64-28.8-64-64v-768c0-35.2 28.8-64 64-64h896c35.2 0 64 28.8 64 64v768c0 35.2-28.8 64-64 64v0zM832 650.667c0-53.020-42.98-96-96-96s-96 42.98-96 96 42.98 96 96 96 96-42.98 96-96zM896 106.667h-768v128l224 384 256-320h64l224 192z" />
<glyph unicode="&#xe915;" glyph-name="shapes" d="M600.693 511.328c-149.165 0-274.142-120.945-274.142-274.142 0-149.165 120.945-274.142 274.142-274.142 149.165 0 274.142 120.945 274.142 274.142 0 149.165-120.945 274.142-274.142 274.142zM991.748 471.013l-278.173 443.465c-4.031 4.031-8.063 8.063-16.126 8.063s-12.094-4.031-16.126-8.063l-120.945-189.48c0-4.031-4.031-8.063-4.031-8.063v-124.976c0-4.031 4.031-8.063 8.063-12.094s8.063-4.031 12.094-4.031c16.126 4.031 28.22 4.031 44.346 4.031 96.756 0 193.512-48.378 249.953-124.976 4.031-4.031 8.063-8.063 16.126-8.063h88.693c8.063 0 12.094 4.031 16.126 8.063s4.031 12.094 0 16.126zM467.654 563.738c8.063 4.031 12.094 8.063 12.094 16.126v169.323c0 8.063-8.063 16.126-16.126 16.126h-423.307c-8.063 0-16.126-8.063-16.126-16.126v-423.307c0-8.063 8.063-16.126 16.126-16.126h225.764c8.063 0 16.126 8.063 16.126 16.126 16.126 108.85 88.693 201.575 189.48 241.89z" />
<glyph unicode="&#xe916;" glyph-name="cliparts" d="M235.443 384.164h0.632v0.632h0.632v2.021h0.632v1.389h0.632v1.389h0.632v2.021h0.632v1.389h0.632v1.389h0.632v2.021h0.632v1.389h0.632v1.389h0.632v1.389h0.632v2.021h0.632v1.389h0.632v1.389h0.632v2.021h0.632v1.389h0.632v1.389h0.632v2.021h0.632v1.389h0.632v1.389h0.632v1.389h0.632v2.021h0.632v1.389h0.632v1.389h0.632v2.021h0.632v1.389h0.632v1.389h0.632v2.021h0.632v1.389h0.632v1.389h0.632v1.389h0.632v2.021h0.632v1.389h0.632v1.389h0.632v2.021h0.632v1.389h0.632v1.389h0.632v1.389h0.632v2.021h0.632v1.389h0.632v1.389h0.632v2.021h0.632v1.389h0.632v1.389h0.632v2.021h0.632v1.389h0.632v1.389h0.632v1.389h0.632v2.021h0.632v1.389h0.632v1.389h0.632v2.021h0.632v1.389h0.632v1.389h0.632v2.021h0.632v1.389h0.632v1.389h0.632v1.389h0.632v2.021h0.632v1.389h0.632v1.389h0.632v2.021h0.632v1.389h0.632v1.389h0.632v2.021h0.632v1.389h0.632v1.389h0.632v1.389h0.632v2.021h0.632v1.389h0.632v1.389h0.632v2.021h0.632v1.389h0.632v1.389h0.632v2.021h0.632v1.389h0.632v1.389h0.632v1.389h0.632v2.021h0.632v1.389h0.632v1.389h0.632v2.021h0.632v1.389h0.632v1.389h0.632v2.021h0.632v1.389h0.632v1.389h0.632v1.389h0.632v2.021h0.632v1.389h0.632v1.389h0.632v2.021h0.632v1.389h0.632v1.389h0.632v2.021h0.632v1.389h0.632v1.389h0.632v1.389h0.632v2.021h0.632v1.389h0.632v1.389h0.632v2.021h0.632v1.389h0.632v1.389h0.632v2.021h0.632v1.389h0.632v1.389h0.632v1.389h0.632v2.021h0.632v1.389h0.632v1.389h0.632v2.021h0.632v1.389h0.632v1.389h0.632v2.021h0.632v1.389h0.632v1.389h0.632v1.389h0.632v2.021h0.632v1.389h0.632v1.389h0.632v2.021h0.632v1.389h0.632v1.389h0.632v1.389h0.632v2.021h0.632v1.389h0.632v1.389h0.632v2.021h0.632v1.389h0.632v1.389h0.632v2.021h0.632v1.389h0.632v1.389h0.632v1.389h0.632v2.021h0.632v1.389h0.632v1.389h0.632v2.021h0.632v1.389h0.632v1.389h0.632v2.021h0.632v1.389h0.632v1.389h0.632v1.389h0.632v2.021h0.632v1.389h0.632v1.389h0.632v2.021h0.632v1.389h0.632v1.389h0.632v2.021h0.632v1.389h0.632v1.389h0.632v1.389h0.632v2.021h0.632v1.389h0.632v1.389h0.632v2.021h0.632v1.389h0.632v1.389h0.632v2.021h0.632v1.389h0.632v1.389h0.632v1.389h0.632v2.021h0.632v1.389h0.632v1.389h0.632v2.021h0.632v1.389h0.632v1.389h0.632v2.021h0.632v1.389h0.632v1.389h0.632v1.389h0.632v2.021h0.632v1.389h0.632v1.389h0.632v2.021h0.632v1.389h0.632v1.389h0.632v2.021h0.632v1.389h0.632v1.389h0.632v1.389h0.632v2.021h0.632v1.389h0.632v1.389h0.632v2.021h0.632v1.389h0.632v1.389h0.632v2.021h0.632v1.389h0.632v1.389h0.632v1.389h0.632v2.021h0.632v1.389h0.632v1.389h0.632v2.021h0.632v1.389h0.632v1.389h0.632v1.389h0.632v2.021h0.632v1.389h0.632v1.389h0.632v2.021h0.632v1.389h0.632v1.389h0.632v2.021h0.632v1.389h0.632v1.389h0.632v1.389h0.632v2.021h0.632v1.389h0.632v1.389h0.632v2.021h0.632v1.389h0.632v1.389h0.632v2.021h0.632v1.389h0.632v1.389h0.632v1.389h0.632v2.021h0.632v1.389h0.632v1.389h0.632v2.021h0.632v1.389h0.632v1.389h0.632v2.021h0.632v1.389h0.632v1.389h0.632v1.389h0.632v2.021h0.632v1.389h0.632v1.389h0.632v2.021h0.632v1.389h0.632v1.389h0.632v2.021h0.632v1.389h0.632v1.389h0.632v1.389h0.632v2.021h0.632v1.389h0.632v-0.632h0.632v-1.389h0.632v-0.632h0.632v-1.389h0.632v-1.389h0.632v-0.632h0.632v-1.389h0.632v-1.389h0.632v-0.632h0.632v-1.389h0.632v-1.389h0.632v-0.632h0.632v-1.389h0.632v-0.632h0.632v-1.389h0.632v-1.389h0.632v-0.632h0.632v-1.389h0.632v-1.389h0.632v-0.632h0.632v-1.389h0.632v-1.389h0.632v-0.632h0.632v-1.389h0.632v-1.389h0.632v-0.632h0.632v-1.389h0.632v-1.389h0.632v-0.632h0.632v-1.389h0.632v-0.632h0.632v-1.389h0.632v-1.389h0.632v-0.632h0.632v-1.389h0.632v-1.389h0.632v-0.632h0.632v-1.389h0.632v-1.389h0.632v-0.632h0.632v-1.389h0.632v-1.389h0.632v-0.632h0.632v-1.389h0.632v-1.389h0.632v-0.632h0.632v-1.389h0.632v-0.632h0.632v-1.389h0.632v-1.389h0.632v-0.632h0.632v-1.389h0.632v-1.389h0.632v-0.632h0.632v-1.389h0.632v-1.389h0.632v-0.632h0.632v-1.389h0.632v-1.389h0.632v-0.632h0.632v-1.389h0.632v-1.389h0.632v-0.632h0.632v-1.389h0.632v-0.632h0.632v-1.389h0.632v-1.389h0.632v-0.632h0.632v-1.389h0.632v-1.389h0.632v-0.632h0.632v-1.389h0.632v-1.389h0.632v-0.632h0.632v-1.389h0.632v-1.389h0.632v-0.632h0.632v-1.389h0.632v-1.389h0.632v-0.632h0.632v-1.389h0.632v-0.632h0.632v-1.389h0.632v-1.389h0.632v-0.632h0.632v-1.389h0.632v-1.389h0.632v-0.632h0.632v-1.389h0.632v-1.389h0.632v-0.632h0.632v-1.389h0.632v-1.389h0.632v-0.632h0.632v-1.389h0.632v-1.389h0.632v-0.632h0.632v-1.389h0.632v-0.632h0.632v-1.389h0.632v-1.389h0.632v-0.632h0.632v-1.389h0.632v-1.389h0.632v-0.632h0.632v-1.389h0.632v-1.389h0.632v-0.632h0.632v-1.389h0.632v-1.389h0.632v-0.632h0.632v-1.389h0.632v-1.389h0.632v-0.632h0.632v-1.389h0.632v-0.632h0.632v-1.389h0.632v-1.389h0.632v-0.632h0.632v-1.389h0.632v-1.389h0.632v-0.632h0.632v-1.389h0.632v-1.389h0.632v-0.632h0.632v-1.389h0.632v-1.389h0.632v-0.632h0.632v-1.389h0.632v-1.389h0.632v-0.632h0.632v-1.389h0.632v-0.632h0.632v-1.389h0.632v-1.389h0.632v-0.632h0.632v-1.389h0.632v-1.389h0.632v-0.632h0.632v-1.389h0.632v-1.389h0.632v-0.632h0.632v-1.389h0.632v-1.389h0.632v-0.632h0.632v-1.389h0.632v-1.389h0.632v-0.632h0.632v-1.389h0.632v-0.632h0.632v-1.389h0.632v-1.389h0.632v-0.632h0.632v-1.389h0.632v-1.389h0.632v-0.632h0.632v-1.389h0.632v-1.389h0.632v-0.632h0.632v-1.389h0.632v-1.389h0.632v-0.632h0.632v-1.389h0.632v-1.389h0.632v-0.632h0.632v-1.389h0.632v-0.632h0.632v-1.389h0.632v-1.389h0.632v-0.632h0.632v-1.389h0.632v-1.389h0.632v-0.632h0.632v-1.389h0.632v-1.389h0.632v-0.632h0.632v-1.389h0.632v-1.389h0.632v-0.632h0.632v-1.389h0.632v-1.389h0.632v-0.632h0.632v-1.389h0.632v-1.389h0.632v-0.632h0.632v-1.389h0.632v-0.632h0.632v-1.389h0.632v-1.389h0.632v-0.632h0.632v-1.389h0.632v-1.389h0.632v-0.632h0.632v-1.389h0.632v-1.389h0.632v-0.632h0.632v-1.389h0.632v-1.389h0.632v-0.632h0.632v-1.389h0.632v-1.389h0.632v-0.632h0.632v-1.389h0.632v-0.632h0.632v-1.389h0.632v-1.389h0.632v-0.632h0.632v-1.389h0.632v-1.389h0.632v-0.632h0.632v-1.389h0.632v-1.389h0.632v-0.632h0.632v-0.632h0.632v0.632h0.632v0.632h0.632v0.632h0.632v0.632h0.632v0.632h0.632v0.632h0.632v0.632h0.632v0.632h0.632v0.632h0.632v1.389h0.632v0.632h0.632v0.632h0.632v0.632h0.632v0.632h0.632v0.632h0.632v0.632h0.632v0.632h0.632v0.632h0.632v0.632h0.632v0.632h0.632v0.632h0.632v1.389h0.632v0.632h0.632v0.632h0.632v0.632h0.632v0.632h0.632v0.632h0.632v0.632h0.632v0.632h0.632v0.632h0.632v0.632h0.632v0.632h0.632v0.632h0.632v0.632h0.632v1.389h0.632v0.632h0.632v0.632h0.632v0.632h0.632v0.632h0.632v0.632h0.632v0.632h0.632v0.632h0.632v0.632h0.632v0.632h0.632v0.632h0.632v0.632h0.632v0.632h0.632v1.389h0.632v0.632h0.632v0.632h0.632v0.632h0.632v0.632h0.632v0.632h0.632v0.632h0.632v0.632h0.632v0.632h0.632v0.632h0.632v0.632h0.632v0.632h0.632v0.632h0.632v1.389h0.632v0.632h0.632v0.632h0.632v0.632h0.632v0.632h0.632v0.632h0.632v0.632h0.632v0.632h0.632v0.632h0.632v0.632h0.632v0.632h0.632v0.632h0.632v1.389h0.632v0.632h0.632v0.632h0.632v0.632h0.632v0.632h0.632v0.632h0.632v0.632h0.632v0.632h0.632v0.632h0.632v0.632h0.632v0.632h0.632v0.632h0.632v0.632h0.632v1.389h0.632v0.632h0.632v0.632h0.632v0.632h0.632v0.632h0.632v0.632h0.632v0.632h0.632v0.632h0.632v0.632h0.632v0.632h0.632v0.632h0.632v0.632h0.632v0.632h0.632v1.389h0.632v0.632h0.632v0.632h0.632v0.632h0.632v0.632h0.632v0.632h0.632v0.632h0.632v0.632h0.632v0.632h0.632v-0.632h0.632v-1.389h0.632v-0.632h0.632v-1.389h0.632v-0.632h0.632v-1.389h0.632v-0.632h0.632v-1.389h0.632v-0.632h0.632v-1.389h0.632v-1.389h0.632v-0.632h0.632v-1.389h0.632v-0.632h0.632v-1.389h0.632v-0.632h0.632v-1.389h0.632v-0.632h0.632v-1.389h0.632v-0.632h0.632v-1.389h0.632v-0.632h0.632v-1.389h0.632v-0.632h0.632v-1.389h0.632v-0.632h0.632v-1.389h0.632v-0.632h0.632v-1.389h0.632v-0.632h0.632v-1.389h0.632v-0.632h0.632v-1.389h0.632v-0.632h0.632v-1.389h0.632v-0.632h0.632v-1.389h0.632v-0.632h0.632v-1.389h0.632v-0.632h0.632v-1.389h0.632v-0.632h0.632v-1.389h0.632v-0.632h0.632v-1.389h0.632v-1.389h0.632v-0.632h0.632v-1.389h0.632v-0.632h0.632v-1.389h0.632v-0.632h0.632v-1.389h0.632v-0.632h0.632v-1.389h0.632v-0.632h0.632v-1.389h0.632v-0.632h0.632v-1.389h0.632v-0.632h0.632v-1.389h0.632v-0.632h0.632v-1.389h0.632v-0.632h0.632v-1.389h0.632v-0.632h0.632v-1.389h0.632v-0.632h0.632v-1.389h0.632v-0.632h0.632v-1.389h0.632v-0.632h0.632v-1.389h0.632v-0.632h0.632v-1.389h0.632v-0.632h0.632v-1.389h0.632v-0.632h0.632v-1.389h0.632v-1.389h0.632v-0.632h0.632v-1.389h0.632v-0.632h0.632v-1.389h0.632v-0.632h0.632v-1.389h0.632v-0.632h0.632v-1.389h0.632v-0.632h0.632v-1.389h0.632v-0.632h0.632v-1.389h0.632v-0.632h0.632v-1.389h0.632v-0.632h0.632v-1.389h0.632v-0.632h0.632v-1.389h0.632v-0.632h0.632v-1.389h0.632v-0.632h0.632v-1.389h0.632v-0.632h0.632v-1.389h0.632v-0.632h0.632v-1.389h0.632v-0.632h0.632v-1.389h0.632v-0.632h0.632v-1.389h0.632v-0.632h0.632v-1.389h0.632v-0.632h0.632v-1.389h0.632v-1.389h0.632v-0.632h0.632v-1.389h0.632v-0.632h0.632v-1.389h0.632v-0.632h0.632v-1.389h0.632v-0.632h0.632v-1.389h0.632v-0.632h0.632v-1.389h0.632v-0.632h0.632v-1.389h0.632v-0.632h0.632v-1.389h0.632v-0.632h0.632v-1.389h0.632v-0.632h0.632v-1.389h0.632v-0.632h0.632v-1.389h0.632v-0.632h0.632v-1.389h0.632v-0.632h0.632v-1.389h0.632v-0.632h0.632v-1.389h0.632v-0.632h0.632v-1.389h0.632v-0.632h0.632v-1.389h0.632v-0.632h0.632v-1.389h0.632v-0.632h0.632v-1.389h0.632v-1.389h0.632v-0.632h0.632v-1.389h0.632v-0.632h0.632v-1.389h0.632v-0.632h0.632v-1.389h0.632v-0.632h0.632v-1.389h0.632v-0.632h0.632v-1.389h0.632v-0.632h0.632v-1.389h0.632v-0.632h0.632v-1.389h0.632v-0.632h0.632v-1.389h0.632v-0.632h0.632v-1.389h0.632v-0.632h0.632v-1.389h0.632v-0.632h0.632v-1.389h0.632v-0.632h0.632v-1.389h0.632v-0.632h0.632v-1.389h0.632v-0.632h0.632v-1.389h0.632v-0.632h0.632v-1.389h0.632v-0.632h0.632v-1.389h0.632v-0.632h0.632v-1.389h0.632v-1.389h0.632v-0.632h0.632v-1.389h0.632v-0.632h0.632v-1.389h0.632v-0.632h0.632v-1.389h0.632v-0.632h0.632v-1.389h0.632v-0.632h0.632v-1.389h0.632v-0.632h0.632v-1.389h0.632v-0.632h0.632v-1.389h0.632v-0.632h0.632v-1.389h0.632v-0.632h0.632v-1.389h0.632v-0.632h0.632v-1.389h0.632v-0.632h0.632v-1.389h0.632v-0.632h0.632v-1.389h0.632v-0.632h0.632v-1.389h0.632v-0.632h0.632v-1.389h0.632v-0.632h0.632v-1.389h0.632v-1.389h-518.635v1.389zM535.936 765.75h0.632v3.284h0.632v5.936h0.632v2.653h0.632v2.021h0.632v3.284h0.632v1.389h0.632v2.021h0.632v2.021h0.632v1.389h0.632v2.021h0.632v1.389h0.632v1.389h0.632v1.389h0.632v1.389h0.632v1.389h0.632v1.389h0.632v1.389h0.632v0.632h0.632v1.389h0.632v0.632h0.632v1.389h0.632v0.632h0.632v1.389h0.632v0.632h0.632v1.389h0.632v0.632h0.632v0.632h0.632v0.632h0.632v1.389h0.632v0.632h0.632v0.632h0.632v0.632h0.632v0.632h0.632v0.632h0.632v0.632h0.632v0.632h0.632v0.632h0.632v0.632h0.632v0.632h0.632v0.632h0.632v0.632h0.632v0.632h0.632v0.632h0.632v0.632h0.632v0.632h1.389v0.632h0.632v0.632h0.632v0.632h1.389v0.632h0.632v0.632h0.632v0.632h1.389v0.632h0.632v0.632h1.389v0.632h0.632v0.632h1.389v0.632h1.389v0.632h0.632v0.632h1.389v0.632h1.389v0.632h1.389v0.632h1.389v0.632h1.389v0.632h1.389v0.632h2.021v0.632h1.389v0.632h2.021v0.632h2.021v0.632h2.021v0.632h2.021v0.632h4.043v0.632h2.021v0.632h5.936v0.632h21.979v-0.632h4.043v-0.632h2.653v-0.632h2.653v-0.632h2.653v-0.632h1.389v-0.632h2.021v-0.632h2.021v-0.632h2.021v-0.632h1.389v-0.632h1.389v-0.632h2.021v-0.632h1.389v-0.632h1.389v-0.632h0.632v-0.632h1.389v-0.632h1.389v-0.632h1.389v-0.632h0.632v-0.632h1.389v-0.632h0.632v-0.632h1.389v-0.632h0.632v-0.632h1.389v-0.632h0.632v-0.632h0.632v-0.632h1.389v-0.632h0.632v-0.632h0.632v-0.632h0.632v-0.632h0.632v-0.632h1.389v-0.632h0.632v-0.632h0.632v-0.632h0.632v-0.632h0.632v-0.632h0.632v-0.632h0.632v-0.632h0.632v-0.632h0.632v-0.632h0.632v-0.632h0.632v-1.389h0.632v-0.632h0.632v-0.632h0.632v-0.632h0.632v-0.632h0.632v-1.389h0.632v-0.632h0.632v-0.632h0.632v-1.389h0.632v-0.632h0.632v-1.389h0.632v-0.632h0.632v-1.389h0.632v-0.632h0.632v-1.389h0.632v-1.389h0.632v-1.389h0.632v-1.389h0.632v-1.389h0.632v-1.389h0.632v-1.389h0.632v-1.389h0.632v-2.021h0.632v-1.389h0.632v-2.021h0.632v-2.021h0.632v-2.021h0.632v-3.284h0.632v-1.389h0.632v-4.675h0.632v-4.675h0.632v-18.568h-0.632v-4.675h-0.632v-2.653h-0.632v-3.284h-0.632v-2.653h-0.632v-2.653h-0.632v-2.021h-0.632v-2.021h-0.632v-1.389h-0.632v-2.021h-0.632v-1.389h-0.632v-1.389h-0.632v-1.389h-0.632v-1.389h-0.632v-1.389h-0.632v-1.389h-0.632v-1.389h-0.632v-0.632h-0.632v-1.389h-0.632v-1.389h-0.632v-0.632h-0.632v-1.389h-0.632v-0.632h-0.632v-1.389h-0.632v-0.632h-0.632v-0.632h-0.632v-0.632h-0.632v-1.389h-0.632v-0.632h-0.632v-0.632h-0.632v-0.632h-0.632v-0.632h-0.632v-1.389h-0.632v-0.632h-0.632v-0.632h-0.632v-0.632h-0.632v-0.632h-0.632v-0.632h-0.632v-0.632h-0.632v-0.632h-0.632v-0.632h-1.389v-0.632h-0.632v-0.632h-0.632v-0.632h-0.632v-0.632h-0.632v-0.632h-0.632v-0.632h-1.389v-0.632h-0.632v-0.632h-0.632v-0.632h-1.389v-0.632h-0.632v-0.632h-1.389v-0.632h-0.632v-0.632h-1.389v-0.632h-0.632v-0.632h-1.389v-0.632h-1.389v-0.632h-1.389v-0.632h-1.389v-0.632h-1.389v-0.632h-1.389v-0.632h-1.389v-0.632h-1.389v-0.632h-2.021v-0.632h-1.389v-0.632h-2.021v-0.632h-2.021v-0.632h-2.653v-0.632h-1.389v-0.632h-2.653v-0.632h-3.284v-0.632h-4.673v-0.632h-20.589v0.632h-4.673v0.632h-4.041v0.632h-2.021v0.632h-2.653v0.632h-2.653v0.632h-2.021v0.632h-1.389v0.632h-2.021v0.632h-1.389v0.632h-2.021v0.632h-1.389v0.632h-1.389v0.632h-1.389v0.632h-1.389v0.632h-1.389v0.632h-0.632v0.632h-1.389v0.632h-1.389v0.632h-0.632v0.632h-1.389v0.632h-0.632v0.632h-1.389v0.632h-0.632v0.632h-0.632v0.632h-1.389v0.632h-0.632v0.632h-0.632v0.632h-0.632v0.632h-1.389v0.632h-0.632v0.632h-0.632v0.632h-0.632v0.632h-0.632v0.632h-0.632v0.632h-0.632v0.632h-0.632v0.632h-0.632v0.632h-0.632v0.632h-0.632v0.632h-0.632v0.632h-0.632v0.632h-0.632v0.632h-0.632v1.389h-0.632v0.632h-0.632v0.632h-0.632v0.632h-0.632v1.389h-0.632v0.632h-0.632v0.632h-0.632v1.389h-0.632v0.632h-0.632v1.389h-0.632v0.632h-0.632v1.389h-0.632v1.389h-0.632v0.632h-0.632v1.389h-0.632v1.389h-0.632v1.389h-0.632v1.389h-0.632v1.389h-0.632v1.389h-0.632v2.021h-0.632v1.389h-0.632v2.021h-0.632v2.021h-0.632v2.653h-0.632v1.389h-0.632v2.653h-0.632v2.653h-0.632v5.936h-0.632v3.284h-0.632v14.652zM956.807-75.989v879.632h-63.156v-816.477l-698.376 7.583v0.632h-1.389v0.632h-1.389v0.632h-1.389v0.632h-1.389v0.632h-1.389v0.632h-1.389v0.632h-1.389v0.632h-0.632v0.632h-1.389v0.632h-1.389v0.632h-0.632v0.632h-1.389v0.632h-0.632v0.632h-0.632v0.632h-1.389v0.632h-0.632v0.632h-0.632v0.632h-1.389v0.632h-0.632v0.632h-0.632v0.632h-0.632v0.632h-0.632v0.632h-1.389v0.632h-0.632v0.632h-0.632v0.632h-0.632v0.632h-0.632v0.632h-0.632v0.632h-0.632v0.632h-0.632v0.632h-0.632v0.632h-0.632v0.632h-0.632v0.632h-0.632v0.632h-0.632v1.389h-0.632v0.632h-0.632v0.632h-0.632v0.632h-0.632v0.632h-0.632v1.389h-0.632v0.632h-0.632v0.632h-0.632v1.389h-0.632v0.632h-0.632v0.632h-0.632v1.389h-0.632v0.632h-0.632v1.389h-0.632v1.389h-0.632v0.632h-0.632v1.389h-0.632v1.389h-0.632v1.389h-0.632v1.389h-0.632v0.632h-0.632v2.021h-0.632v1.389h-0.632v1.389h-0.632v1.389h-0.632v2.021h-0.632v1.389h-0.632v2.021h-0.632v2.021h-0.632v2.021h-0.632v2.653h-0.632v2.653h-0.632v3.284h-0.632v3.284h-0.632v5.305h-0.632v18.568h0.632v5.305h0.632v4.043h0.632v3.284h0.632v2.653h0.632v2.021h0.632v2.021h0.632v2.021h0.632v2.021h0.632v2.021h0.632v1.389h0.632v2.021h0.632v1.389h0.632v1.389h0.632v1.389h0.632v1.389h0.632v1.389h0.632v1.389h0.632v1.389h0.632v0.632h0.632v1.389h0.632v1.389h0.632v0.632h0.632v1.389h0.632v0.632h0.632v1.389h0.632v0.632h0.632v0.632h0.632v1.389h0.632v0.632h0.632v0.632h0.632v1.389h0.632v0.632h0.632v0.632h0.632v0.632h0.632v0.632h0.632v0.632h0.632v0.632h0.632v1.389h0.632v0.632h0.632v0.632h0.632v0.632h0.632v0.632h0.632v0.632h0.632v0.632h1.389v0.632h0.632v0.632h0.632v0.632h0.632v0.632h0.632v0.632h0.632v0.632h1.389v0.632h0.632v0.632h0.632v0.632h0.632v0.632h1.389v0.632h0.632v0.632h1.389v0.632h0.632v0.632h0.632v0.632h1.389v0.632h1.389v0.632h0.632v0.632h1.389v0.632h1.389v0.632h0.632v0.632h1.389v0.632h1.389v0.632h1.389v0.632h1.389v0.632h2.021v0.632h1.389v0.632h1.389v0.632h2.021v0.632h1.389v0.632h2.021v0.632h2.021v0.632h2.653v0.632h2.653v0.632h2.653v0.632h3.284v0.632h4.041v0.632h6.695v0.632h603.009v753.953l-673.746-7.583v-0.632h-2.021v-0.632h-1.389v-0.632h-1.389v-0.632h-2.021v-0.632h-1.389v-0.632h-1.389v-0.632h-1.389v-0.632h-1.389v-0.632h-1.389v-0.632h-1.389v-0.632h-1.389v-0.632h-0.632v-0.632h-1.389v-0.632h-1.389v-0.632h-0.632v-0.632h-1.389v-0.632h-1.389v-0.632h-0.632v-0.632h-1.389v-0.632h-0.632v-0.632h-1.389v-0.632h-0.632v-0.632h-0.632v-0.632h-1.389v-0.632h-0.632v-0.632h-0.632v-0.632h-1.389v-0.632h-0.632v-0.632h-0.632v-0.632h-1.389v-0.632h-0.632v-0.632h-0.632v-0.632h-0.632v-0.632h-0.632v-0.632h-0.632v-0.632h-0.632v-0.632h-1.389v-0.632h-0.632v-0.632h-0.632v-0.632h-0.632v-0.632h-0.632v-0.632h-0.632v-0.632h-0.632v-0.632h-0.632v-0.632h-0.632v-0.632h-0.632v-0.632h-0.632v-0.632h-0.632v-0.632h-0.632v-1.389h-0.632v-0.632h-0.632v-0.632h-0.632v-0.632h-0.632v-0.632h-0.632v-0.632h-0.632v-0.632h-0.632v-1.389h-0.632v-0.632h-0.632v-0.632h-0.632v-1.389h-0.632v-0.632h-0.632v-0.632h-0.632v-1.389h-0.632v-0.632h-0.632v-0.632h-0.632v-1.389h-0.632v-0.632h-0.632v-1.389h-0.632v-0.632h-0.632v-1.389h-0.632v-1.389h-0.632v-0.632h-0.632v-1.389h-0.632v-1.389h-0.632v-0.632h-0.632v-1.389h-0.632v-1.389h-0.632v-1.389h-0.632v-1.389h-0.632v-1.389h-0.632v-1.389h-0.632v-1.389h-0.632v-2.021h-0.632v-1.389h-0.632v-1.389h-0.632v-2.021h-0.632v-1.389h-0.632v-2.021h-0.632v-2.021h-0.632v-2.021h-0.632v-2.021h-0.632v-2.653h-0.632v-2.653h-0.632v-2.653h-0.632v-2.653h-0.632v-4.041h-0.632v-4.043h-0.632v-5.936h-0.632v-776.563h0.632v-5.936h0.632v-4.043h0.632v-4.041h0.632v-2.653h0.632v-2.653h0.632v-2.653h0.632v-2.653h0.632v-2.021h0.632v-2.021h0.632v-2.021h0.632v-1.389h0.632v-2.021h0.632v-2.021h0.632v-1.389h0.632v-1.389h0.632v-2.021h0.632v-1.389h0.632v-1.389h0.632v-1.389h0.632v-1.389h0.632v-1.389h0.632v-1.389h0.632v-0.632h0.632v-1.389h0.632v-1.389h0.632v-1.389h0.632v-0.632h0.632v-1.389h0.632v-0.632h0.632v-1.389h0.632v-1.389h0.632v-0.632h0.632v-0.632h0.632v-1.389h0.632v-0.632h0.632v-1.389h0.632v-0.632h0.632v-0.632h0.632v-1.389h0.632v-0.632h0.632v-0.632h0.632v-0.632h0.632v-1.389h0.632v-0.632h0.632v-0.632h0.632v-0.632h0.632v-0.632h0.632v-0.632h0.632v-0.632h0.632v-1.389h0.632v-0.632h0.632v-0.632h0.632v-0.632h0.632v-0.632h0.632v-0.632h0.632v-0.632h0.632v-0.632h0.632v-0.632h0.632v-0.632h0.632v-0.632h1.389v-0.632h0.632v-0.632h0.632v-0.632h0.632v-0.632h0.632v-0.632h0.632v-0.632h0.632v-0.632h1.389v-0.632h0.632v-0.632h0.632v-0.632h0.632v-0.632h1.389v-0.632h0.632v-0.632h0.632v-0.632h1.389v-0.632h0.632v-0.632h1.389v-0.632h0.632v-0.632h1.389v-0.632h0.632v-0.632h1.389v-0.632h0.632v-0.632h1.389v-0.632h0.632v-0.632h1.389v-0.632h1.389v-0.632h1.389v-0.632h0.632v-0.632h1.389v-0.632h1.389v-0.632h1.389v-0.632h1.389v-0.632h1.389v-0.632h2.021v-0.632h1.389v-0.632h1.389v-0.632h2.021v-0.632h1.389v-0.632h2.021v-0.632h1.389v-0.632h2.021v-0.632h2.021v-0.632h2.653v-0.632h2.021v-0.632h2.653v-0.632h2.653v-0.632h3.284v-0.632h3.284v-0.632h4.675v-0.632h5.936v-0.632h764.563zM275.864 48.136h541.812v43.659h-541.812z" />
<glyph unicode="&#xe917;" glyph-name="qrcode1" d="M320 874.667h-256v-256h256v256zM384 938.667v0-384h-384v384h384zM128 810.667h128v-128h-128zM960 874.667h-256v-256h256v256zM1024 938.667v0-384h-384v384h384zM768 810.667h128v-128h-128zM320 234.667h-256v-256h256v256zM384 298.667v0-384h-384v384h384zM128 170.667h128v-128h-128zM448 938.667h64v-64h-64zM512 874.667h64v-64h-64zM448 810.667h64v-64h-64zM512 746.667h64v-64h-64zM448 682.667h64v-64h-64zM512 618.667h64v-64h-64zM448 554.667h64v-64h-64zM448 426.667h64v-64h-64zM512 362.667h64v-64h-64zM448 298.667h64v-64h-64zM512 234.667h64v-64h-64zM448 170.667h64v-64h-64zM512 106.667h64v-64h-64zM448 42.667h64v-64h-64zM512-21.333h64v-64h-64zM960 426.667h64v-64h-64zM64 426.667h64v-64h-64zM128 490.667h64v-64h-64zM0 490.667h64v-64h-64zM256 490.667h64v-64h-64zM320 426.667h64v-64h-64zM384 490.667h64v-64h-64zM576 426.667h64v-64h-64zM640 490.667h64v-64h-64zM704 426.667h64v-64h-64zM768 490.667h64v-64h-64zM832 426.667h64v-64h-64zM896 490.667h64v-64h-64zM960 298.667h64v-64h-64zM576 298.667h64v-64h-64zM640 362.667h64v-64h-64zM704 298.667h64v-64h-64zM832 298.667h64v-64h-64zM896 362.667h64v-64h-64zM960 170.667h64v-64h-64zM576 170.667h64v-64h-64zM640 234.667h64v-64h-64zM768 234.667h64v-64h-64zM832 170.667h64v-64h-64zM896 234.667h64v-64h-64zM960 42.667h64v-64h-64zM640 106.667h64v-64h-64zM704 42.667h64v-64h-64zM768 106.667h64v-64h-64zM832 42.667h64v-64h-64zM640-21.333h64v-64h-64zM768-21.333h64v-64h-64zM896-21.333h64v-64h-64z" />
<glyph unicode="&#xe918;" glyph-name="map2" d="M0 746.667l320 128v-768l-320-128zM384 906.667l320-192v-736l-320 160zM768 714.667l256 192v-768l-256-192z" />
<glyph unicode="&#xe919;" glyph-name="calendar" d="M109.714-12.19h164.571v164.571h-164.571v-164.571zM310.857-12.19h182.857v164.571h-182.857v-164.571zM109.714 188.953h164.571v182.857h-164.571v-182.857zM310.857 188.953h182.857v182.857h-182.857v-182.857zM109.714 408.381h164.571v164.571h-164.571v-164.571zM530.286-12.19h182.857v164.571h-182.857v-164.571zM310.857 408.381h182.857v164.571h-182.857v-164.571zM749.714-12.19h164.571v164.571h-164.571v-164.571zM530.286 188.953h182.857v182.857h-182.857v-182.857zM329.143 682.667v164.571c0 9.714-8.571 18.286-18.286 18.286h-36.571c-9.714 0-18.286-8.571-18.286-18.286v-164.571c0-9.714 8.571-18.286 18.286-18.286h36.571c9.714 0 18.286 8.571 18.286 18.286zM749.714 188.953h164.571v182.857h-164.571v-182.857zM530.286 408.381h182.857v164.571h-182.857v-164.571zM749.714 408.381h164.571v164.571h-164.571v-164.571zM768 682.667v164.571c0 9.714-8.571 18.286-18.286 18.286h-36.571c-9.714 0-18.286-8.571-18.286-18.286v-164.571c0-9.714 8.571-18.286 18.286-18.286h36.571c9.714 0 18.286 8.571 18.286 18.286zM987.429 719.238v-731.429c0-40-33.143-73.143-73.143-73.143h-804.571c-40 0-73.143 33.143-73.143 73.143v731.429c0 40 33.143 73.143 73.143 73.143h73.143v54.857c0 50.286 41.143 91.429 91.429 91.429h36.571c50.286 0 91.429-41.143 91.429-91.429v-54.857h219.429v54.857c0 50.286 41.143 91.429 91.429 91.429h36.571c50.286 0 91.429-41.143 91.429-91.429v-54.857h73.143c40 0 73.143-33.143 73.143-73.143z" />
<glyph unicode="&#xe91a;" glyph-name="templates" d="M409.972 896.002h-367.306v-428.523h428.523v428.523zM920.118 896.002h-367.306v-428.523h428.523v428.523zM409.972 385.855h-367.306v-428.523h428.523v428.523zM920.118 385.855h-367.306v-428.523h428.523v428.523z" />
<glyph unicode="&#xe91b;" glyph-name="background-color" d="M543.152 343.902l-126.268 126.268 243.097 204.243 87.414-87.414-204.243-243.097zM958.597 891.672c-1.065 6.349-2.14 11.371-3.134 15.324-2.715-3.377-6.047-7.818-10.089-13.668-20.431-29.572-47.899-46.551-79.424-49.11-4.376-0.353-8.863-0.535-13.345-0.535-16.863 0-31.863 2.519-45.097 4.734-10.867 1.822-21.128 3.543-30.637 3.543-11.992 0-27.114-2.322-48.333-19.543-37.663-30.566-40.671-92.143-40.424-114.78l99.219-99.219c2.569-0.182 5.784-0.323 9.534-0.323 26.766 0 78.793 7.122 126.485 54.813 54.677 54.682 47.555 145.634 35.245 218.764zM910.679-3.486c-1.393-1.393-2.796-2.771-4.204-4.139-28.764-27.871-66.695-43.225-106.785-43.225-41.075 0-79.691 15.99-108.733 45.032l-109.47 109.47c-19.488 19.488-45.395 30.218-72.953 30.218s-53.466-10.73-72.953-30.218l-29.92-29.92c-28.896-28.896-67.3-44.81-108.148-44.81-0.005 0-0.005 0-0.010 0-16.772 0-33.090 2.746-48.489 7.96 70.894 63.409 153.417 144.816 246.16 237.625l18.715 18.725c1.449 1.449 2.837 2.857 4.265 4.295l8.782-8.782c4.744-4.739 11.165-7.389 17.842-7.389 0.363 0 0.732 0.005 1.095 0.025 7.066 0.308 13.678 3.563 18.231 8.979l232.957 277.272c27.81 0.025 76.461 5.931 125.864 39.581 136.12-207.604 137.402-461.048-12.245-610.699zM922.58 300.087c0 13.936-5.426 27.033-15.278 36.885-9.857 9.857-22.955 15.278-36.89 15.278s-27.033-5.426-36.89-15.278c-20.34-20.34-20.34-53.435 0-73.776 9.852-9.852 22.955-15.278 36.89-15.278s27.033 5.426 36.885 15.278c9.862 9.857 15.283 22.96 15.283 36.89zM106.558 174.995c-141.53 209.088-144.867 467.256 6.758 618.881 73.337 73.337 176.352 113.725 290.072 113.725 89.352 0 180.268-24.070 264.679-68.416-26.427-41.261-30.425-91.759-30.486-117.672l-274.238-230.408c-5.416-4.548-8.671-11.16-8.979-18.231-0.308-7.066 2.367-13.936 7.364-18.937l8.782-8.782c-1.433-1.428-2.837-2.806-4.295-4.265-14.96-14.96-30.39-30.309-46.077-45.92-83.921-83.487-156.46-156.743-213.58-219.975zM415.128 733.783c0-13.936 5.426-27.033 15.278-36.885 9.857-9.857 22.955-15.278 36.89-15.278s27.033 5.426 36.885 15.278c9.857 9.857 15.278 22.955 15.278 36.89s-5.426 27.033-15.278 36.89c-9.852 9.852-22.95 15.278-36.885 15.278s-27.033-5.426-36.885-15.278c-9.857-9.862-15.283-22.965-15.283-36.896zM134.469 629.057c0-16.964 6.607-32.913 18.604-44.911 11.992-11.997 27.947-18.604 44.911-18.604s32.913 6.607 44.911 18.604c11.997 11.992 18.604 27.947 18.604 44.911s-6.607 32.913-18.604 44.911-27.947 18.604-44.911 18.604-32.913-6.607-44.911-18.604c-11.992-11.992-18.604-27.942-18.604-44.911zM459.458 310.186l18.73 18.741c1.449 1.449 2.837 2.857 4.265 4.295l-76.249 76.249c-1.438-1.428-2.837-2.806-4.295-4.265-14.995-14.99-30.45-30.369-46.167-46.006-87.595-87.151-186.88-185.926-254.761-267.53-101.208-121.675-81.145-144.71-80.928-144.927 0.858-0.878 3.291-1.009 4.664-1.009 16.439 0 61.456 15.308 178.264 117.849 81.811 71.813 174.605 164.677 256.477 246.605z" />
<glyph unicode="&#xe91c;" glyph-name="settings" d="M477.867 426.667c0 75.2-61.333 136.533-136.533 136.533s-136.533-61.333-136.533-136.533 61.333-136.533 136.533-136.533 136.533 61.333 136.533 136.533zM887.467 153.6c0 37.333-30.933 68.267-68.267 68.267s-68.267-30.933-68.267-68.267c0-37.867 30.933-68.267 68.267-68.267 37.867 0 68.267 30.933 68.267 68.267zM887.467 699.734c0 37.333-30.933 68.267-68.267 68.267s-68.267-30.933-68.267-68.267c0-37.867 30.933-68.267 68.267-68.267 37.867 0 68.267 30.933 68.267 68.267zM682.667 475.2v-98.667c0-6.933-5.333-14.933-12.267-16l-82.667-12.8c-4.267-13.867-10.133-27.2-17.067-40.533 14.933-21.333 30.933-41.067 48-61.333 2.133-3.2 3.733-6.4 3.733-10.667 0-3.733-1.067-7.467-3.733-10.133-10.667-14.4-70.4-79.467-85.867-79.467-4.267 0-8 1.6-11.2 3.733l-61.333 48c-13.333-6.933-26.667-12.267-41.067-16.533-2.667-27.2-5.333-56.533-12.267-82.667-2.133-7.467-8.533-12.8-16-12.8h-99.2c-7.467 0-14.933 5.867-16 13.333l-12.267 81.6c-13.867 4.267-27.2 10.133-40 16.533l-62.933-47.467c-2.667-2.667-6.933-3.733-10.667-3.733-4.267 0-8 1.6-11.2 4.267-13.867 12.8-76.8 69.867-76.8 85.333 0 3.733 1.6 6.933 3.733 10.133 15.467 20.267 31.467 40 46.933 60.8-7.467 14.4-13.867 28.8-18.667 43.733l-81.067 12.8c-7.467 1.067-12.8 8-12.8 15.467v98.667c0 6.933 5.333 14.933 12.267 16l82.667 12.8c4.267 13.867 10.133 27.2 17.067 40.533-14.933 21.333-30.933 41.067-48 61.333-2.133 3.2-3.733 6.933-3.733 10.667s1.067 7.467 3.733 10.667c10.667 14.4 70.4 78.933 85.867 78.933 4.267 0 8-1.6 11.2-3.733l61.333-48c13.333 6.933 26.667 12.267 41.067 17.067 2.667 26.667 5.333 56 12.267 82.133 2.133 7.467 8.533 12.8 16 12.8h99.2c7.467 0 14.933-5.867 16-13.333l12.267-81.6c13.867-4.267 27.2-10.133 40-16.533l62.933 47.467c3.2 2.667 6.933 3.733 10.667 3.733 4.267 0 8-1.6 11.2-4.267 13.867-12.8 76.8-70.4 76.8-85.333 0-3.733-1.6-6.933-3.733-10.133-15.467-20.8-31.467-40-46.4-60.8 6.933-14.4 13.333-28.8 18.133-43.733l81.067-12.267c7.467-1.6 12.8-8.533 12.8-16zM1024 190.934v-74.667c0-8-68.8-15.467-79.467-16.533-4.267-10.133-9.6-19.2-16-27.733 4.8-10.667 27.2-64 27.2-73.6 0-1.6-0.533-2.667-2.133-3.733-6.4-3.733-63.467-37.867-66.133-37.867-6.933 0-46.933 53.333-52.267 61.333-5.333-0.533-10.667-1.067-16-1.067s-10.667 0.533-16 1.067c-5.333-8-45.333-61.333-52.267-61.333-2.667 0-59.733 34.133-66.133 37.867-1.6 1.067-2.133 2.667-2.133 3.733 0 9.067 22.4 62.933 27.2 73.6-6.4 8.533-11.733 17.6-16 27.733-10.667 1.067-79.467 8.533-79.467 16.533v74.667c0 8 68.8 15.467 79.467 16.533 4.267 9.6 9.6 19.2 16 27.733-4.8 10.667-27.2 64.533-27.2 73.6 0 1.067 0.533 2.667 2.133 3.733 6.4 3.2 63.467 37.333 66.133 37.333 6.933 0 46.933-52.8 52.267-60.8 5.333 0.533 10.667 1.067 16 1.067s10.667-0.533 16-1.067c14.933 20.8 30.933 41.6 49.067 59.733l3.2 1.067c2.667 0 59.733-33.6 66.133-37.333 1.6-1.067 2.133-2.667 2.133-3.733 0-9.6-22.4-62.933-27.2-73.6 6.4-8.533 11.733-18.133 16-27.733 10.667-1.067 79.467-8.533 79.467-16.533zM1024 737.067v-74.667c0-8-68.8-15.467-79.467-16.533-4.267-10.133-9.6-19.2-16-27.733 4.8-10.667 27.2-64 27.2-73.6 0-1.6-0.533-2.667-2.133-3.733-6.4-3.733-63.467-37.867-66.133-37.867-6.933 0-46.933 53.333-52.267 61.333-5.333-0.533-10.667-1.067-16-1.067s-10.667 0.533-16 1.067c-5.333-8-45.333-61.333-52.267-61.333-2.667 0-59.733 34.133-66.133 37.867-1.6 1.067-2.133 2.667-2.133 3.733 0 9.067 22.4 62.933 27.2 73.6-6.4 8.533-11.733 17.6-16 27.733-10.667 1.067-79.467 8.533-79.467 16.533v74.667c0 8 68.8 15.467 79.467 16.533 4.267 9.6 9.6 19.2 16 27.733-4.8 10.667-27.2 64.533-27.2 73.6 0 1.067 0.533 2.667 2.133 3.733 6.4 3.2 63.467 37.333 66.133 37.333 6.933 0 46.933-52.8 52.267-60.8 5.333 0.533 10.667 1.067 16 1.067s10.667-0.533 16-1.067c14.933 20.8 30.933 41.6 49.067 59.733l3.2 1.067c2.667 0 59.733-33.6 66.133-37.333 1.6-1.067 2.133-2.667 2.133-3.733 0-9.6-22.4-62.933-27.2-73.6 6.4-8.533 11.733-18.133 16-27.733 10.667-1.067 79.467-8.533 79.467-16.533z" />
<glyph unicode="&#xe91d;" glyph-name="reset" d="M907.729 426.667c0-218.215-177.977-396.192-396.192-396.192-118.135 0-229.565 52.104-304.881 142.897-5.157 6.707-4.643 16.508 1.031 22.183l70.676 71.191c3.612 3.095 8.255 4.643 12.897 4.643 4.643-0.515 9.285-2.579 11.865-6.191 50.556-65.515 126.391-102.659 208.413-102.659 145.477 0 264.128 118.652 264.128 264.128s-118.652 264.128-264.128 264.128c-67.579 0-131.548-25.793-179.525-70.676l70.676-71.191c9.801-9.285 12.38-23.731 7.221-35.595-5.159-12.38-17.023-20.635-30.436-20.635h-231.112c-18.056 0-33.015 14.96-33.015 33.015v231.112c0 13.413 8.255 25.277 20.635 30.436 11.865 5.157 26.309 2.579 35.595-7.223l67.064-66.548c72.739 68.612 171.271 109.367 272.899 109.367 218.215 0 396.192-177.977 396.192-396.192z" />
<glyph unicode="&#xe91e;" glyph-name="floppy-o" d="M308.571 76.953h438.857v219.429h-438.857v-219.429zM820.571 76.953h73.143v512c0 10.857-9.714 34.286-17.143 41.714l-160.571 160.571c-8 8-30.286 17.143-41.714 17.143v-237.714c0-30.286-24.571-54.857-54.857-54.857h-329.143c-30.286 0-54.857 24.571-54.857 54.857v237.714h-73.143v-731.429h73.143v237.714c0 30.286 24.571 54.857 54.857 54.857h475.429c30.286 0 54.857-24.571 54.857-54.857v-237.714zM601.143 607.238v182.857c0 9.714-8.571 18.286-18.286 18.286h-109.714c-9.714 0-18.286-8.571-18.286-18.286v-182.857c0-9.714 8.571-18.286 18.286-18.286h109.714c9.714 0 18.286 8.571 18.286 18.286zM966.857 588.953v-530.286c0-30.286-24.571-54.857-54.857-54.857h-768c-30.286 0-54.857 24.571-54.857 54.857v768c0 30.286 24.571 54.857 54.857 54.857h530.286c30.286 0 72-17.143 93.714-38.857l160-160c21.714-21.714 38.857-63.429 38.857-93.714z" />
<glyph unicode="&#xe91f;" glyph-name="shopping_cart" d="M726 170.667c46 0 84-40 84-86s-38-84-84-84-86 38-86 84 40 86 86 86zM42 852.667h140l40-84h632c24 0 42-20 42-44 0-8-2-14-6-20l-152-276c-14-26-42-44-74-44h-318l-38-70-2-6c0-6 4-10 10-10h494v-86h-512c-46 0-84 40-84 86 0 14 4 28 10 40l58 106-154 324h-86v84zM298 170.667c46 0 86-40 86-86s-40-84-86-84-84 38-84 84 38 86 84 86z" />
<glyph unicode="&#xe920;" glyph-name="format_bold" d="M576 276.667c36 0 64 28 64 64s-28 64-64 64h-150v-128h150zM426 660.667v-128h128c36 0 64 28 64 64s-28 64-64 64h-128zM666 478.667c56-26 92-82 92-146 0-90-68-162-158-162h-302v598h268c96 0 170-76 170-172 0-44-28-90-70-118z" />
<glyph unicode="&#xe921;" glyph-name="format_italic" d="M426 768.667h342v-128h-120l-144-342h94v-128h-342v128h120l144 342h-94v128z" />
<glyph unicode="&#xe922;" glyph-name="format_underlined" d="M214 128.667h596v-86h-596v86zM512 212.667c-142 0-256 114-256 256v342h106v-342c0-82 68-148 150-148s150 66 150 148v342h106v-342c0-142-114-256-256-256z" />
<glyph unicode="&#xe923;" glyph-name="strikethrough_s" d="M400 336.001c0-76.243 48.309-108 124-108 52.313 0 98 21.34 98 72 0 47.832-25.371 58.685-60 76-6 2-16 6-24 8h-410v86h768v-86h-166c2-4 6-10 8-14 8-20 14-44 14-70 0-92.509-60.376-138.965-134-160-28-8-58-12-92-12-20 0-42 2-62 6-43.831 8.765-81.207 20.905-112 44-45.673 34.255-78 79.827-78 158h126zM622 576.001c0 61.553-39.204 90-102 90-45.147 0-79.257-14.515-94-44-4-8-6-18-6-28 0-20 12-38 32-52 16-10 32-20 60-30h-196c-2 4-6 6-8 10-12 20-16 44-16 72 0 57.483 29.861 98.689 64 126 41.083 28.759 95.625 48 166 48 70.131 0 128.265-20.039 166-54 35.121-31.608 62-75.895 62-138h-128z" />
<glyph unicode="&#xe924;" glyph-name="overline" d="M786.142 769.344h-548.283v84.661h548.283zM241.89 337.974c0 64.504 8.063 116.913 24.189 161.26 12.094 32.252 28.22 60.472 52.409 84.661 20.157 24.189 44.346 44.346 72.567 56.441 36.283 16.126 76.598 24.189 120.945 24.189 80.63 0 149.165-28.22 197.543-84.661s72.567-137.071 72.567-237.858c0-100.787-24.189-181.417-72.567-237.858s-112.882-84.661-197.543-84.661c-84.661 0-149.165 28.22-197.543 84.661s-72.567 137.071-72.567 233.827zM358.803 342.006c0-72.567 16.126-124.976 44.346-161.26s68.535-56.441 112.882-56.441c44.346 0 80.63 20.157 112.882 56.441 28.22 36.283 40.315 88.693 40.315 161.26s-12.094 129.008-40.315 161.26c-28.22 36.283-64.504 52.409-112.882 52.409s-84.661-16.126-112.882-52.409c-28.22-36.283-44.346-88.693-44.346-161.26z" />
<glyph unicode="&#xe925;" glyph-name="format_align_left" d="M128 810.667h768v-86h-768v86zM128 42.667v86h768v-86h-768zM128 384.667v84h768v-84h-768zM640 640.667v-86h-512v86h512zM640 298.667v-86h-512v86h512z" />
<glyph unicode="&#xe926;" glyph-name="format_align_center" d="M128 810.667h768v-86h-768v86zM298 640.667h428v-86h-428v86zM128 384.667v84h768v-84h-768zM128 42.667v86h768v-86h-768zM298 298.667h428v-86h-428v86z" />
<glyph unicode="&#xe927;" glyph-name="format_align_right" d="M128 810.667h768v-86h-768v86zM384 554.667v86h512v-86h-512zM128 384.667v84h768v-84h-768zM384 212.667v86h512v-86h-512zM128 42.667v86h768v-86h-768z" />
<glyph unicode="&#xe928;" glyph-name="format_color_text" d="M410 426.667h204l-102 270zM470 810.667h84l234-598h-96l-46 128h-268l-48-128h-96zM0 84.667h1024v-170h-1024v170z" />
<glyph unicode="&#xe929;" glyph-name="ico_color_radian" d="M731.199 327.031v0l239.668 239.451-265.362 265.080-177.568-177.392-43.171 43.13 179.437 179.255-62.030 62.112-241.578-241.367 105.236-105.172-375.534-375.164-37.171-302.303 53.050 6.512h802.585v87.77h-495.939l318.377 318.089zM705.5 707.502l141.167-141.026-115.485-115.385-141.149 141.044 115.468 115.368zM173.73 176.232l354.202 353.867 141.167-141.032-354.149-353.831-160.995-19.77 19.775 160.766z" />
<glyph unicode="&#xe92a;" glyph-name="format_color_fill" d="M0 84.667h1024v-170h-1024v170zM810 448.667c0 0 86-94 86-150 0-46-40-86-86-86s-84 40-84 86c0 56 84 150 84 150zM222 512.667h410l-206 204zM706 556.667c26-26 26-66 0-90l-234-234c-12-12-30-20-46-20s-32 8-44 20l-236 234c-26 24-26 64 0 90l220 220-102 102 62 60z" />
<glyph unicode="&#xe92b;" glyph-name="curved-text" d="M205.606 797.788h60.472v68.535h60.472v32.252h92.724v-580.535h-112.882l-4.031-32.252h419.276v36.283l-116.913-4.031v580.535h92.724v-32.252h60.472v-68.535h60.472v169.323h-612.787zM516.031 233.379c221.732 0 407.181-100.787 407.181-221.732l-100.787 32.252c0 181.417-612.787 181.417-612.787 0l-96.756-32.252c0 120.945 181.417 221.732 407.181 221.732zM68.535 112.434h169.323v-169.323h-169.323v169.323zM786.142 112.434h169.323v-169.323h-169.323v169.323z" />
<glyph unicode="&#xe92c;" glyph-name="html-coding" d="M313.356 208.908l-313.356 170.894v94.652l313.356 169.927v-111.175l-218.352-104.891 218.352-108.847c0 0 0-110.56 0-110.56zM366.878 149.102l207.807 555.13h65.651l-208.29-555.13h-65.168zM710.644 208.908v110.56l218.309 107.967-218.309 107.134v109.857l313.356-170.147v-94.082l-313.356-171.289z" />
<glyph unicode="&#xe92d;" glyph-name="select-all" d="M350.74 571.927v-318.488h318.488v318.488h-318.488zM241.89 144.588v532.157h532.157v-532.157h-532.157zM669.228 781.565v108.85h108.85v-108.85h-108.85zM669.228-69.081v108.85h108.85v-108.85h-108.85zM878.866 140.557v108.85h108.85v-108.85h-108.85zM878.866 567.895v108.85h108.85v-108.85h-108.85zM878.866-69.081v108.85h108.85c0-56.441-48.378-108.85-108.85-108.85zM878.866 358.258v104.819h108.85v-104.819h-108.85zM455.559-69.081v108.85h104.819v-108.85h-104.819zM346.709 886.384v-108.85h-108.85v108.85h108.85zM28.22 140.557v108.85h108.85v-108.85h-108.85zM137.071-69.081c-56.441 0-108.85 48.378-108.85 108.85h108.85v-108.85zM878.866 886.384c56.441 0 108.85-48.378 108.85-108.85h-108.85v108.85zM560.378 886.384v-108.85h-104.819v108.85h104.819zM32.252 567.895v108.85h108.85v-108.85h-108.85zM241.89-69.081v108.85h108.85v-108.85h-108.85zM32.252 358.258v104.819h108.85v-104.819h-108.85zM32.252 781.565c0 56.441 48.378 108.85 108.85 108.85v-108.85h-108.85z" />
<glyph unicode="&#xe92e;" glyph-name="pin, location, map-marker, marker" d="M635.654 373.053l-324.168 187.162c-39.762 23.002-90.669 9.356-113.632-30.406-22.956-39.801-9.317-90.669 30.445-113.632l324.123-187.162c39.801-23.002 90.669-9.356 113.632 30.445 23.041 39.762 9.402 90.63-30.406 113.586zM368.302 575.434l252.131-145.572 85.759 238.657-174.104 100.489-163.788-193.567zM182.426-37.625l241.19 292.972-108.056 62.385-133.134-355.36zM810.378 800.491l-216.070 124.777c-29.864 17.217-68 7.032-85.224-22.832-17.263-29.864-6.986-68 22.832-85.224l216.112-124.777c29.864-17.217 68-7.032 85.224 22.832s6.986 68-22.878 85.224z" />
<glyph unicode="&#xe92f;" glyph-name="opacity" d="M256 340.667h512c0 86-28 138-76 186l-180 188-180-186c-48-48-76-102-76-188zM754 596.667c66-66 100-154 100-240s-34-176-100-242-154-100-242-100-176 34-242 100-100 156-100 242 34 174 100 240l242 242z" />
<glyph unicode="&#xe930;" glyph-name="ico_color_radian_fill" d="M731.46 586.59l-245.972 248.38-35.569 36.773-83.997-82.52c-143.589 20.52-246.793-32.286-283.347-97.24-44.379-78.853 0.985-164.93 2.408-167.557 37.922-75.789 92.424-121.262 162.030-135.326 15.267-3.010 30.644-4.378 45.966-4.378 72.342 0 144.683 30.699 199.678 62.109 14.829-10.288 32.888-16.362 52.204-16.362 50.891 0 92.26 41.533 92.26 92.534s-41.369 92.479-92.26 92.479-92.26-41.479-92.26-92.479c0-5.089 0.711-10.069 1.477-14.994-55.378-31.465-128.431-61.069-193.057-48.045-47.334 9.576-83.888 41.205-112.233 97.842-0.274 0.547-28.236 54.885-3.557 98.663 20.794 36.992 75.023 60.795 157.762 69.77l-12.86-12.969-118.855-119.292c1.259-2.9 2.189-4.651 2.244-4.761 11.437-22.874 24.296-41.479 38.633-56.363l215.164 215.766c10.233 10.233 23.804 15.869 38.195 15.869s28.072-5.636 38.195-15.869l261.075-261.951c21.068-21.068 21.068-55.487 0-76.555l-339.382-340.421c-20.356-20.411-55.98-20.411-76.391 0l-261.13 261.951c-10.233 10.178-15.814 23.749-15.814 38.25 0 14.446 5.582 28.127 15.814 38.305l28.181 28.346c-16.033 16.526-30.261 36.335-43.011 58.99l-36.116-36.28c-23.804-23.858-36.937-55.597-36.937-89.36s13.133-65.501 36.937-89.36l261.13-261.951c23.804-23.858 55.378-36.992 89.086-36.992 33.599 0 65.283 13.133 89.086 36.992l339.327 340.421 71.192 70.755-19.754 19.973c37.375 20.411 54.010-150.155 54.010-150.155s52.204-407.072 98.608 0c44.324 389.561-261.513 295.878-288.162 287.013z" />
<glyph unicode="&#xe931;" glyph-name="icon_style" d="M852.326 572.348v-48.359h96.718v-194.645h-146.286v-48.359h146.286v-291.362h-875.296v291.362h146.286v48.359h-146.286v194.645h96.718v48.359h-96.718v291.362h875.296v-291.362h-96.718zM998.612-59.945v972.014h-972.014v-972.014h972.014zM463.037 280.986v48.359h-146.286v-48.359zM706.040 280.986v48.359h-145.077v-48.359zM560.963 523.989v48.359h-97.927v-48.359zM366.319 523.989v48.359h-97.927v-48.359zM754.399 523.989v48.359h-96.718v-48.359z" />
<glyph unicode="&#xe932;" glyph-name="icon_transparent" d="M137.823 800.844v53.195h748.354v-53.195h53.195v-748.354h-53.195v-53.195h-748.354v53.195h-53.195v748.354h53.195zM31.433-53.9h962.342v962.342h-962.342v-962.342zM565.799 372.868v107.599h-107.599v-107.599zM244.213 694.454v53.195h-53.195v-53.195zM832.982 747.649h-54.404v-53.195h54.404zM297.407 641.26v53.195h-53.195v-53.195zM778.579 694.454h-53.195v-53.195h53.195zM405.006 533.661v53.195h-53.195v-53.195zM672.189 586.856h-53.195v-53.195h53.195zM405.006 319.673h-53.195v-53.195h53.195zM672.189 266.478v53.195h-53.195v-53.195zM297.407 213.283h-53.195v-53.195h53.195zM778.579 160.088v53.195h-53.195v-53.195zM244.213 160.088h-53.195v-54.404h53.195zM832.982 105.685v54.404h-54.404v-54.404zM191.018 747.649v53.195h-53.195v-53.195zM886.177 800.844h-53.195v-53.195h53.195zM351.811 586.856v54.404h-54.404v-54.404zM725.384 641.26h-53.195v-54.404h53.195zM458.201 480.466v53.195h-53.195v-53.195zM618.994 533.661h-53.195v-53.195h53.195zM458.201 372.868h-53.195v-53.195h53.195zM618.994 319.673v53.195h-53.195v-53.195zM351.811 266.478h-54.404v-53.195h54.404zM725.384 213.283v53.195h-53.195v-53.195zM191.018 105.685h-53.195v-53.195h53.195zM886.177 52.49v53.195h-53.195v-53.195z" />
<glyph unicode="&#xe933;" glyph-name="magnifier" d="M995.866 78.532l-234.921 234.94c-35.003-54.438-81.327-100.738-135.765-135.744l234.94-234.94c37.506-37.498 98.318-37.498 135.744 0 37.508 37.437 37.508 98.248 0.002 135.744zM767.998 554.667c0 212.059-171.933 384-383.996 384-212.059 0-384-171.942-384-384s171.942-383.992 384-383.992c212.063 0 383.996 171.933 383.996 383.992zM384.002 266.678c-158.813 0-287.998 129.174-287.998 287.987s129.185 287.998 287.998 287.998c158.809 0 288.004-129.185 288.004-287.998s-129.195-287.987-288.004-287.987zM160.005 554.667h63.992c0 88.222 71.784 159.999 160.003 159.999v63.998c-123.495 0-223.995-100.5-223.995-223.997z" />
<glyph unicode="&#xe934;" glyph-name="add-plus-button" d="M917.337 368.762h-347.43v-347.43h-115.811v347.43h-347.43v115.811h347.43v347.43h115.811v-347.43h347.43v-115.811z" />
<glyph unicode="&#xe935;" glyph-name="file_upload" d="M214 170.667h596v-86h-596v86zM384 256.667v256h-170l298 298 298-298h-170v-256h-256z" />
<glyph unicode="&#xe936;" glyph-name="search-image" d="M590.43 661.78v-142.070c0-9.026 7.316-16.34 16.34-16.34s16.34 7.314 16.34 16.34v142.070c0 9.026-7.316 16.34-16.34 16.34s-16.34-7.314-16.34-16.34zM1019.213-11.219l-127.547 127.549c-3.063 3.063-7.22 4.784-11.554 4.784s-8.49-1.721-11.554-4.784l-11.554-11.554-23.628 23.626c31.886 37.167 51.183 85.436 51.183 138.133 0 117.133-95.293 212.426-212.426 212.426s-212.426-95.293-212.426-212.426 95.293-212.426 212.426-212.426c52.697 0 100.966 19.295 138.135 51.183l23.628-23.626-11.554-11.554c-6.381-6.384-6.381-16.728 0-23.11l127.547-127.547c3.19-3.19 7.373-4.784 11.554-4.784s8.364 1.595 11.554 4.784l46.217 46.217c3.065 3.065 4.787 7.22 4.787 11.556s-1.723 8.484-4.789 11.552zM492.387 266.535c0 99.11 80.632 179.745 179.745 179.745s179.745-80.635 179.745-179.745-80.632-179.745-179.745-179.745-179.745 80.635-179.745 179.745zM961.442-45.885l-104.439 104.439 11.549 11.552c0.011 0.011 11.56 11.56 11.56 11.56l104.439-104.441-23.11-23.11zM499.405 86.791h-466.724v819.196h427.925v-178.845c0-9.026 7.316-16.34 16.34-16.34h178.845v-182.819c0-9.026 7.316-16.34 16.34-16.34s16.34 7.314 16.34 16.34v199.159c0 0.547-0.028 1.092-0.083 1.632-0.039 0.401-0.109 0.795-0.176 1.187-0.024 0.131-0.035 0.266-0.061 0.397-0.094 0.468-0.214 0.926-0.346 1.377-0.015 0.054-0.026 0.113-0.044 0.168-0.142 0.464-0.307 0.917-0.488 1.362-0.017 0.046-0.033 0.094-0.050 0.139-0.176 0.425-0.377 0.837-0.586 1.242-0.035 0.068-0.063 0.137-0.098 0.205-0.203 0.377-0.427 0.739-0.656 1.098-0.059 0.092-0.107 0.187-0.168 0.277-0.224 0.336-0.471 0.654-0.719 0.972-0.081 0.105-0.153 0.214-0.237 0.316-0.309 0.377-0.641 0.736-0.983 1.085-0.033 0.033-0.059 0.068-0.092 0.1l-195.185 195.185c-0.039 0.039-0.083 0.072-0.124 0.111-0.34 0.333-0.691 0.656-1.059 0.959-0.12 0.098-0.246 0.181-0.368 0.275-0.301 0.233-0.599 0.466-0.915 0.678-0.111 0.074-0.229 0.135-0.34 0.207-0.34 0.216-0.68 0.429-1.035 0.619-0.078 0.041-0.161 0.076-0.242 0.115-0.394 0.205-0.795 0.399-1.207 0.571-0.052 0.022-0.107 0.037-0.161 0.059-0.44 0.176-0.885 0.342-1.342 0.481-0.059 0.017-0.118 0.028-0.176 0.046-0.449 0.131-0.904 0.251-1.368 0.344-0.137 0.028-0.279 0.039-0.418 0.063-0.386 0.068-0.771 0.135-1.168 0.174-0.538 0.054-1.083 0.083-1.63 0.083h-460.606c-9.024 0-16.34-7.314-16.34-16.34v-851.876c0-9.026 7.316-16.34 16.34-16.34h483.064c9.024 0 16.34 7.314 16.34 16.34s-7.316 16.34-16.34 16.34zM493.287 882.879l139.395-139.395h-139.395v139.395zM672.132 413.599c-81.092 0-147.064-65.972-147.064-147.064s65.972-147.064 147.064-147.064 147.064 65.972 147.064 147.064-65.972 147.064-147.064 147.064zM672.132 152.152c-63.072 0-114.383 51.313-114.383 114.383s51.311 114.383 114.383 114.383 114.383-51.313 114.383-114.383-51.311-114.383-114.383-114.383zM244.265 521.642l137.671-145.26c3.085-3.255 7.373-5.1 11.859-5.1s8.774 1.845 11.859 5.1l95.683 100.956 8.14-8.589c6.207-6.549 16.55-6.83 23.101-0.619 6.549 6.207 6.828 16.55 0.621 23.101l-20.001 21.105c-3.087 3.255-7.375 5.1-11.861 5.1s-8.774-1.845-11.859-5.1l-95.683-100.958-137.671 145.26c-3.085 3.255-7.373 5.1-11.859 5.1s-8.774-1.845-11.859-5.1l-162.563-171.522c-2.878-3.037-4.482-7.057-4.482-11.24v-238.063c0-9.026 7.316-16.34 16.34-16.34h364.080c9.024 0 16.34 7.314 16.34 16.34s-7.316 16.34-16.34 16.34h-347.74v215.208l146.223 154.28zM324.948 588.184c0-37.962 30.883-68.848 68.848-68.848s68.848 30.886 68.848 68.848-30.886 68.848-68.848 68.848-68.848-30.886-68.848-68.848zM429.962 588.184c0-19.942-16.225-36.167-36.167-36.167s-36.167 16.223-36.167 36.167 16.225 36.167 36.167 36.167c19.942-0.002 36.167-16.225 36.167-36.167zM411.585 873.305h-329.883c-9.024 0-16.34-7.314-16.34-16.34v-388.074c0-9.026 7.316-16.34 16.34-16.34s16.34 7.314 16.34 16.34v371.734h313.542c9.024 0 16.34 7.314 16.34 16.34s-7.316 16.34-16.34 16.34z" />
<glyph unicode="&#xe937;" glyph-name="cloud-upload" d="M682.667 443.734c0 4.267-1.6 9.067-4.8 12.267l-187.733 187.733c-3.2 3.2-7.467 4.8-12.267 4.8-4.267 0-9.067-1.6-12.267-4.8l-187.2-187.2c-3.2-3.733-5.333-8-5.333-12.8 0-9.6 7.467-17.067 17.067-17.067h119.467v-187.733c0-9.067 8-17.067 17.067-17.067h102.4c9.067 0 17.067 8 17.067 17.067v187.733h119.467c9.6 0 17.067 8 17.067 17.067zM1024 290.134c0-113.067-91.733-204.8-204.8-204.8h-580.267c-131.733 0-238.933 107.2-238.933 238.933 0 92.8 53.867 177.067 137.6 216-0.533 8-1.067 15.467-1.067 22.933 0 150.933 122.133 273.067 273.067 273.067 110.933 0 210.667-67.2 252.8-169.6 24.533 21.333 56 33.067 88.533 33.067 75.2 0 136.533-61.333 136.533-136.533 0-26.133-7.467-51.733-21.867-73.6 92.8-21.867 158.4-104.533 158.4-199.467z" />
<glyph unicode="&#xe938;" glyph-name="pencil-on-a-notes-paper" d="M896 584.387v-541.72c0-70.688-57.312-128-128-128h-640c-70.688 0-128 57.312-128 128v640c0 70.688 57.312 128 128 128h541.688l-127.938-128h-413.75v-640h640v413.688l128 128.032zM797.75 848.167l-45.25-45.25 135.75-135.782 45.25 45.25-135.75 135.782zM888.25 938.667l-45.25-45.25 135.75-135.782 45.25 45.282-135.75 135.75zM300 350.291l135.75-135.75 407.25 407.314-135.75 135.782-407.25-407.346zM256 170.667h128l-128 128v-128z" />
<glyph unicode="&#xe939;" glyph-name="invert" d="M778.579 452.87c0 149.914-117.27 267.182-267.182 267.182v-534.366c149.914 0 267.182 117.27 267.182 267.182v0zM992.566 934.043h-962.342c0-72.538 0-48.358 0-106.39v-735.054c6.045-60.45-1.21-44.731 0-119.688h962.342c0 96.718 0 119.688 0 220.034v742.309c-103.971 0-48.358 0-106.39 0h106.39zM872.878 20.059h-360.274v165.629c-149.914 0-267.182 117.27-267.182 267.182s117.27 267.182 267.182 267.182v165.629h432.811v-865.626h-72.538z" />
<glyph unicode="&#xe93a;" glyph-name="search_maps" d="M434.021 364.405c0 174.092 236.959 244.213 322.796 71.329 50.777-101.554-29.015-235.75-142.659-235.75-82.21 0-130.569 30.224-164.42 99.136-6.045 12.090-15.717 47.15-15.717 65.285zM340.93 368.032c0-147.495 123.315-263.556 263.556-262.347 64.076 1.209 95.509 15.717 136.614 38.687 45.941-31.433-4.836-39.896 53.195-87.046l73.747-66.494c29.015-26.597 29.015-36.269 72.538-36.269 35.060 0 59.24 29.015 59.24 71.329 0 36.269-47.15 64.076-83.419 100.345l-47.15 42.314c-9.672 7.254-18.135 10.881-35.060 12.090-25.388 1.209-14.508 4.836-31.433 15.717 16.926 25.388 30.224 39.896 42.314 72.538 29.015 71.329 25.388 135.405-3.627 205.525-12.090 29.015-31.433 55.613-51.986 74.956-22.97 22.97-41.105 37.478-71.329 53.195-101.554 50.777-221.242 27.806-304.661-54.404-37.478-37.478-73.747-106.39-73.747-181.346zM24.179 750.067v-583.934c0-26.597 25.388-33.851 47.15-33.851l90.673 39.896c43.523 21.762 106.39 45.941 151.122 68.911-4.836 21.762-19.344 43.523-21.762 77.374-9.672-2.418-13.299-6.045-21.762-9.672s-14.508-6.045-24.179-10.881c-9.672-4.836-13.299-6.045-24.179-10.881-9.672-3.627-13.299-7.254-22.97-10.881-16.926-7.254-31.433-13.299-47.15-20.553l-47.15-21.762v484.798l180.137 81.001c36.269 18.135 29.015 19.344 93.091-9.672l93.091-39.896c20.553-9.672 110.017-49.568 126.942-49.568s39.896 12.090 54.404 16.926l108.808 41.105c18.135 6.045 37.478 15.717 54.404 19.344 0-26.597-4.836-148.704 2.418-162.002l78.583-85.837v288.945c0 20.553 1.209 29.015-7.254 42.314-22.97 33.851-66.494 7.254-102.763-6.045l-169.256-64.076c-24.179-9.672-24.179-4.836-66.494 14.508-12.090 4.836-21.762 8.463-32.642 13.299-21.762 9.672-43.523 18.135-65.285 27.806-145.077 64.076-118.479 67.702-216.406 20.553l-148.704-67.702c-26.597-12.090-62.867-21.762-62.867-48.359zM459.41 361.987c0-96.718 124.524-159.584 154.749-129.36 16.926 16.926 13.299 43.523-20.553 51.986-100.345 25.388-50.777 102.763-108.808 102.763-14.508 0-25.388-9.672-25.388-25.388z" />
<glyph unicode="&#xe93b;" glyph-name="location2" d="M512 938.667c-177 0-320-143-320-320s160-416 320-704c160 288 320 527 320 704s-143 320-320 320zM512 490.667c-71 0-128 57-128 128s57 128 128 128 128-57 128-128-57-128-128-128z" />
<glyph unicode="&#xe93c;" glyph-name="folder2" d="M987.429 591.238v-402.286c0-70.286-57.714-128-128-128h-694.857c-70.286 0-128 57.714-128 128v548.571c0 70.286 57.714 128 128 128h182.857c70.286 0 128-57.714 128-128v-18.286h384c70.286 0 128-57.714 128-128z" />
<glyph unicode="&#xe93d;" glyph-name="checkmark" d="M864 810.667l-480-480-224 224-160-160 384-384 640 640z" />
<glyph unicode="&#xe93e;" glyph-name="warning" d="M1012.862 95.591l-429.715 744.287c-31.628 54.782-110.654 54.802-142.294 0l-429.717-744.287c-31.628-54.782 7.868-123.232 71.148-123.232h859.43c63.258 0 102.788 68.43 71.148 123.232zM941.714 47.645h-859.43c-5.34 0-8.626 5.67-5.95 10.304l429.715 744.287c2.67 4.626 9.222 4.636 11.898 0l429.715-744.285c2.672-4.628-0.594-10.306-5.948-10.306zM511.999 568.684c-20.788 0-37.642-16.854-37.642-37.642v-215.78c0-20.788 16.854-37.642 37.642-37.642s37.642 16.854 37.642 37.642v215.78c0.002 20.788-16.852 37.642-37.642 37.642zM511.999 228.716c-20.788 0-37.642-16.854-37.642-37.642v-22.478c0-20.788 16.854-37.642 37.642-37.642s37.642 16.854 37.642 37.642v22.478c0.002 20.792-16.852 37.642-37.642 37.642z" />
<glyph unicode="&#xe93f;" glyph-name="denied" d="M512 938.667c-282.752 0-512-229.248-512-512s229.248-512 512-512 512 229.248 512 512-229.248 512-512 512zM512 810.667c82.88 0 159.136-27.008 221.888-71.744l-534.272-534.016c-44.736 62.752-71.616 139.008-71.616 221.76 0 211.744 172.256 384 384 384zM512 42.667c-82.88 0-159.136 27.008-221.888 71.744l534.272 534.016c44.736-62.752 71.616-139.008 71.616-221.76 0-211.744-172.256-384-384-384z" />
<glyph unicode="&#xe940;" glyph-name="cancel" d="M512 856.747c-237.517 0-430.080-192.563-430.080-430.080s192.563-430.080 430.080-430.080 430.080 192.563 430.080 430.080c0 237.517-192.563 430.080-430.080 430.080zM757.197 269.944l-88.525-88.525-156.672 156.723-156.723-156.672-88.525 88.525 156.774 156.672-156.723 156.723 88.525 88.474 156.672-156.672 156.723 156.723 88.525-88.525-156.774-156.723 156.723-156.723z" />
<glyph unicode="&#xe941;" glyph-name="cancel2" d="M512 10.667c-229.76 0-416 186.24-416 416s186.24 416 416 416 416-186.24 416-416-186.24-416-416-416zM512 746.667c-176.704 0-320-143.296-320-320s143.296-320 320-320c176.736 0 320 143.296 320 320s-143.264 320-320 320zM657.184 313.547l-32.448-32.448c-5.952-5.952-15.616-5.952-21.6 0l-91.84 91.84-91.84-91.84c-5.984-5.952-15.616-5.952-21.6 0l-32.448 32.448c-5.952 5.952-5.952 15.616 0 21.6l91.872 91.808-91.872 91.84c-5.952 5.984-5.952 15.648 0 21.632l32.448 32.416c5.984 5.984 15.616 5.984 21.6 0l91.84-91.84 91.84 91.84c5.984 5.984 15.648 5.984 21.6 0l32.448-32.416c5.952-5.984 5.952-15.648 0-21.632l-91.872-91.84 91.872-91.808c5.952-5.984 5.952-15.68 0-21.6z" />
<glyph unicode="&#xe942;" glyph-name="cross" d="M734.618 178.398c-24.013-24.013-62.925-24.013-86.886 0l-135.731 155.136-135.731-155.085c-24.013-24.013-62.925-24.013-86.886 0-24.013 24.013-24.013 62.925 0 86.886l141.21 161.28-141.261 161.382c-24.013 24.013-24.013 62.874 0 86.886s62.874 24.013 86.886 0l135.782-155.187 135.731 155.187c24.013 24.013 62.874 24.013 86.886 0s24.013-62.925 0-86.886l-141.21-161.382 141.21-161.28c24.013-24.013 24.013-62.925 0-86.938z" />
<glyph unicode="&#xe943;" glyph-name="checkbox-unchecked" d="M864.001 874.669h-704.002c-64.534 0-117.334-52.8-117.334-117.334v-704.002c0-64.534 52.8-117.334 117.334-117.334h704.002c64.534 0 117.334 52.8 117.334 117.334v704.002c0 64.534-52.8 117.334-117.334 117.334zM864.001 53.333h-704.002v704.002h704.002v-704.002z" />
<glyph unicode="&#xe944;" glyph-name="zoom-in" d="M925.867 72.534l-157.867 157.867c51.2 64 85.333 149.333 85.333 238.933 0 213.333-170.667 384-384 384s-384-170.667-384-384c0-213.333 170.667-384 384-384 89.6 0 174.933 29.867 238.933 85.333l157.867-157.867c8.533-8.533 21.333-12.8 29.867-12.8s21.333 4.267 29.867 12.8c17.067 17.067 17.067 42.667 0 59.733zM170.667 469.334c0 166.4 132.267 298.667 298.667 298.667s298.667-132.267 298.667-298.667c0-81.067-34.133-157.867-85.333-209.067 0 0 0 0 0 0s0 0 0 0c-55.467-55.467-128-85.333-209.067-85.333-170.667-4.267-302.933 128-302.933 294.4zM597.333 512h-85.333v85.333c0 25.6-17.067 42.667-42.667 42.667s-42.667-17.067-42.667-42.667v-85.333h-85.333c-25.6 0-42.667-17.067-42.667-42.667s17.067-42.667 42.667-42.667h85.333v-85.333c0-25.6 17.067-42.667 42.667-42.667s42.667 17.067 42.667 42.667v85.333h85.333c25.6 0 42.667 17.067 42.667 42.667s-17.067 42.667-42.667 42.667z" />
<glyph unicode="&#xe945;" glyph-name="droplet" d="M864.626 465.505c-65.754 183.44-205.11 348.15-352.626 473.162-147.516-125.012-286.87-289.722-352.626-473.162-40.664-113.436-44.682-236.562 12.584-345.4 65.846-125.14 198.632-205.438 340.042-205.438s274.196 80.298 340.040 205.44c57.27 108.838 53.25 231.962 12.586 345.398zM738.764 179.711c-43.802-83.252-132.812-137.044-226.764-137.044-55.12 0-108.524 18.536-152.112 50.652 13.242-1.724 26.632-2.652 40.112-2.652 117.426 0 228.668 67.214 283.402 171.242 44.878 85.292 40.978 173.848 23.882 244.338 14.558-28.15 26.906-56.198 36.848-83.932 22.606-63.062 40.024-156.34-5.368-242.604z" />
<glyph unicode="&#xe946;" glyph-name="map1" d="M1002.667 891.734c-12.8 8.533-29.867 8.533-42.667 0l-277.333-162.133-324.267 162.133c0 0 0 0 0 0s0 0-4.267 0c-4.267 4.267-8.533 4.267-12.8 4.267 0 0 0 0 0 0s0 0 0 0c-4.267 0-8.533 0-17.067-4.267 0 0 0 0-4.267 0 0 0-4.267 0-4.267 0l-298.667-170.667c-8.533-8.533-17.067-21.333-17.067-38.4v-682.667c0-17.067 8.533-29.867 21.333-38.4s29.867-8.533 42.667 0l277.333 162.133 320-162.133c0 0 0 0 0 0 8.533-4.267 12.8-4.267 21.333-4.267 4.267 0 8.533 0 12.8 4.267 0 0 4.267 0 4.267 0s0 0 4.267 0l298.667 170.667c12.8 8.533 21.333 21.333 21.333 38.4v682.667c0 17.067-8.533 29.867-21.333 38.4zM384 785.067l256-128v-588.8l-256 128v588.8zM85.333 657.067l213.333 123.733v-584.533l-213.333-123.733v584.533zM938.667 196.267l-213.333-123.733v584.533l213.333 123.733v-584.533z" />
<glyph unicode="&#xe947;" glyph-name="folder-open, directory, category, browse" d="M782.771 68.92l162.463 433.235h-704.006l-162.463-433.235zM187.074 556.308l-108.308-487.389v704.006h243.694l108.308-108.308h352.003v-108.308z" />
<glyph unicode="&#xe948;" glyph-name="folder, directory2, category2, browse2" d="M457.846 772.926l108.308-108.308h379.080v-595.697h-866.468v704.006z" />
<glyph unicode="&#xe949;" glyph-name="user2" d="M512 890.667c-134.922 0-244.686-109.766-244.686-244.686s109.766-244.686 244.686-244.686 244.686 109.766 244.686 244.686-109.766 244.686-244.686 244.686zM816.438 241.44c-66.99 68.018-155.798 105.475-250.066 105.475h-108.75c-94.266 0-183.076-37.458-250.066-105.475-66.664-67.686-103.376-157.034-103.376-251.582 0-15.014 12.172-27.186 27.186-27.186h761.251c15.014 0 27.186 12.172 27.186 27.186 0 94.554-36.712 183.895-103.376 251.582z" />
<glyph unicode="&#xe94a;" glyph-name="download-archive-tray" d="M512 251.195l250.672 250.672h-150.399v300.8h-200.535l0.905-300.8h-151.304zM712.535 251.195v-100.272h-401.073v100.272h-100.272v-200.535h601.606v200.535z" />
<glyph unicode="&#xe94b;" glyph-name="crop" d="M336.852 251.519h559.821v-68.749h-140.772v-140.772h-68.749v140.772h-350.296c-37.648 0-68.749 31.1-68.749 68.749v350.296h-140.772v68.749h140.772v140.772h68.749v-559.821zM687.148 321.906v279.909h-279.909v68.749h279.909c37.648 0 68.749-31.1 68.749-68.749v-279.909h-68.749z" />
<glyph unicode="&#xe94c;" glyph-name="chevron-left" d="M637.542 741.581c22.835-22.323 24.627-53.402 0-80.691l-191.846-200.090 191.846-200.090c24.627-27.29 22.835-58.419 0-80.589-22.784-22.323-61.286-20.89-82.688 0-21.402 20.787-230.502 240.384-230.502 240.384-11.418 11.11-17.152 25.702-17.152 40.294s5.734 29.184 17.152 40.397c0 0 209.101 219.494 230.502 240.384 21.402 20.941 59.904 22.323 82.688 0z" />
<glyph unicode="&#xe94d;" glyph-name="photo_size_select_large" d="M170.665 161.777h378.668l-120.89 161.778-94.222-122.668-69.334 81.778zM94.22 464.001h531.558v-378.668h-455.113c-40.89 0-76.444 35.556-76.444 76.444v302.224zM247.11 768.002h74.667v-76.444h-74.667v76.444zM398.222 768.002h76.444v-76.444h-76.444v76.444zM170.665 768.002v-76.444h-76.444c0 37.334 39.112 76.444 76.444 76.444zM702.223 161.777h74.667v-76.444h-74.667v76.444zM702.223 768.002h74.667v-76.444h-74.667v76.444zM94.22 616.89h76.444v-76.444h-76.444v76.444zM853.335 768.002c37.334 0 76.444-39.112 76.444-76.444h-76.444v76.444zM853.335 616.89h76.444v-76.444h-76.444v76.444zM549.334 768.002h76.444v-76.444h-76.444v76.444zM929.78 161.777c0-37.334-39.112-76.444-76.444-76.444v76.444h76.444zM853.335 464.001h76.444v-74.667h-76.444v74.667zM853.335 312.889h76.444v-76.444h-76.444v76.444z" />
<glyph unicode="&#xe94e;" glyph-name="pixabay" horiz-adv-x="1615" d="M484.979 541.907c-28.059 19.857-48.44 39.982-48.44 64.814h-156.010c0-44.686-20.392-64.814-45.537-64.814h-41.664v-453.673h810.118v453.673h-518.467zM436.531 412.282h-145.989v64.814h162.026v-52.148l-16.037-12.664zM710.742 159.975c-92.432 0-167.632 74.236-167.632 165.49s75.199 161.666 167.632 161.666c92.432 0 167.627-70.412 167.627-161.666 0-91.252-75.191-165.49-167.627-165.49zM800.861 325.458c0-49.053-40.419-88.969-90.099-88.969-49.69 0-90.108 39.915-90.108 88.969 0 49.060 40.419 88.959 90.108 88.959 49.68 0 90.099-39.907 90.099-88.959zM1424.732 603.616l-201.693-514.171-154.76 62.062v87.62l107.482-43.982 141.917 361.774-531.798 203.337-49.29-153.551h-88.738l90.737 259.245 686.142-262.33z" />
<glyph unicode="&#xe94f;" glyph-name="Openclipart-Scissors-Logo-in-Green" d="M140.44 822.638c-56.065 0.484-113.626-24.148-130.481-70.112-25.042-55.463 15.146-120.257 83.774-140.227 0.22-0.055 0.538 0.055 0.738 0 74.84-27.048 167.987-40.26 249.099-124.182l30.396-31.49-27.431-27.928c-81.349-83.78-174.179-96.674-249.102-123.586-0.166-0.083-0.548 0.083-0.738 0-68.437-19.777-108.137-84.257-83.774-139.631 0.086-0.166-0.086-0.42 0-0.594 20.823-56.041 102.597-80.848 168.292-65.951 0.22 0.043 0.516-0.043 0.738 0 67.284 11.73 122.369 66.472 106.755 121.804-7.702 27.3-17.561 39.981-26.691 47.537-4.563 3.778-8.548 6.139-11.118 8.319s-13.404 8.248-13.404 8.248c6.698 4.875 10.612 7.184 16.367 10.767 8.594 5.6 23.608 12.479 42.998 20.796 38.446 16.484 95.065 39.762 160.132 77.244 117.682-66.893 270.595-153.53 355.106-201.425 84.513-47.895 171.019-23.739 206.841-1.781l-453.266 266.042 455.857 268.639c-70.654 43.577-151.28 25.121-204.986-1.111-119.4-67.717-239.186-135.12-358.822-202.611-54.553 29.815-113.088 57.155-163.84 79.025-19.413 8.364-34.391 15.167-42.999 20.796-4.308 2.814-15.198 8.913-15.198 8.913 9.958 5.806 20.51 16.501 28.171 24.659s16.687 20.245 21.873 41.297c13.665 55.659-39.536 110.552-106.782 122.4-13.019 2.875-27.063 3.302-38.559 4.156zM133.026 775.702c25.025 1.176 50.857-5.671 67.465-19.014 24.886-19.99 29.625-47.534 20.017-70.112-9.608-22.58-32.638-39.273-65.242-39.216h-0.738c-29.883-1.382-59.020 12.418-76.36 32.678-17.338 20.26-22.282 45.459-5.189 67.145v0.594c11.811 17.985 35.040 26.752 60.051 27.927zM152.303 270.052c2.218 0.043 4.504 0.083 5.929 0 32.608 0.001 55.688-16.642 65.242-39.216s4.924-50.161-20.017-70.112c-16.626-13.298-43.17-20.784-68.206-19.608s-47.549 10.508-59.308 28.521l-0.738 0.594c-16.49 21.025-11.703 44.813 4.45 64.762s43.855 34.637 72.655 35.056z" />
<glyph unicode="&#xe950;" glyph-name="unsplash" d="M649.082 398.691c0-77.112-62.828-137.082-137.082-137.082s-137.082 59.976-137.082 137.082c0 77.112 62.828 137.082 137.082 137.082 77.112-2.858 137.082-62.828 137.082-137.082zM968.95 610.033v-425.533c0-65.686-54.26-122.804-122.804-122.804h-668.286c-68.544 0-122.804 54.26-122.804 122.804v428.388c0 65.686 54.26 122.804 122.804 122.804h105.668l22.846 65.686c11.426 31.414 48.55 57.118 82.822 57.118h245.608c34.272 0 71.396-25.704 82.822-57.118l22.846-68.544h105.668c68.544 0 122.804-54.26 122.804-122.804zM723.337 395.839c0 117.094-94.248 214.194-214.194 214.194-117.094 0-214.194-97.1-214.194-214.194s94.248-214.194 214.194-214.194c119.948 2.858 214.194 97.1 214.194 214.194z" />
<glyph unicode="&#xe951;" glyph-name="pexels" horiz-adv-x="1029" d="M514.659 554.335c-67.877 0-120.419-52.549-120.419-120.419 0-65.686 52.549-120.419 120.419-120.419s120.419 54.733 120.419 120.419c0 67.877-52.549 120.419-120.419 120.419v0zM781.773 858.667h-534.239c-83.2 0-151.077-67.877-151.077-151.077v-529.858c0-83.2 67.877-151.077 151.077-151.077h534.239c83.2 0 151.077 67.877 151.077 151.077v529.858c0 83.2-67.877 151.077-151.077 151.077v0zM510.277 221.526c-116.044 0-210.191 94.151-210.191 210.191s94.151 210.191 210.191 210.191 212.381-94.151 212.381-210.191-96.335-210.191-212.381-210.191v0zM823.373 657.239c0-13.132-10.947-24.086-24.086-24.086h-76.628c-13.132 0-24.086 10.947-24.086 24.086v76.628c0 13.132 10.947 24.086 24.086 24.086h76.628c13.132 0 24.086-10.947 24.086-24.086v-76.628z" />
<glyph unicode="&#xe952;" glyph-name="cog, gear" horiz-adv-x="878" d="M585.143 438.857c0 80.571-65.714 146.286-146.286 146.286s-146.286-65.714-146.286-146.286 65.714-146.286 146.286-146.286 146.286 65.714 146.286 146.286zM877.714 501.143v-126.857c0-8.571-6.857-18.857-16-20.571l-105.714-16c-6.286-18.286-13.143-35.429-22.286-52 19.429-28 40-53.143 61.143-78.857 3.429-4 5.714-9.143 5.714-14.286s-1.714-9.143-5.143-13.143c-13.714-18.286-90.857-102.286-110.286-102.286-5.143 0-10.286 2.286-14.857 5.143l-78.857 61.714c-16.571-8.571-34.286-16-52-21.714-4-34.857-7.429-72-16.571-106.286-2.286-9.143-10.286-16-20.571-16h-126.857c-10.286 0-19.429 7.429-20.571 17.143l-16 105.143c-17.714 5.714-34.857 12.571-51.429 21.143l-80.571-61.143c-4-3.429-9.143-5.143-14.286-5.143s-10.286 2.286-14.286 6.286c-30.286 27.429-70.286 62.857-94.286 96-2.857 4-4 8.571-4 13.143 0 5.143 1.714 9.143 4.571 13.143 19.429 26.286 40.571 51.429 60 78.286-9.714 18.286-17.714 37.143-23.429 56.571l-104.571 15.429c-9.714 1.714-16.571 10.857-16.571 20.571v126.857c0 8.571 6.857 18.857 15.429 20.571l106.286 16c5.714 18.286 13.143 35.429 22.286 52.571-19.429 27.429-40 53.143-61.143 78.857-3.429 4-5.714 8.571-5.714 13.714s2.286 9.143 5.143 13.143c13.714 18.857 90.857 102.286 110.286 102.286 5.143 0 10.286-2.286 14.857-5.714l78.857-61.143c16.571 8.571 34.286 16 52 21.714 4 34.857 7.429 72 16.571 106.286 2.286 9.143 10.286 16 20.571 16h126.857c10.286 0 19.429-7.429 20.571-17.143l16-105.143c17.714-5.714 34.857-12.571 51.429-21.143l81.143 61.143c3.429 3.429 8.571 5.143 13.714 5.143s10.286-2.286 14.286-5.714c30.286-28 70.286-63.429 94.286-97.143 2.857-3.429 4-8 4-12.571 0-5.143-1.714-9.143-4.571-13.143-19.429-26.286-40.571-51.429-60-78.286 9.714-18.286 17.714-37.143 23.429-56l104.571-16c9.714-1.714 16.571-10.857 16.571-20.571z" />
<glyph unicode="&#xe953;" glyph-name="stack, layers" d="M1024 640l-512 256-512-256 512-256 512 256zM512 811.030l342.058-171.030-342.058-171.030-342.058 171.030 342.058 171.030zM921.444 499.278l102.556-51.278-512-256-512 256 102.556 51.278 409.444-204.722zM921.444 307.278l102.556-51.278-512-256-512 256 102.556 51.278 409.444-204.722z" />
<glyph unicode="&#xe954;" glyph-name="move-layer" d="M857.6 554.667h-691.2c-23.067 0-38.4-17.067-38.4-42.667s15.333-42.667 38.4-42.667h691.2c23.067 0 38.4 17.067 38.4 42.667s-15.333 42.667-38.4 42.667zM166.4 640h691.2c23.067 0 38.4 17.067 38.4 42.667s-15.333 42.667-38.4 42.667h-691.2c-23.067 0-38.4-17.067-38.4-42.667s15.333-42.667 38.4-42.667zM857.6 384h-691.2c-23.067 0-38.4-17.067-38.4-42.667s15.333-42.667 38.4-42.667h691.2c23.067 0 38.4 17.067 38.4 42.667s-15.333 42.667-38.4 42.667zM857.6 213.334h-691.2c-23.067 0-38.4-17.067-38.4-42.667s15.333-42.667 38.4-42.667h691.2c23.067 0 38.4 17.067 38.4 42.667s-15.333 42.667-38.4 42.667z" />
<glyph unicode="&#xe955;" glyph-name="search-minus" horiz-adv-x="951" d="M585.143 493.714v-36.571c0-9.714-8.571-18.286-18.286-18.286h-329.143c-9.714 0-18.286 8.571-18.286 18.286v36.571c0 9.714 8.571 18.286 18.286 18.286h329.143c9.714 0 18.286-8.571 18.286-18.286zM658.286 475.428c0 141.143-114.857 256-256 256s-256-114.857-256-256 114.857-256 256-256 256 114.857 256 256zM950.857 0c0-40.571-32.571-73.143-73.143-73.143-19.429 0-38.286 8-51.429 21.714l-196 195.429c-66.857-46.286-146.857-70.857-228-70.857-222.286 0-402.286 180-402.286 402.286s180 402.286 402.286 402.286 402.286-180 402.286-402.286c0-81.143-24.571-161.143-70.857-228l196-196c13.143-13.143 21.143-32 21.143-51.429z" />
<glyph unicode="&#xe956;" glyph-name="search-plus" horiz-adv-x="951" d="M585.143 493.714v-36.571c0-9.714-8.571-18.286-18.286-18.286h-128v-128c0-9.714-8.571-18.286-18.286-18.286h-36.571c-9.714 0-18.286 8.571-18.286 18.286v128h-128c-9.714 0-18.286 8.571-18.286 18.286v36.571c0 9.714 8.571 18.286 18.286 18.286h128v128c0 9.714 8.571 18.286 18.286 18.286h36.571c9.714 0 18.286-8.571 18.286-18.286v-128h128c9.714 0 18.286-8.571 18.286-18.286zM658.286 475.428c0 141.143-114.857 256-256 256s-256-114.857-256-256 114.857-256 256-256 256 114.857 256 256zM950.857 0c0-40.571-32.571-73.143-73.143-73.143-19.429 0-38.286 8-51.429 21.714l-196 195.429c-66.857-46.286-146.857-70.857-228-70.857-222.286 0-402.286 180-402.286 402.286s180 402.286 402.286 402.286 402.286-180 402.286-402.286c0-81.143-24.571-161.143-70.857-228l196-196c13.143-13.143 21.143-32 21.143-51.429z" />
<glyph unicode="&#xe957;" glyph-name="refresh" horiz-adv-x="878" d="M863.429 347.428c0-1.143 0-2.857-0.571-4-48.571-202.286-215.429-343.429-426.286-343.429-111.429 0-219.429 44-300.571 121.143l-73.714-73.714c-6.857-6.857-16-10.857-25.714-10.857-20 0-36.571 16.571-36.571 36.571v256c0 20 16.571 36.571 36.571 36.571h256c20 0 36.571-16.571 36.571-36.571 0-9.714-4-18.857-10.857-25.714l-78.286-78.286c53.714-50.286 125.143-78.857 198.857-78.857 101.714 0 196 52.571 249.143 139.429 13.714 22.286 20.571 44 30.286 66.857 2.857 8 8.571 13.143 17.143 13.143h109.714c10.286 0 18.286-8.571 18.286-18.286zM877.714 804.571v-256c0-20-16.571-36.571-36.571-36.571h-256c-20 0-36.571 16.571-36.571 36.571 0 9.714 4 18.857 10.857 25.714l78.857 78.857c-54.286 50.286-125.714 78.286-199.429 78.286-101.714 0-196-52.571-249.143-139.429-13.714-22.286-20.571-44-30.286-66.857-2.857-8-8.571-13.143-17.143-13.143h-113.714c-10.286 0-18.286 8.571-18.286 18.286v4c49.143 202.857 217.714 343.429 428.571 343.429 112 0 221.143-44.571 302.286-121.143l74.286 73.714c6.857 6.857 16 10.857 25.714 10.857 20 0 36.571-16.571 36.571-36.571z" />
<glyph unicode="&#xe958;" glyph-name="arrows" d="M1024 438.857c0-9.714-4-18.857-10.857-25.714l-146.286-146.286c-6.857-6.857-16-10.857-25.714-10.857-20 0-36.571 16.571-36.571 36.571v73.143h-219.429v-219.429h73.143c20 0 36.571-16.571 36.571-36.571 0-9.714-4-18.857-10.857-25.714l-146.286-146.286c-6.857-6.857-16-10.857-25.714-10.857s-18.857 4-25.714 10.857l-146.286 146.286c-6.857 6.857-10.857 16-10.857 25.714 0 20 16.571 36.571 36.571 36.571h73.143v219.429h-219.429v-73.143c0-20-16.571-36.571-36.571-36.571-9.714 0-18.857 4-25.714 10.857l-146.286 146.286c-6.857 6.857-10.857 16-10.857 25.714s4 18.857 10.857 25.714l146.286 146.286c6.857 6.857 16 10.857 25.714 10.857 20 0 36.571-16.571 36.571-36.571v-73.143h219.429v219.429h-73.143c-20 0-36.571 16.571-36.571 36.571 0 9.714 4 18.857 10.857 25.714l146.286 146.286c6.857 6.857 16 10.857 25.714 10.857s18.857-4 25.714-10.857l146.286-146.286c6.857-6.857 10.857-16 10.857-25.714 0-20-16.571-36.571-36.571-36.571h-73.143v-219.429h219.429v73.143c0 20 16.571 36.571 36.571 36.571 9.714 0 18.857-4 25.714-10.857l146.286-146.286c6.857-6.857 10.857-16 10.857-25.714z" />
<glyph unicode="&#xe959;" glyph-name="crop22" horiz-adv-x="953" d="M318.286 219.428h340v340zM292.571 245.143l340 340h-340v-340zM950.857 201.143v-109.714c0-10.286-8-18.286-18.286-18.286h-128v-128c0-10.286-8-18.286-18.286-18.286h-109.714c-10.286 0-18.286 8-18.286 18.286v128h-493.714c-10.286 0-18.286 8-18.286 18.286v493.714h-128c-10.286 0-18.286 8-18.286 18.286v109.714c0 10.286 8 18.286 18.286 18.286h128v128c0 10.286 8 18.286 18.286 18.286h109.714c10.286 0 18.286-8 18.286-18.286v-128h486.286l140.571 141.143c7.429 6.857 18.857 6.857 26.286 0 6.857-7.429 6.857-18.857 0-26.286l-141.143-140.571v-486.286h128c10.286 0 18.286-8 18.286-18.286z" />
<glyph unicode="&#xe95a;" glyph-name="block-user" horiz-adv-x="995" d="M489.783 104.425h-297.905c-14.035 0-22.227 7.797-26.126 12.475-6.633 7.797-8.973 18.329-7.017 28.465 33.923 162.214 176.632 280.356 341.964 284.255 2.732 0 5.458 0 8.193 0 121.657 0 221.087 99.046 221.087 221.087 0 121.657-99.046 221.087-221.087 221.087-121.657 0-221.087-99.046-221.087-221.087 0-72.14 35.097-136.472 88.899-177.028-49.517-16.374-95.531-41.336-136.088-74.863-74.479-61.218-125.947-146.224-145.444-240.196-6.238-29.245 1.171-59.656 20.272-82.66 18.713-23.007 46.794-36.262 76.423-36.262h297.905c17.933 0 32.364 14.43 32.364 32.364s-14.43 32.364-32.364 32.364v0zM353.312 650.322c0 86.175 69.801 155.97 155.97 155.97s155.97-69.801 155.97-155.97c0-84.615-67.846-154.021-152.461-155.97-1.171 0-2.339 0.39-3.512 0.39-2.732 0-5.073 0-7.797 0-82.66 3.899-148.167 72.14-148.167 155.97v0zM786.13 326.292v39.381c0 34.703-14.814 51.856-49.517 51.856s-49.133-17.153-49.133-51.856v-39.381h98.65zM736.613 124.312c21.052-2.339 57.71 17.153 58.49 58.49 0 22.227-16.77 57.71-58.49 58.49-44.455-1.951-58.49-37.438-58.49-59.656s16.77-56.534 58.49-57.315zM860.213 326.292c22.227 0 41.336-18.329 41.336-40.556v-205.877c0-22.227-19.109-40.556-41.336-40.556h-246.433c-22.227 0-41.336 18.329-41.336 40.556v205.877c0 22.227 19.109 40.556 41.336 40.556h20.272v41.336c0 56.93 46.398 102.944 102.944 102.944 56.93 0 102.944-46.398 102.944-102.944v-41.336h20.272z" />
<glyph unicode="&#xe95b;" glyph-name="lock_open" d="M768 84.667v428h-512v-428h512zM768 596.667c46 0 86-38 86-84v-428c0-46-40-84-86-84h-512c-46 0-86 38-86 84v428c0 46 40 84 86 84h388v86c0 72-60 132-132 132s-132-60-132-132h-82c0 118 96 214 214 214s214-96 214-214v-86h42zM512 212.667c-46 0-86 40-86 86s40 86 86 86 86-40 86-86-40-86-86-86z" />
<glyph unicode="&#xe95c;" glyph-name="lock" d="M644 596.667v86c0 72-60 132-132 132s-132-60-132-132v-86h264zM512 212.667c46 0 86 40 86 86s-40 86-86 86-86-40-86-86 40-86 86-86zM768 596.667c46 0 86-38 86-84v-428c0-46-40-84-86-84h-512c-46 0-86 38-86 84v428c0 46 40 84 86 84h42v86c0 118 96 214 214 214s214-96 214-214v-86h42z" />
<glyph unicode="&#xe95d;" glyph-name="eye-blocked, views, vision, visit, banned, blocked, forbidden, private" d="M888.085 879.553c-16.246 16.245-42.585 16.245-58.832 0l-175.21-175.21c-45.014 13.654-92.69 20.992-142.044 20.992-193.543 0-361.301-112.704-443.738-277.335 35.64-71.174 87.229-132.636 149.953-179.484l-137.768-137.768c-16.246-16.246-16.246-42.585 0-58.832 8.122-8.124 18.768-12.186 29.415-12.186s21.292 4.062 29.416 12.184l748.805 748.805c16.245 16.246 16.245 42.586 0 58.833zM428.8 614.401c36.608 0 67.672-23.654 78.798-56.504l-105.496-105.496c-32.848 11.126-56.504 42.19-56.504 78.798 0 45.952 37.25 83.2 83.2 83.2zM163.699 448c33.186 52.454 77.372 97.002 129.51 130.257 3.396 2.166 6.826 4.266 10.28 6.326-8.634-23.684-13.359-49.246-13.359-75.917 0-47.572 14.982-91.64 40.474-127.763l-52.801-52.801c-45.454 31.93-84.242 72.698-114.106 119.897zM733.868 508.667c0 23.544-3.688 46.223-10.488 67.512l-278.902-278.902c21.292-6.796 43.976-10.478 67.522-10.478 122.532 0 221.868 99.336 221.868 221.868zM787.625 640.424l-60.114-60.114c1.096-0.682 2.192-1.358 3.282-2.052 52.14-33.258 96.324-77.804 129.51-130.257-33.186-52.452-77.372-97-129.512-130.257-65.515-41.79-141.172-63.877-218.789-63.877-33.51 0-66.649 4.126-98.768 12.168l-66.642-66.642c51.756-18.6 107.424-28.726 165.409-28.726 193.538 0 361.295 112.704 443.738 277.335-39.020 77.928-97.17 144.212-168.112 192.424z" />
<glyph unicode="&#xe95e;" glyph-name="image_overlay3" d="M172.102 539.967h-76.282v76.282h76.282v-76.282zM172.102 389.648h-76.282v74.038h76.282v-74.038zM95.822 690.284c0 37.019 39.263 76.282 76.282 76.282v-76.282h-76.282zM473.861 87.891h-76.282v76.282h76.282v-76.282zM172.102 238.208h-76.282v76.282h76.282v-76.282zM172.102 87.891c-37.019 0-76.282 39.263-76.282 76.282h76.282v-76.282zM927.057 238.208h-76.282v76.282h76.282v-76.282zM322.421 87.891h-74.038v76.282h74.038v-76.282zM322.421 690.284h-74.038v76.282h74.038v-76.282zM850.776 87.891v76.282h76.282c0-37.019-39.263-76.282-76.282-76.282zM624.177 87.891h-76.282v76.282h76.282v-76.282zM774.495 87.891h-74.038v76.282h74.038v-76.282zM925.934 389.648h-528.355v376.917h452.075c40.383 0 76.282-35.896 76.282-76.282v-300.636zM848.532 468.173l-120.029 160.415-94.228-122.272-68.427 80.769-94.228-120.029h376.917z" />
<glyph unicode="&#xe95f;" glyph-name="filter" d="M907.311 746.244c-7.252 14.508-18.131 21.76-32.64 21.76h-725.341c-14.508 0-25.388-7.252-32.64-21.76-7.252-10.88-3.628-25.388 3.628-36.268l282.883-333.657v-224.855c0-14.508 7.252-25.388 21.76-32.64l145.068-72.534c3.628-3.628 7.252-3.628 14.508-3.628s14.508 0 18.131 3.628c10.88 7.252 18.131 18.131 18.131 32.64v297.39l282.883 333.657c7.252 10.88 10.88 25.388 3.628 36.268zM555.52 412.586c-3.628-7.252-7.252-14.508-7.252-25.388v-250.243l-72.534 36.268v213.975c0 7.252-3.628 18.131-7.252 21.76l-239.362 286.511h569.393l-242.99-282.883z" />
<glyph unicode="&#xe960;" glyph-name="star-empty, rate, star, favorite, bookmark" d="M956.706 547.842l-307.282 44.652-137.425 278.447-137.422-278.447-307.285-44.652 222.353-216.742-52.49-306.041 274.843 144.494 274.843-144.494-52.492 306.041 222.355 216.742zM512 238.243l-194.091-102.040 37.067 216.125-157.026 153.061 217.003 31.532 97.047 196.64 97.049-196.64 216.999-31.532-157.027-153.061 37.067-216.125-194.091 102.040z" />
<glyph unicode="&#xe961;" glyph-name="fill" d="M830.404 322.216c0 0-90.98-98.488-90.98-159.216 0-50.266 40.712-90.98 90.98-90.98s90.98 40.714 90.98 90.98c0 60.728-90.98 159.216-90.98 159.216zM312.728 845.351l-64.37-64.37 108.266-108.266-234.044-234.046c-26.613-26.613-26.613-69.829 0-96.439l250.194-250.194c13.193-13.42 30.705-20.016 48.22-20.016s35.029 6.594 48.22 20.016l250.196 250.194c26.613 26.613 26.613 69.829 0 96.439l-406.682 406.682zM202.869 390.452l218.125 217.898 218.125-217.898h-436.248z" />
<glyph unicode="&#xe962;" glyph-name="angle-of-acute-shape" d="M200.898 128.486h317.987c-4.836-12.915-10.48-26.017-16.735-39.526-10.283-21.778-1.015-47.805 20.775-58.077 6.048-2.825 12.313-4.225 18.766-4.225 16.331 0 32.066 9.275 39.526 25.002 12.501 26.421 22.577 52.026 30.242 76.827h211.728c24.203 0 43.561 19.555 43.561 43.552 0 23.978-19.565 43.542-43.561 43.542h-194.79c3.825 54.229-6.255 103.237-30.853 146.591-18.352 32.476-43.157 58.277-70.377 78.836l321.417 311.346c16.942 17.13 16.726 44.764-0.414 61.706-17.13 16.952-44.764 16.735-61.697-0.404l-337.561-327.673c-66.335 28.428-126.628 34.676-131.068 35.087-23.996 2.218-45.176-15.125-47.589-39.12-2.425-23.996 15.125-45.375 39.12-47.786 0.611 0 32.676-3.633 72.393-16.35l-211.925-215.135c-12.304-12.501-15.927-31.257-9.275-47.579 6.875-16.125 22.784-26.626 40.337-26.626zM465.455 378.336c22.175-15.326 42.348-34.881 56.259-59.479 16.538-29.227 22.775-63.718 18.963-103.040h-235.533l160.323 162.529z" />
<glyph unicode="&#xe963;" glyph-name="unsplash-icon" d="M356 608.667v234h312v-234h-312zM668 478.667h260v-468h-832.003v468h260v-234h312v234z" />
<glyph unicode="&#xe964;" glyph-name="product-icon" d="M512 420.346l-444.049 240.198v-489.877l444.049-256 444.049 256v489.877zM749.037 594.173l184.889 101.136-421.927 243.358-192.79-110.617zM512 464.593l197.531 107.457-429.827 232.296-191.21-110.617z" />
<glyph unicode="&#xe965;" glyph-name="clone" d="M794.133 168.479v399.684c0 6.244-5.511 11.756-11.756 11.756h-399.684c-6.244 0-11.756-5.511-11.756-11.756v-399.684c0-6.244 5.511-11.756 11.756-11.756h399.684c6.244 0 11.756 5.511 11.756 11.756zM841.154 568.167v-399.684c0-32.326-26.448-58.777-58.778-58.777h-399.684c-32.326 0-58.778 26.448-58.778 58.777v399.684c0 32.326 26.448 58.778 58.778 58.778h399.684c32.326 0 58.778-26.448 58.778-58.778zM700.086 709.235v-58.778h-47.022v58.778c0 6.244-5.511 11.756-11.756 11.756h-399.684c-6.244 0-11.756-5.511-11.756-11.756v-399.684c0-6.244 5.511-11.756 11.756-11.756h58.777v-47.022h-58.777c-32.326 0-58.778 26.448-58.778 58.777v399.684c0 32.326 26.448 58.778 58.778 58.778h399.684c32.326 0 58.777-26.448 58.777-58.778z" />
<glyph unicode="&#xe966;" glyph-name="corner-skewX" d="M180.698 448l133.297-132.002v103.531h396.009v-103.531l133.297 132.002-133.297 132.002v-103.531h-396.009v103.531z" />
<glyph unicode="&#xe967;" glyph-name="corner-resize" d="M277.318 682.682v-187.929l73.339 73.339 281.435-281.435-73.339-73.339h187.929v187.929l-73.339-73.339-281.435 281.435 73.339 73.339z" />
<glyph unicode="&#xe968;" glyph-name="corner-rotate" d="M550.514 744.31c-149.553 0-272.549-103.429-292.117-250.185l-125.792 25.158 124.395-184.494 184.494 122.996-117.408 23.761c15.376 93.644 114.611 197.075 227.823 197.075 125.792 0 227.823-107.622 227.823-234.813 0-124.395-124.395-227.823-225.027-227.823v-65.692c167.723 0 292.117 134.178 292.117 296.31s-134.178 296.31-296.31 296.31z" />
<glyph unicode="&#xe969;" glyph-name="close1" d="M512 499.069l-191.376 191.376-38.269-38.269 191.376-191.376-191.376-191.376 38.269-38.269 191.376 191.376 191.376-191.376 38.269 38.269-191.376 191.376 191.376 191.376-38.269 38.269-191.376-191.376z" />
<glyph unicode="&#xe96a;" glyph-name="corner-skewY" d="M512 779.302l-132.002-133.297h103.531v-396.009h-103.531l132.002-133.297 132.002 133.297h-103.531v396.009h103.531z" />
<glyph unicode="&#xe96b;" glyph-name="flaticon" horiz-adv-x="1028" d="M421.436 355.832h102.221l90.564 149.744h-284.244l-94.151 154.228h473.441l90.564 149.744h-698.505c-27.797 0-52.005-14.347-66.354-37.66-13.45-23.313-13.45-52.904 0.898-75.32l412.468-673.4c13.45-22.417 38.557-36.763 64.56-36.763s51.11 13.45 64.56 36.763l24.21 38.557-180.23 294.109zM792.022 659.801h177.541l22.417 36.763c13.45 22.417 14.347 52.005 0.898 75.32s-38.557 37.66-66.354 37.66h-43.040l-91.46-149.744zM748.085 588.067l-192.785-315.629 87.872-144.363 281.555 459.992h-176.643z" />
<glyph unicode="&#xf166;" glyph-name="uniF166" d="M358.4 682.667h-99.84q0 70.144 36.608 109.312t114.432 39.168v107.52q-118.784 0-188.416-71.424t-69.632-184.576h-91.136l134.144-173.568zM1024 887.467v-716.8h-256v-256h-716.8v512h460.8v460.8h512zM921.6 785.067h-307.2v-358.4h153.6v-153.6h153.6v512zM665.6 324.267h-512v-307.2h512v307.2z" />
<glyph unicode="&#xf167;" glyph-name="uniF167" d="M816.64 682.667h-99.84l163.84-173.568 134.144 173.568h-91.136q0 113.152-69.632 184.576t-188.416 71.424v-107.52q77.824 0 114.432-39.168t36.608-109.312zM51.2 887.467h512v-460.8h460.8v-512h-716.8v256h-256v716.8zM153.6 785.067v-512h153.6v153.6h153.6v358.4h-307.2zM409.6 324.267v-307.2h512v307.2h-512z" />
</font>
</defs>
</svg>
