<svg width="52" height="46" viewBox="0 0 52 46" fill="none" xmlns="http://www.w3.org/2000/svg">
<path d="M7.65143 27.5H16.1284C16.4834 27.5 16.7713 27.2107 16.7713 26.8538V18.328C16.7715 18.1566 16.7039 17.992 16.5832 17.8708C16.4626 17.7496 16.299 17.6816 16.1284 17.6818H7.65143C7.48084 17.6816 7.31718 17.7496 7.19656 17.8708C7.07594 17.992 7.00829 18.1566 7.00855 18.328V26.8538C7.00855 27.2107 7.29637 27.5 7.65143 27.5ZM8.29334 18.9742H15.4865V26.2047H8.29334V18.9742Z" fill="#1D1D1B"/>
<path d="M24.5038 33.2276C24.3591 33.2218 24.2228 33.2984 24.1488 33.4273C24.0748 33.5561 24.0748 33.7166 24.1488 33.8455C24.2228 33.9743 24.3591 34.0509 24.5038 34.0451H24.5175C24.6216 34.0448 24.7214 34.0014 24.7945 33.9246C24.8676 33.8478 24.9081 33.7439 24.9068 33.636C24.9042 33.4082 24.724 33.2255 24.5038 33.2276Z" fill="#1D1D1B"/>
<path d="M23.0804 7.86333H39.7006C39.9347 7.86913 40.1549 7.79251 40.2746 7.66365C40.3943 7.53478 40.3943 7.37431 40.2746 7.24545C40.1549 7.11658 39.9347 7.03996 39.7006 7.04576H23.0804C22.7373 7.05427 22.4661 7.23477 22.4661 7.45455C22.4661 7.67432 22.7373 7.85482 23.0804 7.86333Z" fill="#1D1D1B"/>
<path d="M23.0664 12.7724H34.0208C34.2495 12.7782 34.4648 12.7016 34.5817 12.5727C34.6987 12.4439 34.6987 12.2834 34.5817 12.1545C34.4648 12.0257 34.2495 11.949 34.0208 11.9549H23.0664C22.7311 11.9634 22.4661 12.1439 22.4661 12.3636C22.4661 12.5834 22.7311 12.7639 23.0664 12.7724Z" fill="#1D1D1B"/>
<path d="M23.0804 20.9542H39.7006C39.9347 20.96 40.1549 20.8834 40.2746 20.7546C40.3943 20.6257 40.3943 20.4652 40.2746 20.3364C40.1549 20.2075 39.9347 20.1309 39.7006 20.1367H23.0804C22.7373 20.1452 22.4661 20.3257 22.4661 20.5455C22.4661 20.7652 22.7373 20.9457 23.0804 20.9542Z" fill="#1D1D1B"/>
<path d="M23.0906 25.0454H34.045C34.3899 25.0454 34.6695 24.8623 34.6695 24.6364C34.6695 24.4104 34.3899 24.2273 34.045 24.2273H23.0906C22.7457 24.2273 22.4661 24.4104 22.4661 24.6364C22.4661 24.8623 22.7457 25.0454 23.0906 25.0454Z" fill="#1D1D1B"/>
<path d="M7.65021 15.2273H16.1286C16.4832 15.2273 16.7707 14.9385 16.7713 14.582V6.05537C16.7713 5.69844 16.4835 5.40909 16.1286 5.40909H7.65021C7.29567 5.40962 7.00854 5.69881 7.00854 6.05537V14.582C7.00854 14.9384 7.29583 15.2273 7.65021 15.2273ZM8.29283 6.70068H15.4831V13.9318H8.29283V6.70068Z" fill="#1D1D1B"/>
<path d="M43.8958 0.5H5.10421C2.56248 0.502678 0.502668 2.57007 0.5 5.12114V33.5186C0.502668 36.0696 2.56248 38.137 5.10421 38.1397H20.2957C20.2957 38.2184 20.2957 38.2962 20.2957 38.3739C20.2957 41.5664 19.1638 43.9562 18.1074 44.1865C18.0886 44.1912 18.0702 44.197 18.0522 44.204H14.3107C13.964 44.2175 13.6899 44.5035 13.6899 44.8518C13.6899 45.2 13.964 45.486 14.3107 45.4995H34.6893C34.9258 45.5087 35.1484 45.3873 35.2694 45.1831C35.3904 44.9789 35.3904 44.7246 35.2694 44.5204C35.1484 44.3162 34.9258 44.1948 34.6893 44.204H30.943C30.9237 44.1964 30.904 44.1899 30.8839 44.1846C29.8304 43.9446 28.7024 41.5519 28.7024 38.3739C28.7024 38.2952 28.7024 38.2184 28.7072 38.1397H43.8958C46.4375 38.137 48.4973 36.0696 48.5 33.5186V5.12114C48.4973 2.57007 46.4375 0.502678 43.8958 0.5ZM5.10421 1.79547H43.8958C45.7245 1.79815 47.2062 3.28569 47.2083 5.12114V30.363H1.79557V5.12114C1.7977 3.28721 3.277 1.80029 5.10421 1.79547ZM28.9241 44.204H20.074C21.0025 42.9231 21.5893 40.8074 21.5893 38.3729C21.5893 38.2942 21.5893 38.2174 21.5893 38.1387H27.4184C27.4184 38.2174 27.4136 38.2942 27.4136 38.3729C27.4116 40.8045 27.9994 42.9222 28.928 44.204H28.9241ZM43.8958 36.8471H5.10421C3.27511 36.845 1.79286 35.3573 1.79073 33.5215V31.6594H47.2083V33.5186C47.2083 35.3554 45.7259 36.845 43.8958 36.8471Z" fill="#1D1D1B"/>
<path fill-rule="evenodd" clip-rule="evenodd" d="M44.1116 12.5H51.6741V24.5H44.1116V12.5Z" fill="white"/>
<path fill-rule="evenodd" clip-rule="evenodd" d="M47.2288 22.3789V19.2383H44.1116V17.9258H47.2288V14.8086H48.5569V17.9258H51.6741V19.2383H48.5569V22.3789H47.2288Z" fill="#1D1D1B"/>
</svg>
