<?xml version="1.0" encoding="UTF-8"?>
<svg xmlns="http://www.w3.org/2000/svg" xmlns:xlink="http://www.w3.org/1999/xlink" width="610pt" height="717pt" viewBox="0 0 610 717" version="1.1">
<g id="surface1">
<path style=" stroke:none;fill-rule:nonzero;fill:rgb(0%,0%,0%);fill-opacity:1;" d="M 609.773438 226.4375 C 609.773438 227.738281 609.773438 229.144531 609.773438 230.445312 C 590.648438 241.273438 571.625 252.296875 552.402344 262.921875 C 542.589844 268.335938 532.476562 272.945312 522.464844 277.859375 C 518.261719 279.964844 514.957031 280.363281 511.25 275.855469 C 505.945312 269.539062 499.539062 264.125 492.828125 257.609375 C 492.027344 261.820312 491.929688 265.230469 490.726562 268.136719 C 486.722656 278.859375 483.015625 289.785156 478.011719 300.113281 C 474.007812 308.429688 474.40625 317.351562 473.804688 325.871094 C 472.90625 337.800781 474.105469 349.828125 474.808594 361.859375 C 476.007812 382.605469 477.410156 403.457031 478.8125 424.207031 C 480.113281 443.851562 481.914062 463.398438 482.816406 483.046875 C 483.417969 495.675781 482.015625 508.503906 483.21875 521.035156 C 484.519531 534.46875 483.316406 547.597656 482.417969 560.828125 C 481.816406 568.949219 481.316406 577.167969 482.316406 585.1875 C 484.417969 601.828125 487.324219 618.464844 490.425781 635.003906 C 492.328125 645.128906 495.734375 654.953125 497.835938 665.078125 C 499.636719 673.796875 501.738281 682.71875 497.636719 691.4375 C 497.234375 692.140625 496.734375 693.042969 496.835938 693.746094 C 497.433594 698.65625 494.03125 700.261719 490.425781 701.261719 C 482.917969 703.46875 475.308594 705.171875 467.796875 707.378906 C 461.289062 709.28125 454.984375 712.289062 448.375 713.691406 C 429.152344 717.601562 409.726562 717.199219 390.203125 716.800781 C 366.273438 716.296875 342.34375 715.796875 318.316406 715.695312 C 280.96875 715.496094 243.625 715.996094 206.28125 715.195312 C 191.960938 714.894531 177.644531 711.886719 163.328125 709.480469 C 157.519531 708.480469 151.914062 706.074219 146.304688 703.867188 C 138.996094 700.960938 131.6875 697.855469 124.578125 694.347656 C 122.976562 693.542969 121.777344 691.140625 121.375 689.234375 C 118.171875 674.5 121.175781 660.464844 126.382812 646.433594 C 131.6875 632.5 137.695312 618.464844 130.886719 603.128906 C 129.886719 600.824219 130.285156 597.417969 130.886719 594.808594 C 132.589844 586.492188 135.292969 578.472656 136.496094 570.050781 C 137.996094 559.726562 138.097656 549.203125 139.296875 538.878906 C 140.199219 531.359375 140.5 523.339844 143.300781 516.425781 C 146.808594 508.003906 148.808594 499.382812 148.308594 490.761719 C 147.507812 478.035156 144.804688 465.402344 143.003906 452.773438 C 141.199219 440.144531 138.796875 427.414062 138.195312 414.683594 C 137.796875 405.359375 140.398438 395.839844 141 386.417969 C 142.800781 359.050781 139.097656 331.785156 137.394531 304.523438 C 136.394531 288.585938 128.984375 274.449219 125.082031 259.316406 C 124.980469 258.8125 124.179688 258.511719 123.476562 257.910156 C 121.574219 260.917969 119.972656 263.726562 117.972656 266.332031 C 114.96875 270.140625 111.664062 273.546875 108.660156 277.359375 C 106.558594 280.0625 104.15625 281.867188 100.550781 281.066406 C 94.144531 279.5625 87.035156 279.160156 81.328125 276.15625 C 65.40625 267.835938 49.1875 259.617188 34.671875 249.191406 C 22.753906 240.671875 13.242188 228.941406 2.429688 218.820312 C -0.671875 215.910156 -0.472656 213.808594 2.53125 211.101562 C 4.132812 209.695312 5.335938 207.792969 6.535156 206.089844 C 13.746094 195.664062 20.753906 185.140625 28.164062 174.816406 C 36.574219 163.1875 45.683594 152.160156 53.894531 140.332031 C 61.902344 128.804688 69.011719 116.777344 76.421875 104.949219 C 90.4375 82.496094 109.960938 66.457031 134.292969 56.132812 C 151.414062 48.816406 168.535156 41.5 185.65625 34.082031 C 193.863281 30.472656 202.574219 27.664062 210.183594 23.054688 C 218.996094 17.640625 226.90625 10.523438 235.214844 4.210938 C 237.21875 2.707031 239.21875 1.402344 241.324219 0 C 243.324219 0 245.328125 0 247.328125 0 C 247.832031 0.300781 248.429688 0.800781 248.929688 0.902344 C 262.246094 1.605469 275.464844 2.507812 288.78125 2.707031 C 301.597656 2.90625 314.410156 2.105469 327.226562 2.304688 C 342.847656 2.605469 358.464844 3.105469 374.085938 4.109375 C 380.292969 4.511719 386.699219 5.613281 392.304688 8.121094 C 396.210938 9.824219 399.515625 12.832031 403.820312 14.835938 C 411.230469 18.144531 417.835938 23.554688 424.34375 28.566406 C 429.851562 32.777344 434.15625 38.890625 440.066406 42.300781 C 457.285156 52.324219 475.007812 61.546875 492.730469 70.667969 C 500.039062 74.375 507.546875 77.382812 511.152344 85.601562 C 511.953125 87.308594 513.65625 88.710938 515.257812 90.011719 C 520.761719 94.824219 527.269531 98.835938 531.875 104.347656 C 540.488281 114.671875 548.597656 125.496094 555.804688 136.824219 C 564.015625 149.554688 571.824219 162.585938 578.332031 176.21875 C 582.839844 185.640625 586.34375 195.5625 592.652344 204.082031 C 598.359375 211.402344 604.066406 218.917969 609.773438 226.4375 Z M 609.773438 226.4375 "/>
</g>
</svg>
