<?xml version="1.0" encoding="UTF-8"?>
<svg xmlns="http://www.w3.org/2000/svg" xmlns:xlink="http://www.w3.org/1999/xlink" width="626pt" height="717pt" viewBox="0 0 626 717" version="1.1">
<g id="surface1">
<path style=" stroke:none;fill-rule:nonzero;fill:rgb(0%,0%,0%);fill-opacity:1;" d="M 259.027344 717.800781 C 251.199219 717.800781 243.175781 717.800781 235.351562 717.800781 C 235.050781 717.5 234.449219 717.199219 234.148438 717.199219 C 222.210938 716.597656 210.171875 716.300781 198.433594 716 C 188.800781 715.398438 179.273438 715.097656 169.644531 714.199219 C 155.597656 712.695312 141.753906 711.398438 127.707031 709.59375 C 126.804688 711.097656 117.175781 710.898438 113.5625 710.300781 C 110.25 709.695312 108.144531 707.597656 108.144531 703.695312 C 108.144531 700.695312 107.542969 697.394531 107.542969 694.394531 C 107.242188 689.292969 106.039062 683.890625 107.242188 679.085938 C 109.953125 667.683594 113.5625 656.679688 117.175781 645.28125 C 122.289062 628.875 122.589844 611.769531 124.398438 595.0625 C 125.902344 581.863281 126.503906 568.761719 128.308594 555.851562 C 130.71875 539.152344 132.523438 522.347656 132.523438 505.339844 C 132.523438 496.636719 131.921875 488.035156 133.726562 479.632812 C 136.132812 467.332031 140.050781 455.128906 143.65625 443.121094 C 145.164062 438.019531 147.269531 433.222656 146.667969 427.621094 C 146.066406 422.816406 145.765625 417.71875 145.765625 412.914062 C 145.464844 402.113281 145.464844 391.109375 144.859375 380.304688 C 144.261719 365.402344 143.960938 350.097656 140.648438 335.195312 C 138.84375 327.390625 138.242188 319.589844 137.039062 311.585938 C 136.738281 308.886719 136.4375 305.886719 135.832031 303.183594 C 133.726562 293.582031 131.019531 284.078125 128.910156 274.476562 C 127.707031 268.773438 124.398438 263.675781 125.601562 257.46875 C 125.601562 257.175781 124.199219 255.769531 123.59375 255.171875 C 118.777344 259.675781 114.867188 264.972656 110.050781 269.472656 C 108.246094 271.277344 105.636719 272.574219 103.832031 274.378906 C 99.921875 279.179688 97.414062 281.78125 91.792969 279.679688 C 81.5625 276.078125 71.730469 272.175781 61.800781 267.679688 C 39.929688 257.769531 20.164062 244.667969 0.300781 231.167969 C 0.300781 230.5625 0.300781 230.261719 0.300781 229.664062 C 0.902344 229.066406 1.503906 228.765625 2.109375 227.863281 C 7.824219 218.5625 13.84375 209.058594 19.460938 199.453125 C 24.578125 190.753906 29.394531 181.550781 34.410156 172.851562 C 39.828125 163.242188 45.84375 153.742188 50.863281 144.140625 C 60.492188 125.335938 71.53125 107.929688 86.878906 93.324219 C 90.789062 89.421875 95.304688 86.421875 98.917969 82.519531 C 103.730469 77.125 109.453125 72.917969 115.367188 69.621094 C 120.183594 66.917969 125.601562 65.117188 130.617188 62.714844 C 132.726562 61.816406 134.53125 60.320312 136.636719 59.414062 C 147.773438 54.914062 158.808594 50.414062 169.644531 45.910156 C 173.554688 44.113281 178.371094 42.613281 181.078125 39.613281 C 186.796875 33.011719 193.417969 28.507812 200.242188 23.808594 C 203.851562 21.40625 207.765625 19.902344 211.675781 17.804688 C 216.792969 15.105469 221.605469 12.398438 226.621094 10.003906 C 227.226562 9.699219 228.429688 9.699219 229.335938 10.003906 C 240.46875 12.105469 251.503906 15.707031 262.941406 16.003906 C 274.980469 16.003906 286.917969 16.605469 298.652344 16.003906 C 310.09375 15.402344 321.425781 14.203125 332.863281 12.398438 C 343.699219 10.902344 354.734375 8.503906 365.566406 5.800781 C 369.480469 4.902344 372.792969 2.5 376.703125 1 C 378.207031 1 379.714844 1 380.917969 1 C 384.226562 3.101562 387.539062 5.5 390.851562 7.605469 C 392.652344 8.800781 394.761719 9.398438 396.566406 10.605469 C 398.074219 11.203125 399.878906 11.804688 400.78125 13.003906 C 408.90625 22.902344 419.339844 29.410156 431.679688 32.710938 C 438.902344 34.808594 446.324219 36.613281 453.550781 39.3125 C 468.496094 45.011719 483.242188 51.3125 497.589844 57.519531 C 504.8125 60.820312 512.238281 64.121094 517.351562 70.417969 C 517.957031 71.019531 518.855469 71.625 519.460938 72.21875 C 529.691406 80.023438 538.019531 89.523438 545.242188 100.328125 C 549.757812 107.527344 553.96875 114.929688 558.984375 121.832031 C 571.628906 139.140625 584.765625 155.941406 597.007812 173.25 C 604.230469 183.152344 610.449219 193.554688 617.371094 203.757812 C 620.378906 208.257812 623.691406 212.757812 627.003906 216.957031 C 627.003906 217.5625 627.003906 217.863281 627.003906 218.460938 C 607.839844 227.164062 589.484375 237.566406 571.828125 248.371094 C 554.46875 258.871094 536.714844 268.675781 519.359375 279.179688 C 516.347656 280.976562 514.246094 280.976562 512.4375 278.277344 C 508.523438 272.875 504.613281 267.472656 500.097656 261.570312 C 499.195312 262.175781 497.089844 263.074219 496.785156 264.570312 C 494.683594 271.179688 492.273438 278.078125 491.371094 284.882812 C 489.261719 297.183594 488.058594 309.691406 486.554688 322.289062 C 485.351562 332.492188 484.445312 342.59375 484.148438 352.796875 C 483.847656 363.300781 484.445312 373.703125 485.050781 384.207031 C 485.351562 392.308594 486.253906 400.011719 486.855469 408.113281 C 487.757812 419.515625 485.949219 430.820312 484.445312 441.925781 C 482.039062 458.027344 480.234375 474.527344 480.535156 490.9375 C 480.835938 503.539062 482.039062 516.042969 482.644531 528.648438 C 482.941406 533.449219 482.34375 538.25 482.34375 543.050781 C 482.644531 552.050781 483.542969 560.957031 483.242188 569.957031 C 482.941406 577.761719 484.445312 585.265625 487.15625 592.0625 C 490.167969 599.269531 492.273438 606.671875 491.671875 614.46875 C 491.371094 621.375 489.5625 627.976562 488.664062 634.78125 C 488.058594 638.679688 486.554688 642.574219 486.855469 646.179688 C 487.757812 654.882812 490.167969 663.1875 493.175781 671.289062 C 495.28125 676.992188 495.886719 682.992188 496.785156 688.890625 C 497.390625 693.394531 497.089844 697.894531 497.089844 702.09375 C 497.089844 706.894531 496.1875 708.097656 491.371094 708.097656 C 481.4375 708.097656 471.609375 707.800781 461.675781 708.097656 C 433.488281 708.699219 405.292969 708.996094 377.101562 711.699219 C 364.464844 712.898438 351.925781 713.199219 339.082031 713.800781 C 324.738281 714.699219 310.292969 715.300781 295.644531 715.902344 C 286.3125 716.199219 277.085938 716.5 268.054688 716.800781 C 264.746094 717.199219 261.734375 717.5 259.027344 717.800781 Z M 259.027344 717.800781 "/>
</g>
</svg>
