<svg width="48" height="48" viewBox="0 0 48 48" fill="none" xmlns="http://www.w3.org/2000/svg">
<mask id="mask0_2845_152" style="mask-type:alpha" maskUnits="userSpaceOnUse" x="0" y="0" width="48" height="48">
<rect width="48" height="48" fill="#D9D9D9"/>
</mask>
<g mask="url(#mask0_2845_152)">
<path d="M22.3961 40.9999H9.88465C9.10035 40.9999 8.4235 40.7152 7.8541 40.1458C7.2847 39.5764 7 38.8996 7 38.1153V9.88465C7 9.10035 7.2847 8.4235 7.8541 7.8541C8.4235 7.2847 9.10035 7 9.88465 7H22.3961V40.9999ZM25.6653 22.3346V7H38.1153C38.8996 7 39.5764 7.2847 40.1458 7.8541C40.7152 8.4235 40.9999 9.10035 40.9999 9.88465V22.3346H25.6653ZM25.6653 40.9999V25.6038H40.9999V38.1153C40.9999 38.8996 40.7152 39.5764 40.1458 40.1458C39.5764 40.7152 38.8996 40.9999 38.1153 40.9999H25.6653Z" fill="black"/>
</g>
</svg>
