<svg width="18" height="20" viewBox="0 0 18 20" fill="none" xmlns="http://www.w3.org/2000/svg">
<path fill-rule="evenodd" clip-rule="evenodd" d="M0 16.1785C0 16.8564 0.548991 17.406 1.2262 17.406H7.14132C7.52078 17.406 7.79596 17.0456 7.7589 16.6675C7.73477 16.4213 7.72271 16.1752 7.72271 15.929C7.72271 14.1567 8.32604 12.6469 9.53271 11.3997C10.7394 10.1525 12.2196 9.52892 13.9732 9.52892C14.2147 9.52892 14.46 9.54122 14.7094 9.56584C15.085 9.60292 15.4454 9.32907 15.4454 8.95119V6.19724C15.4454 5.81478 15.2673 5.45416 14.9637 5.22193L8.46725 0.252181C8.02771 -0.0840604 7.4177 -0.0840601 6.97816 0.252181L0.481663 5.22193C0.17809 5.45416 0 5.81478 0 6.19724V16.1785ZM13.7731 19.854C13.8594 20.0487 14.1354 20.0487 14.2215 19.854L15.3113 17.3928C15.3355 17.3382 15.3788 17.2942 15.433 17.2693L17.8573 16.1525C18.0476 16.0648 18.0476 15.7942 17.8573 15.7065L15.433 14.5898C15.3788 14.5649 15.3355 14.5209 15.3113 14.4663L14.2215 12.0051C14.1354 11.8104 13.8594 11.8104 13.7731 12.0051L12.6835 14.4663C12.6592 14.5209 12.616 14.5649 12.5617 14.5898L10.1375 15.7065C9.94717 15.7942 9.94717 16.0648 10.1375 16.1525L12.5617 17.2693C12.616 17.2942 12.6592 17.3382 12.6835 17.3928L13.7731 19.854Z" fill="#FE4329"/>
</svg>
