<svg width="180" height="342" viewBox="0 0 180 342" fill="none" xmlns="http://www.w3.org/2000/svg">
<path d="M179.393 275.036C179.319 279.544 177.195 283.695 171.277 287.494C169.718 288.495 168.153 289.488 166.58 290.47C162.788 292.848 158.962 295.174 155.104 297.445C150.185 300.347 145.215 303.165 140.201 305.893C111.293 321.631 80.2765 335.414 47.7203 341.333C47.7203 341.333 10.0538 262.987 0.291016 242.679C0.427636 239.651 0.582677 236.635 0.756221 233.633C0.782068 233.175 0.807949 232.717 0.837489 232.263C1.27689 224.9 1.83075 217.622 2.49169 210.429C2.56923 209.61 2.64678 208.79 2.72432 207.97C2.73539 207.859 2.74646 207.749 2.75754 207.638C2.86831 206.456 2.98645 205.271 3.1083 204.089C3.23384 202.823 3.3668 201.56 3.50342 200.294C3.50342 200.268 3.50342 200.238 3.51081 200.212C3.65851 198.831 3.80989 197.45 3.96867 196.069C4.02036 195.6 4.07573 195.135 4.13111 194.666C4.55574 190.985 5.01363 187.326 5.49364 183.692C8.98669 157.402 13.9161 132.478 19.9791 109.246C20.8209 106.022 21.685 102.828 22.5712 99.6673C22.7484 99.0322 22.9256 98.4045 23.1065 97.7731C23.269 97.1934 23.4352 96.6174 23.6013 96.0377C23.797 95.3619 23.9891 94.6862 24.1884 94.0142C24.3694 93.3902 24.554 92.7662 24.7386 92.1458C25.1042 90.9052 25.4734 89.6682 25.85 88.4349C26.0531 87.7629 26.2562 87.0946 26.4629 86.4226C26.5663 86.0902 26.6698 85.7542 26.7731 85.4219C26.7842 85.3887 26.7916 85.3591 26.8027 85.3259C27.0131 84.6391 27.231 83.9523 27.4488 83.2655C27.663 82.5787 27.8846 81.8919 28.1024 81.2088C28.1135 81.1756 28.1209 81.1424 28.1319 81.1128C28.4938 79.9756 28.8594 78.8457 29.2286 77.7195C29.4169 77.1435 29.6089 76.5638 29.8009 75.984C29.9929 75.4043 30.185 74.8246 30.3807 74.2486C30.6133 73.5507 30.8496 72.8492 31.0896 72.1513C31.2779 71.59 31.4699 71.0288 31.6619 70.4712C32.3192 68.5623 32.9875 66.6607 33.6706 64.759C33.9697 63.9209 34.2725 63.0901 34.5753 62.2593C34.7488 61.7792 34.9223 61.2992 35.0996 60.8192C35.4134 59.9663 35.7273 59.117 36.0485 58.2677C36.2627 57.6991 36.4769 57.1342 36.691 56.5692C37.0603 55.5907 37.4369 54.6159 37.8098 53.6448C37.9058 53.3974 38.0018 53.15 38.0978 52.9026C39.3459 49.6976 40.6272 46.5073 41.9527 43.3355C42.2186 42.6894 42.4881 42.0469 42.7614 41.4044C43.1232 40.5441 43.4888 39.6911 43.8544 38.8382C43.8987 38.7348 43.943 38.6314 43.9873 38.5243C44.087 38.2954 44.1866 38.0664 44.2863 37.8375C44.4968 37.3501 44.711 36.8627 44.9251 36.3753C45.2759 35.5704 45.6304 34.7654 45.9885 33.9641C46.3467 33.1592 46.7086 32.3579 47.0704 31.5567C47.4323 30.7591 47.7978 29.9578 48.1634 29.164C48.2816 28.9055 48.3997 28.647 48.5216 28.3922C48.8724 27.6353 49.2268 26.8784 49.5813 26.1214C49.7032 25.8629 49.825 25.6082 49.9469 25.3497C50.2423 24.7294 50.5376 24.109 50.8367 23.4887C51.0361 23.0751 51.2355 22.6616 51.4349 22.2517C51.7746 21.5502 52.118 20.8523 52.4614 20.1544C52.5537 19.9661 52.646 19.7815 52.7383 19.5932C52.7642 19.5415 52.7937 19.4787 52.8306 19.4086C56.1058 12.8102 59.477 6.51827 62.9294 0.547607C62.9701 0.599302 63.007 0.650989 63.0476 0.702683C68.8041 8.41249 75.096 18.3858 81.5282 31.2576C96.5491 68.0748 111.57 104.888 126.591 141.702C137.62 168.731 148.646 195.763 159.675 222.792C164.006 233.404 168.334 244.016 172.665 254.628C175.719 262.112 179.418 268.906 179.393 275.036Z" fill="#74CEE1"/>
</svg>
