<svg width="180" height="342" viewBox="0 0 180 342" fill="none" xmlns="http://www.w3.org/2000/svg">
<path d="M179.84 242.502C170.073 262.81 132.407 341.156 132.407 341.156C99.8544 335.237 68.838 321.453 39.9299 305.716C35.0411 303.058 30.2004 300.318 25.4076 297.493C21.549 295.226 17.7199 292.903 13.9241 290.529C12.2256 289.47 10.5344 288.399 8.8507 287.317C2.93172 283.514 0.812265 279.367 0.738416 274.859C0.712569 268.729 4.41239 261.931 7.46603 254.45C11.7936 243.838 16.1248 233.226 20.4523 222.614C31.4816 195.586 42.5109 168.553 53.5402 141.525C68.5611 104.711 83.5782 67.8976 98.599 31.0803C105.076 18.131 111.404 8.1134 117.19 0.381438C117.19 0.381438 117.19 0.374054 117.198 0.370361C120.654 6.34472 124.029 12.644 127.304 19.2461C127.322 19.2756 127.337 19.3089 127.352 19.3421C127.455 19.5526 127.562 19.763 127.666 19.9772C128.057 20.7674 128.445 21.5612 128.833 22.3588C128.836 22.3699 128.844 22.3847 128.851 22.3994C129.047 22.8019 129.243 23.2044 129.435 23.6105C129.726 24.2124 130.014 24.8143 130.299 25.4235C132.267 29.5775 134.198 33.8423 136.081 38.2141C136.151 38.3766 136.221 38.5354 136.288 38.6978C136.627 39.4843 136.963 40.2708 137.296 41.061C137.591 41.7589 137.887 42.4567 138.178 43.1583C138.444 43.7971 138.706 44.4359 138.972 45.0784C139.234 45.7171 139.496 46.3596 139.755 46.9984C141.224 50.6244 142.668 54.3168 144.075 58.0794C144.725 59.8075 145.364 61.5429 145.991 63.2821C146.243 63.9762 146.494 64.6704 146.741 65.3683C146.988 66.0625 147.236 66.7603 147.479 67.4582C147.723 68.1524 147.967 68.8503 148.207 69.5481C148.451 70.2497 148.691 70.9476 148.927 71.6454C149.038 71.963 149.148 72.2842 149.256 72.6055C149.44 73.1519 149.625 73.6984 149.806 74.2449C149.824 74.304 149.846 74.3631 149.865 74.4221C150.252 75.5816 150.64 76.7484 151.024 77.9226C151.061 78.0333 151.098 78.1441 151.131 78.2586C152.143 81.3639 153.136 84.4988 154.104 87.678C154.646 89.4503 155.182 91.2375 155.706 93.0357C155.968 93.9256 156.227 94.8155 156.485 95.709C156.515 95.8161 156.548 95.9269 156.578 96.034C156.925 97.2414 157.268 98.4525 157.608 99.6673C157.948 100.875 158.28 102.082 158.612 103.293C158.612 103.293 158.616 103.304 158.616 103.308C158.959 104.575 159.303 105.841 159.635 107.111C159.639 107.119 159.639 107.126 159.642 107.133C159.86 107.953 160.074 108.773 160.289 109.596C160.41 110.065 160.532 110.534 160.654 111.007C160.824 111.653 160.99 112.303 161.153 112.953C165.934 131.817 169.97 151.768 173.101 172.637C173.286 173.87 173.467 175.104 173.644 176.344C173.696 176.669 173.74 176.994 173.788 177.323C173.866 177.895 173.947 178.468 174.028 179.04C174.135 179.801 174.242 180.565 174.342 181.326C174.419 181.879 174.493 182.437 174.567 182.994C174.896 185.439 175.206 187.883 175.505 190.331C175.623 191.295 175.738 192.263 175.852 193.226C176.088 195.224 176.31 197.225 176.528 199.226C176.661 200.463 176.786 201.704 176.916 202.945C176.978 203.569 177.048 204.193 177.111 204.817C177.181 205.492 177.248 206.172 177.314 206.848C177.351 207.228 177.388 207.608 177.425 207.989C178.503 219.28 179.316 230.789 179.84 242.498V242.502Z" fill="#74CEE1"/>
</svg>
