<svg width="545" height="419" viewBox="0 0 545 419" fill="none" xmlns="http://www.w3.org/2000/svg">
<path d="M168.857 12.9471C168.857 17.9467 165.844 22.6767 160.908 24.6263L11.9179 83.4541C11.2237 81.8664 10.5221 80.2823 9.80578 78.7057C9.79101 78.6761 9.77993 78.6466 9.76516 78.6171C9.30361 77.5906 8.83467 76.5641 8.36204 75.5449C7.88941 74.5221 7.41308 73.4993 6.92937 72.4839C6.64136 71.8784 6.35335 71.2728 6.06165 70.6709C5.86964 70.2648 5.67394 69.8623 5.48193 69.4598C5.40809 69.3084 5.33423 69.157 5.26039 69.0056C4.94653 68.3595 4.63267 67.717 4.31512 67.0745C4.20435 66.8493 4.09358 66.6277 3.98281 66.4025C3.96804 66.3729 3.95326 66.3397 3.9348 66.3065C3.92742 66.2954 3.92003 66.2806 3.91265 66.2696C3.50648 65.4941 2.26582 63.3895 0.785156 60.8527L151.688 1.27162C158.138 -1.27247 165.427 1.88825 167.975 8.33894C168.573 9.85284 168.857 11.411 168.857 12.9471Z" fill="#A7A9AC"/>
<path d="M544.463 244.345C544.353 245.319 544.245 246.298 544.142 247.273L544.098 247.683C544.072 247.915 544.05 248.148 544.024 248.38C543.987 248.728 543.95 249.071 543.917 249.414C543.858 249.994 543.799 250.574 543.74 251.15C543.68 251.73 543.621 252.313 543.562 252.893C543.507 253.461 543.452 254.026 543.4 254.595C543.385 254.739 543.37 254.887 543.356 255.031C543.278 255.85 543.2 256.67 543.123 257.49C543.042 258.346 542.964 259.203 542.883 260.063C542.51 264.155 542.17 268.253 541.89 272.355L197.197 408.455C190.746 410.999 183.454 407.838 180.906 401.388C180.308 399.874 180.027 398.315 180.027 396.783C180.027 391.78 183.037 387.05 187.973 385.1L544.463 244.345Z" fill="#A7A9AC"/>
<path d="M280.528 328.078C280.528 330.862 278.851 333.495 276.104 334.577L63.0693 418.694C63.1394 415.936 63.1763 413.207 63.1689 410.515C63.1652 409.116 63.1505 407.72 63.1172 406.343C63.0951 405.453 63.0729 404.567 63.0508 403.677L270.972 321.579C274.561 320.165 278.619 321.926 280.037 325.515C280.369 326.357 280.528 327.225 280.528 328.078Z" fill="white"/>
<path d="M194.959 332.073C192.969 332.86 190.72 331.881 189.934 329.891C189.148 327.901 190.126 325.652 192.113 324.866L397.216 243.883C399.206 243.097 401.455 244.075 402.242 246.065C403.028 248.056 402.05 250.304 400.063 251.091L194.959 332.073Z" fill="#A7A9AC"/>
<path d="M158.57 106.144C158.57 107.688 157.639 109.146 156.118 109.748L36.9555 156.797C36.9445 156.753 36.9297 156.705 36.9186 156.66C36.7044 155.83 36.4866 155.002 36.265 154.175C35.9327 152.905 35.5893 151.639 35.2459 150.372C35.2459 150.368 35.2422 150.361 35.2422 150.357C35.1425 149.992 35.0428 149.626 34.9395 149.264L153.271 102.544C155.261 101.758 157.51 102.732 158.296 104.723C158.481 105.192 158.57 105.672 158.57 106.144Z" fill="#A7A9AC"/>
<path d="M258.144 25.5604C260.341 26.0885 262.556 26.5722 264.797 27.0116L80.4857 99.7858C76.8967 101.204 72.8387 99.4424 71.4208 95.8533C71.0884 95.0115 70.9297 94.1437 70.9297 93.2871C70.9297 90.5067 72.606 87.874 75.3532 86.7884L242.244 20.8932C243.16 21.2181 244.079 21.532 245.006 21.8348C245.371 21.9529 245.737 22.0748 246.102 22.1893C247.506 22.6434 248.924 23.0754 250.349 23.4927C251.793 23.9136 253.244 24.3161 254.71 24.7038C255.415 24.8884 256.124 25.0694 256.836 25.2429C256.866 25.2503 256.895 25.2577 256.925 25.2651C257.331 25.3648 257.737 25.4644 258.144 25.5604Z" fill="white"/>
</svg>
