<svg width="544" height="419" viewBox="0 0 544 419" fill="none" xmlns="http://www.w3.org/2000/svg">
<path fill-rule="evenodd" clip-rule="evenodd" d="M160.122 24.2344C165.059 22.2848 168.072 17.5548 168.072 12.5553C168.072 11.0192 167.788 9.461 167.19 7.9471C164.642 1.49642 157.353 -1.66431 150.902 0.879779L0 60.4609C0.265416 60.9156 0.52312 61.3565 0.769688 61.7782C1.89864 63.7094 2.79413 65.2413 3.12749 65.8777C3.13118 65.8832 3.13487 65.8897 3.13856 65.8962L3.13864 65.8963C3.14231 65.9027 3.14598 65.9091 3.14965 65.9146C3.16207 65.937 3.17283 65.9594 3.18304 65.9806L3.18309 65.9807L3.18315 65.9808L3.18947 65.994L3.19765 66.0106C3.25267 66.1225 3.3077 66.2335 3.36272 66.3445L3.36399 66.347C3.41932 66.4586 3.47464 66.5702 3.52997 66.6827C3.84752 67.3251 4.16137 67.9676 4.47523 68.6138L4.69678 69.068C4.77409 69.23 4.852 69.3921 4.93003 69.5544L4.93006 69.5545L4.93046 69.5553L4.9313 69.557L4.93333 69.5612C5.04799 69.7998 5.16289 70.0388 5.27649 70.2791C5.5682 70.881 5.85621 71.4865 6.14422 72.0921C6.62793 73.1075 7.10425 74.1303 7.57688 75.1531C8.04952 76.1722 8.51845 77.1987 8.98 78.2252C8.98739 78.24 8.99385 78.2548 9.00032 78.2695L9.00746 78.2858C9.01164 78.2951 9.01595 78.3045 9.02063 78.3138C9.73696 79.8905 10.4385 81.4746 11.1327 83.0623L160.122 24.2344ZM543.357 246.881C543.46 245.906 543.567 244.928 543.678 243.953L187.188 384.708C182.252 386.658 179.242 391.388 179.242 396.391C179.242 397.924 179.523 399.482 180.121 400.996C182.669 407.446 189.961 410.607 196.412 408.063L541.104 271.964C541.385 267.861 541.725 263.763 542.098 259.671C542.179 258.811 542.257 257.954 542.338 257.098L542.57 254.639L542.593 254.421L542.615 254.203C542.666 253.634 542.722 253.069 542.777 252.501L542.866 251.629L542.954 250.758C543.013 250.182 543.073 249.602 543.132 249.022C543.162 248.712 543.195 248.402 543.228 248.088L543.239 247.989C543.252 247.872 543.264 247.756 543.276 247.64L543.287 247.533C543.295 247.453 543.304 247.372 543.313 247.291L543.357 246.881ZM194.174 331.681C192.184 332.468 189.935 331.489 189.149 329.499C188.362 327.509 189.341 325.26 191.327 324.474L396.431 243.491C398.421 242.705 400.67 243.683 401.456 245.673C402.243 247.664 401.264 249.912 399.278 250.699L194.174 331.681ZM155.334 109.356C156.855 108.754 157.785 107.296 157.785 105.752C157.785 105.28 157.697 104.8 157.512 104.331C156.726 102.341 154.477 101.366 152.487 102.152L34.1553 148.873C34.2587 149.234 34.3584 149.6 34.4581 149.966C34.4581 149.969 34.4618 149.977 34.4618 149.98C34.8051 151.247 35.1485 152.513 35.4809 153.784C35.7024 154.611 35.9203 155.438 36.1344 156.269C36.14 156.291 36.1464 156.314 36.1529 156.337C36.1594 156.36 36.1658 156.383 36.1714 156.405L155.334 109.356Z" fill="#A7A9AC"/>
<path fill-rule="evenodd" clip-rule="evenodd" d="M264.013 26.6197C261.772 26.1803 259.556 25.6966 257.359 25.1686C256.954 25.0727 256.548 24.9731 256.142 24.8735L256.141 24.8732L256.052 24.8511C255.34 24.6775 254.631 24.4966 253.925 24.312C252.459 23.9243 251.008 23.5218 249.565 23.1009C248.139 22.6836 246.721 22.2516 245.318 21.7974C245.075 21.7211 244.831 21.6416 244.587 21.562C244.466 21.5222 244.344 21.4824 244.222 21.4429C243.295 21.1402 242.375 20.8263 241.46 20.5014L74.569 86.3966C71.8219 87.4821 70.1455 90.1148 70.1455 92.8952C70.1455 93.7519 70.3043 94.6196 70.6366 95.4615C72.0545 99.0505 76.1125 100.812 79.7015 99.3939L264.013 26.6197ZM275.318 334.185C278.065 333.103 279.742 330.47 279.742 327.686C279.742 326.833 279.583 325.965 279.251 325.124C277.833 321.535 273.775 319.773 270.186 321.187L62.2646 403.285L62.3311 405.951C62.3643 407.328 62.3791 408.724 62.3828 410.123C62.3902 412.815 62.3533 415.544 62.2831 418.302L275.318 334.185Z" fill="white"/>
</svg>
