<svg width="611" height="988" viewBox="0 0 611 988" fill="none" xmlns="http://www.w3.org/2000/svg">
<path d="M610.382 94.8769C610.363 94.9138 610.348 94.9508 610.33 94.9877C610.323 94.9803 610.319 94.9692 610.312 94.9618C610.278 94.9175 610.245 94.8769 610.216 94.8326C609.555 95.9733 608.898 97.1251 608.248 98.2916C604.977 104.113 601.784 110.226 598.683 116.613C596.686 120.725 594.73 124.952 592.81 129.289C592.695 129.548 592.585 129.802 592.47 130.061C591.451 132.375 590.451 134.72 589.454 137.093V137.101C588.978 138.234 588.509 139.375 588.041 140.523C586.616 144.015 585.216 147.573 583.851 151.191C583.275 152.701 582.71 154.218 582.149 155.75C581.547 157.397 580.949 159.054 580.358 160.723C579.155 164.119 577.974 167.567 576.822 171.063C576.556 171.875 576.29 172.683 576.028 173.495C575.209 176.02 574.404 178.567 573.614 181.144C573.603 181.177 573.592 181.211 573.585 181.244C573.503 181.506 573.422 181.768 573.345 182.03C571.931 186.663 570.565 191.377 569.243 196.165C569.122 196.601 569.003 197.04 568.885 197.475C568.468 198.996 568.058 200.525 567.652 202.06C567.106 204.124 566.571 206.202 566.046 208.292C565.142 211.88 564.263 215.508 563.418 219.174C563.385 219.318 563.352 219.462 563.318 219.606C563.045 220.787 562.772 221.972 562.51 223.161C562.03 225.298 561.561 227.443 561.104 229.606C559.959 234.978 558.878 240.426 557.855 245.945C557.46 248.105 557.069 250.275 556.692 252.457C553.521 270.693 551.044 289.69 549.376 309.332C548.604 318.391 548.006 327.587 547.589 336.904C546.363 334.353 545.577 332.718 545.359 332.268C546.729 335.446 544.724 343.693 544.573 346.945C543.919 361.084 543.355 375.226 542.842 389.372C542.783 391.051 542.723 392.731 542.664 394.411C541.974 414.094 541.402 433.784 540.94 453.475C540.771 460.725 541.018 468.289 541.339 475.956C542.018 492.284 543.015 509.062 540.955 524.201C540.095 530.539 537.995 535.357 538.198 542.145C538.231 543.356 538.626 544.368 539.091 545.335C539.811 546.826 540.704 548.211 540.734 550.049C540.782 553.334 538.257 556.808 537.954 560.238C537.249 568.222 541.742 574.35 541.727 581.881C541.716 587.773 537.865 593.114 538.973 599.748C540.051 606.227 543.68 609.796 543.938 615.658C544.263 623.03 543.118 630.144 541.945 637.235C541.007 642.92 540.051 648.594 539.826 654.379C539.707 657.406 539.704 660.485 539.785 663.589C539.981 671.607 540.7 679.821 541.254 687.89C541.387 689.851 541.513 691.803 541.616 693.741C541.697 695.181 541.764 696.613 541.815 698.038C542.1 705.816 542.413 713.587 542.768 721.361C542.812 722.377 542.856 723.395 542.904 724.411C543.126 729.187 543.358 733.961 543.609 738.734C544.119 748.586 544.691 758.432 545.333 768.273C545.654 773.176 545.99 778.078 546.349 782.98C546.411 783.844 546.474 784.712 546.54 785.575C546.566 785.974 546.596 786.369 546.629 786.768C546.795 789.034 546.969 791.301 547.146 793.568C547.161 793.771 547.179 793.97 547.194 794.173C547.467 797.665 547.796 801.154 548.135 804.642C548.176 805.063 548.213 805.48 548.257 805.901C548.305 806.429 548.357 806.957 548.408 807.481C548.67 810.19 548.925 812.896 549.15 815.602C549.35 817.961 549.523 820.316 549.664 822.675C549.734 823.838 549.837 824.938 549.974 825.983C550.535 830.372 551.616 833.872 552.764 837.637C552.938 838.213 553.115 838.796 553.292 839.387C553.835 841.21 554.378 843.126 554.872 845.264C555.024 845.924 555.101 846.618 555.123 847.327C555.197 849.631 554.702 852.126 554.378 854.345C554.215 855.449 554.093 856.486 554.104 857.394C554.115 858.158 554.145 858.919 554.193 859.668C554.263 860.709 554.367 861.739 554.496 862.758V862.765C554.754 864.759 555.116 866.719 555.526 868.668C555.581 868.919 555.633 869.17 555.688 869.421C556.275 872.094 556.94 874.748 557.538 877.439C557.855 878.849 558.154 880.267 558.412 881.703C558.542 882.415 558.66 883.131 558.767 883.855C559.103 886.129 559.538 888.052 560.062 890.009C560.336 891.031 560.631 892.057 560.948 893.154C560.985 893.283 561.026 893.42 561.063 893.552C561.078 893.604 561.092 893.656 561.104 893.707C561.816 896.314 561.421 898.986 561.104 901.652C561.022 902.346 560.945 903.043 560.897 903.737C560.827 904.69 560.808 905.638 560.897 906.58C560.912 906.731 560.93 906.886 560.948 907.034C560.989 907.351 561.041 907.658 561.104 907.964C561.34 909.142 561.727 910.253 562.174 911.349C562.532 912.232 562.927 913.103 563.318 913.981C563.883 915.244 564.43 916.525 564.821 917.898C564.85 917.994 564.876 918.083 564.902 918.175C565.589 920.707 566.279 923.236 566.955 925.772C567.567 928.076 568.169 930.379 568.741 932.694C568.797 932.915 568.852 933.14 568.907 933.362C569.387 935.326 571.713 942.332 572.366 947.803C572.691 950.538 572.599 952.886 571.654 954.034C571.506 954.211 571.336 954.359 571.148 954.477C571.148 954.481 568.199 956.275 563.318 958.915C562.617 959.295 561.879 959.69 561.104 960.103C559.036 961.196 556.711 962.396 554.178 963.647C552.908 964.267 551.59 964.906 550.225 965.552C547.22 966.977 543.997 968.428 540.634 969.838C536.74 971.48 532.657 973.064 528.5 974.489C527.618 974.792 526.732 975.087 525.842 975.375C519.998 977.261 514.059 978.786 508.348 979.65C506.166 979.982 504.018 980.215 501.917 980.336C499.75 980.458 497.635 980.462 495.594 980.325C492.895 980.669 490.197 980.997 487.491 981.307C487.044 981.363 486.594 981.414 486.147 981.466C485.856 981.499 485.568 981.532 485.276 981.566C484.231 981.688 483.187 981.806 482.138 981.92C478.284 982.348 474.43 982.751 470.569 983.127C469.347 983.249 468.125 983.363 466.9 983.478C466.372 983.53 465.844 983.578 465.316 983.626C463.444 983.803 461.573 983.969 459.701 984.128C459.402 984.153 459.099 984.179 458.8 984.205C454.415 984.578 450.029 984.921 445.64 985.231C442.624 985.449 439.608 985.649 436.592 985.837C435.935 985.877 435.278 985.918 434.621 985.955C434.314 985.977 434.004 985.996 433.698 986.014C429.97 986.232 426.245 986.431 422.516 986.608C420.763 986.693 419.006 986.774 417.252 986.848C416.359 986.885 415.462 986.922 414.569 986.959C413.601 987 412.634 987.037 411.663 987.073C410.925 987.103 410.187 987.129 409.448 987.158C407.326 987.232 405.196 987.306 403.069 987.369V987.631H210.959V987.457C209.146 987.413 207.338 987.358 205.525 987.295C201.538 987.169 197.559 987.014 193.59 986.848C190.456 986.715 187.322 986.568 184.188 986.402C183.45 986.365 182.711 986.328 181.973 986.283C180.821 986.221 179.67 986.158 178.518 986.091C169.909 985.597 161.301 984.991 152.703 984.264H152.699C147.166 983.795 141.64 983.282 136.121 982.714C129.151 981.998 122.193 981.204 115.253 980.325C113.034 980.473 110.73 980.458 108.361 980.3C107.63 980.252 106.891 980.189 106.146 980.111C100.789 979.569 95.1597 978.361 89.5375 976.752C88.8841 976.564 88.2307 976.372 87.5773 976.172C86.7245 975.914 85.8755 975.648 85.0264 975.375C79.9506 973.74 74.9412 971.827 70.2123 969.838C62.2239 966.482 55.0328 962.901 49.6395 960.044C48.8606 959.634 48.1223 959.236 47.4246 958.859C42.6035 956.246 39.6982 954.481 39.6945 954.477C39.5063 954.359 39.3365 954.211 39.1888 954.034C38.2475 952.886 38.1552 950.538 38.48 947.803C38.6461 946.4 38.923 944.898 39.2516 943.407C40.2003 939.073 41.5772 934.82 41.9353 933.362C41.9907 933.137 42.046 932.915 42.1014 932.69C42.6736 930.379 43.2753 928.072 43.8881 925.772C44.5637 923.236 45.254 920.707 45.9406 918.175C46.3171 916.779 46.8598 915.48 47.4246 914.203C47.8491 913.247 48.2847 912.305 48.676 911.349C48.772 911.109 48.868 910.873 48.9566 910.633C49.2261 909.917 49.4586 909.186 49.6395 908.433C49.6801 908.263 49.717 908.093 49.7502 907.92C49.8388 907.484 49.909 907.038 49.9496 906.58C50.0345 905.638 50.016 904.69 49.9496 903.737C49.8795 902.763 49.7576 901.781 49.6395 900.803C49.37 898.558 49.1338 896.317 49.6395 894.121C49.6801 893.929 49.7281 893.741 49.7835 893.552C50.1415 892.308 50.4775 891.153 50.7802 890.009C51.3044 888.052 51.74 886.129 52.0759 883.855C52.183 883.131 52.3011 882.415 52.4303 881.703C53.2277 877.269 54.3979 873.002 55.3134 868.668C55.9409 865.722 56.4504 862.747 56.6497 859.668C56.7014 858.915 56.7309 858.158 56.742 857.394C56.7752 854.659 55.6087 850.775 55.7194 847.327C55.7416 846.615 55.8191 845.924 55.9705 845.264C56.6276 842.432 57.3659 839.981 58.082 837.633C58.4696 836.36 58.8498 835.119 59.2042 833.864C59.8982 831.402 60.4963 828.888 60.8691 825.983C61.0057 824.938 61.1091 823.838 61.1792 822.675C61.3195 820.316 61.493 817.957 61.6923 815.602C62.0024 811.948 62.3568 808.297 62.7112 804.642C63.0434 801.154 63.3757 797.662 63.6525 794.173C63.6673 793.97 63.6857 793.771 63.7005 793.568C63.8777 791.305 64.0512 789.034 64.2173 786.768C64.2505 786.373 64.2801 785.974 64.3059 785.575C64.7341 779.809 65.1365 774.043 65.513 768.273C65.7124 765.176 65.908 762.083 66.0963 758.985C66.1074 758.819 66.1148 758.653 66.1258 758.487C66.1627 757.889 66.1997 757.287 66.2329 756.689C66.7534 748.025 67.2185 739.361 67.6394 730.694C67.7833 727.799 67.9162 724.909 68.0491 722.018C68.4109 714.026 68.7357 706.034 69.0274 698.038C69.5516 683.745 71.5782 668.536 71.0208 654.379C70.5077 641.377 66.3215 628.94 66.9047 615.658C67.0413 612.554 68.1229 610.092 69.271 607.5C69.5885 606.788 69.9096 606.06 70.216 605.311C70.9027 603.646 71.5228 601.848 71.8735 599.748C72.9773 593.114 69.1307 587.773 69.116 581.881C69.1012 574.35 73.5938 568.222 72.8887 560.238C72.586 556.808 70.0647 553.334 70.1127 550.049C70.157 547.018 72.5528 545.228 72.6451 542.145C72.7078 539.978 72.5417 538.011 72.2501 536.132C72.1873 535.711 72.1135 535.298 72.0397 534.884C71.3973 531.362 70.4117 528.066 69.8875 524.201C68.9498 517.309 68.6471 510.077 68.6582 502.701C68.6841 487.171 70.0979 471.01 69.9429 456.059C69.9429 455.325 69.9244 454.594 69.9096 453.866C69.9096 453.733 69.9096 453.604 69.9023 453.475C69.4002 432.105 68.7727 410.735 68.0011 389.372C67.835 384.794 67.6652 380.22 67.488 375.643C67.1152 366.075 66.7128 356.51 66.2698 346.945C66.1591 344.535 65.0294 339.377 65.011 335.575C65.0036 334.265 65.1291 333.117 65.4724 332.297C65.2436 332.762 64.5274 334.254 63.4199 336.553C63.3683 336.661 63.3166 336.771 63.2612 336.886C63.228 336.11 63.1911 335.335 63.1505 334.56C62.6706 324.464 61.9729 314.519 61.0758 304.74C61.002 303.928 60.9245 303.119 60.847 302.311C59.2042 285.035 56.9376 268.275 54.1247 252.117C52.7551 244.243 51.2564 236.517 49.6395 228.938C48.9233 225.594 48.1887 222.279 47.4246 218.993C47.0924 217.554 46.7527 216.121 46.4094 214.693C45.8889 212.522 45.361 210.362 44.8221 208.218C43.8807 204.478 42.9099 200.776 41.9095 197.121C41.6843 196.29 41.4554 195.464 41.2265 194.637C40.1929 190.916 39.1297 187.242 38.0334 183.617C37.5018 181.845 36.9628 180.085 36.4128 178.335C35.3828 175.042 34.3308 171.79 33.2528 168.578C32.9021 167.526 32.5478 166.478 32.1897 165.433C31.3886 163.089 30.5765 160.767 29.7496 158.471C29.613 158.091 29.4764 157.714 29.3398 157.334C28.6717 155.495 27.9998 153.672 27.3169 151.863C27.184 151.501 27.0474 151.139 26.9071 150.778C26.4937 149.685 26.0765 148.596 25.6557 147.514C24.0203 143.299 22.3481 139.168 20.6352 135.129C20.5614 134.952 20.4876 134.779 20.4137 134.601C18.0807 129.108 15.6849 123.785 13.2263 118.639C10.4946 112.917 7.68905 107.406 4.81704 102.123C3.46226 99.6242 2.0927 97.1768 0.708378 94.7846C0.682538 94.7403 0.6567 94.6961 0.630859 94.6518C1.36547 93.6698 2.0927 92.7248 2.80885 91.813C4.9204 89.1329 6.95074 86.7667 8.87772 84.6736C9.78583 83.6842 10.6718 82.7577 11.5319 81.8902C18.5643 74.7914 23.8948 71.5834 26.3239 70.3468C26.3349 70.3468 26.346 70.3357 26.3571 70.332C27.2726 69.8669 27.7672 69.686 27.7672 69.686C28.8082 69.3058 29.8234 68.8037 30.846 68.3644C32.6917 67.5744 34.5338 66.7845 36.3796 65.9945C40.06 64.4182 43.7441 62.8382 47.4246 61.2619C47.4652 61.2435 47.5021 61.2287 47.5427 61.2103C48.2404 60.9112 48.9418 60.6122 49.6395 60.3132C52.2346 59.2021 54.8335 58.0872 57.4286 56.9761C62.785 54.68 68.1377 52.3801 73.4978 50.084C75.3325 49.3014 77.1672 48.5151 79.0019 47.7251C81.3201 46.7321 83.6384 45.7391 85.9567 44.7461C91.1802 42.509 96.4074 40.2683 101.631 38.0275C102.015 37.8614 102.402 37.699 102.786 37.5328C103.255 37.3298 103.728 37.1305 104.196 36.9274C104.846 36.6506 105.496 36.37 106.146 36.0931C106.884 35.7757 107.622 35.4619 108.361 35.1444C109.254 34.7605 110.147 34.3803 111.041 33.9964C118.054 30.9915 125.065 27.9866 132.079 24.9817C133.23 24.487 134.378 23.996 135.53 23.5014C138.033 22.4271 140.54 21.3566 143.042 20.2824C143.057 20.275 143.068 20.2713 143.083 20.2639C145.711 19.138 148.34 18.0121 150.968 16.8825C153.275 15.8968 155.582 14.9075 157.89 13.9182C159.056 13.4198 160.237 12.9473 161.404 12.4453C161.913 12.2238 162.423 11.9986 162.921 11.7623C166.417 10.1011 168.78 7.52077 171.611 5.2874C172.312 4.72998 173.047 4.19471 173.83 3.70004C174.147 3.5007 174.468 3.31243 174.793 3.13893C177.034 1.92811 179.463 1.27841 181.973 0.968317C182.704 0.876029 183.442 0.813273 184.188 0.776358C184.225 0.776358 184.258 0.768975 184.295 0.768975C184.683 0.750517 185.07 0.743135 185.458 0.750518C189.039 0.783741 192.708 1.74354 196.326 2.90267C196.381 2.92113 196.437 2.93959 196.492 2.95805C199.777 4.01382 203.015 5.22833 206.108 6.05892C208.345 6.66064 210.597 7.21806 212.86 7.73857C217.98 8.91616 223.145 9.91656 228.313 10.8394C230.077 11.1569 231.842 11.4633 233.61 11.7623C235.622 12.1056 237.634 12.4342 239.649 12.7553C239.786 12.7775 239.926 12.7996 240.063 12.8218C244.057 13.4567 248.059 14.0585 252.064 14.6233C253.973 14.8927 255.881 15.1548 257.793 15.4059C258.532 15.5055 259.27 15.6015 260.008 15.6975C261.426 15.8821 262.843 16.0593 264.261 16.2364C264.501 16.266 264.741 16.2955 264.981 16.325H264.988C266.107 16.4616 267.225 16.5982 268.344 16.7274C271.482 17.1003 274.623 17.4547 277.761 17.7906C286.875 18.7688 296.001 19.6031 305.119 20.3193H305.709C310.305 19.9538 314.901 19.5625 319.497 19.138C324.204 18.7061 328.914 18.2373 333.617 17.7278C334.355 17.654 335.094 17.5728 335.832 17.4879C337.947 17.2553 340.059 17.0154 342.174 16.7643C343.514 16.6056 344.854 16.4469 346.194 16.2807C347.479 16.122 348.763 15.9596 350.048 15.7935C353.072 15.4059 356.095 14.9998 359.115 14.5716C359.901 14.4608 360.683 14.3501 361.466 14.2356C365.674 13.6302 369.875 12.9842 374.065 12.2939C375.235 12.1019 376.406 11.9063 377.572 11.707C379.392 11.3932 381.212 11.0757 383.028 10.7472C383.763 10.6143 384.494 10.4814 385.228 10.3448C392.634 8.98261 400.028 7.43955 407.263 5.35754C407.987 5.15081 408.714 4.91086 409.441 4.65615C410.179 4.40512 410.918 4.13933 411.656 3.88093C413.424 3.27183 415.2 2.72917 416.983 2.54829C420.553 2.18652 424.107 2.68487 427.637 3.17215C430.656 3.59299 435.437 3.22753 438.183 4.29807C440.369 5.15081 442.174 7.87515 444.123 9.28901C446.371 10.9207 448.852 12.1647 451.399 13.2574C455.947 15.2028 460.495 17.1519 465.043 19.1011C470.429 21.412 475.815 23.7192 481.204 26.0264C482.559 26.6096 483.914 27.1892 485.269 27.7688C486.007 28.0862 486.745 28.4037 487.484 28.7212C491.02 30.2384 494.56 31.7519 498.097 33.2691C500.223 34.1809 502.346 35.0891 504.472 36.0009C517.274 41.4865 530.08 46.9757 542.882 52.4613C548.955 55.0639 555.027 57.6664 561.096 60.2689C561.834 60.5864 562.573 60.9002 563.311 61.2176C567.992 63.2258 572.669 65.2303 577.35 67.2348C579.247 68.047 581.13 68.9809 583.072 69.686C583.072 69.686 583.744 69.9296 584.984 70.5941C586.586 71.4469 589.126 72.9936 592.382 75.6072C595.051 77.752 598.207 80.6166 601.707 84.4004C603.604 86.4455 605.601 88.7601 607.679 91.3774C608.562 92.4848 609.455 93.6477 610.363 94.8622C610.363 94.8622 610.371 94.8732 610.374 94.8769H610.382Z" fill="#232323"/>
</svg>
