<svg width="844" height="1000" viewBox="0 0 844 1000" fill="none" xmlns="http://www.w3.org/2000/svg">
<g clip-path="url(#clip0_805_838)">
<path d="M179.59 343.39C179.59 343.33 179.58 343.26 179.58 343.2C179.09 333.83 178.41 324.53 177.55 315.31V315.3C177.54 315.16 177.53 315.02 177.51 314.88C177.45 314.21 177.38 313.54 177.32 312.87C177.2 311.68 177.08 310.48 176.96 309.29C176.91 308.83 176.86 308.36 176.81 307.89C176.71 306.88 176.6 305.87 176.49 304.87V304.86C176.41 304.15 176.34 303.45 176.25 302.74C176.16 301.93 176.07 301.13 175.97 300.32C175.91 299.72 175.84 299.11 175.76 298.51C175.74 298.34 175.72 298.18 175.71 298.02V298.01C175.58 296.96 175.45 295.91 175.32 294.86C174.96 291.88 174.56 288.9 174.15 285.94C172.72 275.58 171.05 265.34 169.15 255.25C168.64 252.54 168.11 249.83 167.56 247.14C167.5 246.85 167.45 246.57 167.39 246.29C167.12 244.98 166.85 243.68 166.57 242.37C166.43 241.7 166.29 241.04 166.15 240.37V240.36C165.95 239.43 165.75 238.51 165.54 237.58C165.42 237.01 165.3 236.45 165.17 235.89C165.04 235.33 164.92 234.77 164.79 234.2C164.43 232.61 164.07 231.03 163.7 229.46C163.52 228.66 163.33 227.86 163.14 227.06C162.95 226.26 162.76 225.47 162.57 224.67C162.33 223.7 162.09 222.73 161.85 221.76C161.6 220.74 161.34 219.72 161.09 218.7C160.83 217.69 160.56 216.67 160.3 215.66C160.17 215.14 160.03 214.62 159.89 214.1C159.75 213.56 159.61 213.01 159.46 212.47C159.3 211.87 159.14 211.27 158.98 210.67C158.94 210.52 158.9 210.36 158.85 210.21C158.68 209.57 158.51 208.93 158.33 208.3C157.99 207.03 157.63 205.76 157.27 204.49C157.04 203.65 156.8 202.8 156.56 201.97C156.52 201.86 156.49 201.76 156.46 201.65C156.22 200.81 155.98 199.98 155.73 199.14C155.43 198.09 155.12 197.04 154.8 196V195.99C154.77 195.88 154.74 195.76 154.7 195.64C154.48 194.92 154.26 194.21 154.04 193.5C153.8 192.69 153.55 191.89 153.3 191.09C153.12 190.49 152.93 189.9 152.74 189.3C152.56 188.7 152.37 188.1 152.17 187.51C151.98 186.92 151.79 186.33 151.6 185.73C151.41 185.14 151.22 184.55 151.03 183.96V183.95C150.81 183.29 150.6 182.63 150.38 181.97C150.17 181.33 149.96 180.7 149.74 180.06C149.48 179.28 149.21 178.51 148.95 177.74C148.32 175.88 147.68 174.04 147.02 172.2C146.37 170.37 145.72 168.55 145.05 166.74C141.71 157.68 138.18 148.93 134.47 140.53C133.73 138.85 132.98 137.19 132.22 135.54V135.53C131.82 134.65 131.41 133.77 131 132.9C130.88 132.65 130.77 132.4 130.65 132.15C130.5 131.83 130.35 131.53 130.2 131.21C130.1 130.98 129.98 130.75 129.87 130.51C129.77 130.28 129.65 130.05 129.54 129.82C129.31 129.34 129.08 128.87 128.85 128.39C128.34 127.33 127.83 126.28 127.31 125.24C127.3 125.22 127.3 125.2 127.29 125.18C127.28 125.17 127.26 125.15 127.25 125.12C127.23 125.08 127.21 125.03 127.18 124.99C127.17 124.97 127.16 124.95 127.15 124.92C123.96 118.5 120.67 112.34 117.27 106.47V106.46C117.23 106.39 117.19 106.32 117.15 106.25L116.87 105.76C116.75 105.91 116.64 106.06 116.53 106.21C116.53 106.22 116.52 106.22 116.52 106.23C116.52 106.23 116.51 106.24 116.51 106.25C116.5 106.25 116.5 106.27 116.49 106.27C110.01 114.93 103.75 125.26 97.89 137L6.75 360.37C6.26 361.58 5.74 362.78 5.24 363.95L4.7 365.2C3.56 367.82 2.46 370.34 1.62 372.78C1.51 373.08 1.41 373.38 1.32 373.68C1.25 373.88 1.18 374.09 1.13 374.29C0.93 374.93 0.76 375.56 0.61 376.18C0.53 376.5 0.46 376.82 0.4 377.14C0.34 377.4 0.3 377.66 0.26 377.92C0.21 378.23 0.16 378.53 0.13 378.83C0.11 378.98 0.1 379.13 0.08 379.27C0.03 379.84 0 380.38 0 380.92C0.06 384.45 1.32 387.47 3.91 390.17C4.38 390.66 4.89 391.15 5.46 391.62C5.74 391.85 6.03 392.08 6.33 392.32C6.94 392.79 7.58 393.24 8.28 393.69C10.57 395.16 12.88 396.61 15.2 398.04C23.14 402.96 31.24 407.67 39.38 412.1C74.47 431.2 103.89 442.47 131.97 447.58L132.25 447.63L132.41 447.31L132.51 447.09L132.68 446.75C132.78 446.54 132.9 446.29 133.05 445.98L133.55 444.94L134.18 443.63L135.88 440.09C136.04 439.76 136.2 439.42 136.37 439.07L137.43 436.87L140.67 430.11L140.7 430.05L179.84 348.64V348.55C179.76 346.82 179.68 345.11 179.59 343.39ZM141.61 426.43L140.82 428.09L139.94 429.9L139.61 430.6L133.06 444.23L132.51 445.38L131.82 446.8C103.9 441.68 74.64 430.45 39.74 411.45H39.73C37.11 410.02 34.49 408.57 31.88 407.08C31.87 407.07 31.87 407.07 31.86 407.07C26.63 404.11 21.44 401.03 16.32 397.87C13.76 396.29 11.21 394.68 8.68 393.06C8.35 392.85 8.03 392.63 7.71 392.41C6.78 391.76 5.94 391.09 5.2 390.4C4.95 390.17 4.71 389.94 4.49 389.7C4.03 389.23 3.62 388.76 3.26 388.27C1.61 386.07 0.79 383.65 0.74 380.92C0.74 380.52 0.76 380.12 0.79 379.7C0.8 379.44 0.83 379.19 0.86 378.93C0.86 378.92 0.86 378.92 0.86 378.91C1 377.76 1.24 376.55 1.62 375.22C1.63 375.19 1.63 375.17 1.65 375.14C1.74 374.78 1.85 374.42 1.97 374.06C2.07 373.73 2.19 373.39 2.31 373.05C2.59 372.21 2.91 371.36 3.26 370.49C3.58 369.68 3.92 368.86 4.28 368.03C4.45 367.62 4.63 367.2 4.82 366.78C5 366.36 5.18 365.94 5.37 365.51C5.38 365.48 5.4 365.44 5.41 365.41C5.56 365.07 5.71 364.72 5.86 364.37C6.14 363.74 6.41 363.1 6.69 362.45C6.94 361.86 7.19 361.25 7.44 360.65L7.45 360.61L98.56 137.31C104.26 125.92 110.33 115.84 116.61 107.34C116.67 107.26 116.73 107.18 116.79 107.1C120.12 112.91 123.36 118.94 126.45 125.18C126.5 125.29 126.55 125.37 126.59 125.45C126.61 125.5 126.63 125.53 126.65 125.57C127.06 126.4 127.48 127.25 127.89 128.09C128.32 128.98 128.75 129.87 129.18 130.77C129.6 131.65 130.02 132.54 130.44 133.43C131.06 134.77 131.68 136.11 132.29 137.46C132.91 138.81 133.51 140.18 134.12 141.55C134.54 142.51 134.97 143.49 135.39 144.47C135.9 145.66 136.41 146.86 136.92 148.06C137.1 148.49 137.28 148.92 137.46 149.35C137.69 149.91 137.92 150.46 138.15 151.02C138.42 151.69 138.7 152.36 138.97 153.04C139.25 153.71 139.52 154.39 139.79 155.06C140.01 155.61 140.23 156.16 140.44 156.71C140.66 157.26 140.88 157.83 141.1 158.39C141.42 159.19 141.73 160 142.04 160.81C143.21 163.87 144.37 166.97 145.49 170.1C145.92 171.28 146.34 172.47 146.76 173.66C147.33 175.28 147.89 176.9 148.44 178.54C148.99 180.17 149.54 181.82 150.08 183.47C166.29 233.01 176.46 289.95 179.09 348.48L141.61 426.43Z" fill="black"/>
<path d="M716.751 125.71C716.731 125.75 716.711 125.78 716.691 125.82C716.601 125.99 716.521 126.17 716.431 126.35C716.091 127.03 715.761 127.72 715.421 128.4C715.421 128.42 715.421 128.42 715.411 128.43C715.091 129.08 714.781 129.73 714.471 130.38C714.791 129.73 715.101 129.08 715.421 128.43C715.421 128.42 715.431 128.42 715.431 128.4C715.761 127.72 716.101 127.04 716.441 126.35C716.521 126.17 716.611 125.99 716.701 125.82C716.721 125.78 716.731 125.75 716.761 125.71C716.781 125.67 716.801 125.63 716.821 125.59C716.791 125.63 716.771 125.67 716.751 125.71ZM712.701 134.14C712.501 134.56 712.311 134.98 712.111 135.4C711.561 136.59 711.011 137.79 710.481 139C711.021 137.79 711.571 136.59 712.121 135.4C712.321 134.98 712.511 134.56 712.711 134.14C712.981 133.54 713.261 132.95 713.541 132.35C713.851 131.69 714.161 131.04 714.471 130.38C714.161 131.04 713.851 131.69 713.531 132.35C713.261 132.95 712.981 133.54 712.701 134.14ZM708.471 143.54C708.171 144.21 707.881 144.89 707.591 145.57C707.301 146.25 707.011 146.93 706.721 147.61C706.451 148.26 706.181 148.91 705.901 149.56C705.661 150.16 705.411 150.76 705.161 151.36C704.881 152.05 704.601 152.73 704.321 153.43C704.601 152.73 704.881 152.05 705.171 151.36C705.421 150.76 705.661 150.16 705.911 149.56C706.191 148.91 706.461 148.26 706.731 147.61C707.021 146.93 707.311 146.25 707.601 145.57C707.891 144.89 708.181 144.21 708.481 143.54C708.761 142.91 709.031 142.27 709.311 141.64C709.701 140.76 710.091 139.87 710.481 139C710.081 139.87 709.691 140.76 709.301 141.64C709.021 142.27 708.751 142.91 708.471 143.54ZM702.861 157.07C702.361 158.35 701.861 159.64 701.361 160.93C701.111 161.57 700.871 162.22 700.621 162.87C699.911 164.74 699.211 166.62 698.531 168.51C699.221 166.62 699.921 164.74 700.631 162.87C700.881 162.22 701.121 161.57 701.371 160.93C701.861 159.64 702.371 158.35 702.871 157.07C703.081 156.55 703.281 156.03 703.491 155.51C703.761 154.81 704.041 154.12 704.321 153.43C704.041 154.12 703.761 154.81 703.481 155.51C703.281 156.03 703.071 156.55 702.861 157.07ZM843.291 379.19C843.151 377.98 842.901 376.74 842.561 375.47C842.541 375.39 842.521 375.32 842.501 375.24C842.371 374.78 842.231 374.32 842.071 373.86C841.971 373.53 841.861 373.2 841.741 372.87C841.121 371.08 840.371 369.25 839.561 367.38C839.271 366.69 838.961 366 838.661 365.3C837.991 363.76 837.301 362.16 836.641 360.55L745.491 137.16C739.691 125.56 733.511 115.32 727.111 106.72L727.101 106.71C727.021 106.59 726.941 106.5 726.861 106.39L726.521 105.94L726.241 106.42C726.221 106.46 726.201 106.5 726.181 106.53C722.761 112.45 719.441 118.66 716.231 125.13C715.541 126.53 714.851 127.94 714.161 129.36C706.651 145.01 699.751 162.1 693.671 180.2C693.111 181.84 692.571 183.5 692.031 185.16C691.491 186.81 690.961 188.47 690.441 190.14C690.431 190.16 690.431 190.17 690.421 190.19C690.091 191.25 689.761 192.32 689.441 193.39C689.151 194.31 688.871 195.24 688.591 196.17C688.551 196.3 688.511 196.43 688.471 196.56C688.101 197.81 687.731 199.06 687.361 200.32C687.011 201.54 686.661 202.76 686.311 203.98C686.141 204.59 685.971 205.2 685.801 205.82C685.451 207.04 685.111 208.27 684.781 209.51C684.611 210.12 684.441 210.74 684.281 211.36C683.911 212.71 683.551 214.06 683.201 215.41C682.491 218.12 681.801 220.85 681.131 223.58C680.631 225.62 680.141 227.66 679.661 229.71C679.181 231.77 678.721 233.82 678.261 235.88C678.241 235.94 678.231 235.99 678.221 236.04C677.931 237.34 677.641 238.64 677.361 239.95C677.121 241.06 676.881 242.18 676.651 243.3C676.471 244.17 676.291 245.03 676.111 245.9C675.711 247.89 675.311 249.89 674.921 251.89C674.761 252.69 674.611 253.48 674.461 254.28C674.391 254.64 674.321 255 674.251 255.35C674.091 256.21 673.931 257.06 673.781 257.92C673.401 259.93 673.041 261.95 672.691 263.98C672.461 265.3 672.241 266.62 672.021 267.94C671.851 268.92 671.691 269.9 671.531 270.88C671.381 271.84 671.221 272.8 671.071 273.77C671.061 273.84 671.051 273.91 671.041 273.97C670.581 276.85 670.151 279.74 669.731 282.65C669.591 283.61 669.461 284.58 669.321 285.55C669.141 286.84 668.971 288.14 668.791 289.44C668.691 290.17 668.601 290.92 668.501 291.66C668.261 293.5 668.031 295.35 667.811 297.21C667.711 297.99 667.621 298.78 667.531 299.57C667.401 300.64 667.271 301.71 667.151 302.78C667.061 303.65 666.961 304.52 666.861 305.39C666.821 305.86 666.771 306.33 666.721 306.8C666.621 307.73 666.521 308.66 666.421 309.59C666.301 310.84 666.171 312.09 666.051 313.34C666.031 313.55 666.011 313.78 665.991 313.99C665.921 314.68 665.851 315.39 665.791 316.1C665.781 316.18 665.771 316.27 665.761 316.35C665.721 316.74 665.691 317.13 665.651 317.51C665.521 318.96 665.401 320.41 665.281 321.87C665.241 322.23 665.211 322.6 665.191 322.96C665.131 323.59 665.081 324.23 665.031 324.86C664.821 327.54 664.621 330.22 664.441 332.92C664.311 334.82 664.191 336.74 664.081 338.65C664.061 339.02 664.041 339.38 664.011 339.75C663.841 342.62 663.701 345.47 663.571 348.35V348.42C663.561 348.52 663.561 348.62 663.551 348.73V348.82L702.701 430.26H702.711L702.911 430.69C703.801 432.54 704.641 434.28 705.411 435.89L708.991 443.34C709.961 445.37 710.621 446.74 710.891 447.29L711.001 447.51C711.021 447.56 711.031 447.58 711.031 447.58L711.141 447.81L711.421 447.76C739.511 442.65 768.931 431.38 804.011 412.28C814.541 406.54 825.011 400.35 835.111 393.87C840.671 390.29 843.311 386.24 843.391 381.1C843.391 380.47 843.361 379.84 843.291 379.19ZM711.301 446.45C711.191 446.21 711.051 445.93 710.891 445.59C710.651 445.09 710.351 444.48 710.011 443.77L706.161 435.76C705.611 434.61 705.021 433.39 704.411 432.11L703.791 430.81H703.781L703.451 430.12L664.291 348.66C664.431 345.63 664.591 342.6 664.771 339.58C664.791 339.28 664.801 338.98 664.821 338.69C668.461 277.64 680.281 218.7 698.531 168.51C699.221 166.62 699.921 164.74 700.631 162.87C700.881 162.22 701.121 161.57 701.371 160.93C701.861 159.64 702.371 158.35 702.871 157.07C703.081 156.55 703.281 156.03 703.491 155.51C703.761 154.81 704.041 154.12 704.321 153.43C704.601 152.73 704.881 152.05 705.171 151.36C705.421 150.76 705.661 150.16 705.911 149.56C706.191 148.91 706.461 148.26 706.731 147.61C707.021 146.93 707.311 146.25 707.601 145.57C707.891 144.89 708.181 144.21 708.481 143.54C708.761 142.91 709.031 142.27 709.311 141.64C709.701 140.76 710.091 139.87 710.481 139C711.021 137.79 711.571 136.59 712.121 135.4C712.321 134.98 712.511 134.56 712.711 134.14C712.981 133.54 713.261 132.95 713.541 132.35C713.851 131.69 714.161 131.04 714.471 130.38C714.791 129.73 715.101 129.08 715.421 128.43C715.421 128.42 715.431 128.42 715.431 128.4C715.761 127.72 716.101 127.04 716.441 126.35C716.521 126.17 716.611 125.99 716.701 125.82C716.721 125.78 716.731 125.75 716.761 125.71C716.781 125.67 716.801 125.63 716.821 125.59C716.841 125.54 716.871 125.49 716.901 125.44C720.001 119.16 723.251 113.1 726.601 107.28C726.661 107.36 726.721 107.43 726.771 107.51C726.781 107.51 726.781 107.52 726.781 107.52C733.061 116.01 739.131 126.09 744.821 137.46L835.951 360.83C836.471 362.1 837.011 363.36 837.541 364.58C837.691 364.92 837.841 365.26 837.981 365.59C838.001 365.63 838.021 365.68 838.031 365.72C838.321 366.37 838.601 367.01 838.871 367.65C839.461 369.02 840.021 370.35 840.511 371.66C840.621 371.93 840.721 372.21 840.821 372.48C840.911 372.73 841.001 372.96 841.081 373.2C841.201 373.56 841.321 373.92 841.431 374.27C841.561 374.66 841.671 375.05 841.781 375.43C841.981 376.12 842.141 376.78 842.261 377.41C842.381 378.03 842.481 378.64 842.551 379.24C842.621 379.87 842.651 380.48 842.651 381.09C842.571 385.95 840.051 389.81 834.711 393.24C824.621 399.72 814.171 405.9 803.661 411.63C768.761 430.62 739.491 441.86 711.561 446.98L711.301 446.45Z" fill="black"/>
<path d="M140.16 154C139.21 151.63 138.25 149.29 137.27 146.98C136.35 144.81 135.42 142.66 134.47 140.53C138.18 148.93 141.71 157.68 145.05 166.74C143.47 162.42 141.84 158.17 140.16 154ZM140.16 154C139.21 151.63 138.25 149.29 137.27 146.98C136.35 144.81 135.42 142.66 134.47 140.53C138.18 148.93 141.71 157.68 145.05 166.74C143.47 162.42 141.84 158.17 140.16 154ZM140.16 154C139.21 151.63 138.25 149.29 137.27 146.98C136.35 144.81 135.42 142.66 134.47 140.53C138.18 148.93 141.71 157.68 145.05 166.74C143.47 162.42 141.84 158.17 140.16 154ZM140.16 154C139.21 151.63 138.25 149.29 137.27 146.98C136.35 144.81 135.42 142.66 134.47 140.53C138.18 148.93 141.71 157.68 145.05 166.74C143.47 162.42 141.84 158.17 140.16 154ZM685.49 947.58C685.42 947.35 685.35 947.12 685.29 946.91C685.35 947.12 685.41 947.35 685.48 947.58C685.53 947.75 685.58 947.92 685.64 948.1C685.59 947.92 685.54 947.75 685.49 947.58ZM684.02 942C683.44 939.71 682.82 937.42 682.21 935.16C682.82 937.42 683.43 939.71 684.02 942ZM680.88 930.25L681.29 931.79C681.6 932.91 681.9 934.03 682.21 935.16C681.91 934.03 681.6 932.91 681.3 931.79L680.88 930.25ZM678.71 924.74C678.83 925.02 678.95 925.29 679.07 925.56C679.17 925.79 679.28 926.02 679.38 926.26C679.29 926.02 679.18 925.79 679.08 925.56C678.96 925.29 678.83 925.02 678.71 924.74ZM674.3 893.32C674.07 892.04 673.8 890.78 673.52 889.53C673.8 890.78 674.06 892.04 674.3 893.32ZM670.1 868.29C670.07 868.66 670.05 869.02 670.06 869.36C670.07 870.25 670.11 871.15 670.18 872.03C670.12 871.15 670.08 870.25 670.07 869.36C670.06 869.02 670.08 868.66 670.1 868.29ZM668.5 848.92C668.55 849.11 668.61 849.29 668.67 849.49C668.82 849.99 668.98 850.51 669.14 851.03C668.99 850.51 668.84 849.99 668.68 849.49C668.62 849.29 668.56 849.11 668.5 848.92ZM665.53 833.24C665.56 833.71 665.59 834.18 665.62 834.65C665.75 836.89 666.02 838.9 666.38 840.77C666.03 838.9 665.76 836.89 665.63 834.65C665.6 834.18 665.57 833.71 665.53 833.24ZM662.2 793.5C662.5 797.76 662.82 801.97 663.15 806.15C663.3 808.09 663.48 810.05 663.66 812C663.48 810.05 663.32 808.09 663.16 806.15C662.83 801.97 662.51 797.76 662.2 793.5ZM659.09 623.34C658.66 622.03 658.11 620.78 657.54 619.5C657.41 619.21 657.28 618.92 657.15 618.63C657.27 618.92 657.4 619.21 657.53 619.5C658.1 620.78 658.66 622.03 659.08 623.34C659.2 623.7 659.31 624.07 659.41 624.45C659.46 624.61 659.5 624.77 659.54 624.94C659.5 624.77 659.46 624.61 659.42 624.45C659.32 624.07 659.21 623.7 659.09 623.34ZM657.23 700.07C657.45 703.39 657.65 706.73 657.77 709.98C658.17 720.91 658.62 731.5 659.12 741.8C658.63 731.5 658.18 720.91 657.78 709.98C657.66 706.73 657.46 703.39 657.23 700.07ZM656.19 585.35C656.1 585.06 656.02 584.77 655.93 584.48C656.01 584.77 656.1 585.06 656.18 585.35C656.3 585.74 656.41 586.14 656.52 586.53C656.61 586.85 656.7 587.16 656.78 587.48C656.7 587.16 656.62 586.85 656.53 586.53C656.42 586.14 656.3 585.74 656.19 585.35ZM654.78 610.45C654.81 610.86 654.86 611.29 654.93 611.71C655.12 612.87 655.39 613.92 655.71 614.91C655.4 613.92 655.14 612.87 654.94 611.71C654.87 611.28 654.82 610.86 654.78 610.45ZM654.31 570.07C654.18 570.52 654.07 570.97 654 571.42C654.08 570.97 654.18 570.52 654.31 570.07ZM653.86 574.85C653.82 573.95 653.83 573.04 653.91 572.1C653.83 573.04 653.81 573.96 653.86 574.85ZM176.49 304.87C176.6 305.87 176.71 306.88 176.81 307.89C176.86 308.36 176.91 308.83 176.96 309.29C176.91 308.82 176.86 308.36 176.82 307.89C176.71 306.88 176.6 305.88 176.49 304.87ZM175.77 298.5C175.75 298.34 175.73 298.19 175.71 298.02C175.72 298.18 175.74 298.34 175.76 298.51C175.84 299.11 175.91 299.72 175.97 300.32C176.07 301.13 176.16 301.93 176.25 302.74C176.17 301.93 176.07 301.13 175.98 300.32C175.91 299.72 175.84 299.11 175.77 298.5ZM166.15 240.37C166.29 241.04 166.43 241.7 166.57 242.37C166.85 243.68 167.12 244.98 167.39 246.29C167.12 244.98 166.85 243.67 166.58 242.37C166.44 241.7 166.29 241.04 166.15 240.37ZM165.55 237.58C165.42 237.01 165.3 236.45 165.17 235.89C165.3 236.45 165.42 237.01 165.54 237.58C165.75 238.51 165.95 239.43 166.15 240.36C165.95 239.43 165.75 238.51 165.55 237.58ZM163.71 229.45C163.52 228.65 163.33 227.86 163.14 227.06C163.33 227.86 163.52 228.66 163.7 229.46C164.07 231.03 164.43 232.61 164.79 234.2C164.92 234.77 165.04 235.33 165.17 235.89C165.05 235.32 164.92 234.76 164.8 234.2C164.44 232.61 164.08 231.03 163.71 229.45ZM159.89 214.1C160.03 214.62 160.17 215.14 160.3 215.66C160.56 216.67 160.83 217.69 161.09 218.7C160.83 217.69 160.57 216.67 160.31 215.66C160.17 215.14 160.03 214.62 159.89 214.1ZM158.33 208.3C158.51 208.93 158.68 209.57 158.85 210.21C158.9 210.36 158.94 210.52 158.98 210.67C158.94 210.51 158.9 210.36 158.86 210.2C158.69 209.56 158.51 208.93 158.33 208.3ZM155.74 199.14C155.58 198.61 155.43 198.09 155.27 197.57C155.43 198.09 155.58 198.61 155.73 199.14C155.98 199.98 156.22 200.81 156.46 201.65C156.49 201.76 156.52 201.86 156.56 201.97C156.53 201.86 156.5 201.75 156.47 201.65C156.22 200.81 155.98 199.97 155.74 199.14ZM153.31 191.09C153.12 190.49 152.93 189.89 152.74 189.3C152.93 189.9 153.12 190.49 153.3 191.09C153.55 191.89 153.8 192.69 154.04 193.5C154.26 194.21 154.48 194.92 154.7 195.64C154.48 194.92 154.27 194.21 154.05 193.49C153.8 192.69 153.56 191.89 153.31 191.09ZM151.03 183.96C151.22 184.55 151.41 185.14 151.6 185.73C151.79 186.33 151.98 186.92 152.17 187.51C151.99 186.91 151.8 186.32 151.61 185.73C151.41 185.14 151.22 184.55 151.03 183.96ZM137.27 146.98C136.35 144.81 135.42 142.66 134.47 140.53C138.18 148.93 141.71 157.68 145.05 166.74C143.47 162.42 141.84 158.17 140.16 154C139.21 151.63 138.25 149.29 137.27 146.98ZM130.04 130.86C130.1 130.98 130.15 131.09 130.2 131.21C130.35 131.53 130.5 131.83 130.65 132.15C130.51 131.84 130.36 131.52 130.21 131.21C130.16 131.09 130.1 130.97 130.04 130.86ZM127.32 125.23C127.31 125.22 127.3 125.2 127.29 125.18C127.3 125.2 127.3 125.22 127.31 125.24C127.83 126.28 128.34 127.33 128.85 128.39C129.08 128.87 129.31 129.34 129.54 129.82C129.32 129.34 129.09 128.86 128.86 128.39C128.35 127.33 127.83 126.28 127.32 125.23ZM127.19 124.98C127.17 124.96 127.16 124.94 127.15 124.92C127.16 124.95 127.17 124.97 127.18 124.99C127.21 125.03 127.23 125.08 127.25 125.12C127.26 125.15 127.28 125.17 127.29 125.18C127.28 125.16 127.27 125.14 127.26 125.12C127.23 125.08 127.21 125.03 127.19 124.98ZM727.02 106.43H727.03C726.07 105.15 725.12 103.92 724.19 102.76C724.11 102.65 724.03 102.55 723.95 102.45C723.86 102.35 723.78 102.24 723.69 102.14C722.94 101.21 722.2 100.31 721.46 99.46C708.78 84.6 699.65 81.15 699.57 81.12L694.92 79.13L668.5 67.8L642.08 56.48L615.66 45.16L589.25 33.84L562.83 22.52L560.42 21.49L554.59 15.07L554.39 15.49L554.35 15.57C554.31 15.66 554.26 15.76 554.22 15.85C554.02 16.28 553.81 16.7 553.61 17.12C549.18 26.14 543.37 34.54 536.41 42.18C528.86 50.47 519.95 57.87 509.99 64.2C501.83 69.39 492.97 73.87 483.58 77.53C475.16 80.81 466.31 83.44 457.16 85.34C448.59 87.13 439.75 88.27 430.74 88.73C427.81 88.88 424.87 88.95 421.9 88.95C415.98 88.95 410.11 88.65 404.33 88.07C395.28 87.15 386.44 85.54 377.91 83.29C368.7 80.85 359.85 77.68 351.5 73.83C341.97 69.45 333.1 64.19 325.08 58.17C314.72 50.41 305.77 41.38 298.66 31.33C295.42 26.75 292.57 21.96 290.13 16.98C290.02 16.75 289.91 16.52 289.8 16.28C289.7 16.09 289.61 15.89 289.52 15.69C289.49 15.64 289.47 15.6 289.45 15.55C289.41 15.48 289.38 15.41 289.35 15.34C289.33 15.31 289.32 15.29 289.31 15.26L289.28 15.19L289.08 14.76L282.97 21.49L272.25 26.08L245.83 37.4L219.41 48.72L192.99 60.04L166.57 71.37L143.84 81.11C143.8 81.12 142.48 81.63 140.16 83.04C136.43 85.32 130.15 89.97 122.52 98.76C122.34 98.96 122.16 99.17 121.98 99.38C121.92 99.46 121.85 99.54 121.78 99.62C121.11 100.41 120.44 101.22 119.75 102.06C119.67 102.17 119.59 102.27 119.5 102.37C119.42 102.48 119.34 102.58 119.25 102.69C118.47 103.67 117.67 104.69 116.87 105.76C116.75 105.91 116.64 106.06 116.53 106.21C116.53 106.22 116.52 106.22 116.52 106.23C116.52 106.23 116.51 106.24 116.51 106.25C116.5 106.25 116.5 106.27 116.49 106.27C116.4 106.46 116.41 106.77 116.61 107.34C117.16 108.95 119.14 112.63 124.29 121.45C125.25 123.1 126.05 124.47 126.45 125.18C126.5 125.29 126.55 125.37 126.59 125.45C126.61 125.5 126.63 125.53 126.65 125.57C127.06 126.4 127.48 127.25 127.89 128.09C128.32 128.98 128.75 129.87 129.18 130.77C129.6 131.65 130.02 132.54 130.44 133.43C131.06 134.77 131.68 136.11 132.29 137.46C132.91 138.81 133.51 140.18 134.12 141.55C134.54 142.51 134.97 143.49 135.39 144.47C135.9 145.66 136.41 146.86 136.91 148.06C137.1 148.49 137.28 148.92 137.46 149.35C137.69 149.91 137.92 150.46 138.15 151.02C138.42 151.69 138.7 152.36 138.97 153.04C139.1 153.37 139.24 153.71 139.38 154.05C139.52 154.39 139.65 154.73 139.78 155.06C140 155.61 140.22 156.16 140.44 156.71C140.66 157.26 140.88 157.83 141.1 158.39C141.42 159.19 141.73 160 142.04 160.81C143.21 163.87 144.37 166.97 145.49 170.1C145.92 171.28 146.34 172.46 146.76 173.66C147.33 175.28 147.89 176.9 148.44 178.54C149 180.17 149.55 181.82 150.08 183.47C151.47 187.67 152.8 191.91 154.09 196.21C158.91 212.29 163.08 228.92 166.57 246C171 267.65 174.35 290.03 176.57 312.95C177.09 318.31 177.63 323.73 178.16 328.98C178.64 333.76 179.12 338.49 179.57 343.19C179.58 343.26 179.58 343.32 179.59 343.39C181.49 362.79 183.13 381.64 183.84 401.23C183.97 404.78 184.09 408.34 184.21 411.91C184.22 412.04 184.22 412.18 184.23 412.31C184.27 413.61 184.32 414.91 184.35 416.22C184.37 416.44 184.37 416.67 184.38 416.89C184.42 418.12 184.46 419.34 184.5 420.56C184.51 420.83 184.52 421.11 184.53 421.39C184.56 422.57 184.6 423.75 184.64 424.93C184.65 425.24 184.66 425.55 184.67 425.86C184.7 427.01 184.74 428.16 184.77 429.31C184.78 429.65 184.79 429.98 184.8 430.32C184.84 431.44 184.87 432.56 184.91 433.68C184.92 434.05 184.92 434.41 184.93 434.77C184.97 435.87 185 436.98 185.03 438.08C185.04 438.46 185.05 438.84 185.06 439.22C185.1 440.3 185.13 441.39 185.16 442.47C185.17 442.87 185.18 443.28 185.19 443.68C185.22 444.74 185.25 445.8 185.28 446.86C185.29 447.28 185.3 447.71 185.31 448.13C185.34 449.15 185.37 450.18 185.39 451.2C185.4 451.68 185.42 452.16 185.43 452.63C185.46 453.58 185.48 454.52 185.5 455.47C185.52 456.05 185.53 456.63 185.55 457.21C185.57 458.06 185.59 458.91 185.61 459.76C185.63 460.42 185.64 461.09 185.65 461.75C185.68 462.53 185.7 463.31 185.71 464.09C185.73 464.51 185.73 464.93 185.74 465.35V465.39C185.75 465.68 185.76 465.97 185.76 466.27C185.78 467 185.78 467.74 185.79 468.49V468.54C185.8 469.26 185.8 469.97 185.8 470.69C185.8 471.44 185.79 472.18 185.78 472.93C185.78 473.65 185.77 474.37 185.75 475.1C185.74 475.86 185.72 476.62 185.7 477.38C185.69 477.98 185.67 478.58 185.65 479.18C185.65 479.28 185.65 479.39 185.64 479.5C185.62 480.28 185.6 481.05 185.57 481.83C185.55 482.52 185.53 483.21 185.5 483.91C185.47 484.68 185.44 485.46 185.41 486.24C185.38 486.94 185.35 487.64 185.32 488.33C185.29 489.1 185.26 489.87 185.22 490.64C185.2 491.18 185.18 491.73 185.15 492.27C185.15 492.44 185.14 492.61 185.13 492.78C185.1 493.52 185.07 494.28 185.04 495.03C185.03 495.05 185.03 495.07 185.03 495.09V495.2C185 495.88 184.98 496.55 184.95 497.22C184.92 497.78 184.9 498.34 184.88 498.91C184.87 499.08 184.87 499.25 184.86 499.43C184.83 500.17 184.8 500.9 184.78 501.64C184.75 502.39 184.72 503.14 184.7 503.9C184.68 504.59 184.65 505.3 184.64 505.99C184.61 506.83 184.59 507.67 184.58 508.5C184.57 508.91 184.56 509.31 184.55 509.71C184.55 509.87 184.55 510.03 184.54 510.2C184.4 519.09 184.61 527.88 185.73 536.13C186.02 538.25 186.45 540.21 186.88 542.11C186.92 542.3 186.96 542.49 187.01 542.67C187.05 542.87 187.1 543.06 187.14 543.25C187.2 543.49 187.25 543.73 187.3 543.96C187.5 544.85 187.69 545.73 187.85 546.62C187.89 546.83 187.93 547.04 187.96 547.25C188 547.46 188.04 547.67 188.07 547.88C188.25 549 188.38 550.15 188.45 551.36C188.46 551.58 188.48 551.81 188.48 552.03C188.5 552.52 188.51 553.02 188.5 553.53C188.5 553.7 188.5 553.86 188.49 554.02C188.46 554.99 188.19 555.82 187.83 556.62C187.76 556.78 187.69 556.94 187.62 557.09C187.54 557.24 187.47 557.39 187.39 557.54C187.35 557.63 187.3 557.72 187.25 557.82C186.63 559.05 185.98 560.32 185.95 561.93C185.94 563.08 186.23 564.26 186.62 565.42C186.73 565.75 186.84 566.08 186.97 566.4C187.02 566.56 187.08 566.72 187.14 566.87C187.22 567.06 187.29 567.24 187.36 567.43C187.62 568.09 187.88 568.76 188.1 569.43C188.18 569.66 188.26 569.88 188.32 570.11C188.39 570.35 188.46 570.6 188.51 570.84C188.62 571.28 188.69 571.72 188.74 572.16C189.06 575.84 188.24 579.17 187.31 582.38C187.17 582.86 187.02 583.33 186.88 583.8C186.88 583.8 186.88 583.81 186.88 583.82C186.86 583.88 186.84 583.94 186.82 584.01C186.54 584.94 186.26 585.88 186.01 586.83C185.94 587.1 185.87 587.37 185.8 587.64C185.74 587.9 185.67 588.16 185.62 588.43C185.22 590.16 184.96 591.93 184.96 593.77C184.96 595.61 185.34 597.4 185.81 599.15C185.92 599.6 186.05 600.04 186.17 600.47C186.23 600.67 186.29 600.87 186.35 601.07C186.37 601.15 186.39 601.22 186.41 601.3C186.67 602.2 186.94 603.1 187.17 604.03C187.24 604.26 187.29 604.5 187.35 604.74C187.4 604.98 187.46 605.22 187.5 605.46C187.9 607.41 188.08 609.44 187.72 611.59C187.22 614.57 186.18 616.92 185.17 619.2C184.91 619.78 184.66 620.35 184.42 620.93C184.19 621.47 183.97 622.02 183.78 622.58C183.76 622.62 183.75 622.65 183.74 622.68C183.66 622.91 183.58 623.14 183.51 623.36C183.4 623.72 183.29 624.08 183.2 624.45C183.09 624.89 183 625.34 182.93 625.79C182.83 626.36 182.77 626.94 182.75 627.54C182.41 635.1 183.63 642.48 184.81 649.62C185.4 653.15 185.99 656.75 186.4 660.39C186.46 660.89 186.51 661.4 186.56 661.91C186.64 662.73 186.7 663.55 186.76 664.38C186.8 665.02 186.84 665.66 186.86 666.3C186.86 666.39 186.87 666.48 186.87 666.56V666.67C186.87 666.77 186.88 666.88 186.88 666.98C186.9 667.59 186.92 668.19 186.93 668.8C186.94 669.51 186.95 670.23 186.96 670.94C186.96 671.74 186.96 672.54 186.94 673.34V673.36C186.93 673.98 186.92 674.6 186.9 675.23C186.88 676.14 186.85 677.05 186.82 677.97C186.8 678.47 186.79 678.97 186.76 679.48C186.72 680.5 186.67 681.52 186.61 682.55C186.59 682.95 186.56 683.35 186.54 683.75C186.48 684.83 186.41 685.9 186.34 686.98C186.31 687.39 186.29 687.79 186.26 688.19C186.19 689.22 186.12 690.23 186.04 691.25C186.01 691.76 185.97 692.25 185.94 692.75C185.9 693.19 185.87 693.62 185.84 694.05C185.8 694.54 185.77 695.02 185.73 695.5C185.69 696.11 185.65 696.71 185.6 697.31C185.54 698.15 185.49 698.98 185.43 699.82C185.38 700.48 185.34 701.15 185.3 701.81C185.24 702.6 185.19 703.39 185.15 704.18C185.1 704.88 185.07 705.57 185.04 706.26C184.99 707.04 184.95 707.82 184.92 708.59C184.9 709.04 184.88 709.5 184.87 709.95C184.86 710.2 184.85 710.44 184.84 710.68C184.81 711.46 184.78 712.24 184.75 713.01C184.73 713.71 184.7 714.4 184.68 715.1C184.64 715.88 184.61 716.67 184.58 717.44C184.55 718.13 184.53 718.82 184.5 719.5C184.47 720.3 184.44 721.09 184.4 721.88C184.38 722.56 184.35 723.23 184.32 723.91C184.29 724.71 184.26 725.52 184.22 726.31C184.19 726.99 184.16 727.65 184.14 728.32C184.1 729.13 184.06 729.94 184.03 730.75C184 731.41 183.97 732.06 183.94 732.72C183.9 733.54 183.87 734.37 183.83 735.19C183.8 735.83 183.77 736.48 183.74 737.12C183.7 737.96 183.66 738.79 183.62 739.62C183.6 740.26 183.56 740.89 183.53 741.52C183.49 742.37 183.45 743.22 183.41 744.07C183.38 744.69 183.35 745.3 183.32 745.91C183.27 746.78 183.23 747.65 183.18 748.51C183.15 749.11 183.13 749.71 183.09 750.31C183.05 751.19 183 752.08 182.96 752.96C182.93 753.54 182.89 754.12 182.86 754.69C182.82 755.6 182.77 756.51 182.72 757.41C182.69 757.97 182.66 758.53 182.62 759.08C182.57 760.01 182.52 760.94 182.47 761.87C182.44 762.4 182.41 762.93 182.38 763.46C182.32 764.42 182.27 765.37 182.21 766.33C182.18 766.83 182.15 767.33 182.12 767.83C182.06 768.82 182 769.81 181.94 770.79C181.91 771.26 181.88 771.73 181.86 772.2C181.8 773.22 181.73 774.25 181.67 775.26C181.64 775.69 181.61 776.12 181.59 776.55C181.52 777.62 181.45 778.69 181.38 779.75C181.35 780.13 181.33 780.51 181.31 780.89C181.23 782.02 181.16 783.15 181.08 784.27C181.06 784.58 181.04 784.89 181.02 785.2C180.94 786.42 180.85 787.64 180.77 788.86C180.76 789.04 180.74 789.23 180.73 789.41V789.44C180.67 790.3 180.61 791.16 180.54 792.02C180.52 792.31 180.5 792.59 180.48 792.88C180.16 797.32 179.83 801.72 179.49 806.09C179.19 809.97 178.8 813.91 178.44 817.73C178.18 820.38 177.92 823.08 177.68 825.78C177.67 825.9 177.66 826.02 177.65 826.13C177.41 828.96 177.18 831.79 177.01 834.61C176.67 840.51 175.37 844.76 174 849.27C173.92 849.54 173.84 849.81 173.75 850.08C173.65 850.41 173.56 850.73 173.46 851.06C173.28 851.65 173.1 852.26 172.92 852.88C172.87 853.08 172.81 853.28 172.75 853.48C172.72 853.6 172.69 853.72 172.66 853.83C172.58 854.12 172.5 854.42 172.42 854.71C172.35 854.97 172.29 855.22 172.22 855.47C172.21 855.52 172.2 855.57 172.19 855.61C172.06 856.11 171.94 856.62 171.82 857.14C171.74 857.49 171.67 857.86 171.63 858.23C171.57 858.71 171.55 859.2 171.55 859.7C171.55 860.54 171.61 861.39 171.71 862.24C171.71 862.27 171.71 862.31 171.72 862.34C171.79 862.99 171.89 863.64 171.98 864.27C172.03 864.55 172.07 864.82 172.11 865.09C172.11 865.11 172.12 865.14 172.12 865.16C172.19 865.59 172.26 866.01 172.31 866.42C172.38 866.84 172.43 867.26 172.48 867.67C172.54 868.27 172.58 868.83 172.58 869.35C172.51 875.02 171.23 880.42 170 885.64C169.23 888.92 168.43 892.3 167.92 895.77C167.6 897.93 167.18 899.79 166.7 901.63C166.65 901.79 166.61 901.94 166.57 902.1C166.47 902.48 166.37 902.85 166.26 903.22C166.24 903.31 166.21 903.4 166.18 903.5C166.13 903.71 166.07 903.93 166 904.15C165.91 904.46 165.82 904.77 165.73 905.09C165.7 905.2 165.66 905.31 165.63 905.42C165.58 905.61 165.52 905.81 165.48 906.01C165.38 906.46 165.31 906.91 165.26 907.36C165.12 908.61 165.17 909.86 165.29 911.1C165.31 911.41 165.35 911.72 165.38 912.02C165.41 912.3 165.44 912.57 165.48 912.84C165.49 912.93 165.5 913.03 165.51 913.12C165.73 914.9 165.95 916.75 165.79 918.52C165.56 920.95 164.62 923.05 163.63 925.26C162.95 926.78 162.25 928.35 161.79 930.05L161.37 931.59C160.16 936.05 158.9 940.68 157.78 945.26C157.67 945.71 157.46 946.44 157.19 947.37C157.07 947.79 156.93 948.23 156.8 948.71C156.73 948.97 156.65 949.23 156.57 949.51C156.53 949.66 156.49 949.82 156.44 949.98C156.02 951.49 155.57 953.18 155.18 954.9C155.14 955.1 155.09 955.3 155.05 955.5C155.01 955.68 154.98 955.86 154.94 956.04C153.96 960.79 153.6 965.48 155.71 966.78C156.23 967.1 160.31 969.56 166.57 972.85C173.39 976.45 182.8 981.03 192.99 984.89C201.6 988.16 210.76 990.91 219.4 992.12C222.46 992.55 225.45 992.79 228.33 992.79C229.4 992.79 230.45 992.76 231.46 992.69C236.21 993.29 241 993.86 245.82 994.39C254.52 995.34 263.34 996.18 272.24 996.9C280.97 997.6 289.78 998.2 298.65 998.67C302.37 998.87 306.09 999.05 309.82 999.21C314.04 999.39 319.46 999.61 325.07 999.76C325.66 999.78 326.24 999.79 326.83 999.81V1000H519.73V999.72C523.76 999.6 528.16 999.44 533.56 999.21C534.51 999.17 535.46 999.13 536.41 999.08C545.27 998.68 554.09 998.16 562.83 997.53C571.72 996.89 580.53 996.13 589.25 995.26C596.89 994.49 604.46 993.63 611.92 992.69C612.93 992.76 613.98 992.79 615.05 992.79H615.66C623.94 992.69 633.12 990.68 642.08 987.81C651.58 984.77 660.84 980.76 668.5 977.05C679.3 971.84 686.94 967.22 687.68 966.78C689.78 965.48 689.42 960.81 688.45 956.06C688.41 955.88 688.37 955.7 688.33 955.51C688.29 955.3 688.24 955.1 688.2 954.9C687.88 953.47 687.52 952.07 687.16 950.77C687.04 950.34 686.92 949.91 686.81 949.51C686.76 949.31 686.7 949.12 686.65 948.94C686.54 948.56 686.44 948.2 686.34 947.86C686.29 947.69 686.24 947.53 686.19 947.37C686.12 947.14 686.06 946.92 686 946.71C685.94 946.51 685.89 946.31 685.84 946.14C685.82 946.05 685.79 945.96 685.77 945.88C685.72 945.72 685.68 945.57 685.65 945.44C685.63 945.38 685.62 945.32 685.6 945.26C685.32 944.12 685.03 942.97 684.74 941.82C684.45 940.68 684.15 939.53 683.84 938.39C683.23 936.1 682.62 933.83 682.01 931.59L681.59 930.06C681.53 929.85 681.47 929.63 681.41 929.43C681.21 928.8 680.99 928.19 680.75 927.59C680.44 926.79 680.09 926.03 679.75 925.27C679.5 924.71 679.26 924.17 679.03 923.62C678.57 922.53 678.16 921.44 677.89 920.3C677.75 919.72 677.65 919.14 677.59 918.53C677.43 916.75 677.65 914.91 677.87 913.12C677.88 913.03 677.89 912.93 677.91 912.84C677.94 912.57 677.97 912.3 678 912.02C678.03 911.71 678.07 911.41 678.09 911.1C678.24 909.52 678.28 907.91 677.97 906.33C677.91 906.03 677.84 905.73 677.75 905.42C677.72 905.31 677.68 905.2 677.65 905.09C677.6 904.89 677.54 904.7 677.49 904.51C677.45 904.39 677.41 904.27 677.38 904.14C677.29 903.83 677.2 903.53 677.12 903.23C677.11 903.22 677.11 903.22 677.11 903.21C677 902.8 676.89 902.41 676.78 902C676.64 901.48 676.51 900.95 676.38 900.41C676.02 898.95 675.71 897.45 675.46 895.77C674.95 892.31 674.15 888.92 673.38 885.64C673.07 884.33 672.76 883.02 672.47 881.69C672.18 880.36 671.9 879.01 671.66 877.66C671.17 874.95 670.84 872.19 670.8 869.35C670.8 869.3 670.8 869.24 670.81 869.19C670.8 868.96 670.82 868.72 670.84 868.47C670.85 868.22 670.87 867.95 670.9 867.68V867.65C670.95 867.26 671 866.85 671.07 866.43C671.12 866.01 671.19 865.59 671.26 865.16C671.26 865.14 671.27 865.11 671.27 865.09C671.38 864.42 671.49 863.72 671.58 863.01C671.61 862.79 671.64 862.57 671.66 862.34C671.72 861.84 671.77 861.35 671.8 860.85C671.86 859.9 671.85 858.96 671.73 858.07C671.69 857.76 671.64 857.45 671.57 857.14C671.53 857 671.49 856.84 671.46 856.7C671.37 856.33 671.28 855.97 671.19 855.61C671.11 855.31 671.04 855.01 670.96 854.71C670.91 854.53 670.87 854.36 670.82 854.18C670.79 854.07 670.75 853.96 670.73 853.85C670.72 853.84 670.72 853.84 670.72 853.83C670.63 853.51 670.55 853.2 670.46 852.89C670.38 852.61 670.3 852.34 670.22 852.07C669.94 851.11 669.66 850.19 669.38 849.27C669.23 848.77 669.08 848.28 668.93 847.79C668.78 847.3 668.64 846.81 668.5 846.31C667.74 843.69 667.07 841 666.67 837.89C666.6 837.37 666.54 836.84 666.49 836.29C666.46 836.01 666.44 835.74 666.42 835.46C666.4 835.18 666.38 834.9 666.36 834.61C666.33 834.13 666.3 833.65 666.27 833.17C666.22 832.24 666.15 831.31 666.08 830.38C665.97 828.96 665.86 827.55 665.73 826.13C665.72 826.02 665.71 825.9 665.7 825.79C665.46 823.08 665.2 820.38 664.94 817.73C664.85 816.77 664.76 815.81 664.67 814.85C664.58 813.88 664.49 812.91 664.4 811.93C664.22 809.99 664.04 808.03 663.89 806.09C663.72 803.95 663.56 801.81 663.4 799.65C663.24 797.49 663.08 795.33 662.92 793.15C662.92 793.12 662.92 793.09 662.91 793.07C662.88 792.68 662.85 792.3 662.83 791.91C662.74 790.64 662.65 789.36 662.56 788.07C662.54 787.81 662.53 787.56 662.51 787.3C662.43 786.13 662.35 784.96 662.27 783.78C662.24 783.44 662.22 783.1 662.2 782.75C662.13 781.65 662.06 780.55 661.98 779.44C661.96 779.05 661.93 778.65 661.91 778.26C661.84 777.21 661.77 776.16 661.71 775.1C661.68 774.66 661.65 774.21 661.62 773.77L661.44 770.74C661.41 770.26 661.38 769.78 661.35 769.29C661.29 768.32 661.23 767.35 661.17 766.37C661.15 765.86 661.11 765.35 661.08 764.83C661.03 763.89 660.97 762.94 660.92 761.99C660.89 761.45 660.86 760.92 660.83 760.37C660.78 759.45 660.73 758.53 660.68 757.61C660.65 757.04 660.61 756.48 660.58 755.91C660.54 755.02 660.49 754.12 660.44 753.22C660.41 752.64 660.38 752.05 660.35 751.47C660.3 750.59 660.26 749.71 660.21 748.83C660.18 748.23 660.15 747.62 660.12 747.02C660.07 746.16 660.03 745.3 659.99 744.43C659.96 743.82 659.93 743.2 659.9 742.58C659.86 741.73 659.82 740.88 659.78 740.03C659.74 739.4 659.72 738.76 659.69 738.13C659.65 737.3 659.61 736.47 659.57 735.63C659.54 734.99 659.51 734.34 659.48 733.69C659.45 732.88 659.41 732.06 659.37 731.24C659.34 730.57 659.31 729.91 659.28 729.25C659.25 728.44 659.21 727.64 659.18 726.83C659.15 726.16 659.12 725.49 659.09 724.81C659.06 724.02 659.03 723.22 659 722.42C658.97 721.74 658.94 721.06 658.91 720.38C658.88 719.59 658.85 718.8 658.82 718.01C658.79 717.32 658.77 716.63 658.74 715.94C658.71 715.16 658.68 714.38 658.65 713.6C658.62 712.91 658.6 712.21 658.57 711.51C658.55 710.99 658.53 710.47 658.51 709.95C658.5 709.7 658.49 709.44 658.48 709.19C658.45 708.49 658.42 707.79 658.39 707.09C658.35 706.32 658.31 705.53 658.26 704.75C658.22 704.07 658.18 703.38 658.14 702.7C658.09 701.9 658.04 701.09 657.98 700.29L657.85 698.35C657.79 697.49 657.73 696.63 657.67 695.77C657.63 695.2 657.58 694.63 657.54 694.06C657.47 693.1 657.4 692.15 657.33 691.19C657.3 690.73 657.26 690.27 657.23 689.81C657.16 688.76 657.09 687.71 657.02 686.65C656.99 686.27 656.97 685.88 656.95 685.5C656.88 684.42 656.81 683.35 656.75 682.27C656.73 681.85 656.71 681.42 656.69 681C656.64 680 656.6 679.01 656.56 678.02C656.54 677.47 656.52 676.93 656.51 676.39C656.48 675.51 656.46 674.64 656.45 673.77C656.45 673.63 656.44 673.5 656.44 673.36C656.43 672.83 656.43 672.31 656.43 671.78C656.43 671 656.43 670.23 656.44 669.45C656.45 668.72 656.47 667.99 656.49 667.26C656.49 667.17 656.49 667.08 656.5 666.99C656.5 666.87 656.51 666.76 656.51 666.65C656.51 666.53 656.52 666.42 656.52 666.31C656.54 665.88 656.56 665.45 656.59 665.02C656.62 664.32 656.67 663.63 656.74 662.94C656.82 661.95 656.92 660.96 657.03 659.98C657.03 659.98 657.03 659.98 657.03 659.97C657.05 659.86 657.06 659.75 657.08 659.64C657.47 656.26 658.03 652.91 658.57 649.62C659.75 642.48 660.97 635.1 660.64 627.55C660.61 626.94 660.55 626.35 660.45 625.78C660.41 625.46 660.34 625.15 660.27 624.84C660.24 624.71 660.21 624.58 660.18 624.45C660.09 624.08 659.98 623.72 659.87 623.36C659.8 623.13 659.73 622.9 659.65 622.68C659.24 621.5 658.73 620.37 658.22 619.2C657.21 616.92 656.16 614.57 655.66 611.59C655.31 609.44 655.49 607.42 655.89 605.46C655.93 605.22 655.99 604.98 656.04 604.74C656.09 604.5 656.15 604.27 656.22 604.03C656.44 603.11 656.71 602.2 656.98 601.3C657.06 601.03 657.14 600.75 657.22 600.48C657.84 598.3 658.42 596.07 658.43 593.78C658.43 591.93 658.16 590.16 657.77 588.44C657.72 588.18 657.65 587.91 657.59 587.64C657.52 587.37 657.45 587.09 657.38 586.82C657.27 586.44 657.16 586.05 657.05 585.67C656.96 585.33 656.86 584.99 656.75 584.65C656.69 584.44 656.63 584.23 656.57 584.02C656.55 583.95 656.53 583.89 656.51 583.82C655.41 580.17 654.28 576.39 654.65 572.16C654.69 571.73 654.77 571.28 654.88 570.84C654.93 570.6 654.99 570.36 655.07 570.12C655.13 569.89 655.21 569.66 655.28 569.44C655.41 569.05 655.55 568.67 655.7 568.28C655.81 568 655.92 567.72 656.03 567.44C656.05 567.39 656.06 567.34 656.08 567.29C656.14 567.15 656.19 567.01 656.24 566.87C656.87 565.24 657.46 563.56 657.43 561.93C657.41 560.33 656.76 559.05 656.14 557.82C656.09 557.73 656.04 557.64 655.99 557.54C655.92 557.39 655.85 557.24 655.77 557.1C655.7 556.94 655.62 556.78 655.55 556.63C655.4 556.28 655.26 555.92 655.15 555.55C655.04 555.2 654.97 554.83 654.93 554.44C654.91 554.31 654.9 554.16 654.9 554.02C654.88 553.35 654.88 552.69 654.9 552.05V552.02C654.92 551.3 654.97 550.61 655.04 549.93C655.11 549.23 655.2 548.55 655.31 547.88C655.34 547.67 655.38 547.46 655.41 547.25C655.45 547.04 655.49 546.83 655.53 546.62C655.73 545.55 655.96 544.49 656.2 543.42C656.26 543.17 656.32 542.92 656.37 542.67C656.42 542.49 656.46 542.3 656.5 542.11C656.56 541.87 656.61 541.62 656.67 541.37C657.04 539.71 657.4 537.98 657.64 536.13C658.67 528.62 658.94 520.66 658.87 512.58C658.87 512.29 658.87 512 658.86 511.72C658.85 511.04 658.84 510.37 658.83 509.69C658.82 509.37 658.82 509.05 658.81 508.72C658.8 508.09 658.78 507.47 658.77 506.84C658.74 506.04 658.72 505.24 658.7 504.45C658.67 503.73 658.65 503.01 658.63 502.29C658.6 501.55 658.57 500.81 658.54 500.06C658.53 499.72 658.52 499.37 658.51 499.02V499.01C658.49 498.62 658.47 498.24 658.46 497.85C658.43 497.11 658.39 496.37 658.36 495.62V495.45C658.34 495.09 658.33 494.72 658.31 494.35C658.28 493.66 658.25 492.96 658.22 492.27C658.21 491.91 658.19 491.54 658.17 491.18C658.14 490.47 658.11 489.77 658.08 489.06C658.05 488.28 658.02 487.51 657.99 486.74C657.96 486.04 657.93 485.35 657.91 484.65C657.87 483.87 657.85 483.09 657.82 482.31C657.8 481.62 657.77 480.92 657.75 480.22C657.74 479.95 657.73 479.68 657.73 479.42C657.71 478.91 657.7 478.41 657.69 477.91C657.67 477.2 657.65 476.49 657.64 475.78C657.62 475.02 657.61 474.26 657.6 473.51C657.59 472.78 657.59 472.05 657.58 471.32V469.11C657.58 468.94 657.58 468.77 657.59 468.61C657.59 468.04 657.6 467.46 657.6 466.89C657.61 466.4 657.62 465.92 657.63 465.43V465.35C657.63 465.12 657.64 464.89 657.65 464.65C657.67 463.94 657.68 463.23 657.7 462.52C657.72 461.72 657.74 460.93 657.76 460.13C657.77 459.49 657.79 458.85 657.81 458.21C657.83 457.33 657.85 456.45 657.87 455.57C657.88 455.03 657.9 454.48 657.91 453.94C657.94 452.96 657.96 451.98 657.99 451.01C658 450.56 658.01 450.1 658.03 449.65C658.05 448.61 658.08 447.57 658.11 446.53C658.12 446.11 658.13 445.7 658.14 445.28C658.17 444.22 658.2 443.14 658.23 442.08C658.24 441.68 658.25 441.29 658.27 440.89C658.29 439.8 658.33 438.71 658.36 437.62C658.37 437.25 658.38 436.87 658.39 436.5C658.42 435.39 658.46 434.28 658.49 433.17C658.5 432.82 658.51 432.47 658.52 432.12C658.55 430.98 658.59 429.84 658.62 428.7C658.63 428.38 658.64 428.05 658.65 427.73C658.69 426.57 658.72 425.4 658.76 424.24C658.77 423.94 658.78 423.65 658.79 423.35C658.83 422.16 658.86 420.96 658.9 419.76C658.91 419.51 658.92 419.25 658.93 418.99C658.97 417.74 659.01 416.5 659.05 415.26C659.05 415.05 659.06 414.85 659.07 414.65V414.64C659.22 410.15 659.37 405.68 659.53 401.24C659.8 394.06 660.1 386.76 660.39 379.7C660.58 375.03 660.78 370.34 660.96 365.66C661.14 360.94 662.04 356.32 662.9 351.86C663.12 350.72 663.34 349.57 663.56 348.42C663.56 348.4 663.57 348.37 663.57 348.35C664.1 345.47 664.56 342.54 664.76 339.58C664.78 339.28 664.8 338.98 664.81 338.69C665.24 330.08 666.01 321.41 666.72 314.06C667.24 308.56 667.84 303.08 668.49 297.64C672.74 262.38 679.68 228.52 689.17 196.77C691 190.68 692.91 184.68 694.91 178.78C696.09 175.32 697.29 171.89 698.53 168.51C699.21 166.62 699.91 164.74 700.62 162.87C700.87 162.22 701.11 161.57 701.36 160.93C701.86 159.64 702.36 158.35 702.86 157.07C703.07 156.55 703.28 156.03 703.48 155.51C703.76 154.81 704.04 154.12 704.32 153.43C704.46 153.08 704.6 152.73 704.74 152.39C704.88 152.05 705.02 151.71 705.16 151.36C705.41 150.76 705.66 150.16 705.9 149.56C706.18 148.91 706.45 148.26 706.72 147.61C707.01 146.93 707.3 146.25 707.59 145.57C707.88 144.89 708.17 144.21 708.47 143.54C708.75 142.91 709.02 142.27 709.3 141.64C709.69 140.76 710.08 139.87 710.48 139C711.01 137.79 711.56 136.59 712.11 135.4C712.31 134.98 712.5 134.56 712.7 134.14C712.98 133.54 713.26 132.95 713.53 132.35C713.85 131.69 714.16 131.04 714.47 130.38C714.78 129.73 715.09 129.08 715.41 128.43C715.42 128.42 715.42 128.42 715.42 128.4C715.76 127.72 716.09 127.03 716.43 126.35C716.52 126.17 716.6 125.99 716.69 125.82C716.71 125.78 716.73 125.75 716.75 125.71C716.77 125.67 716.79 125.63 716.82 125.59C716.84 125.54 716.87 125.49 716.9 125.44C717.3 124.71 718.1 123.34 719.06 121.68C724.24 112.82 726.23 109.13 726.77 107.52V107.51C726.8 107.42 726.83 107.35 726.85 107.27L727.1 106.72V106.71L727.15 106.6L727.02 106.43ZM716.23 125.13C716.15 125.28 716.09 125.4 716.04 125.49C715.41 126.77 714.78 128.06 714.16 129.36C713.69 130.34 713.22 131.32 712.76 132.31C712 133.93 711.25 135.57 710.5 137.22C708.98 140.54 707.49 143.9 706.05 147.32C703.45 153.48 700.95 159.84 698.55 166.36C698.46 166.6 698.37 166.84 698.28 167.09C697.6 168.95 696.92 170.83 696.26 172.72C696.23 172.79 696.2 172.86 696.18 172.93C696.06 173.26 695.95 173.59 695.83 173.92C695.68 174.35 695.53 174.78 695.38 175.21C695.22 175.63 695.07 176.07 694.92 176.5C694.5 177.73 694.08 178.96 693.67 180.2C693.11 181.84 692.57 183.5 692.03 185.16C691.49 186.81 690.96 188.47 690.44 190.14C690.43 190.16 690.43 190.17 690.42 190.19C690.09 191.25 689.76 192.32 689.44 193.39C689.15 194.31 688.87 195.24 688.59 196.17C688.55 196.3 688.51 196.43 688.47 196.56C688.1 197.81 687.73 199.06 687.36 200.32C687.01 201.54 686.66 202.76 686.31 203.98C686.14 204.59 685.97 205.2 685.8 205.82C685.45 207.04 685.11 208.27 684.78 209.51C684.61 210.12 684.44 210.74 684.27 211.36C683.91 212.71 683.55 214.06 683.2 215.41C682.49 218.12 681.8 220.85 681.13 223.58C680.63 225.62 680.14 227.66 679.66 229.71C679.18 231.77 678.72 233.82 678.26 235.88C678.24 235.94 678.23 235.99 678.22 236.04C677.93 237.34 677.64 238.64 677.36 239.95C677.12 241.06 676.88 242.18 676.65 243.3C676.47 244.17 676.29 245.03 676.11 245.9C675.71 247.89 675.31 249.89 674.92 251.89C674.76 252.69 674.61 253.48 674.46 254.28C674.39 254.64 674.32 255 674.25 255.35C674.09 256.21 673.93 257.06 673.78 257.92C673.4 259.93 673.04 261.95 672.69 263.98C672.46 265.3 672.24 266.62 672.02 267.94C671.85 268.92 671.69 269.9 671.53 270.88C671.38 271.84 671.22 272.8 671.07 273.77C671.06 273.84 671.05 273.91 671.04 273.97C670.58 276.85 670.15 279.74 669.73 282.65C669.59 283.61 669.46 284.58 669.32 285.55C669.14 286.84 668.97 288.14 668.79 289.44C668.69 290.17 668.6 290.92 668.5 291.66C668.26 293.5 668.03 295.35 667.81 297.21C667.71 297.99 667.62 298.78 667.53 299.57C667.4 300.64 667.27 301.71 667.15 302.78C667.06 303.65 666.96 304.52 666.86 305.39C666.82 305.86 666.77 306.33 666.72 306.8C666.62 307.73 666.52 308.66 666.42 309.59C666.3 310.84 666.17 312.09 666.05 313.34C666.03 313.55 666.01 313.78 665.99 313.99C665.92 314.68 665.85 315.39 665.79 316.1C665.78 316.18 665.77 316.27 665.76 316.35C665.72 316.74 665.69 317.13 665.65 317.51C665.52 318.92 665.39 320.36 665.26 321.83C665.23 322.22 665.2 322.61 665.16 323.01C665.15 323.17 665.13 323.34 665.12 323.51V323.52C664.85 326.75 664.59 330.09 664.37 333.47C664.26 335.19 664.16 336.92 664.08 338.65C664.06 339.02 664.04 339.38 664.01 339.75C663.72 343.8 662.94 347.82 662.18 351.72C661.83 353.54 661.47 355.39 661.16 357.26C661.11 357.53 661.07 357.8 661.03 358.07C660.95 358.53 660.88 359 660.81 359.47C660.74 359.96 660.68 360.45 660.62 360.94C660.54 361.59 660.47 362.24 660.41 362.89C660.33 363.67 660.28 364.45 660.24 365.25C660.23 365.38 660.22 365.5 660.22 365.63C660.2 366.2 660.18 366.77 660.16 367.34C660.13 368.11 660.09 368.89 660.06 369.67C660.04 370.37 660.01 371.06 659.98 371.75C659.95 372.53 659.91 373.31 659.89 374.09C659.86 374.79 659.83 375.48 659.8 376.18C659.77 376.95 659.73 377.73 659.7 378.51C659.69 378.9 659.67 379.29 659.65 379.68C659.64 379.98 659.63 380.29 659.62 380.6C659.58 381.37 659.55 382.15 659.52 382.92C659.49 383.63 659.46 384.33 659.43 385.03C659.4 385.79 659.37 386.56 659.34 387.33C659.31 388.04 659.28 388.75 659.25 389.46C659.22 390.22 659.19 390.99 659.16 391.75C659.14 392.41 659.11 393.07 659.08 393.74V393.88C659.05 394.64 659.02 395.4 658.99 396.16C658.96 396.88 658.94 397.6 658.91 398.31C658.88 399.07 658.85 399.83 658.83 400.58C658.82 400.79 658.81 401 658.8 401.21C658.78 401.72 658.77 402.23 658.75 402.74C658.72 403.49 658.7 404.24 658.67 405C658.64 405.72 658.62 406.44 658.59 407.16C658.57 407.91 658.54 408.66 658.51 409.42C658.49 410.14 658.46 410.87 658.44 411.59C658.42 412.33 658.39 413.08 658.36 413.83C658.34 414.56 658.32 415.29 658.29 416.02C658.27 416.76 658.24 417.51 658.22 418.25C658.2 418.98 658.17 419.71 658.15 420.44C658.12 421.19 658.1 421.93 658.08 422.68C658.05 423.4 658.03 424.14 658.01 424.87C657.98 425.61 657.96 426.35 657.94 427.1L657.87 429.29C657.85 430.03 657.83 430.77 657.81 431.52C657.78 432.25 657.76 432.98 657.74 433.71C657.72 434.46 657.7 435.2 657.68 435.94C657.66 436.67 657.63 437.41 657.61 438.14C657.59 438.88 657.57 439.62 657.55 440.36C657.53 441.1 657.51 441.83 657.49 442.56C657.47 443.3 657.45 444.04 657.43 444.78C657.4 445.51 657.39 446.25 657.36 446.98C657.34 447.72 657.33 448.47 657.3 449.2C657.29 449.94 657.27 450.68 657.25 451.41L657.22 452.31V452.36C657.21 452.79 657.2 453.2 657.19 453.62C657.17 454.36 657.15 455.1 657.14 455.84C657.11 456.58 657.09 457.33 657.08 458.07C657.06 458.79 657.04 459.51 657.03 460.22C657.01 461.01 656.99 461.79 656.97 462.58C656.95 463.23 656.93 463.88 656.92 464.53C656.91 464.8 656.91 465.07 656.9 465.33V465.42C656.88 466.02 656.87 466.61 656.87 467.2C656.86 467.72 656.85 468.23 656.85 468.75C656.84 469.83 656.84 470.91 656.85 472C656.85 472.27 656.85 472.54 656.86 472.82C656.88 475.23 656.94 477.66 657.01 480.1C657.08 482.55 657.18 485 657.28 487.44C657.35 489.07 657.42 490.69 657.49 492.3C657.52 492.99 657.55 493.68 657.58 494.36C657.59 494.54 657.59 494.73 657.6 494.91C657.66 496.03 657.7 497.14 657.74 498.27C657.76 498.75 657.78 499.24 657.8 499.72C657.84 500.63 657.87 501.54 657.9 502.45C657.92 503.09 657.94 503.72 657.96 504.35C657.99 505.14 658.01 505.94 658.03 506.73C658.05 507.45 658.07 508.17 658.08 508.89C658.09 509.16 658.09 509.43 658.1 509.7C658.1 509.97 658.11 510.25 658.11 510.53C658.11 510.73 658.12 510.92 658.12 511.12C658.13 511.85 658.14 512.58 658.14 513.3C658.15 514.11 658.15 514.91 658.14 515.71C658.14 516.31 658.14 516.9 658.13 517.5V517.58C658.11 519.56 658.06 521.54 657.98 523.5C657.8 527.78 657.47 531.97 656.92 536.03C656.68 537.78 656.35 539.42 656 541.02C655.94 541.26 655.89 541.51 655.83 541.75C655.78 541.99 655.72 542.22 655.67 542.46C655.67 542.48 655.66 542.49 655.66 542.51C655.45 543.43 655.24 544.33 655.06 545.23C655 545.49 654.95 545.75 654.9 546.01C654.85 546.24 654.81 546.47 654.77 546.71C654.77 546.72 654.77 546.72 654.77 546.73C654.77 546.72 654.76 546.72 654.76 546.71C654.34 548.99 654.07 551.35 654.15 554.05V554.15C654.17 554.46 654.2 554.75 654.26 555.04C654.34 555.47 654.45 555.89 654.6 556.28C654.77 556.73 654.96 557.15 655.17 557.57L655.18 557.58C655.26 557.74 655.33 557.88 655.41 558.03C655.43 558.08 655.45 558.12 655.47 558.16C655.53 558.26 655.58 558.37 655.63 558.47C656.18 559.57 656.67 560.63 656.69 561.94C656.7 562.69 656.57 563.45 656.36 564.22C656.33 564.35 656.29 564.48 656.25 564.61C656.14 564.97 656.02 565.33 655.89 565.7C655.71 566.18 655.53 566.67 655.33 567.17C655.22 567.46 655.1 567.75 654.99 568.05C654.91 568.27 654.82 568.5 654.74 568.72C654.66 568.95 654.58 569.17 654.51 569.4C654.48 569.5 654.45 569.59 654.42 569.69C654.38 569.82 654.34 569.95 654.31 570.07C654.18 570.52 654.07 570.97 654 571.42C653.96 571.65 653.93 571.87 653.91 572.1C653.83 573.04 653.81 573.96 653.86 574.85C653.91 575.86 654.03 576.84 654.2 577.81C654.24 578.03 654.28 578.25 654.32 578.47C654.45 579.1 654.59 579.73 654.75 580.35C655.06 581.6 655.43 582.82 655.79 584.03C655.84 584.18 655.89 584.34 655.93 584.48C656.01 584.77 656.1 585.06 656.18 585.35C656.3 585.74 656.41 586.14 656.52 586.53C656.61 586.85 656.7 587.16 656.78 587.48C656.86 587.79 656.94 588.11 657.01 588.43C657.08 588.69 657.13 588.96 657.19 589.22C657.24 589.49 657.29 589.76 657.34 590.03C657.56 591.25 657.68 592.49 657.68 593.78C657.68 595.16 657.46 596.51 657.14 597.86C657.03 598.36 656.9 598.86 656.75 599.37C656.73 599.46 656.71 599.54 656.68 599.63C656.55 600.11 656.4 600.6 656.26 601.09C656.12 601.57 655.97 602.06 655.84 602.54C655.77 602.79 655.7 603.05 655.63 603.3C655.57 603.54 655.5 603.78 655.44 604.03C655.34 604.45 655.24 604.86 655.16 605.29C655.12 605.5 655.08 605.71 655.04 605.92C654.97 606.35 654.9 606.78 654.85 607.22C654.73 608.26 654.69 609.34 654.78 610.45C654.81 610.86 654.86 611.29 654.93 611.71C655.12 612.87 655.39 613.92 655.71 614.91C655.81 615.25 655.92 615.57 656.04 615.89C656.27 616.52 656.52 617.14 656.77 617.74C656.9 618.04 657.02 618.33 657.15 618.63C657.27 618.92 657.4 619.21 657.53 619.5C658.1 620.78 658.66 622.03 659.08 623.34C659.2 623.7 659.31 624.07 659.41 624.45C659.46 624.61 659.5 624.77 659.54 624.94C659.58 625.1 659.61 625.27 659.64 625.44C659.67 625.57 659.69 625.69 659.71 625.82C659.81 626.39 659.87 626.97 659.9 627.58V627.78C659.95 628.72 659.96 629.65 659.95 630.59C659.9 637.03 658.85 643.36 657.84 649.5C657.55 651.27 657.25 653.06 656.98 654.86C656.93 655.17 656.89 655.47 656.84 655.77C656.71 656.67 656.59 657.58 656.47 658.48C656.47 658.52 656.46 658.56 656.46 658.61C656.37 659.28 656.29 659.95 656.22 660.63C656.21 660.7 656.2 660.77 656.19 660.84C656.14 661.29 656.1 661.74 656.06 662.19C656.03 662.42 656.02 662.66 655.99 662.89C655.94 663.56 655.89 664.24 655.85 664.91C655.82 665.37 655.8 665.82 655.78 666.28C655.78 666.4 655.78 666.51 655.77 666.63C655.76 667.02 655.75 667.4 655.73 667.79C655.72 668.13 655.72 668.47 655.71 668.81C655.55 677.08 656.19 685.72 656.8 694.11C656.85 694.77 656.9 695.43 656.95 696.09C657.05 697.41 657.14 698.74 657.23 700.07C657.45 703.39 657.65 706.73 657.77 709.98C658.17 720.91 658.62 731.5 659.12 741.8C659.17 742.83 659.22 743.85 659.27 744.88C659.37 746.92 659.48 748.96 659.58 750.99C660.06 760.11 660.57 769 661.13 777.72C661.38 781.59 661.64 785.43 661.9 789.24C662 790.67 662.1 792.09 662.2 793.5C662.5 797.76 662.82 801.97 663.15 806.15C663.3 808.09 663.48 810.05 663.66 812C663.84 813.95 664.02 815.89 664.21 817.8C664.41 819.87 664.62 821.97 664.8 824.08C664.93 825.48 665.06 826.9 665.17 828.31C665.31 829.96 665.43 831.6 665.53 833.24C665.56 833.71 665.59 834.18 665.62 834.65C665.75 836.89 666.02 838.9 666.38 840.77C666.59 841.89 666.83 842.96 667.1 844.01C667.53 845.69 668 847.29 668.5 848.92C668.55 849.11 668.61 849.29 668.67 849.49C668.82 849.99 668.98 850.51 669.14 851.03C669.29 851.55 669.44 852.07 669.6 852.61C669.75 853.11 669.9 853.62 670.04 854.15C670.18 854.64 670.31 855.14 670.44 855.65C670.51 855.92 670.58 856.19 670.64 856.46C670.65 856.5 670.66 856.54 670.67 856.58C670.71 856.75 670.75 856.92 670.79 857.1C670.81 857.17 670.83 857.24 670.84 857.31C670.87 857.42 670.89 857.53 670.91 857.64C670.97 857.97 671.02 858.3 671.04 858.64C671.06 858.79 671.07 858.94 671.07 859.09C671.1 859.7 671.09 860.33 671.04 860.96C671.02 861.36 670.98 861.77 670.93 862.17C670.91 862.33 670.9 862.49 670.87 862.65C670.83 863.04 670.78 863.44 670.72 863.82C670.66 864.21 670.6 864.6 670.54 864.98C670.53 865.03 670.52 865.09 670.51 865.15C670.42 865.7 670.34 866.24 670.27 866.76C670.25 866.94 670.23 867.11 670.2 867.28C670.16 867.61 670.13 867.92 670.1 868.23V868.29C670.07 868.66 670.05 869.02 670.06 869.36C670.07 870.25 670.11 871.15 670.18 872.03C670.25 872.91 670.34 873.79 670.45 874.66C670.54 875.36 670.64 876.05 670.75 876.74C671.03 878.46 671.37 880.16 671.74 881.84C672.04 883.18 672.35 884.51 672.66 885.82C672.95 887.04 673.24 888.28 673.52 889.53C673.8 890.78 674.06 892.04 674.3 893.32C674.46 894.17 674.6 895.02 674.73 895.88C674.99 897.63 675.31 899.18 675.68 900.68C675.86 901.43 676.06 902.17 676.26 902.91C676.46 903.65 676.68 904.4 676.9 905.17C676.95 905.32 676.99 905.47 677.04 905.63C677.1 905.84 677.15 906.06 677.2 906.27C677.46 907.48 677.5 908.72 677.43 909.96C677.41 910.36 677.38 910.75 677.34 911.15C677.28 911.78 677.21 912.41 677.13 913.03C677 914.06 676.88 915.11 676.83 916.15C676.79 916.97 676.79 917.78 676.86 918.59C677.07 920.83 677.86 922.83 678.71 924.74C678.83 925.02 678.95 925.29 679.07 925.56C679.17 925.79 679.28 926.02 679.38 926.26C679.53 926.59 679.68 926.93 679.82 927.27C680.22 928.24 680.6 929.23 680.88 930.25L681.29 931.79C681.6 932.91 681.9 934.03 682.21 935.16C682.82 937.42 683.43 939.71 684.02 942C684.32 943.15 684.6 944.29 684.88 945.43C684.9 945.49 684.91 945.55 684.93 945.62C684.96 945.76 685.01 945.91 685.05 946.07C685.08 946.16 685.1 946.24 685.12 946.33C685.18 946.51 685.23 946.71 685.29 946.91C685.35 947.12 685.41 947.35 685.48 947.58C685.53 947.75 685.58 947.92 685.64 948.1C685.8 948.65 685.97 949.25 686.15 949.9C686.4 950.79 686.66 951.75 686.92 952.76C687.05 953.27 687.18 953.78 687.3 954.3C687.42 954.83 687.54 955.35 687.65 955.88C687.68 956.02 687.71 956.16 687.74 956.3C687.77 956.44 687.8 956.57 687.83 956.71C688.68 961 688.99 965.1 687.29 966.15C686.57 966.58 679.09 971.1 668.5 976.24C660.86 979.94 651.6 983.97 642.08 987.04C633.12 989.92 623.93 991.95 615.66 992.05H615.05C613.99 992.05 612.94 992.01 611.93 991.95H611.86C604.41 992.89 596.87 993.75 589.25 994.51C580.53 995.39 571.72 996.15 562.83 996.79C554.09 997.42 545.27 997.94 536.41 998.34C535.45 998.39 534.49 998.43 533.53 998.47C527.97 998.7 523.47 998.87 519.35 998.99L518.99 999.01V999.25H327.58V999.09L327.22 999.08C326.5 999.06 325.79 999.04 325.08 999.02C319.48 998.86 314.07 998.65 309.85 998.47C306.11 998.31 302.38 998.13 298.66 997.93C289.79 997.45 280.98 996.86 272.25 996.15C263.34 995.44 254.53 994.59 245.83 993.64C241.02 993.11 236.25 992.55 231.52 991.95H231.45C230.45 992.01 229.4 992.05 228.33 992.05C225.46 992.05 222.46 991.81 219.41 991.37C210.77 990.15 201.59 987.38 192.99 984.1C182.77 980.21 173.35 975.6 166.57 972.02C160.54 968.83 156.61 966.45 156.09 966.14C154.4 965.1 154.71 960.99 155.56 956.7C155.59 956.57 155.61 956.43 155.64 956.3C155.67 956.16 155.7 956.01 155.73 955.87C156.18 953.77 156.74 951.67 157.24 949.9C157.48 949.03 157.7 948.24 157.9 947.58C158.17 946.64 158.39 945.9 158.5 945.43C159.62 940.86 160.88 936.25 162.09 931.78L162.51 930.25C162.95 928.6 163.65 927.06 164.31 925.56C165.28 923.39 166.29 921.15 166.52 918.59C166.55 918.32 166.57 918.06 166.57 917.79C166.59 917.4 166.59 917 166.57 916.61C166.54 915.41 166.39 914.2 166.25 913.03C166.18 912.4 166.1 911.78 166.04 911.15C166 910.75 165.97 910.36 165.95 909.96C165.89 908.72 165.92 907.48 166.19 906.27C166.23 906.05 166.29 905.84 166.35 905.63C166.39 905.47 166.44 905.32 166.48 905.17C166.51 905.06 166.54 904.95 166.57 904.84C167.42 901.9 168.16 899.25 168.65 895.88C169.16 892.44 169.96 889.07 170.73 885.81C171.97 880.55 173.25 875.11 173.32 869.36C173.34 868.13 173.12 866.68 172.88 865.15L172.85 864.97C172.79 864.6 172.72 864.21 172.66 863.82C172.59 863.29 172.51 862.74 172.45 862.2C172.37 861.49 172.31 860.78 172.3 860.09C172.29 859.74 172.3 859.4 172.31 859.06C172.31 859.06 172.31 859.05 172.31 859.04C172.33 858.65 172.37 858.26 172.43 857.88C172.44 857.8 172.46 857.72 172.47 857.64C172.49 857.53 172.51 857.42 172.54 857.31C172.55 857.25 172.57 857.19 172.58 857.13C172.62 856.95 172.67 856.77 172.71 856.59C172.78 856.29 172.86 855.98 172.93 855.69C172.93 855.68 172.93 855.67 172.94 855.66C173.11 854.99 173.28 854.35 173.46 853.72C173.87 852.24 174.29 850.85 174.71 849.48C176.09 844.94 177.4 840.64 177.76 834.65C178.09 829.03 178.64 823.32 179.18 817.8C179.54 813.98 179.92 810.03 180.23 806.15C182.57 776.41 184.33 744.96 185.61 709.97C185.8 704.78 186.19 699.36 186.58 694.11C187.25 684.96 187.94 675.51 187.61 666.56C187.61 666.47 187.6 666.39 187.6 666.3V666.27C187.58 665.69 187.55 665.1 187.51 664.52C187.46 663.73 187.39 662.95 187.32 662.16C187.32 662.15 187.32 662.15 187.32 662.14C187.28 661.69 187.24 661.25 187.19 660.8C187.16 660.52 187.12 660.23 187.09 659.94C187.04 659.49 186.98 659.03 186.93 658.58C186.88 658.24 186.84 657.91 186.79 657.58C186.72 657.01 186.64 656.45 186.56 655.9C186.24 653.74 185.89 651.6 185.54 649.5C184.52 643.36 183.48 637.04 183.43 630.61C183.43 629.67 183.44 628.73 183.48 627.79V627.58C183.49 627.28 183.52 626.99 183.55 626.71C183.58 626.41 183.62 626.12 183.67 625.84C183.73 625.48 183.8 625.14 183.88 624.81C183.9 624.69 183.93 624.57 183.97 624.45C184.41 622.73 185.12 621.14 185.85 619.5C186.87 617.18 187.94 614.78 188.45 611.71C188.9 608.96 188.54 606.44 187.94 604.03C187.87 603.78 187.81 603.54 187.74 603.3C187.68 603.04 187.61 602.79 187.54 602.54C187.4 602.05 187.26 601.57 187.12 601.08C187.09 600.97 187.05 600.85 187.02 600.74C186.88 600.28 186.75 599.82 186.63 599.36C186.58 599.21 186.54 599.05 186.5 598.89C186.04 597.18 185.7 595.51 185.7 593.77C185.7 592.48 185.82 591.25 186.04 590.03C186.09 589.76 186.14 589.49 186.19 589.22C186.25 588.95 186.3 588.69 186.37 588.43C186.47 587.98 186.59 587.54 186.7 587.09V587.08C186.78 586.79 186.86 586.5 186.95 586.22C187.03 585.92 187.11 585.63 187.2 585.34C187.33 584.9 187.46 584.47 187.59 584.03C188.7 580.31 189.85 576.47 189.47 572.1C189.39 571.19 189.16 570.29 188.87 569.39C188.79 569.16 188.72 568.94 188.63 568.72C188.56 568.5 188.48 568.27 188.39 568.05L188.05 567.17C187.96 566.95 187.88 566.74 187.8 566.53C187.69 566.25 187.59 565.97 187.49 565.7C187.35 565.3 187.22 564.91 187.11 564.53C186.85 563.65 186.68 562.79 186.69 561.94C186.71 560.63 187.2 559.56 187.75 558.47C187.8 558.37 187.85 558.26 187.91 558.16C187.93 558.11 187.95 558.07 187.97 558.03C188.05 557.88 188.12 557.73 188.2 557.58C188.24 557.5 188.27 557.42 188.31 557.34C188.56 556.83 188.79 556.3 188.95 555.74C189.02 555.51 189.07 555.28 189.12 555.03C189.18 554.72 189.21 554.39 189.23 554.04C189.23 553.81 189.24 553.58 189.24 553.35C189.24 552.75 189.23 552.17 189.2 551.61C189.12 549.88 188.9 548.28 188.62 546.7C188.57 546.47 188.53 546.24 188.48 546.01C188.44 545.75 188.38 545.49 188.33 545.23C188.14 544.32 187.93 543.42 187.73 542.51C187.61 542.01 187.5 541.51 187.39 541.01C187.37 540.94 187.36 540.87 187.34 540.79C187.25 540.39 187.16 539.98 187.08 539.57C186.84 538.43 186.63 537.25 186.46 536.03C185.91 531.97 185.58 527.78 185.4 523.5C185.34 521.96 185.3 520.41 185.27 518.85C185.26 518.43 185.26 518.01 185.25 517.59V517.46C185.24 516.59 185.24 515.72 185.24 514.84C185.24 514.13 185.24 513.43 185.25 512.72C185.25 511.99 185.26 511.27 185.27 510.54V510.48C185.27 510.22 185.28 509.97 185.29 509.71C185.29 509.23 185.3 508.75 185.32 508.28C185.33 507.51 185.35 506.75 185.38 505.99C185.39 505.31 185.41 504.64 185.43 503.97C185.46 503.11 185.49 502.25 185.52 501.39C185.54 500.85 185.56 500.3 185.59 499.76C185.62 498.74 185.66 497.71 185.71 496.69C185.72 496.34 185.74 495.99 185.75 495.65C185.8 494.53 185.85 493.41 185.9 492.3C186.21 484.98 186.54 477.46 186.54 470.25V468.91C186.53 467.95 186.52 467 186.5 466.07C186.5 465.84 186.49 465.61 186.49 465.39V465.33C186.48 464.96 186.47 464.59 186.46 464.23C186.44 463.41 186.42 462.59 186.4 461.78C186.39 461.08 186.37 460.38 186.35 459.68C186.33 458.93 186.31 458.17 186.29 457.42C186.28 456.68 186.26 455.95 186.24 455.21C186.22 454.48 186.2 453.74 186.18 453C186.18 452.83 186.17 452.67 186.17 452.5C186.15 451.93 186.14 451.36 186.12 450.79C186.11 450.05 186.09 449.31 186.07 448.58C186.05 447.84 186.03 447.11 186.01 446.37C185.99 445.63 185.96 444.89 185.95 444.15C185.93 443.42 185.91 442.68 185.88 441.95C185.87 441.21 185.84 440.47 185.82 439.73C185.8 439 185.78 438.26 185.76 437.53C185.74 436.79 185.72 436.05 185.69 435.31C185.67 434.57 185.65 433.84 185.63 433.11C185.61 432.37 185.59 431.63 185.56 430.89L185.5 428.69C185.47 427.95 185.45 427.2 185.43 426.46C185.4 425.73 185.38 425 185.36 424.27C185.34 423.53 185.31 422.78 185.29 422.04C185.27 421.31 185.24 420.58 185.22 419.85C185.19 419.11 185.17 418.36 185.15 417.61C185.12 416.89 185.1 416.16 185.07 415.43C185.05 414.69 185.02 413.94 185 413.19C184.98 412.47 184.95 411.74 184.92 411.02C184.9 410.27 184.87 409.52 184.85 408.77C184.82 408.04 184.8 407.32 184.77 406.6C184.75 405.85 184.72 405.09 184.69 404.34C184.67 403.62 184.64 402.9 184.61 402.18C184.6 401.86 184.59 401.53 184.58 401.21C184.57 400.78 184.55 400.35 184.54 399.92C184.51 399.2 184.48 398.49 184.45 397.77C184.45 397.75 184.44 397.73 184.44 397.71V397.59C184.41 396.89 184.38 396.19 184.35 395.49C184.32 394.78 184.29 394.07 184.25 393.37C184.21 392.59 184.18 391.82 184.13 391.05C184.1 390.36 184.06 389.67 184.02 388.98C183.98 388.18 183.94 387.38 183.89 386.59C183.85 385.93 183.81 385.27 183.77 384.62C183.72 383.78 183.67 382.94 183.61 382.1C183.58 381.5 183.54 380.89 183.49 380.28C183.44 379.39 183.37 378.49 183.31 377.6C183.29 377.26 183.26 376.93 183.24 376.6C183.15 375.42 183.07 374.24 182.98 373.07C182.95 372.61 182.91 372.15 182.87 371.69C182.81 370.86 182.74 370.02 182.68 369.19C182.66 368.95 182.64 368.72 182.62 368.48C182.59 368.15 182.57 367.82 182.54 367.49C181.5 354.75 180.22 342.02 178.9 328.9C178.46 324.45 178 319.88 177.55 315.31V315.3C177.54 315.16 177.53 315.02 177.51 314.88C177.45 314.21 177.38 313.54 177.32 312.87C177.2 311.68 177.08 310.48 176.96 309.29C176.91 308.82 176.86 308.36 176.82 307.89C176.71 306.88 176.6 305.88 176.49 304.87V304.86C176.41 304.15 176.34 303.45 176.25 302.74C176.17 301.93 176.07 301.13 175.98 300.32C175.91 299.72 175.84 299.11 175.77 298.5C175.75 298.34 175.73 298.19 175.71 298.02V298.01C175.58 296.96 175.45 295.91 175.32 294.86C174.96 291.88 174.56 288.9 174.15 285.94C172.72 275.58 171.05 265.34 169.15 255.25C168.64 252.54 168.11 249.83 167.56 247.14C167.5 246.85 167.45 246.57 167.39 246.29C167.12 244.98 166.85 243.67 166.58 242.37C166.44 241.7 166.29 241.04 166.15 240.37V240.36C165.95 239.43 165.75 238.51 165.55 237.58C165.42 237.01 165.3 236.45 165.17 235.89C165.05 235.32 164.92 234.76 164.8 234.2C164.44 232.61 164.08 231.03 163.71 229.45C163.52 228.65 163.33 227.86 163.14 227.06C162.95 226.26 162.76 225.47 162.57 224.67C162.33 223.7 162.09 222.73 161.85 221.76C161.6 220.74 161.34 219.72 161.09 218.7C160.83 217.69 160.57 216.67 160.31 215.66C160.17 215.14 160.03 214.62 159.89 214.1C159.75 213.56 159.61 213.01 159.46 212.47C159.3 211.87 159.14 211.27 158.98 210.67C158.94 210.51 158.9 210.36 158.86 210.2C158.69 209.56 158.51 208.93 158.33 208.3C157.99 207.03 157.63 205.76 157.27 204.49C157.04 203.65 156.8 202.8 156.56 201.97C156.53 201.86 156.5 201.75 156.47 201.65C156.22 200.81 155.98 199.97 155.74 199.14C155.58 198.61 155.43 198.09 155.27 197.57C155.12 197.05 154.96 196.53 154.8 196V195.99C154.77 195.88 154.74 195.76 154.7 195.64C154.48 194.92 154.27 194.21 154.05 193.49C153.8 192.69 153.56 191.89 153.31 191.09C153.12 190.49 152.93 189.89 152.74 189.3C152.56 188.7 152.37 188.1 152.17 187.51C151.99 186.91 151.8 186.32 151.61 185.73C151.41 185.14 151.22 184.55 151.03 183.96V183.95C150.81 183.29 150.6 182.63 150.38 181.97C150.17 181.33 149.96 180.7 149.74 180.06C149.48 179.28 149.21 178.51 148.95 177.74C148.32 175.88 147.68 174.04 147.02 172.2C146.37 170.37 145.72 168.55 145.05 166.74C143.47 162.42 141.84 158.17 140.16 154C139.21 151.63 138.25 149.29 137.27 146.98C136.35 144.81 135.42 142.66 134.47 140.53C133.73 138.85 132.98 137.19 132.22 135.54V135.53C131.82 134.65 131.41 133.77 131 132.9C130.88 132.65 130.77 132.4 130.65 132.15C130.51 131.84 130.36 131.52 130.21 131.21C130.16 131.09 130.1 130.97 130.04 130.86C129.99 130.74 129.93 130.63 129.87 130.51C129.77 130.28 129.65 130.05 129.54 129.82C129.32 129.34 129.09 128.86 128.86 128.39C128.35 127.33 127.83 126.28 127.32 125.23C127.31 125.22 127.3 125.2 127.29 125.18C127.28 125.16 127.27 125.14 127.26 125.12C127.23 125.08 127.21 125.03 127.19 124.98C127.17 124.96 127.16 124.94 127.15 124.92C126.76 124.2 125.94 122.79 124.93 121.07C122.41 116.75 117.19 107.8 117.17 106.6C117.21 106.55 117.24 106.51 117.27 106.47L117.28 106.46C118.07 105.39 118.87 104.37 119.64 103.39C119.73 103.28 119.81 103.18 119.89 103.07C119.98 102.97 120.06 102.86 120.14 102.76C120.9 101.83 121.64 100.93 122.38 100.07C130.01 91.09 136.34 86.3 140.16 83.91C142.65 82.36 144.07 81.81 144.12 81.8L166.58 72.17L193 60.85L219.41 49.53L245.83 38.2L272.25 26.88L283.33 22.13L283.41 22.1L288.89 16.08C289.49 17.35 290.12 18.62 290.78 19.87C291.06 20.41 291.35 20.95 291.64 21.49C291.89 21.96 292.15 22.42 292.42 22.89C292.73 23.45 293.05 24 293.37 24.55C294.18 25.93 295.03 27.29 295.91 28.65C296.8 29.99 297.71 31.33 298.66 32.65C305.74 42.51 314.63 51.45 325.08 59.21C329.73 62.67 334.7 65.9 339.95 68.87C343.7 71 347.55 72.97 351.5 74.78C359.92 78.63 368.76 81.76 377.92 84.15C386.48 86.37 395.32 87.94 404.33 88.83C410.13 89.4 415.99 89.69 421.91 89.69C424.87 89.69 427.82 89.62 430.75 89.47C439.72 89.04 448.56 87.92 457.17 86.17C466.27 84.32 475.11 81.73 483.59 78.45C490.56 75.76 497.29 72.59 503.71 68.97C505.85 67.76 507.95 66.5 510 65.21C520.06 58.85 528.92 51.51 536.42 43.36C540.54 38.88 544.25 34.16 547.52 29.23C547.99 28.52 548.45 27.81 548.9 27.1C548.96 27.01 549.01 26.93 549.05 26.84C549.33 26.4 549.6 25.96 549.87 25.51C550.18 25 550.49 24.48 550.78 23.97C551.14 23.36 551.49 22.74 551.83 22.12C552.1 21.63 552.37 21.14 552.63 20.65C553.39 19.24 554.11 17.82 554.79 16.38L559.99 22.1L562.84 23.32L589.25 34.64L615.67 45.96L642.08 57.28L668.5 68.61L694.92 79.93L699.29 81.8C699.4 81.84 708.39 85.26 720.95 99.98C720.99 100.04 721.04 100.08 721.08 100.14C721.25 100.33 721.41 100.52 721.58 100.72C722.14 101.4 722.72 102.1 723.31 102.83C723.4 102.93 723.48 103.04 723.57 103.14C723.65 103.25 723.73 103.35 723.81 103.46C724.59 104.44 725.38 105.46 726.18 106.53C726.24 106.61 726.3 106.68 726.36 106.76L726.27 106.83C726.23 106.78 726.23 106.74 726.23 106.74C726.33 107.79 720.99 116.92 718.43 121.3C717.44 123.01 716.63 124.4 716.23 125.13ZM127.26 125.12C127.23 125.08 127.21 125.03 127.19 124.98C127.17 124.96 127.16 124.94 127.15 124.92C127.16 124.95 127.17 124.97 127.18 124.99C127.21 125.03 127.23 125.08 127.25 125.12C127.26 125.15 127.28 125.17 127.29 125.18C127.28 125.16 127.27 125.14 127.26 125.12ZM128.86 128.39C128.35 127.33 127.83 126.28 127.32 125.23C127.31 125.22 127.3 125.2 127.29 125.18C127.3 125.2 127.3 125.22 127.31 125.24C127.83 126.28 128.34 127.33 128.85 128.39C129.08 128.87 129.31 129.34 129.54 129.82C129.32 129.34 129.09 128.86 128.86 128.39ZM130.21 131.21C130.16 131.09 130.1 130.97 130.04 130.86C130.1 130.98 130.15 131.09 130.2 131.21C130.35 131.53 130.5 131.83 130.65 132.15C130.51 131.84 130.36 131.52 130.21 131.21ZM140.16 154C139.21 151.63 138.25 149.29 137.27 146.98C136.35 144.81 135.42 142.66 134.47 140.53C138.18 148.93 141.71 157.68 145.05 166.74C143.47 162.42 141.84 158.17 140.16 154ZM151.61 185.73C151.41 185.14 151.22 184.55 151.03 183.96C151.22 184.55 151.41 185.14 151.6 185.73C151.79 186.33 151.98 186.92 152.17 187.51C151.99 186.91 151.8 186.32 151.61 185.73ZM154.05 193.49C153.8 192.69 153.56 191.89 153.31 191.09C153.12 190.49 152.93 189.89 152.74 189.3C152.93 189.9 153.12 190.49 153.3 191.09C153.55 191.89 153.8 192.69 154.04 193.5C154.26 194.21 154.48 194.92 154.7 195.64C154.48 194.92 154.27 194.21 154.05 193.49ZM156.47 201.65C156.22 200.81 155.98 199.97 155.74 199.14C155.58 198.61 155.43 198.09 155.27 197.57C155.43 198.09 155.58 198.61 155.73 199.14C155.98 199.98 156.22 200.81 156.47 201.65C156.49 201.76 156.52 201.86 156.56 201.97C156.53 201.86 156.5 201.75 156.47 201.65ZM158.86 210.2C158.69 209.56 158.51 208.93 158.33 208.3C158.51 208.93 158.68 209.57 158.85 210.21C158.9 210.36 158.94 210.52 158.98 210.67C158.94 210.51 158.9 210.36 158.86 210.2ZM160.31 215.66C160.17 215.14 160.03 214.62 159.89 214.1C160.03 214.62 160.17 215.14 160.3 215.66C160.56 216.67 160.83 217.69 161.09 218.7C160.83 217.69 160.57 216.67 160.31 215.66ZM164.8 234.2C164.44 232.61 164.08 231.03 163.71 229.45C163.52 228.65 163.33 227.86 163.14 227.06C163.33 227.86 163.52 228.66 163.7 229.46C164.07 231.03 164.43 232.61 164.79 234.2C164.92 234.77 165.04 235.33 165.17 235.89C165.05 235.32 164.92 234.76 164.8 234.2ZM165.55 237.58C165.42 237.01 165.3 236.45 165.17 235.89C165.3 236.45 165.42 237.01 165.54 237.58C165.75 238.51 165.95 239.43 166.15 240.36C165.95 239.43 165.75 238.51 165.55 237.58ZM166.58 242.37C166.44 241.7 166.29 241.04 166.15 240.37C166.29 241.04 166.43 241.7 166.57 242.37C166.85 243.68 167.12 244.98 167.39 246.29C167.12 244.98 166.85 243.67 166.58 242.37ZM175.98 300.32C175.91 299.72 175.84 299.11 175.77 298.5C175.75 298.34 175.73 298.19 175.71 298.02C175.72 298.18 175.74 298.34 175.76 298.51C175.84 299.11 175.91 299.72 175.97 300.32C176.07 301.13 176.16 301.93 176.25 302.74C176.17 301.93 176.07 301.13 175.98 300.32ZM176.82 307.89C176.71 306.88 176.6 305.88 176.49 304.87C176.6 305.87 176.71 306.88 176.81 307.89C176.86 308.36 176.91 308.83 176.96 309.29C176.91 308.82 176.86 308.36 176.82 307.89ZM653.91 572.1C653.83 573.04 653.81 573.96 653.86 574.85C653.82 573.95 653.83 573.04 653.91 572.1ZM654 571.42C654.08 570.97 654.18 570.52 654.31 570.07C654.18 570.52 654.07 570.97 654 571.42ZM654.16 554.05C654.08 551.36 654.35 549 654.77 546.73C654.77 546.72 654.76 546.72 654.76 546.71C654.34 548.99 654.07 551.35 654.16 554.05L654.15 554.15C654.17 554.46 654.2 554.75 654.26 555.04C654.21 554.75 654.17 554.46 654.16 554.15V554.05ZM654.61 556.28C654.46 555.89 654.34 555.47 654.26 555.04C654.34 555.47 654.45 555.89 654.6 556.28C654.77 556.73 654.96 557.15 655.17 557.57C654.97 557.15 654.78 556.73 654.61 556.28ZM654.94 611.71C654.87 611.28 654.82 610.86 654.78 610.45C654.81 610.86 654.86 611.29 654.93 611.71C655.12 612.87 655.39 613.92 655.71 614.91C655.4 613.92 655.14 612.87 654.94 611.71ZM656.53 586.53C656.42 586.14 656.3 585.74 656.19 585.35C656.1 585.06 656.02 584.77 655.93 584.48C656.01 584.77 656.1 585.06 656.18 585.35C656.3 585.74 656.41 586.14 656.52 586.53C656.61 586.85 656.7 587.16 656.78 587.48C656.7 587.16 656.62 586.85 656.53 586.53ZM656.85 468.75C656.84 469.83 656.84 470.91 656.85 472C656.85 472.27 656.85 472.54 656.86 472.82V472C656.85 470.91 656.85 469.83 656.85 468.75ZM657.78 709.98C657.66 706.73 657.46 703.39 657.23 700.07C657.45 703.39 657.65 706.73 657.77 709.98C658.17 720.91 658.62 731.5 659.12 741.8C658.63 731.5 658.18 720.91 657.78 709.98ZM658.04 506.73C658.01 505.94 657.99 505.14 657.97 504.35C657.95 503.72 657.92 503.09 657.9 502.45C657.92 503.09 657.94 503.72 657.96 504.35C657.99 505.14 658.01 505.94 658.04 506.73ZM659.42 624.45C659.32 624.07 659.21 623.7 659.09 623.34C658.66 622.03 658.11 620.78 657.54 619.5C657.41 619.21 657.28 618.92 657.15 618.63C657.27 618.92 657.4 619.21 657.53 619.5C658.1 620.78 658.66 622.03 659.08 623.34C659.2 623.7 659.31 624.07 659.41 624.45C659.46 624.61 659.5 624.77 659.54 624.94C659.5 624.77 659.46 624.61 659.42 624.45ZM663.16 806.15C662.83 801.97 662.51 797.76 662.2 793.5C662.5 797.76 662.82 801.97 663.16 806.15C663.3 808.09 663.48 810.05 663.66 812C663.48 810.05 663.32 808.09 663.16 806.15ZM665.63 834.65C665.6 834.18 665.57 833.71 665.53 833.24C665.56 833.71 665.59 834.18 665.62 834.65C665.75 836.89 666.02 838.9 666.38 840.77C666.03 838.9 665.76 836.89 665.63 834.65ZM668.68 849.49C668.62 849.29 668.56 849.11 668.5 848.92C668.55 849.11 668.61 849.29 668.67 849.49C668.82 849.99 668.98 850.51 669.14 851.03C668.99 850.51 668.84 849.99 668.68 849.49ZM670.1 868.29C670.07 868.66 670.05 869.02 670.06 869.36C670.07 870.25 670.11 871.15 670.18 872.03C670.12 871.15 670.08 870.25 670.07 869.36C670.06 869.02 670.08 868.66 670.1 868.29ZM673.52 889.53C673.8 890.78 674.06 892.04 674.3 893.32C674.07 892.04 673.8 890.78 673.52 889.53ZM679.08 925.56C678.96 925.29 678.83 925.02 678.71 924.74C678.83 925.02 678.95 925.29 679.07 925.56C679.17 925.79 679.28 926.02 679.38 926.26C679.29 926.02 679.18 925.79 679.08 925.56ZM681.3 931.79L680.88 930.25L681.29 931.79C681.6 932.91 681.9 934.03 682.21 935.16C681.91 934.03 681.6 932.91 681.3 931.79ZM682.21 935.16C682.82 937.42 683.43 939.71 684.02 942C683.44 939.71 682.82 937.42 682.21 935.16ZM685.49 947.58C685.42 947.35 685.35 947.12 685.29 946.91C685.35 947.12 685.41 947.35 685.48 947.58C685.53 947.75 685.58 947.92 685.64 948.1C685.59 947.92 685.54 947.75 685.49 947.58ZM140.16 154C139.21 151.63 138.25 149.29 137.27 146.98C136.35 144.81 135.42 142.66 134.47 140.53C138.18 148.93 141.71 157.68 145.05 166.74C143.47 162.42 141.84 158.17 140.16 154ZM140.16 154C139.21 151.63 138.25 149.29 137.27 146.98C136.35 144.81 135.42 142.66 134.47 140.53C138.18 148.93 141.71 157.68 145.05 166.74C143.47 162.42 141.84 158.17 140.16 154ZM140.16 154C139.21 151.63 138.25 149.29 137.27 146.98C136.35 144.81 135.42 142.66 134.47 140.53C138.18 148.93 141.71 157.68 145.05 166.74C143.47 162.42 141.84 158.17 140.16 154ZM655.14 555.55H655.15C655.04 555.2 654.97 554.83 654.93 554.44C654.91 554.31 654.9 554.16 654.9 554.02C654.88 553.35 654.88 552.69 654.9 552.05V552.02C654.92 551.3 654.97 550.61 655.04 549.93C655.11 549.23 655.2 548.55 655.31 547.88C655.12 547.51 654.94 547.12 654.77 546.73C654.77 546.72 654.76 546.72 654.76 546.71C654.34 548.99 654.07 551.35 654.15 554.05V554.15C654.17 554.46 654.2 554.75 654.26 555.04C654.34 555.47 654.45 555.89 654.6 556.28C654.77 556.73 654.96 557.15 655.17 557.57C655.22 557.45 655.27 557.33 655.32 557.2C655.4 557.01 655.47 556.82 655.54 556.63C655.39 556.28 655.25 555.92 655.14 555.55ZM657.05 585.67C656.96 585.33 656.86 584.99 656.75 584.65C656.69 584.44 656.63 584.23 656.57 584.02C656.55 583.95 656.53 583.89 656.51 583.82C655.41 580.17 654.28 576.39 654.65 572.16C654.69 571.73 654.77 571.28 654.88 570.84C654.75 570.36 654.63 569.88 654.52 569.4C654.48 569.5 654.45 569.6 654.42 569.69C654.38 569.82 654.34 569.95 654.31 570.07C654.18 570.52 654.08 570.97 654 571.42C653.96 571.65 653.93 571.87 653.91 572.1C653.83 573.04 653.82 573.95 653.86 574.85C653.91 575.86 654.03 576.84 654.2 577.81C654.24 578.03 654.28 578.25 654.32 578.47C654.45 579.1 654.59 579.73 654.75 580.35C655.06 581.6 655.43 582.82 655.79 584.03C655.84 584.18 655.89 584.34 655.93 584.48C656.02 584.77 656.1 585.06 656.19 585.35C656.3 585.74 656.42 586.14 656.53 586.53C656.62 586.85 656.7 587.16 656.78 587.48C656.86 587.79 656.94 588.11 657.02 588.43C657.15 587.89 657.28 587.36 657.38 586.82C657.27 586.44 657.16 586.05 657.05 585.67ZM658.13 502.32C658.12 501.54 658.11 500.75 658.1 499.97C658.09 499.3 658.08 498.64 658.06 497.97C658.04 497.14 658.02 496.32 657.99 495.48C657.98 495.11 657.97 494.74 657.96 494.36C657.93 493.24 657.89 492.13 657.85 491.01C657.83 490.43 657.8 489.84 657.78 489.25C657.74 488.35 657.71 487.45 657.67 486.54C657.65 485.99 657.62 485.43 657.6 484.88C657.56 484.02 657.53 483.16 657.49 482.31C657.49 482.24 657.48 482.17 657.48 482.1C657.46 481.56 657.43 481.02 657.41 480.48C657.39 479.9 657.36 479.31 657.33 478.72C657.32 478.37 657.3 478.02 657.29 477.67C657.27 477.13 657.25 476.59 657.23 476.06C657.19 475.11 657.15 474.18 657.12 473.27C657.1 472.71 657.08 472.16 657.06 471.61C657.03 470.69 657.01 469.78 656.98 468.88C656.97 468.29 656.95 467.71 656.93 467.13C656.92 466.56 656.91 465.99 656.9 465.42C656.88 466.02 656.87 466.61 656.87 467.2C656.86 467.72 656.85 468.23 656.85 468.75C656.84 469.83 656.84 470.91 656.85 472C656.85 472.27 656.85 472.54 656.86 472.82C656.88 475.23 656.94 477.66 657.01 480.1C657.08 482.55 657.18 485 657.28 487.44C657.35 489.07 657.42 490.69 657.49 492.3C657.52 492.99 657.55 493.68 657.58 494.36C657.59 494.54 657.59 494.73 657.6 494.91C657.66 496.03 657.7 497.14 657.74 498.27C657.76 498.75 657.78 499.24 657.8 499.72C657.84 500.63 657.87 501.54 657.9 502.45C657.92 503.09 657.94 503.72 657.96 504.35C657.99 505.14 658.01 505.94 658.03 506.73C658.05 507.45 658.07 508.17 658.08 508.89C658.09 509.16 658.09 509.43 658.1 509.7C658.11 509.43 658.11 509.16 658.11 508.89C658.13 508.17 658.14 507.44 658.14 506.71C658.14 505.96 658.15 505.2 658.15 504.44C658.14 503.74 658.14 503.03 658.13 502.32ZM659.65 622.68C659.24 621.5 658.73 620.37 658.22 619.2C657.21 616.92 656.16 614.57 655.66 611.59C655.31 609.44 655.49 607.42 655.89 605.46C655.73 605 655.58 604.53 655.45 604.03C655.35 604.45 655.25 604.86 655.16 605.29C655.12 605.5 655.08 605.71 655.04 605.92C654.97 606.35 654.9 606.78 654.85 607.22C654.73 608.26 654.69 609.34 654.78 610.45C654.82 610.86 654.87 611.28 654.94 611.71C655.14 612.87 655.4 613.92 655.71 614.91C655.81 615.25 655.92 615.57 656.04 615.89C656.27 616.52 656.52 617.14 656.77 617.74C656.9 618.04 657.02 618.33 657.15 618.63C657.28 618.92 657.41 619.21 657.54 619.5C658.11 620.78 658.66 622.03 659.09 623.34C659.21 623.7 659.32 624.07 659.42 624.45C659.46 624.61 659.5 624.77 659.54 624.94C659.58 625.1 659.61 625.27 659.64 625.44C659.67 625.57 659.69 625.69 659.71 625.82C659.72 625.8 659.72 625.77 659.72 625.75C659.73 625.63 659.74 625.52 659.74 625.4C659.8 624.71 659.84 624.03 659.87 623.36C659.8 623.13 659.73 622.9 659.65 622.68ZM670.47 852.89C670.38 852.61 670.3 852.34 670.22 852.07C669.95 851.11 669.67 850.19 669.39 849.27C669.24 848.77 669.08 848.28 668.93 847.79C668.78 847.3 668.64 846.81 668.5 846.31C667.74 843.69 667.07 841 666.67 837.89C666.6 837.37 666.54 836.84 666.49 836.29C666.46 836.01 666.44 835.74 666.42 835.46C666.4 835.18 666.38 834.9 666.37 834.61C666.34 834.13 666.31 833.65 666.27 833.17C666.22 832.24 666.15 831.31 666.08 830.38C665.97 828.96 665.86 827.55 665.73 826.13C665.72 826.02 665.71 825.9 665.71 825.79C665.47 823.08 665.21 820.38 664.95 817.73C664.86 816.77 664.76 815.81 664.67 814.85C664.58 813.88 664.49 812.91 664.4 811.93C664.22 809.99 664.05 808.03 663.9 806.09C663.73 803.95 663.56 801.81 663.4 799.65C663.24 797.49 663.08 795.33 662.92 793.15V793.07C662.89 792.68 662.86 792.3 662.83 791.91C662.73 790.57 662.63 789.22 662.53 787.88L662.5 787.52C662.48 787.23 662.46 786.94 662.44 786.66C662.36 785.64 662.29 784.62 662.21 783.6C662.2 783.38 662.18 783.15 662.16 782.93C662.08 781.71 661.99 780.48 661.9 779.24C661.88 778.99 661.87 778.73 661.85 778.47C661.77 777.28 661.68 776.09 661.6 774.89C661.58 774.59 661.56 774.29 661.54 773.99C661.47 772.84 661.39 771.69 661.32 770.53C661.29 770.2 661.27 769.86 661.25 769.52C661.17 768.4 661.1 767.28 661.03 766.16C661.01 765.8 660.99 765.43 660.96 765.07C660.89 763.97 660.83 762.88 660.76 761.78C660.73 761.39 660.71 761 660.69 760.61C660.62 759.53 660.56 758.46 660.49 757.39C660.47 756.98 660.45 756.57 660.42 756.16C660.39 755.62 660.36 755.09 660.33 754.55C660.3 754.03 660.27 753.52 660.24 753C660.21 752.57 660.19 752.14 660.17 751.71C660.11 750.68 660.05 749.64 659.99 748.6C659.97 748.16 659.94 747.72 659.92 747.28C659.9 746.99 659.89 746.7 659.87 746.42C659.83 745.68 659.79 744.94 659.75 744.2C659.73 743.75 659.71 743.3 659.68 742.84C659.63 741.83 659.57 740.82 659.52 739.81C659.5 739.33 659.47 738.86 659.45 738.39C659.4 737.39 659.35 736.4 659.3 735.41C659.27 734.92 659.25 734.44 659.22 733.95C659.18 732.97 659.13 731.99 659.08 731C659.06 730.5 659.03 730.01 659.01 729.51C658.97 728.54 658.92 727.57 658.87 726.6C658.85 726.09 658.83 725.58 658.8 725.08C658.76 724.11 658.72 723.15 658.67 722.19V722C658.65 721.55 658.63 721.09 658.61 720.64C658.56 719.69 658.52 718.74 658.48 717.78C658.46 717.26 658.44 716.73 658.41 716.2C658.38 715.26 658.34 714.32 658.3 713.37C658.28 712.84 658.25 712.3 658.23 711.77C658.2 710.83 658.16 709.9 658.12 708.96C658.1 708.42 658.08 707.88 658.05 707.33C658.02 706.41 657.98 705.48 657.95 704.55C657.92 704 657.91 703.45 657.88 702.9C657.85 701.98 657.81 701.06 657.78 700.15V700.01C657.76 699.5 657.74 698.98 657.72 698.47C657.68 697.53 657.63 696.6 657.58 695.69C657.56 695.16 657.52 694.63 657.49 694.12C657.43 693.1 657.37 692.11 657.31 691.15C657.28 690.71 657.25 690.28 657.22 689.85C657.21 689.67 657.19 689.49 657.18 689.31C657.12 688.4 657.06 687.5 656.99 686.58C656.97 686.26 656.94 685.93 656.92 685.6C656.88 685.12 656.85 684.64 656.81 684.16C656.76 683.46 656.71 682.75 656.66 682.05C656.64 681.8 656.62 681.55 656.6 681.3C656.52 680.08 656.43 678.87 656.35 677.65C656.33 677.38 656.31 677.1 656.29 676.83V676.82C656.22 675.67 656.15 674.52 656.08 673.38C656.06 673 656.04 672.63 656.02 672.25C655.96 671.2 655.91 670.15 655.87 669.11C655.85 668.62 655.83 668.14 655.82 667.66C655.8 667.32 655.79 666.97 655.78 666.63C655.77 667.02 655.75 667.4 655.74 667.79C655.73 668.13 655.72 668.47 655.72 668.81C655.56 677.08 656.2 685.72 656.81 694.11C656.86 694.77 656.91 695.43 656.95 696.09C657.05 697.41 657.14 698.74 657.23 700.07C657.46 703.39 657.66 706.73 657.78 709.98C658.18 720.91 658.63 731.5 659.12 741.8C659.17 742.83 659.22 743.85 659.27 744.88C659.37 746.92 659.48 748.96 659.58 750.99C660.06 760.11 660.57 769 661.13 777.72C661.38 781.59 661.64 785.43 661.9 789.24C662 790.67 662.1 792.09 662.2 793.5C662.51 797.76 662.83 801.97 663.16 806.15C663.32 808.09 663.48 810.05 663.66 812C663.84 813.95 664.02 815.89 664.21 817.8C664.41 819.87 664.62 821.97 664.8 824.08C664.93 825.48 665.06 826.9 665.17 828.31C665.31 829.96 665.43 831.6 665.53 833.24C665.57 833.71 665.6 834.18 665.63 834.65C665.76 836.89 666.03 838.9 666.38 840.77C666.59 841.89 666.83 842.96 667.1 844.01C667.53 845.69 668 847.29 668.5 848.92C668.56 849.11 668.62 849.29 668.68 849.49C668.84 849.99 668.99 850.51 669.14 851.03C669.3 851.55 669.46 852.07 669.61 852.61C669.76 853.11 669.9 853.62 670.05 854.15C670.18 854.64 670.32 855.14 670.45 855.65C670.48 855.43 670.51 855.22 670.55 854.99C670.55 854.94 670.56 854.88 670.57 854.83C670.6 854.63 670.63 854.43 670.66 854.23C670.69 854.11 670.71 853.97 670.73 853.85C670.73 853.84 670.73 853.84 670.73 853.83C670.64 853.51 670.55 853.2 670.47 852.89ZM676.79 902C676.65 901.48 676.51 900.95 676.38 900.41C676.03 898.95 675.72 897.45 675.47 895.77C674.96 892.31 674.16 888.92 673.39 885.64C673.08 884.33 672.77 883.02 672.47 881.69C672.18 880.36 671.9 879.01 671.66 877.66C671.18 874.95 670.84 872.19 670.81 869.35V869.19C670.81 868.96 670.82 868.72 670.84 868.47C670.86 868.21 670.88 867.95 670.91 867.68C670.91 867.67 670.91 867.66 670.9 867.65C670.76 866.82 670.63 865.99 670.52 865.15C670.43 865.7 670.34 866.24 670.27 866.76C670.25 866.94 670.23 867.11 670.2 867.28C670.16 867.61 670.13 867.92 670.1 868.23V868.29C670.08 868.66 670.06 869.02 670.07 869.36C670.08 870.25 670.12 871.15 670.18 872.03C670.25 872.91 670.34 873.79 670.45 874.66C670.54 875.36 670.64 876.05 670.75 876.74C671.03 878.46 671.37 880.16 671.74 881.84C672.04 883.18 672.35 884.51 672.66 885.82C672.95 887.04 673.24 888.28 673.52 889.53C673.8 890.78 674.07 892.04 674.3 893.32C674.46 894.17 674.6 895.02 674.73 895.88C674.99 897.63 675.31 899.18 675.68 900.68C675.86 901.43 676.06 902.17 676.26 902.91C676.47 903.65 676.68 904.4 676.91 905.17C676.96 904.52 677.04 903.87 677.12 903.23C677.12 903.22 677.12 903.22 677.12 903.21C677 902.8 676.89 902.41 676.79 902ZM687.16 950.77C687.05 950.34 686.93 949.91 686.82 949.51C686.76 949.31 686.71 949.12 686.65 948.94C686.54 948.56 686.44 948.2 686.34 947.86C686.3 947.69 686.25 947.53 686.2 947.37C686.13 947.14 686.06 946.92 686 946.71C685.94 946.51 685.89 946.31 685.84 946.14C685.82 946.05 685.79 945.96 685.77 945.88C685.72 945.72 685.69 945.57 685.65 945.44C685.64 945.38 685.62 945.32 685.61 945.26C685.33 944.12 685.04 942.97 684.74 941.82C684.45 940.68 684.15 939.53 683.84 938.39C683.24 936.1 682.62 933.83 682.01 931.59L681.6 930.06C681.54 929.85 681.48 929.63 681.41 929.43C681.21 928.8 680.99 928.19 680.75 927.59C680.44 926.79 680.09 926.03 679.75 925.27C679.5 924.71 679.26 924.17 679.03 923.62C678.57 922.53 678.16 921.44 677.89 920.3C677.76 919.72 677.66 919.14 677.6 918.53C677.44 916.75 677.66 914.91 677.88 913.12C677.89 913.03 677.9 912.93 677.91 912.84C677.75 912.44 677.61 912.03 677.48 911.62C677.44 911.46 677.39 911.31 677.35 911.15C677.29 911.78 677.21 912.41 677.14 913.03C677.01 914.06 676.89 915.11 676.83 916.15C676.79 916.97 676.79 917.78 676.86 918.59C677.07 920.83 677.86 922.83 678.71 924.74C678.83 925.02 678.96 925.29 679.08 925.56C679.18 925.79 679.29 926.02 679.38 926.26C679.53 926.59 679.68 926.93 679.82 927.27C680.22 928.24 680.6 929.23 680.88 930.25L681.3 931.79C681.6 932.91 681.91 934.03 682.21 935.16C682.82 937.42 683.44 939.71 684.02 942C684.32 943.15 684.6 944.29 684.88 945.43C684.9 945.49 684.91 945.55 684.93 945.62C684.96 945.76 685.01 945.91 685.05 946.07C685.08 946.16 685.1 946.24 685.12 946.33C685.18 946.51 685.23 946.71 685.29 946.91C685.35 947.12 685.42 947.35 685.49 947.58C685.54 947.75 685.59 947.92 685.64 948.1C685.8 948.65 685.97 949.25 686.15 949.9C686.4 950.79 686.66 951.75 686.92 952.76C687.05 953.27 687.18 953.78 687.3 954.3C687.43 954.83 687.55 955.35 687.66 955.88C687.89 955.62 688.07 955.29 688.2 954.9C687.88 953.47 687.52 952.07 687.16 950.77Z" fill="black"/>
<path d="M843.289 379.19C843.289 379.14 843.289 379.09 843.279 379.04C843.149 377.92 842.909 376.75 842.559 375.47C842.539 375.39 842.519 375.32 842.499 375.24C842.369 374.78 842.229 374.32 842.069 373.86C841.969 373.53 841.859 373.2 841.739 372.87C841.119 371.09 840.359 369.27 839.559 367.38C839.279 366.73 838.989 366.08 838.699 365.41L837.779 363.3L837.559 364.48C837.549 364.51 837.549 364.55 837.539 364.58C836.769 368.49 834.159 371.82 829.569 374.76C819.159 381.44 808.349 387.85 797.429 393.8C761.859 413.16 731.979 424.7 703.449 430.12C703.359 430.13 703.259 430.15 703.169 430.17L702.709 430.26H702.699L702.909 430.69C703.799 432.54 704.639 434.28 705.409 435.89C706.179 437.49 706.879 438.97 707.519 440.29L708.989 443.34C709.959 445.37 710.619 446.74 710.889 447.29L710.999 447.51C711.019 447.56 711.029 447.58 711.029 447.58V447.59L711.149 447.85L711.429 447.8C739.519 442.69 768.939 431.41 804.019 412.32C814.529 406.59 824.999 400.4 835.119 393.9C840.689 390.32 843.319 386.27 843.399 381.14C843.409 380.52 843.369 379.88 843.289 379.19ZM710.889 445.59C710.649 445.09 710.349 444.48 710.009 443.77C709.889 443.53 709.779 443.29 709.649 443.03L708.179 439.98C707.579 438.71 706.899 437.3 706.159 435.76C705.609 434.61 705.019 433.39 704.409 432.11C704.199 431.68 703.989 431.25 703.779 430.81H703.789C732.349 425.36 762.219 413.8 797.779 394.44C808.719 388.48 819.549 382.07 829.959 375.38H829.969C834.349 372.57 836.999 369.4 838.029 365.72C838.309 366.37 838.599 367.02 838.869 367.65C839.459 369.02 840.019 370.35 840.509 371.66C840.619 371.94 840.719 372.21 840.819 372.48C840.909 372.73 840.999 372.96 841.079 373.2C841.199 373.56 841.319 373.92 841.429 374.27C841.559 374.66 841.669 375.05 841.779 375.43C841.979 376.12 842.139 376.78 842.259 377.41C842.379 378 842.469 378.57 842.539 379.12C842.539 379.16 842.549 379.2 842.549 379.24C842.619 379.91 842.659 380.53 842.659 381.13C842.579 385.98 840.059 389.84 834.719 393.27C824.609 399.76 814.159 405.94 803.659 411.66C768.759 430.66 739.489 441.9 711.569 447.01C711.569 447 711.559 446.99 711.559 446.98C711.489 446.85 711.409 446.67 711.299 446.45C711.189 446.21 711.049 445.93 710.889 445.59Z" fill="black"/>
<path d="M140.23 429.96C140.13 429.94 140.04 429.92 139.94 429.9C111.41 424.49 81.54 412.94 45.97 393.58C35.05 387.63 24.24 381.23 13.84 374.55C9.24 371.61 6.63 368.27 5.86 364.37C5.85 364.34 5.85 364.3 5.84 364.27L5.62 363.09L5.24 363.95L4.7 365.2C3.56 367.82 2.46 370.34 1.62 372.78C1.51 373.08 1.41 373.38 1.32 373.68C1.25 373.88 1.18 374.09 1.13 374.29C1.04 374.54 0.97 374.78 0.9 375.03C0.79 375.42 0.69 375.81 0.61 376.18C0.53 376.5 0.46 376.82 0.4 377.14C0.34 377.4 0.3 377.66 0.26 377.92C0.21 378.23 0.16 378.53 0.13 378.83C0.11 378.98 0.1 379.13 0.08 379.27C0.03 379.84 0 380.38 0 380.92C0.06 384.45 1.32 387.47 3.91 390.17C4.38 390.66 4.9 391.14 5.46 391.62C5.74 391.85 6.03 392.08 6.33 392.32C6.94 392.78 7.58 393.23 8.28 393.68C10.57 395.15 12.88 396.61 15.2 398.04C23.14 402.96 31.24 407.67 39.38 412.1C74.47 431.2 103.89 442.47 131.97 447.58L132.25 447.63H132.26L132.38 447.38C132.38 447.38 132.39 447.36 132.41 447.31L132.51 447.09L132.68 446.75C132.78 446.54 132.9 446.29 133.05 445.98L133.55 444.94C133.74 444.55 133.95 444.11 134.18 443.63C134.26 443.47 134.34 443.31 134.42 443.14L135.88 440.09C136.04 439.76 136.2 439.42 136.37 439.07C136.71 438.37 137.06 437.64 137.43 436.87C138.36 434.94 139.39 432.8 140.5 430.49L140.67 430.11L140.7 430.05L140.23 429.96ZM135.22 439.77L133.75 442.82C133.5 443.33 133.27 443.81 133.06 444.23C132.86 444.66 132.67 445.05 132.51 445.38C132.19 446.05 131.96 446.53 131.83 446.8H131.82C103.9 441.68 74.64 430.45 39.74 411.45H39.73C37.11 410.02 34.49 408.56 31.88 407.08C31.87 407.07 31.87 407.07 31.86 407.07C26.64 404.1 21.45 401.03 16.32 397.87C13.76 396.29 11.21 394.68 8.68 393.06C8.35 392.85 8.03 392.63 7.71 392.41C6.78 391.76 5.95 391.09 5.2 390.4C4.96 390.17 4.72 389.94 4.49 389.7C4.04 389.23 3.64 388.76 3.26 388.27C1.61 386.07 0.79 383.65 0.74 380.92C0.74 380.52 0.76 380.12 0.79 379.7C0.8 379.45 0.83 379.19 0.86 378.93C0.86 378.92 0.86 378.92 0.86 378.91C1 377.76 1.24 376.55 1.62 375.22C1.63 375.19 1.63 375.17 1.65 375.14C1.74 374.78 1.85 374.42 1.97 374.06C2.07 373.73 2.19 373.39 2.31 373.05C2.59 372.21 2.91 371.36 3.26 370.49C3.58 369.68 3.92 368.86 4.28 368.03C4.45 367.62 4.63 367.2 4.82 366.78C5 366.36 5.18 365.94 5.37 365.51C6.4 369.18 9.05 372.36 13.44 375.17C23.85 381.86 34.68 388.27 45.62 394.23C81.18 413.59 111.06 425.15 139.61 430.6H139.62C137.93 434.12 136.43 437.23 135.22 439.77Z" fill="black"/>
<path d="M142.059 426.56C141.979 426.52 141.899 426.48 141.799 426.46L141.619 426.43C141.119 426.33 140.629 426.66 140.539 427.16C140.489 427.41 140.549 427.65 140.679 427.85C140.759 428.07 140.919 428.26 141.149 428.37C141.189 428.39 141.229 428.4 141.269 428.41C141.289 427.82 141.509 427.23 141.939 426.82C141.979 426.73 142.019 426.64 142.059 426.56Z" fill="black"/>
<path d="M7.89031 361.38L7.86031 361.21C7.79031 360.82 7.48031 360.53 7.09031 360.47C7.10031 361.15 6.84031 361.84 6.32031 362.27C6.38031 362.32 6.44031 362.36 6.52031 362.39C6.63031 362.44 6.74031 362.46 6.85031 362.47C6.90031 362.48 6.95031 362.48 7.00031 362.48C7.06031 362.48 7.12031 362.47 7.18031 362.46C7.67031 362.37 7.99031 361.88 7.89031 361.38Z" fill="black"/>
<path d="M554.391 15.49L540.611 0.33L540.421 0.12L540.281 0.26C526.201 13.88 423.221 21.9 422.191 21.98H421.411C420.371 21.9 317.391 13.88 303.311 0.26L303.171 0.12L303.151 0.15L289.351 15.34L288.831 15.91L288.811 15.93L288.861 15.97L288.951 16.05C289.141 16.22 289.341 16.38 289.551 16.54C289.731 16.69 289.931 16.83 290.131 16.98C290.021 16.75 289.911 16.52 289.801 16.28C289.631 16.15 289.481 16.03 289.331 15.9L289.521 15.69L303.041 0.82L303.191 0.65C303.291 0.74 303.401 0.84 303.511 0.93C319.241 14.4 417.181 22.02 421.401 22.34H422.211C426.441 22.02 525.731 14.28 540.401 0.65L540.441 0.7L540.721 1L554.071 15.7L554.221 15.85C554.021 16.28 553.811 16.7 553.611 17.12C553.801 16.98 553.981 16.85 554.161 16.72L554.201 16.69C554.211 16.68 554.211 16.67 554.221 16.66L554.371 16.02L554.481 15.59L554.391 15.49Z" fill="black"/>
<path d="M554.48 15.59L554.39 15.49L540.61 0.33L540.49 0.59C540.47 0.63 540.46 0.66 540.44 0.7L540.72 1L554.07 15.7L554.22 15.85L554.37 16.02L554.47 16.13C554.39 16.31 554.3 16.48 554.22 16.66C554.21 16.67 554.21 16.68 554.2 16.69C533.35 60.27 480.48 89.51 421.9 89.51C363.4 89.51 310.35 60.22 289.55 16.54C289.43 16.3 289.31 16.06 289.2 15.82L289.45 15.55L302.97 0.67C302.99 0.72 303.01 0.77 303.04 0.82L303.19 0.65C303.29 0.74 303.4 0.84 303.51 0.93C303.4 0.71 303.3 0.48 303.2 0.26L303.15 0.15L303.08 0L289.28 15.19L288.76 15.76L288.81 15.87C288.82 15.88 288.82 15.9 288.83 15.91C288.84 15.93 288.85 15.95 288.86 15.97C289.47 17.28 290.11 18.58 290.78 19.87C291.06 20.41 291.35 20.95 291.64 21.49C291.89 21.96 292.15 22.42 292.42 22.89C292.73 23.45 293.05 24 293.37 24.55C294.18 25.93 295.02 27.3 295.91 28.65C306.3 44.69 321.33 58.5 340.04 69.09C364.06 82.69 392.37 89.88 421.9 89.88C451.37 89.88 479.62 82.72 503.61 69.18C522.15 58.71 537.11 45.07 547.52 29.23C547.99 28.52 548.45 27.81 548.9 27.1C548.96 27.01 549.01 26.93 549.05 26.84C549.33 26.4 549.6 25.96 549.87 25.51C550.18 25 550.49 24.48 550.78 23.97C551.14 23.36 551.49 22.74 551.83 22.12C552.1 21.63 552.37 21.14 552.63 20.65C553.41 19.17 554.16 17.68 554.86 16.17L554.91 16.06L554.48 15.59Z" fill="black"/>
<path d="M540.439 0.7C536.109 10.32 530.069 19.18 522.629 27.08C513.979 28.89 505.209 30.22 496.589 31.51L495.579 31.66C479.769 34.04 462.419 36.14 442.519 38.08C436.459 38.67 430.329 38.96 423.779 38.96C409.949 38.96 396.159 37.63 383.319 36.19C365.279 34.17 344.049 31.53 323.409 27.33C322.609 27.17 321.799 27 320.979 26.83C313.709 19.06 307.779 10.36 303.509 0.93C303.399 0.84 303.289 0.74 303.189 0.65L303.039 0.82C307.219 10.15 313.039 18.84 320.299 26.69C320.439 26.85 320.579 27 320.729 27.15C328.409 35.37 337.679 42.66 348.319 48.77C369.859 61.16 395.389 67.71 421.919 67.71C448.449 67.71 473.849 61.2 495.349 48.87C505.939 42.8 515.189 35.57 522.859 27.41C523.009 27.26 523.149 27.11 523.289 26.95C530.609 19.09 536.489 10.36 540.719 1L540.439 0.7ZM421.919 67.34C381.799 67.34 344.809 52.02 321.409 27.3C322.059 27.43 322.699 27.56 323.329 27.69C343.999 31.9 365.229 34.53 383.279 36.56C396.129 38 409.929 39.33 423.779 39.33C430.339 39.33 436.479 39.04 442.549 38.45C462.459 36.51 479.819 34.41 495.639 32.03L496.639 31.88C505.099 30.61 513.699 29.31 522.189 27.55C498.819 52.13 462.009 67.34 421.919 67.34Z" fill="black"/>
</g>
<defs>
<clipPath id="clip0_805_838">
<rect width="843.4" height="1000" fill="white"/>
</clipPath>
</defs>
</svg>
