<svg width="266" height="90" viewBox="0 0 266 90" fill="none" xmlns="http://www.w3.org/2000/svg">
<g clip-path="url(#clip0_803_642)">
<path d="M262.1 11.8L251.68 0.33L251.43 0.05C237.11 13.9 133.36 21.82 133.21 21.83H132.41C132.26 21.82 28.51 13.9 14.19 0.05L14.11 0.14C14.09 0.09 14.07 0.05 14.05 0L0 15.45C20.07 58.61 72 89.36 132.92 89.36H132.93C193.7 89.36 245.53 58.76 265.71 15.76L262.1 11.8ZM132.94 67.19C91.73 67.19 54.98 51.28 31.94 26.68C32.75 26.85 33.57 27.01 34.38 27.18C54.17 31.21 74.26 33.79 94.31 36.04C114.27 38.28 133.48 39.89 153.55 37.93C171.29 36.2 189.01 34.16 206.63 31.51C215.59 30.16 224.72 28.81 233.72 26.93C210.71 51.38 174.13 67.19 132.94 67.19Z" fill="#74CEE1"/>
</g>
<defs>
<clipPath id="clip0_803_642">
<rect width="265.71" height="89.36" fill="white"/>
</clipPath>
</defs>
</svg>
