<svg width="61" height="23" viewBox="0 0 61 23" fill="none" xmlns="http://www.w3.org/2000/svg">
<path d="M8.00483 9.1633L2.89079 9.20391L1.67969 14.4287L6.80846 14.3881L8.00483 9.1633Z" fill="white"/>
<path d="M9.99496 1.19502L4.94372 1.13596L3.5332 7.20262L8.58815 7.36509L9.99496 1.19502Z" fill="white"/>
<path d="M0.177734 21.6622L11.2329 21.7951L12.2003 17.5119L6.28501 17.4417L6.65056 15.8429L1.5624 15.6805L0.177734 21.6622Z" fill="white"/>
<path d="M21.6712 5.88073C21.6786 5.10163 22.2989 4.71392 23.5211 4.72869C24.4479 4.73977 24.9058 5.10163 24.8947 5.81427L24.4405 7.87465L29.3884 8.02973L29.5102 7.46847C29.6284 6.91461 29.6985 6.17614 29.7096 5.24934C29.7428 2.37293 27.8782 0.910729 24.123 0.86642C22.0737 0.840573 20.3751 1.36489 19.0237 2.42831C17.6723 3.49173 16.7344 5.19763 16.2101 7.54233L16.1953 7.60142L21.2503 7.76389L21.6749 5.87336L21.6712 5.88073Z" fill="white"/>
<path d="M24.0088 9.82793L22.8457 15.0527L27.8637 15.0121L29.0047 9.78732L24.0088 9.82793Z" fill="white"/>
<path d="M22.3686 17.2054C22.3649 17.6042 22.1544 17.9402 21.7482 18.2135C21.3421 18.4867 20.9285 18.6196 20.5149 18.6159C19.5586 18.6048 19.086 18.195 19.0971 17.3827L19.3518 16.2491L14.356 16.0903C14.3412 16.2528 14.3191 16.4411 14.2821 16.6626C14.2231 17.0466 14.1898 17.3383 14.1861 17.5377C14.1492 20.7095 15.8588 22.3194 19.3149 22.36L19.9574 22.3674C21.7519 22.3896 23.2954 21.9502 24.584 21.0566C25.9945 20.0818 26.9656 18.5642 27.5121 16.5149L22.5569 16.3561L22.3686 17.2091V17.2054Z" fill="white"/>
<path d="M15.6868 9.8981L14.5273 15.1229L19.6155 15.0786L20.7823 9.85379L15.6868 9.8981Z" fill="white"/>
<path d="M36.6292 6.71891C36.788 5.29732 37.4305 4.59206 38.553 4.60683C39.4355 4.6179 39.8712 5.06469 39.8638 5.94718V6.09489L39.3948 8.34726L44.4313 8.50973L44.8597 5.72934L44.867 4.97977C44.8966 2.40614 43.0208 1.09165 39.2324 1.04734C34.975 0.995643 32.4272 2.86771 31.5854 6.65615L31.2715 8.08512L36.2784 8.24758L36.6255 6.71522L36.6292 6.71891Z" fill="white"/>
<path d="M30.9057 9.77255L29.75 14.9973L34.7717 14.9567L35.9496 9.72824L30.9057 9.77255Z" fill="white"/>
<path d="M37.4202 10.8286L36.5488 14.5136L38.2289 14.5358L38.1403 14.9272L43.0734 14.8903L43.9706 10.9061L37.4202 10.8286Z" fill="white"/>
<path d="M37.5895 17.39C37.5415 17.7999 37.2904 18.1396 36.8362 18.4128C36.3821 18.6824 35.9316 18.8153 35.4885 18.8116C35.134 18.8079 34.8349 18.6824 34.5912 18.4387C34.3069 18.1802 34.1851 17.8368 34.2183 17.4085L34.3697 16.7254L29.4107 16.5666C29.2852 17.2128 29.2151 17.7113 29.2114 18.0547C29.1966 19.4172 29.5695 20.5175 30.3265 21.3446C31.0871 22.1717 32.1431 22.5927 33.4983 22.6074C34.4509 22.6185 35.374 22.4228 36.2602 22.024C37.2461 21.581 37.955 20.9754 38.376 20.2147L37.8849 22.109L41.4407 22.1496L42.6001 16.9913L37.7113 16.8362L37.5858 17.39H37.5895Z" fill="white"/>
<path d="M52.8391 6.24997C52.8465 5.46717 53.4631 5.08316 54.689 5.09793C55.6158 5.10901 56.0736 5.47086 56.0663 6.17981L55.4718 8.86052L60.4196 9.01929L60.6781 7.83403C60.8 7.28017 60.8664 6.54168 60.8775 5.61488C60.9107 2.73847 59.0497 1.27996 55.2945 1.23196C53.2452 1.20611 51.543 1.73043 50.1916 2.79385C48.8439 3.85727 47.9023 5.56317 47.3779 7.90787L47.2266 8.59098L52.2815 8.75345L52.8428 6.2389L52.8391 6.24997Z" fill="white"/>
<path d="M46.9934 9.63961L45.834 14.8644L50.9222 14.8238L52.089 9.599L46.9934 9.63961Z" fill="white"/>
<path d="M54.1543 14.7943L59.1686 14.7536L60.3096 9.53253L55.3137 9.57314L54.1543 14.7943Z" fill="white"/>
<path d="M53.537 17.5747C53.5333 17.9735 53.3265 18.3095 52.9166 18.5827C52.5105 18.856 52.0969 18.9889 51.6834 18.9852C50.7307 18.9741 50.2581 18.5642 50.2692 17.7519L50.3836 17.2424L45.4468 17.0873C45.3914 17.4454 45.3619 17.7187 45.3619 17.9107C45.325 21.0825 47.0309 22.6924 50.4907 22.733L51.1332 22.7404C52.924 22.7626 54.4711 22.3231 55.7598 21.4296C57.0189 20.5582 57.931 19.2436 58.5033 17.5082L53.5923 17.3531L53.5406 17.5821L53.537 17.5747Z" fill="white"/>
</svg>
