<svg width="844" height="1000" viewBox="0 0 844 1000" fill="none" xmlns="http://www.w3.org/2000/svg">
<g clip-path="url(#clip0_363_1870)">
<path d="M140.157 430.327C138.378 434.027 136.812 437.288 135.545 439.928C134.999 441.061 134.508 442.084 134.076 442.978C132.776 445.677 132.038 447.217 132.038 447.217C99.4852 441.298 68.4687 427.514 39.5606 411.777C28.9818 406.02 18.6135 399.88 8.48142 393.377C2.56245 389.574 0.442989 385.427 0.369141 380.919C0.369141 380.243 0.409757 379.56 0.490991 378.87C0.634996 377.647 0.900851 376.399 1.25902 375.126C2.21905 371.714 3.83264 368.121 5.47209 364.34C6.18103 368.099 8.55527 371.607 13.6324 374.863C24.1189 381.598 34.8491 387.949 45.7935 393.909C75.3108 409.978 106.959 424.072 140.157 430.327Z" fill="#A7A9AC"/>
<path d="M843.022 381.096C842.949 385.605 840.825 389.755 834.906 393.554C824.774 400.057 814.406 406.197 803.831 411.954C774.923 427.691 743.906 441.475 711.35 447.394C711.35 447.394 710.512 445.647 709.053 442.612C708.614 441.704 708.123 440.681 707.584 439.559C706.362 437.018 704.888 433.953 703.23 430.505C736.433 424.25 768.077 410.156 797.598 394.086C808.542 388.127 819.273 381.776 829.759 375.044C834.833 371.784 837.207 368.276 837.916 364.517C839.614 368.424 841.28 372.135 842.225 375.646C842.572 376.927 842.819 378.183 842.941 379.412C842.996 379.981 843.026 380.542 843.022 381.096Z" fill="#A7A9AC"/>
<path d="M291.857 71.9471C291.857 76.9467 288.844 81.6767 283.908 83.6263L134.918 142.454C134.224 140.866 133.522 139.282 132.806 137.706C132.791 137.676 132.78 137.647 132.765 137.617C132.304 136.591 131.835 135.564 131.362 134.545C130.889 133.522 130.413 132.499 129.929 131.484C129.641 130.878 129.353 130.273 129.062 129.671C128.87 129.265 128.674 128.862 128.482 128.46C128.408 128.308 128.334 128.157 128.26 128.006C127.947 127.359 127.633 126.717 127.315 126.075C127.204 125.849 127.094 125.628 126.983 125.402C126.968 125.373 126.953 125.34 126.935 125.306C126.927 125.295 126.92 125.281 126.913 125.27C126.506 124.494 125.266 122.389 123.785 119.853L274.688 60.2716C281.138 57.7275 288.427 60.8883 290.975 67.3389C291.573 68.8528 291.857 70.411 291.857 71.9471Z" fill="#A7A9AC"/>
<path d="M667.463 303.345C667.353 304.319 667.245 305.298 667.142 306.273L667.098 306.683C667.072 306.915 667.05 307.148 667.024 307.38C666.987 307.728 666.95 308.071 666.917 308.414C666.858 308.994 666.799 309.574 666.74 310.15C666.68 310.73 666.621 311.313 666.562 311.893C666.507 312.461 666.452 313.026 666.4 313.595C666.385 313.739 666.37 313.887 666.356 314.031C666.278 314.85 666.2 315.67 666.123 316.49C666.042 317.346 665.964 318.203 665.883 319.063C665.51 323.155 665.17 327.253 664.89 331.355L320.197 467.455C313.746 469.999 306.454 466.838 303.906 460.388C303.308 458.874 303.027 457.315 303.027 455.783C303.027 450.78 306.037 446.05 310.973 444.1L667.463 303.345Z" fill="#A7A9AC"/>
<path d="M403.528 387.078C403.528 389.862 401.851 392.495 399.104 393.577L186.069 477.694C186.139 474.936 186.176 472.207 186.169 469.515C186.165 468.116 186.15 466.72 186.117 465.343C186.095 464.453 186.073 463.567 186.051 462.677L393.972 380.579C397.561 379.165 401.619 380.926 403.037 384.515C403.369 385.357 403.528 386.225 403.528 387.078Z" fill="white"/>
<path d="M317.959 391.073C315.969 391.86 313.72 390.881 312.934 388.891C312.148 386.901 313.126 384.652 315.113 383.866L520.216 302.883C522.206 302.097 524.455 303.075 525.242 305.065C526.028 307.056 525.05 309.304 523.063 310.091L317.959 391.073Z" fill="#A7A9AC"/>
<path d="M281.57 165.144C281.57 166.688 280.639 168.146 279.118 168.748L159.956 215.797C159.944 215.753 159.93 215.705 159.919 215.66C159.704 214.83 159.487 214.002 159.265 213.175C158.933 211.905 158.589 210.639 158.246 209.372C158.246 209.368 158.242 209.361 158.242 209.357C158.143 208.992 158.043 208.626 157.939 208.264L276.271 161.544C278.261 160.758 280.51 161.732 281.296 163.723C281.481 164.192 281.57 164.672 281.57 165.144Z" fill="#A7A9AC"/>
<path d="M381.144 84.5604C383.341 85.0885 385.556 85.5722 387.797 86.0116L203.486 158.786C199.897 160.204 195.839 158.442 194.421 154.853C194.088 154.011 193.93 153.144 193.93 152.287C193.93 149.507 195.606 146.874 198.353 145.788L365.244 79.8932C366.16 80.2181 367.079 80.532 368.006 80.8348C368.371 80.9529 368.737 81.0748 369.102 81.1893C370.506 81.6434 371.924 82.0754 373.349 82.4927C374.793 82.9136 376.244 83.3161 377.71 83.7038C378.415 83.8884 379.124 84.0694 379.836 84.2429C379.866 84.2503 379.895 84.2577 379.925 84.2651C380.331 84.3648 380.737 84.4644 381.144 84.5604Z" fill="white"/>
<path d="M179.84 348.547C179.759 346.76 179.674 344.977 179.578 343.197C179.091 333.829 178.415 324.528 177.551 315.308C177.536 315.168 177.525 315.027 177.51 314.887C177.444 314.215 177.381 313.547 177.315 312.875C177.2 311.678 177.078 310.486 176.956 309.293C176.908 308.828 176.86 308.359 176.812 307.89C176.705 306.882 176.598 305.874 176.487 304.866C176.41 304.157 176.332 303.452 176.251 302.746C176.163 301.938 176.07 301.129 175.974 300.324C175.908 299.719 175.838 299.113 175.764 298.508C175.745 298.341 175.723 298.179 175.705 298.016C175.579 296.964 175.45 295.912 175.321 294.863C174.951 291.88 174.56 288.907 174.15 285.946C172.717 275.581 171.049 265.346 169.147 255.258C168.637 252.544 168.106 249.838 167.559 247.142C167.5 246.858 167.445 246.573 167.386 246.289C167.12 244.982 166.847 243.675 166.573 242.371C166.433 241.703 166.289 241.035 166.149 240.366C165.949 239.436 165.746 238.509 165.543 237.582C165.296 236.452 165.045 235.326 164.794 234.2C164.435 232.612 164.074 231.032 163.704 229.455C163.52 228.658 163.328 227.86 163.139 227.063C162.951 226.265 162.759 225.471 162.567 224.677C162.331 223.702 162.091 222.731 161.851 221.764C161.345 219.718 160.828 217.684 160.304 215.66C160.167 215.14 160.03 214.619 159.89 214.098C159.753 213.556 159.609 213.013 159.462 212.47C159.351 212.038 159.233 211.61 159.118 211.178C159.03 210.853 158.945 210.528 158.852 210.207C158.339 208.294 157.811 206.389 157.272 204.491C157.036 203.649 156.796 202.807 156.556 201.969C156.522 201.862 156.493 201.755 156.463 201.651C156.22 200.813 155.976 199.975 155.732 199.14C155.426 198.088 155.116 197.043 154.802 195.998C154.765 195.88 154.732 195.762 154.695 195.647C154.481 194.927 154.263 194.211 154.045 193.495C153.797 192.693 153.554 191.892 153.303 191.091C153.118 190.493 152.93 189.895 152.741 189.3C152.365 188.107 151.984 186.915 151.604 185.729C151.412 185.139 151.22 184.548 151.028 183.957C150.81 183.292 150.592 182.632 150.375 181.974C150.164 181.335 149.954 180.7 149.736 180.065C149.474 179.286 149.211 178.511 148.949 177.739C143.883 162.888 138.267 148.739 132.219 135.535C131.813 134.652 131.407 133.777 131 132.906C130.882 132.654 130.768 132.403 130.65 132.156C130.502 131.838 130.354 131.525 130.203 131.211C129.985 130.745 129.763 130.28 129.542 129.819C129.313 129.342 129.084 128.866 128.855 128.39C128.342 127.334 127.829 126.281 127.312 125.236C127.297 125.203 127.275 125.166 127.253 125.122C127.23 125.081 127.208 125.033 127.182 124.985C127.171 124.967 127.16 124.945 127.149 124.922C123.959 118.498 120.665 112.331 117.272 106.46C117.231 106.39 117.191 106.316 117.15 106.246L116.869 105.759L116.533 106.209C116.533 106.209 116.526 106.22 116.519 106.228C116.519 106.231 116.508 106.239 116.508 106.246C116.5 106.254 116.496 106.265 116.489 106.272C110.009 114.931 103.754 125.262 97.8866 137L6.75362 360.371C6.09268 361.984 5.40219 363.576 4.73017 365.119C2.28578 370.732 -0.0219964 376.038 0.000158233 380.926C0.0850842 386.059 2.7141 390.113 8.28229 393.687C18.3811 400.171 28.8455 406.367 39.3837 412.102C74.4618 431.199 103.883 442.472 131.971 447.578L132.252 447.63L179.844 348.64V348.547H179.84ZM131.824 446.799C103.898 441.682 74.628 430.446 39.7344 411.452C29.211 405.725 18.7614 399.536 8.68107 393.063C3.34181 389.637 0.816186 385.775 0.738645 380.919C0.716491 376.189 2.99472 370.957 5.40588 365.414C6.07791 363.867 6.77578 362.272 7.43672 360.651L98.5623 137.307C104.256 125.916 110.33 115.835 116.611 107.343C116.67 107.262 116.729 107.184 116.788 107.103C120.174 112.985 123.446 119.111 126.592 125.454C126.614 125.495 126.632 125.532 126.647 125.565C127.064 126.403 127.478 127.245 127.891 128.094C128.323 128.98 128.752 129.87 129.18 130.768C129.601 131.654 130.018 132.54 130.439 133.434C131.063 134.766 131.683 136.111 132.293 137.462C132.906 138.813 133.515 140.176 134.117 141.546C134.545 142.513 134.966 143.492 135.387 144.467C135.904 145.655 136.413 146.856 136.916 148.059C137.1 148.491 137.277 148.92 137.458 149.352C137.691 149.909 137.92 150.463 138.149 151.024C138.703 152.361 139.249 153.709 139.785 155.06C140.01 155.607 140.228 156.157 140.442 156.707C140.663 157.264 140.885 157.826 141.103 158.387C141.42 159.188 141.731 159.997 142.041 160.806C143.215 163.867 144.367 166.965 145.493 170.099C145.918 171.281 146.339 172.466 146.756 173.655C164.901 225.423 176.284 286.046 179.091 348.481L131.824 446.796V446.799Z" fill="black"/>
<path d="M838.659 365.296C837.991 363.757 837.297 362.161 836.639 360.548L745.492 137.156C739.694 125.558 733.51 115.318 727.107 106.715C727.022 106.604 726.941 106.497 726.86 106.386L726.523 105.936L726.243 106.423C726.221 106.46 726.199 106.497 726.18 106.534C722.761 112.449 719.441 118.656 716.229 125.133C705.126 147.498 695.322 173.013 687.365 200.318C687.011 201.537 686.66 202.755 686.313 203.977C686.139 204.59 685.966 205.203 685.796 205.816C685.449 207.042 685.109 208.272 684.777 209.505C684.607 210.118 684.441 210.738 684.275 211.355C683.913 212.706 683.555 214.058 683.2 215.413C682.495 218.123 681.804 220.845 681.132 223.581C680.63 225.619 680.143 227.661 679.663 229.714C679.183 231.767 678.718 233.82 678.256 235.884C678.241 235.936 678.226 235.991 678.219 236.043C677.931 237.342 677.643 238.642 677.362 239.949C677.122 241.064 676.882 242.183 676.653 243.302C676.469 244.166 676.292 245.034 676.114 245.901C675.705 247.892 675.306 249.889 674.918 251.891C674.763 252.688 674.608 253.482 674.456 254.28C674.39 254.638 674.32 254.996 674.253 255.354C674.095 256.207 673.936 257.064 673.777 257.917C673.4 259.933 673.039 261.952 672.692 263.98C672.463 265.298 672.237 266.616 672.016 267.938C671.853 268.916 671.691 269.895 671.532 270.877C671.377 271.841 671.222 272.804 671.067 273.772C671.059 273.838 671.048 273.905 671.037 273.971C670.579 276.855 670.144 279.746 669.73 282.645C669.594 283.612 669.457 284.583 669.32 285.551C669.139 286.843 668.966 288.139 668.792 289.435C668.693 290.174 668.597 290.916 668.501 291.658C668.257 293.504 668.024 295.354 667.806 297.208C667.71 297.994 667.618 298.781 667.526 299.571C667.397 300.638 667.275 301.709 667.153 302.78C667.057 303.651 666.961 304.523 666.865 305.39C666.817 305.859 666.765 306.328 666.717 306.797C666.617 307.728 666.518 308.658 666.425 309.589C666.322 310.619 666.219 311.649 666.119 312.683C666.097 312.901 666.075 313.118 666.052 313.336C666.027 313.554 666.008 313.776 665.986 313.994C665.92 314.684 665.853 315.386 665.787 316.095C665.776 316.183 665.768 316.268 665.761 316.353C665.724 316.737 665.687 317.125 665.654 317.512C665.521 318.96 665.395 320.411 665.277 321.866C665.244 322.231 665.214 322.597 665.188 322.963C665.133 323.594 665.081 324.225 665.033 324.857C664.819 327.537 664.62 330.222 664.443 332.917C664.31 334.823 664.191 336.735 664.077 338.648C664.059 339.017 664.036 339.383 664.011 339.752C663.844 342.636 663.697 345.523 663.567 348.418C663.56 348.522 663.556 348.621 663.553 348.725V348.817L711.019 447.553L711.141 447.807L711.418 447.759C739.506 442.649 768.927 431.376 804.009 412.283C814.544 406.544 825.008 400.349 835.107 393.865C840.675 390.29 843.308 386.236 843.393 381.1C843.415 376.215 841.107 370.912 838.659 365.296ZM834.708 393.241C824.624 399.717 814.175 405.902 803.655 411.629C768.761 430.623 739.488 441.863 711.562 446.977L664.295 348.662C664.431 345.627 664.587 342.599 664.768 339.575C664.786 339.279 664.804 338.98 664.819 338.685C668.464 277.638 680.276 218.699 698.535 168.512C699.222 166.617 699.919 164.738 700.628 162.873C700.876 162.223 701.123 161.574 701.371 160.927C701.865 159.635 702.368 158.346 702.87 157.069C703.077 156.548 703.283 156.028 703.49 155.511C704.044 154.119 704.605 152.734 705.17 151.36C705.418 150.758 705.665 150.16 705.912 149.562C706.186 148.909 706.459 148.259 706.732 147.609C707.02 146.926 707.312 146.246 707.6 145.567C707.888 144.887 708.179 144.208 708.479 143.536C708.755 142.905 709.029 142.273 709.309 141.642C709.697 140.756 710.088 139.873 710.484 138.998C711.019 137.791 711.565 136.591 712.123 135.398C712.319 134.977 712.511 134.56 712.706 134.142C712.983 133.544 713.264 132.946 713.541 132.352C713.847 131.694 714.161 131.037 714.475 130.384C714.789 129.73 715.103 129.08 715.417 128.43C715.424 128.423 715.428 128.416 715.428 128.404C715.76 127.718 716.096 127.035 716.436 126.351C716.524 126.171 716.613 125.993 716.702 125.816C716.716 125.783 716.735 125.746 716.757 125.705C719.914 119.332 723.197 113.184 726.601 107.28C726.66 107.361 726.719 107.439 726.778 107.52C733.063 116.013 739.129 126.089 744.82 137.458L835.952 360.828C836.613 362.449 837.308 364.048 837.98 365.592C840.394 371.134 842.673 376.366 842.651 381.092C842.573 385.952 840.047 389.814 834.708 393.241Z" fill="black"/>
<path d="M140.161 153.997C139.212 151.63 138.248 149.293 137.27 146.981C135.63 143.104 133.943 139.279 132.218 135.535C138.266 148.739 143.883 162.888 148.949 177.739C146.179 169.594 143.24 161.662 140.161 153.997ZM140.161 153.997C139.212 151.63 138.248 149.293 137.27 146.981C135.63 143.104 133.943 139.279 132.218 135.535C138.266 148.739 143.883 162.888 148.949 177.739C146.179 169.594 143.24 161.662 140.161 153.997ZM140.161 153.997C139.212 151.63 138.248 149.293 137.27 146.981C135.63 143.104 133.943 139.279 132.218 135.535C138.266 148.739 143.883 162.888 148.949 177.739C146.179 169.594 143.24 161.662 140.161 153.997ZM137.27 146.981C135.63 143.104 133.943 139.279 132.218 135.535C138.266 148.739 143.883 162.888 148.949 177.739C146.179 169.594 143.24 161.662 140.161 153.997C139.212 151.63 138.248 149.293 137.27 146.981ZM727.025 106.431C726.065 105.146 725.12 103.92 724.193 102.757C724.112 102.653 724.027 102.554 723.946 102.45C723.861 102.347 723.78 102.24 723.691 102.136C722.938 101.206 722.195 100.312 721.464 99.4594C708.777 84.6011 699.653 81.1449 699.565 81.1154L694.919 79.1252L668.5 67.8005L642.081 56.4795L615.665 45.1622L589.249 33.8412L562.834 22.5202L560.423 21.4863L554.589 15.0651L554.352 15.5673C549.84 25.1824 543.766 34.1033 536.414 42.175C528.856 50.4719 519.946 57.8715 509.995 64.1967C501.835 69.3919 492.973 73.8672 483.583 77.5264C475.161 80.8089 466.313 83.438 457.164 85.3396C448.59 87.1267 439.75 88.2714 430.744 88.7255C427.812 88.8769 424.866 88.9545 421.905 88.9545C415.978 88.9545 410.111 88.6517 404.329 88.0683C395.282 87.1525 386.439 85.539 377.913 83.2866C368.697 80.8533 359.85 77.6778 351.497 73.8302C341.974 69.4473 333.102 64.193 325.078 58.1743C314.717 50.4128 305.77 41.3811 298.658 31.3266C295.051 26.2274 291.92 20.8586 289.313 15.2608L289.08 14.7587L282.966 21.4863L272.246 26.0797L245.827 37.4007L219.408 48.7217L192.992 60.0427L166.573 71.3674L143.842 81.108C143.805 81.1228 142.48 81.625 140.161 83.0429C136.435 85.3211 130.151 89.9662 122.518 98.7616C122.341 98.9646 122.16 99.1714 121.983 99.3819C121.916 99.4594 121.846 99.5407 121.776 99.6219C121.111 100.405 120.436 101.217 119.753 102.063C119.671 102.166 119.586 102.269 119.502 102.373C119.42 102.476 119.339 102.58 119.25 102.687C118.468 103.665 117.674 104.688 116.869 105.759C116.754 105.906 116.644 106.058 116.529 106.209C116.525 106.217 116.522 106.22 116.518 106.228C116.518 106.231 116.507 106.239 116.507 106.246C116.5 106.254 116.496 106.265 116.489 106.272C116.4 106.457 116.411 106.767 116.61 107.343C117.161 108.953 119.14 112.634 124.291 121.448C125.391 123.338 126.277 124.852 126.591 125.454C126.613 125.495 126.632 125.532 126.646 125.565C127.064 126.403 127.477 127.245 127.891 128.094C128.323 128.98 128.751 129.87 129.179 130.768C129.6 131.654 130.018 132.54 130.439 133.434C131.063 134.766 131.683 136.111 132.292 137.462C132.905 138.813 133.514 140.176 134.116 141.546C134.545 142.513 134.965 143.492 135.386 144.467C135.903 145.655 136.413 146.856 136.915 148.059C137.1 148.491 137.277 148.92 137.458 149.352C137.69 149.909 137.919 150.463 138.148 151.024C138.702 152.361 139.249 153.709 139.784 155.06C140.002 155.61 140.22 156.157 140.441 156.707C140.663 157.264 140.884 157.826 141.102 158.387C141.416 159.192 141.726 159.997 142.04 160.806C143.214 163.867 144.366 166.965 145.493 170.099C145.917 171.277 146.342 172.463 146.755 173.655C149.34 180.999 151.788 188.532 154.089 196.205C158.915 212.285 163.08 228.916 166.569 245.997C171 267.65 174.349 290.03 176.572 312.945C177.092 318.314 177.635 323.731 178.163 328.978C178.64 333.763 179.116 338.493 179.574 343.193C181.479 362.66 183.13 381.565 183.842 401.231C183.968 404.776 184.093 408.339 184.215 411.913C184.219 412.043 184.223 412.175 184.23 412.308C184.271 413.608 184.315 414.912 184.355 416.215C184.367 416.444 184.374 416.669 184.378 416.894C184.422 418.117 184.459 419.335 184.499 420.557C184.507 420.834 184.518 421.111 184.529 421.388C184.562 422.566 184.599 423.748 184.64 424.925C184.647 425.236 184.658 425.546 184.666 425.856C184.703 427.008 184.739 428.16 184.773 429.312C184.784 429.648 184.795 429.98 184.802 430.316C184.835 431.439 184.869 432.561 184.906 433.684C184.917 434.046 184.924 434.408 184.935 434.773C184.968 435.874 185.002 436.978 185.031 438.082C185.042 438.462 185.053 438.842 185.064 439.223C185.098 440.304 185.127 441.386 185.157 442.468C185.168 442.871 185.179 443.277 185.19 443.679C185.22 444.739 185.249 445.802 185.279 446.862C185.29 447.283 185.301 447.708 185.312 448.129C185.338 449.152 185.367 450.178 185.393 451.201C185.404 451.677 185.419 452.157 185.43 452.633C185.456 453.579 185.478 454.524 185.5 455.469C185.519 456.049 185.533 456.632 185.548 457.212C185.567 458.061 185.589 458.911 185.607 459.756C185.626 460.421 185.644 461.089 185.655 461.754C185.677 462.533 185.696 463.312 185.714 464.091C185.725 464.508 185.733 464.929 185.744 465.347V465.391C185.751 465.683 185.755 465.974 185.762 466.266C185.777 467.001 185.784 467.739 185.792 468.485V468.544C185.796 469.257 185.799 469.973 185.796 470.693C185.796 471.435 185.792 472.178 185.781 472.927C185.777 473.647 185.766 474.371 185.751 475.098C185.74 475.855 185.722 476.62 185.703 477.384C185.688 477.978 185.674 478.577 185.655 479.175C185.655 479.282 185.648 479.393 185.644 479.5C185.622 480.275 185.6 481.05 185.57 481.826C185.552 482.516 185.526 483.211 185.496 483.905C185.471 484.684 185.441 485.463 185.408 486.242C185.382 486.94 185.352 487.638 185.323 488.332C185.29 489.1 185.256 489.868 185.223 490.636C185.201 491.182 185.175 491.725 185.153 492.268C185.146 492.438 185.138 492.608 185.131 492.778C185.098 493.524 185.068 494.277 185.035 495.026C185.031 495.048 185.031 495.067 185.031 495.089C185.031 495.126 185.031 495.167 185.031 495.204C185.002 495.876 184.976 496.548 184.946 497.22C184.924 497.781 184.898 498.342 184.876 498.907C184.872 499.081 184.865 499.254 184.858 499.431C184.828 500.166 184.802 500.901 184.776 501.636C184.747 502.389 184.721 503.142 184.695 503.896C184.677 504.593 184.655 505.295 184.636 505.993C184.614 506.831 184.592 507.669 184.577 508.504C184.566 508.906 184.559 509.309 184.551 509.711C184.551 509.874 184.551 510.032 184.544 510.195C184.4 519.086 184.614 527.878 185.733 536.13C186.021 538.254 186.449 540.214 186.881 542.109C186.922 542.297 186.962 542.485 187.007 542.67C187.051 542.866 187.095 543.061 187.14 543.253C187.195 543.489 187.247 543.726 187.298 543.958C187.498 544.845 187.686 545.727 187.852 546.617C187.889 546.828 187.93 547.038 187.963 547.252C188 547.459 188.037 547.666 188.07 547.876C188.247 548.999 188.384 550.151 188.45 551.358C188.465 551.58 188.476 551.805 188.484 552.03C188.498 552.521 188.506 553.02 188.498 553.533C188.498 553.695 188.498 553.858 188.487 554.02C188.461 554.991 188.192 555.819 187.83 556.624C187.764 556.779 187.69 556.937 187.616 557.092C187.542 557.24 187.468 557.388 187.394 557.536C187.346 557.628 187.298 557.724 187.25 557.82C186.626 559.049 185.98 560.323 185.954 561.926C185.94 563.082 186.228 564.256 186.615 565.423C186.726 565.751 186.844 566.076 186.966 566.401C187.025 566.56 187.084 566.715 187.143 566.87C187.217 567.058 187.287 567.243 187.361 567.431C187.62 568.092 187.878 568.761 188.103 569.433C188.181 569.658 188.255 569.879 188.321 570.105C188.391 570.348 188.458 570.596 188.513 570.839C188.62 571.279 188.694 571.722 188.735 572.158C189.06 575.835 188.244 579.173 187.306 582.378C187.169 582.855 187.025 583.327 186.885 583.8C186.885 583.8 186.881 583.811 186.881 583.815C186.863 583.881 186.84 583.944 186.822 584.01C186.541 584.941 186.264 585.875 186.01 586.828C185.94 587.097 185.869 587.367 185.803 587.636C185.736 587.898 185.674 588.164 185.615 588.43C185.223 590.155 184.957 591.927 184.961 593.773C184.961 595.605 185.338 597.399 185.807 599.153C185.921 599.596 186.047 600.035 186.172 600.471C186.231 600.671 186.29 600.87 186.346 601.069C186.368 601.147 186.39 601.221 186.412 601.295C186.674 602.196 186.944 603.104 187.173 604.027C187.236 604.263 187.295 604.5 187.346 604.74C187.402 604.98 187.457 605.22 187.501 605.46C187.9 607.413 188.077 609.436 187.723 611.585C187.224 614.565 186.18 616.917 185.171 619.196C184.913 619.775 184.658 620.351 184.418 620.927C184.189 621.474 183.971 622.024 183.776 622.581C183.761 622.615 183.75 622.648 183.739 622.681C183.658 622.906 183.584 623.135 183.51 623.364C183.395 623.719 183.292 624.081 183.203 624.45C183.093 624.889 182.997 625.336 182.926 625.794C182.834 626.355 182.771 626.939 182.746 627.544C182.413 635.099 183.632 642.48 184.813 649.617C185.397 653.147 185.991 656.751 186.397 660.385C186.456 660.89 186.508 661.4 186.556 661.906C186.637 662.729 186.704 663.553 186.759 664.376C186.804 665.019 186.837 665.661 186.863 666.304C186.863 666.392 186.87 666.477 186.87 666.562C186.87 666.595 186.87 666.632 186.87 666.665C186.874 666.773 186.877 666.876 186.881 666.983C186.903 667.585 186.918 668.19 186.929 668.796C186.944 669.509 186.951 670.225 186.955 670.941C186.955 671.735 186.955 672.536 186.94 673.338V673.356C186.933 673.976 186.922 674.601 186.903 675.225C186.885 676.137 186.855 677.052 186.822 677.968C186.804 678.47 186.785 678.972 186.763 679.475C186.719 680.497 186.667 681.524 186.612 682.55C186.589 682.949 186.564 683.348 186.541 683.747C186.479 684.825 186.412 685.903 186.338 686.981C186.312 687.387 186.287 687.79 186.257 688.192C186.187 689.215 186.117 690.234 186.043 691.253C186.006 691.756 185.973 692.254 185.936 692.752C185.903 693.188 185.873 693.62 185.84 694.052C185.803 694.536 185.77 695.02 185.733 695.503C185.688 696.105 185.648 696.707 185.604 697.313C185.544 698.147 185.485 698.982 185.43 699.82C185.382 700.484 185.338 701.145 185.297 701.81C185.242 702.6 185.194 703.394 185.146 704.184C185.105 704.878 185.068 705.573 185.035 706.263C184.991 707.042 184.954 707.818 184.924 708.586C184.902 709.044 184.883 709.498 184.869 709.948C184.861 710.196 184.85 710.439 184.843 710.683C184.813 711.462 184.784 712.241 184.754 713.013C184.728 713.711 184.703 714.401 184.677 715.095C184.643 715.878 184.614 716.665 184.584 717.444C184.555 718.134 184.529 718.821 184.499 719.504C184.47 720.298 184.437 721.088 184.403 721.875C184.378 722.558 184.352 723.234 184.319 723.913C184.289 724.714 184.256 725.515 184.223 726.313C184.193 726.985 184.163 727.653 184.138 728.318C184.101 729.13 184.064 729.939 184.031 730.748C184.001 731.405 183.971 732.062 183.942 732.719C183.905 733.543 183.868 734.366 183.831 735.186C183.802 735.832 183.772 736.478 183.739 737.121C183.702 737.955 183.661 738.79 183.624 739.624C183.595 740.256 183.562 740.887 183.532 741.515C183.491 742.368 183.451 743.221 183.41 744.07C183.377 744.687 183.347 745.3 183.318 745.912C183.274 746.78 183.229 747.648 183.185 748.512C183.155 749.114 183.126 749.712 183.093 750.307C183.048 751.193 183.004 752.079 182.956 752.961C182.926 753.541 182.893 754.117 182.864 754.693C182.816 755.601 182.768 756.506 182.716 757.411C182.686 757.968 182.657 758.526 182.624 759.08C182.572 760.014 182.52 760.944 182.469 761.871C182.439 762.399 182.41 762.927 182.38 763.455C182.321 764.415 182.266 765.372 182.21 766.328C182.181 766.83 182.151 767.332 182.122 767.834C182.062 768.82 182.003 769.806 181.944 770.788C181.915 771.261 181.885 771.73 181.859 772.199C181.797 773.222 181.73 774.245 181.667 775.26C181.642 775.692 181.612 776.124 181.586 776.552C181.516 777.623 181.45 778.687 181.379 779.75C181.354 780.13 181.331 780.511 181.306 780.891C181.232 782.021 181.158 783.147 181.084 784.27C181.062 784.58 181.04 784.89 181.021 785.196H181.018C180.936 786.422 180.851 787.641 180.766 788.855C180.755 789.04 180.741 789.225 180.729 789.409C180.729 789.42 180.726 789.428 180.726 789.439C180.667 790.303 180.608 791.163 180.545 792.024C180.523 792.308 180.504 792.592 180.482 792.877C180.165 797.322 179.832 801.724 179.489 806.088C179.186 809.965 178.802 813.912 178.437 817.73C178.178 820.382 177.92 823.077 177.68 825.784C177.672 825.898 177.661 826.016 177.65 826.131C177.406 828.955 177.185 831.791 177.015 834.609C176.668 840.509 175.372 844.763 173.998 849.267C173.917 849.537 173.836 849.81 173.751 850.083C173.655 850.405 173.559 850.73 173.459 851.055C173.282 851.653 173.101 852.262 172.924 852.882C172.868 853.082 172.809 853.281 172.754 853.484C172.721 853.599 172.691 853.717 172.658 853.831C172.577 854.123 172.499 854.415 172.422 854.714C172.351 854.965 172.285 855.216 172.222 855.474C172.211 855.519 172.2 855.567 172.189 855.611C172.06 856.109 171.938 856.615 171.816 857.14C171.735 857.494 171.672 857.856 171.631 858.225C171.572 858.709 171.546 859.2 171.546 859.702C171.546 860.537 171.609 861.39 171.705 862.239C171.705 862.272 171.713 862.305 171.716 862.339C171.79 862.989 171.886 863.638 171.982 864.27C172.026 864.547 172.071 864.816 172.111 865.086C172.111 865.112 172.119 865.138 172.122 865.163C172.189 865.588 172.255 866.005 172.314 866.415C172.377 866.843 172.433 867.264 172.477 867.667C172.543 868.265 172.584 868.83 172.577 869.347C172.506 875.018 171.229 880.421 169.999 885.638C169.228 888.917 168.426 892.303 167.917 895.77C167.596 897.926 167.182 899.787 166.695 901.626C166.654 901.785 166.613 901.944 166.569 902.103C166.469 902.475 166.37 902.848 166.263 903.221C166.237 903.314 166.211 903.402 166.185 903.495C166.126 903.712 166.067 903.93 166 904.148C165.912 904.458 165.823 904.768 165.727 905.086C165.698 905.197 165.664 905.308 165.631 905.418C165.576 905.614 165.524 905.81 165.483 906.005C165.376 906.456 165.306 906.906 165.258 907.357C165.122 908.605 165.173 909.857 165.288 911.101C165.314 911.411 165.347 911.718 165.38 912.024C165.41 912.297 165.443 912.571 165.476 912.84C165.487 912.932 165.498 913.025 165.509 913.117C165.727 914.904 165.949 916.75 165.786 918.523C165.557 920.952 164.623 923.046 163.63 925.261C162.954 926.779 162.249 928.348 161.787 930.054L161.37 931.59C160.159 936.054 158.9 940.677 157.777 945.256C157.667 945.71 157.456 946.441 157.187 947.372C157.065 947.785 156.935 948.232 156.799 948.708C156.725 948.967 156.647 949.233 156.57 949.506C156.529 949.661 156.485 949.82 156.441 949.979C156.016 951.485 155.569 953.18 155.185 954.897C155.137 955.1 155.093 955.303 155.052 955.502C155.012 955.683 154.975 955.861 154.938 956.038C153.959 960.79 153.597 965.476 155.706 966.779C156.23 967.097 160.314 969.563 166.569 972.853C173.393 976.45 182.801 981.028 192.988 984.894C201.595 988.155 210.764 990.906 219.404 992.12C222.461 992.552 225.452 992.789 228.329 992.789C229.399 992.789 230.452 992.755 231.464 992.689C236.212 993.291 241.001 993.856 245.823 994.388C254.523 995.34 263.337 996.182 272.243 996.895C280.972 997.604 289.782 998.198 298.655 998.671C302.366 998.87 306.088 999.051 309.817 999.21C314.041 999.387 319.465 999.605 325.074 999.76C325.661 999.778 326.245 999.793 326.835 999.808V999.996H519.732V999.723C523.757 999.601 528.162 999.439 533.564 999.21C534.513 999.169 535.462 999.129 536.411 999.081C545.272 998.682 554.09 998.161 562.83 997.534C571.721 996.891 580.535 996.13 589.246 995.259C596.893 994.491 604.459 993.634 611.917 992.689C612.929 992.755 613.985 992.789 615.052 992.789C615.255 992.789 615.458 992.789 615.661 992.789C623.944 992.693 633.123 990.68 642.077 987.811C651.578 984.765 660.835 980.755 668.496 977.052C679.3 971.838 686.944 967.222 687.679 966.783C689.783 965.483 689.425 960.809 688.447 956.06C688.41 955.879 688.369 955.695 688.328 955.51C688.288 955.303 688.244 955.1 688.196 954.897C687.767 952.999 687.269 951.134 686.811 949.513C686.589 948.734 686.383 948.014 686.194 947.372C685.925 946.445 685.714 945.714 685.604 945.26C684.481 940.685 683.222 936.062 682.011 931.594L681.594 930.058C681.128 928.352 680.427 926.783 679.747 925.265C678.758 923.05 677.823 920.956 677.595 918.526C677.432 916.754 677.654 914.908 677.872 913.121C677.883 913.028 677.894 912.932 677.905 912.84C677.938 912.571 677.971 912.297 678.001 912.024C678.034 911.714 678.067 911.407 678.093 911.101C678.237 909.517 678.281 907.914 677.971 906.33C677.908 906.028 677.838 905.725 677.75 905.422C677.716 905.308 677.683 905.197 677.654 905.086C677.598 904.894 677.543 904.702 677.488 904.51C677.451 904.388 677.414 904.266 677.38 904.144V904.137C677.288 903.823 677.203 903.517 677.115 903.207C677 902.804 676.889 902.405 676.782 902.003C676.642 901.475 676.505 900.947 676.376 900.411C676.022 898.953 675.711 897.45 675.464 895.774C674.954 892.306 674.153 888.921 673.382 885.642C672.148 880.424 670.874 875.022 670.804 869.351C670.797 868.837 670.837 868.276 670.904 867.682C670.945 867.275 671.004 866.858 671.066 866.426C671.125 866.013 671.192 865.588 671.258 865.16C671.258 865.138 671.266 865.112 671.269 865.09C671.377 864.418 671.487 863.72 671.58 863.014C671.613 862.789 671.639 862.568 671.665 862.342C671.724 861.844 671.772 861.345 671.797 860.851C671.857 859.902 671.849 858.964 671.731 858.07C671.69 857.756 671.635 857.446 671.565 857.143C671.532 856.996 671.495 856.844 671.461 856.7C671.373 856.327 671.281 855.966 671.192 855.607C671.114 855.305 671.037 855.005 670.959 854.71C670.911 854.533 670.867 854.356 670.819 854.182C670.786 854.064 670.753 853.946 670.719 853.828C670.631 853.51 670.546 853.196 670.457 852.886C670.38 852.613 670.298 852.34 670.221 852.07C669.944 851.114 669.663 850.187 669.383 849.271C669.076 848.278 668.781 847.296 668.496 846.306C667.481 842.809 666.635 839.213 666.362 834.612C666.196 831.795 665.974 828.959 665.731 826.131C665.72 826.016 665.709 825.902 665.701 825.787C665.461 823.077 665.203 820.382 664.944 817.727C664.579 813.912 664.195 809.969 663.892 806.092C663.556 801.816 663.231 797.503 662.921 793.15C662.921 793.12 662.921 793.094 662.913 793.065C662.795 791.407 662.677 789.745 662.563 788.073C662.544 787.814 662.526 787.556 662.511 787.297C662.43 786.13 662.349 784.956 662.271 783.782C662.245 783.439 662.223 783.095 662.201 782.748C662.127 781.648 662.057 780.547 661.983 779.44C661.957 779.045 661.931 778.65 661.905 778.255C661.839 777.206 661.773 776.157 661.706 775.101C661.677 774.658 661.651 774.211 661.625 773.765C661.558 772.76 661.499 771.752 661.436 770.744C661.407 770.26 661.377 769.777 661.348 769.289C661.289 768.322 661.233 767.347 661.174 766.372C661.145 765.859 661.115 765.346 661.082 764.833C661.03 763.887 660.975 762.942 660.92 761.993C660.89 761.454 660.86 760.915 660.827 760.372C660.779 759.453 660.728 758.53 660.676 757.606C660.646 757.042 660.613 756.477 660.584 755.912C660.536 755.018 660.488 754.121 660.44 753.22C660.41 752.636 660.377 752.053 660.347 751.466C660.299 750.591 660.255 749.712 660.211 748.83C660.181 748.228 660.148 747.622 660.118 747.017C660.074 746.156 660.033 745.296 659.989 744.432C659.96 743.815 659.93 743.195 659.897 742.575C659.856 741.729 659.815 740.883 659.775 740.034C659.745 739.399 659.716 738.764 659.686 738.125C659.646 737.298 659.609 736.467 659.572 735.633C659.542 734.987 659.513 734.337 659.483 733.687C659.446 732.875 659.409 732.055 659.372 731.235C659.343 730.574 659.313 729.913 659.284 729.249C659.251 728.444 659.214 727.639 659.18 726.83C659.151 726.158 659.125 725.486 659.095 724.81C659.062 724.016 659.029 723.219 658.999 722.421C658.97 721.742 658.94 721.059 658.915 720.376C658.881 719.589 658.852 718.803 658.819 718.013C658.793 717.322 658.767 716.631 658.737 715.941C658.708 715.162 658.678 714.383 658.649 713.6C658.623 712.906 658.597 712.208 658.571 711.51C658.549 710.993 658.531 710.473 658.512 709.952C658.501 709.697 658.494 709.442 658.479 709.188C658.453 708.493 658.423 707.792 658.387 707.09C658.35 706.315 658.309 705.532 658.261 704.749C658.224 704.066 658.183 703.383 658.139 702.7C658.091 701.895 658.039 701.09 657.984 700.285L657.851 698.347C657.788 697.486 657.729 696.626 657.667 695.769C657.626 695.197 657.582 694.625 657.541 694.056C657.471 693.1 657.401 692.147 657.331 691.191C657.297 690.733 657.264 690.271 657.234 689.813C657.161 688.761 657.087 687.705 657.017 686.649C656.991 686.265 656.969 685.881 656.947 685.497C656.876 684.422 656.814 683.348 656.755 682.273C656.732 681.849 656.71 681.42 656.692 680.996C656.64 679.999 656.596 679.006 656.559 678.016C656.54 677.473 656.522 676.93 656.507 676.388C656.481 675.513 656.459 674.637 656.448 673.766C656.448 673.629 656.441 673.496 656.441 673.36C656.433 672.832 656.43 672.307 656.426 671.783C656.426 671.004 656.426 670.229 656.441 669.453C656.448 668.718 656.466 667.987 656.492 667.26C656.492 667.168 656.492 667.079 656.5 666.987C656.5 666.872 656.507 666.761 656.511 666.647C656.514 666.533 656.518 666.422 656.522 666.307C656.54 665.875 656.559 665.447 656.585 665.015C656.625 664.321 656.673 663.63 656.736 662.936C656.817 661.95 656.917 660.964 657.031 659.978C657.031 659.978 657.031 659.978 657.035 659.971C657.046 659.86 657.057 659.75 657.076 659.635C657.475 656.256 658.028 652.907 658.568 649.621C659.753 642.484 660.971 635.103 660.639 627.548C660.613 626.935 660.55 626.351 660.454 625.783C660.406 625.462 660.344 625.148 660.273 624.838C660.244 624.705 660.214 624.575 660.181 624.446C660.089 624.077 659.985 623.715 659.871 623.361V623.353C659.801 623.128 659.727 622.903 659.646 622.681C659.236 621.5 658.734 620.366 658.217 619.199C657.209 616.921 656.164 614.569 655.665 611.589C655.311 609.44 655.488 607.417 655.887 605.463C655.931 605.223 655.986 604.983 656.042 604.743C656.094 604.503 656.153 604.267 656.215 604.031C656.444 603.108 656.714 602.199 656.976 601.298C657.057 601.025 657.135 600.752 657.216 600.475C657.84 598.304 658.42 596.066 658.427 593.777C658.427 591.934 658.165 590.162 657.774 588.441C657.715 588.175 657.652 587.909 657.585 587.644C657.519 587.367 657.445 587.094 657.375 586.82C657.271 586.436 657.164 586.052 657.054 585.672C656.958 585.328 656.858 584.992 656.755 584.653C656.692 584.442 656.629 584.228 656.566 584.018C656.548 583.951 656.526 583.885 656.507 583.818C655.41 580.17 654.281 576.389 654.654 572.161C654.694 571.726 654.768 571.282 654.875 570.843C654.93 570.599 654.993 570.359 655.067 570.116C655.133 569.89 655.207 569.661 655.285 569.436C655.414 569.049 655.554 568.665 655.702 568.281C655.809 567.996 655.916 567.716 656.027 567.435C656.046 567.387 656.064 567.339 656.082 567.291C656.138 567.154 656.19 567.014 656.245 566.874C656.873 565.238 657.456 563.562 657.434 561.93C657.408 560.327 656.762 559.053 656.138 557.824C656.09 557.728 656.042 557.635 655.994 557.543C655.92 557.392 655.846 557.244 655.772 557.096C655.698 556.941 655.625 556.782 655.554 556.627C655.399 556.276 655.259 555.922 655.152 555.553C655.045 555.198 654.967 554.829 654.927 554.438C654.912 554.305 654.901 554.164 654.897 554.024C654.879 553.345 654.879 552.687 654.897 552.049C654.897 552.037 654.897 552.026 654.897 552.015C654.919 551.299 654.971 550.605 655.041 549.929C655.111 549.231 655.204 548.548 655.311 547.876C655.344 547.666 655.377 547.459 655.414 547.252C655.451 547.042 655.488 546.831 655.529 546.621C655.728 545.546 655.961 544.486 656.204 543.416C656.26 543.168 656.319 542.921 656.374 542.673C656.418 542.489 656.459 542.301 656.5 542.112C656.559 541.869 656.614 541.621 656.67 541.374C657.039 539.708 657.397 537.984 657.644 536.134C658.667 528.616 658.937 520.656 658.867 512.576C658.867 512.292 658.867 512.004 658.859 511.72C658.852 511.044 658.841 510.368 658.83 509.693C658.822 509.368 658.819 509.046 658.811 508.722C658.796 508.094 658.782 507.466 658.767 506.835C658.745 506.041 658.723 505.243 658.7 504.446C658.675 503.729 658.652 503.009 658.627 502.289C658.601 501.547 658.571 500.805 658.545 500.063C658.531 499.716 658.516 499.365 658.505 499.018V499.007C658.486 498.623 658.471 498.235 658.457 497.851C658.427 497.109 658.394 496.367 658.364 495.625C658.364 495.565 658.364 495.51 658.357 495.451C658.342 495.085 658.327 494.716 658.313 494.351C658.279 493.656 658.25 492.962 658.22 492.272C658.206 491.906 658.191 491.544 658.172 491.179C658.143 490.474 658.113 489.765 658.084 489.056C658.051 488.284 658.017 487.509 657.988 486.737C657.958 486.043 657.932 485.345 657.907 484.651C657.873 483.871 657.847 483.092 657.818 482.313C657.796 481.615 657.77 480.918 657.751 480.223C657.74 479.954 657.733 479.684 657.726 479.415C657.711 478.913 657.696 478.41 657.689 477.912C657.667 477.199 657.652 476.487 657.637 475.778C657.622 475.017 657.607 474.264 657.6 473.51C657.589 472.776 657.585 472.045 657.582 471.321C657.582 470.579 657.582 469.84 657.582 469.105C657.582 468.939 657.582 468.773 657.585 468.611C657.585 468.035 657.596 467.459 657.604 466.89C657.611 466.403 657.622 465.915 657.633 465.431V465.35C657.633 465.118 657.644 464.885 657.652 464.652C657.667 463.943 657.685 463.231 657.703 462.522C657.718 461.724 657.74 460.927 657.759 460.129C657.774 459.49 657.788 458.851 657.807 458.213C657.825 457.33 657.847 456.448 657.873 455.569C657.884 455.026 657.899 454.483 657.914 453.944C657.94 452.962 657.962 451.984 657.991 451.005C658.003 450.555 658.014 450.104 658.025 449.654C658.054 448.612 658.08 447.567 658.11 446.526C658.121 446.109 658.132 445.695 658.143 445.282C658.172 444.215 658.202 443.144 658.231 442.077C658.243 441.682 658.254 441.287 658.265 440.892C658.294 439.802 658.327 438.709 658.361 437.62C658.368 437.247 658.379 436.874 658.39 436.501C658.423 435.386 658.457 434.275 658.49 433.167C658.497 432.816 658.508 432.465 658.519 432.115C658.553 430.977 658.59 429.84 658.623 428.703C658.634 428.378 658.641 428.053 658.652 427.732C658.689 426.565 658.723 425.402 658.759 424.242C658.771 423.943 658.778 423.648 658.789 423.352C658.826 422.156 658.863 420.96 658.904 419.763C658.911 419.505 658.918 419.246 658.926 418.988C658.966 417.74 659.007 416.496 659.051 415.255C659.055 415.052 659.062 414.852 659.07 414.653V414.642C659.221 410.152 659.372 405.68 659.535 401.235C659.797 394.057 660.096 386.76 660.388 379.704C660.58 375.026 660.776 370.344 660.956 365.662C661.141 360.939 662.038 356.32 662.902 351.859C663.124 350.722 663.345 349.574 663.56 348.418C664.091 345.516 664.56 342.562 664.76 339.575C664.778 339.279 664.797 338.98 664.811 338.685C665.236 330.078 666.011 321.412 666.717 314.064C667.241 308.555 667.835 303.075 668.493 297.636C672.739 262.381 679.681 228.521 689.17 196.774C690.998 190.677 692.907 184.677 694.912 178.784C696.086 175.321 697.29 171.894 698.527 168.512C699.214 166.617 699.912 164.738 700.621 162.873C700.868 162.223 701.115 161.574 701.363 160.927C701.858 159.635 702.36 158.346 702.862 157.069C703.069 156.548 703.275 156.028 703.482 155.511C704.036 154.119 704.597 152.734 705.162 151.36C705.41 150.758 705.657 150.16 705.904 149.562C706.178 148.909 706.451 148.259 706.724 147.609C707.012 146.926 707.304 146.246 707.592 145.567C707.884 144.887 708.175 144.212 708.471 143.536C708.748 142.905 709.021 142.273 709.302 141.642C709.689 140.756 710.081 139.873 710.476 138.998C711.011 137.791 711.558 136.591 712.115 135.398C712.311 134.977 712.503 134.56 712.699 134.142C712.976 133.544 713.256 132.946 713.533 132.352C713.847 131.694 714.157 131.037 714.467 130.384C714.781 129.73 715.095 129.08 715.409 128.43C715.416 128.423 715.42 128.416 715.42 128.404C715.756 127.718 716.092 127.031 716.428 126.351C716.517 126.171 716.605 125.993 716.694 125.816C716.709 125.783 716.727 125.746 716.749 125.705C717.07 125.1 717.957 123.578 719.064 121.681C724.241 112.819 726.228 109.13 726.77 107.52C726.8 107.431 726.826 107.35 726.848 107.273L727.099 106.715L727.147 106.604L727.018 106.431H727.025ZM716.229 125.133C716.147 125.281 716.085 125.399 716.04 125.487C712.599 132.425 709.235 139.77 706.049 147.321C702.112 156.644 698.39 166.403 694.919 176.498C692.66 183.052 690.507 189.751 688.469 196.563C688.096 197.811 687.727 199.063 687.365 200.318C687.01 201.537 686.659 202.755 686.312 203.977C686.139 204.59 685.965 205.203 685.796 205.816C685.448 207.042 685.109 208.272 684.776 209.505C684.607 210.118 684.44 210.738 684.274 211.355C683.912 212.706 683.554 214.058 683.2 215.413C682.487 218.123 681.8 220.845 681.132 223.581C680.63 225.619 680.142 227.661 679.662 229.714C679.182 231.767 678.717 233.82 678.256 235.884C678.241 235.936 678.226 235.991 678.219 236.043C677.931 237.342 677.643 238.642 677.362 239.949C677.122 241.064 676.882 242.183 676.653 243.302C676.468 244.166 676.291 245.034 676.114 245.901C675.704 247.892 675.305 249.889 674.918 251.891C674.762 252.688 674.607 253.482 674.456 254.28C674.39 254.638 674.319 254.996 674.253 255.354C674.094 256.207 673.935 257.064 673.777 257.917C673.404 259.933 673.042 261.952 672.691 263.98C672.462 265.298 672.237 266.616 672.015 267.938C671.853 268.916 671.69 269.895 671.532 270.877C671.377 271.841 671.221 272.804 671.066 273.772C671.059 273.838 671.048 273.905 671.037 273.971C670.583 276.851 670.147 279.743 669.73 282.645C669.593 283.612 669.456 284.583 669.32 285.551C669.139 286.843 668.965 288.139 668.792 289.435C668.692 290.174 668.596 290.916 668.5 291.658C668.26 293.504 668.031 295.354 667.806 297.208C667.71 297.994 667.618 298.781 667.525 299.571C667.396 300.638 667.274 301.709 667.152 302.78C667.056 303.651 666.96 304.522 666.864 305.39C666.816 305.859 666.765 306.328 666.717 306.797C666.617 307.728 666.517 308.658 666.425 309.588C666.296 310.837 666.17 312.085 666.052 313.336C666.026 313.554 666.008 313.776 665.986 313.994C665.919 314.684 665.853 315.386 665.786 316.095C665.775 316.183 665.768 316.268 665.76 316.353C665.723 316.737 665.686 317.125 665.653 317.513C665.52 318.919 665.391 320.363 665.262 321.833C665.229 322.22 665.195 322.612 665.162 323.007C665.147 323.173 665.133 323.339 665.118 323.505V323.52C664.848 326.747 664.59 330.089 664.372 333.467C664.261 335.188 664.161 336.92 664.077 338.648C664.058 339.017 664.036 339.383 664.01 339.752C663.718 343.803 662.936 347.82 662.182 351.719C661.828 353.54 661.47 355.389 661.156 357.262C661.112 357.531 661.067 357.801 661.027 358.07C660.949 358.532 660.879 359.001 660.812 359.466C660.742 359.957 660.676 360.448 660.617 360.943C660.536 361.589 660.465 362.235 660.406 362.885C660.332 363.668 660.277 364.454 660.24 365.248C660.233 365.377 660.225 365.503 660.222 365.632C660.2 366.201 660.177 366.766 660.155 367.334C660.126 368.114 660.092 368.893 660.063 369.672C660.037 370.366 660.008 371.06 659.982 371.754C659.948 372.533 659.915 373.313 659.886 374.092C659.856 374.786 659.827 375.484 659.797 376.178C659.768 376.953 659.734 377.732 659.701 378.508C659.686 378.896 659.668 379.287 659.653 379.675C659.642 379.981 659.627 380.291 659.616 380.601C659.583 381.373 659.55 382.149 659.52 382.924C659.491 383.626 659.461 384.327 659.435 385.029C659.402 385.793 659.369 386.561 659.339 387.333C659.31 388.038 659.284 388.747 659.254 389.456C659.225 390.22 659.192 390.985 659.162 391.749C659.136 392.414 659.11 393.074 659.084 393.735C659.084 393.783 659.084 393.835 659.077 393.883C659.051 394.644 659.022 395.401 658.992 396.161C658.963 396.878 658.937 397.598 658.911 398.314C658.881 399.071 658.852 399.828 658.826 400.581C658.819 400.792 658.811 401.002 658.804 401.209C658.785 401.718 658.767 402.228 658.748 402.738C658.723 403.491 658.697 404.244 658.671 404.997C658.641 405.717 658.619 406.437 658.593 407.161C658.568 407.911 658.542 408.664 658.512 409.417C658.49 410.141 658.464 410.865 658.442 411.588C658.416 412.334 658.39 413.084 658.364 413.833C658.342 414.561 658.316 415.288 658.294 416.016C658.268 416.761 658.243 417.507 658.22 418.253C658.195 418.984 658.172 419.712 658.147 420.439C658.124 421.185 658.102 421.931 658.076 422.677C658.054 423.404 658.032 424.135 658.01 424.866C657.984 425.609 657.962 426.351 657.94 427.097L657.873 429.29C657.851 430.032 657.829 430.774 657.807 431.516C657.781 432.248 657.759 432.982 657.74 433.713C657.718 434.456 657.696 435.198 657.678 435.94C657.655 436.671 657.633 437.406 657.611 438.137C657.589 438.879 657.571 439.618 657.548 440.36C657.526 441.095 657.508 441.826 657.486 442.561C657.467 443.299 657.445 444.041 657.427 444.783C657.404 445.514 657.386 446.249 657.364 446.984C657.345 447.723 657.327 448.465 657.305 449.203C657.286 449.942 657.268 450.676 657.249 451.411C657.238 451.71 657.231 452.006 657.223 452.305V452.364C657.212 452.785 657.201 453.202 657.19 453.623C657.172 454.358 657.153 455.096 657.135 455.835C657.113 456.581 657.094 457.327 657.079 458.072C657.061 458.789 657.042 459.505 657.028 460.221C657.006 461.008 656.987 461.794 656.969 462.581C656.95 463.231 656.935 463.884 656.921 464.534C656.913 464.8 656.91 465.066 656.902 465.332C656.902 465.361 656.902 465.395 656.902 465.424C656.887 466.015 656.876 466.606 656.873 467.204C656.862 467.717 656.858 468.234 656.854 468.751C656.847 469.825 656.847 470.907 656.858 471.997C656.858 472.27 656.858 472.543 656.865 472.816C656.928 479.241 657.212 485.854 657.493 492.301C657.523 492.988 657.552 493.675 657.582 494.362C657.589 494.543 657.596 494.727 657.604 494.908C657.655 496.027 657.7 497.142 657.744 498.265C657.766 498.748 657.785 499.236 657.803 499.723C657.84 500.631 657.873 501.54 657.903 502.452C657.925 503.087 657.947 503.718 657.966 504.353C657.991 505.144 658.014 505.937 658.036 506.728C658.054 507.448 658.073 508.168 658.084 508.888C658.091 509.157 658.099 509.427 658.102 509.696C658.102 509.973 658.11 510.254 658.113 510.531C658.113 510.727 658.121 510.922 658.121 511.118C658.132 511.849 658.139 512.576 658.143 513.304C658.15 514.109 658.15 514.91 658.143 515.711C658.143 516.31 658.143 516.904 658.132 517.502V517.576C658.11 519.563 658.062 521.538 657.98 523.499C657.803 527.775 657.471 531.969 656.921 536.034C656.681 537.777 656.348 539.424 655.998 541.016C655.942 541.259 655.887 541.507 655.831 541.75C655.776 541.987 655.724 542.219 655.669 542.456C655.669 542.478 655.662 542.493 655.658 542.511C655.451 543.427 655.244 544.328 655.056 545.232C655.001 545.491 654.949 545.749 654.901 546.011C654.853 546.24 654.809 546.473 654.768 546.706C654.351 548.988 654.077 551.347 654.159 554.046C654.159 554.083 654.159 554.116 654.159 554.153C654.173 554.46 654.207 554.751 654.262 555.036C654.343 555.471 654.461 555.885 654.613 556.284C654.775 556.734 654.971 557.163 655.182 557.584C655.255 557.735 655.333 557.883 655.407 558.03C655.429 558.075 655.451 558.115 655.473 558.16C655.525 558.263 655.58 558.37 655.632 558.473C656.182 559.566 656.67 560.633 656.688 561.941C656.699 562.69 656.57 563.447 656.363 564.219C656.326 564.348 656.289 564.481 656.249 564.61C656.142 564.968 656.02 565.33 655.891 565.7C655.713 566.183 655.525 566.671 655.329 567.169C655.215 567.461 655.1 567.752 654.99 568.048C654.905 568.273 654.82 568.495 654.742 568.72C654.661 568.945 654.583 569.17 654.513 569.396C654.218 570.293 653.993 571.194 653.911 572.099C653.524 576.47 654.676 580.314 655.791 584.032C655.835 584.184 655.883 584.335 655.927 584.483C656.012 584.771 656.101 585.059 656.182 585.347C656.3 585.742 656.415 586.137 656.522 586.529C656.699 587.164 656.865 587.791 657.013 588.426C657.076 588.692 657.131 588.958 657.186 589.224C657.242 589.494 657.294 589.763 657.342 590.033C657.556 591.251 657.685 592.488 657.681 593.777C657.678 595.161 657.463 596.505 657.142 597.861C657.028 598.359 656.895 598.861 656.755 599.367C656.732 599.456 656.706 599.541 656.681 599.626C656.548 600.109 656.404 600.597 656.26 601.088C656.119 601.568 655.975 602.055 655.842 602.543C655.769 602.79 655.698 603.045 655.632 603.296C655.565 603.54 655.503 603.783 655.444 604.031C654.846 606.446 654.476 608.967 654.934 611.711C655.444 614.783 656.507 617.179 657.534 619.502C658.102 620.783 658.656 622.028 659.084 623.335C659.203 623.7 659.313 624.07 659.413 624.446C659.498 624.771 659.576 625.103 659.638 625.439C659.664 625.569 659.686 625.694 659.708 625.823C659.808 626.388 659.871 626.972 659.897 627.581C659.897 627.648 659.904 627.714 659.904 627.78C659.945 628.718 659.956 629.653 659.948 630.587C659.9 637.026 658.855 643.355 657.84 649.499C657.548 651.272 657.253 653.059 656.98 654.864C656.932 655.167 656.887 655.47 656.843 655.773C656.71 656.67 656.588 657.575 656.474 658.479C656.466 658.524 656.459 658.564 656.455 658.609C656.367 659.281 656.289 659.953 656.215 660.625C656.208 660.698 656.197 660.769 656.193 660.842C656.142 661.289 656.097 661.736 656.057 662.187C656.034 662.423 656.016 662.656 655.994 662.892C655.938 663.564 655.89 664.236 655.854 664.912C655.824 665.366 655.802 665.82 655.783 666.278C655.783 666.396 655.776 666.514 655.772 666.632C655.758 667.016 655.746 667.404 655.735 667.792C655.724 668.128 655.717 668.467 655.713 668.807C655.554 677.078 656.19 685.722 656.799 694.111C657.187 699.358 657.582 704.779 657.774 709.978C659.055 744.964 660.816 776.423 663.15 806.151C663.46 810.032 663.837 813.979 664.206 817.797C664.741 823.324 665.288 829.037 665.624 834.653C665.963 840.395 667.178 844.578 668.496 848.917C668.555 849.105 668.611 849.293 668.67 849.485C668.98 850.501 669.294 851.535 669.604 852.605C669.752 853.108 669.896 853.621 670.04 854.145C670.177 854.636 670.309 855.138 670.439 855.652C670.505 855.918 670.575 856.191 670.642 856.464C670.653 856.501 670.66 856.542 670.671 856.582C670.712 856.752 670.753 856.922 670.789 857.095C670.808 857.169 670.826 857.239 670.841 857.313C670.867 857.42 670.889 857.531 670.911 857.642C670.974 857.967 671.015 858.303 671.044 858.643C671.059 858.79 671.066 858.938 671.07 859.086C671.103 859.695 671.089 860.326 671.044 860.961C671.018 861.364 670.978 861.766 670.933 862.169C670.915 862.328 670.897 862.486 670.874 862.645C670.83 863.04 670.775 863.435 670.716 863.823C670.656 864.214 670.597 864.598 670.538 864.975C670.527 865.034 670.52 865.093 670.513 865.152C670.269 866.681 670.044 868.128 670.062 869.362C670.136 875.114 671.417 880.553 672.658 885.815C673.43 889.072 674.223 892.447 674.729 895.881C675.246 899.366 676.014 902.095 676.904 905.171C676.948 905.322 676.993 905.474 677.037 905.629C677.1 905.843 677.151 906.057 677.196 906.271C677.462 907.479 677.499 908.716 677.432 909.956C677.414 910.355 677.38 910.754 677.344 911.153C677.284 911.784 677.207 912.408 677.133 913.032C676.915 914.856 676.686 916.743 676.86 918.593C677.096 921.152 678.1 923.393 679.072 925.564C679.74 927.06 680.43 928.607 680.877 930.254L681.294 931.79C682.509 936.254 683.761 940.869 684.88 945.433C684.994 945.906 685.208 946.644 685.485 947.579C685.681 948.247 685.906 949.033 686.15 949.901C686.645 951.67 687.202 953.774 687.653 955.875C687.682 956.016 687.712 956.16 687.741 956.3C687.771 956.437 687.797 956.573 687.826 956.706C688.679 960.997 688.986 965.103 687.291 966.148C686.571 966.583 679.09 971.096 668.496 976.235C660.857 979.939 651.596 983.971 642.077 987.036C633.119 989.92 623.932 991.95 615.661 992.047C615.458 992.047 615.255 992.047 615.052 992.047C613.989 992.047 612.936 992.013 611.932 991.947H611.895H611.862C604.414 992.892 596.871 993.745 589.246 994.509C580.535 995.388 571.721 996.149 562.83 996.788C554.09 997.423 545.272 997.94 536.411 998.338C535.451 998.386 534.491 998.427 533.531 998.468C527.973 998.704 523.465 998.87 519.352 998.992L518.993 999.007V999.254H327.581V999.088L327.219 999.081C326.503 999.062 325.79 999.044 325.078 999.022C319.48 998.863 314.067 998.649 309.85 998.468C306.11 998.309 302.38 998.128 298.658 997.929C289.789 997.452 280.975 996.862 272.246 996.153C263.34 995.436 254.527 994.594 245.827 993.638C241.023 993.11 236.253 992.549 231.523 991.947H231.489H231.452C230.448 992.013 229.396 992.047 228.332 992.047C225.456 992.047 222.465 991.807 219.408 991.371C210.767 990.149 201.592 987.376 192.992 984.1C182.768 980.209 173.345 975.597 166.573 972.019C160.536 968.828 156.607 966.454 156.094 966.144C154.399 965.095 154.705 960.993 155.558 956.699C155.588 956.566 155.614 956.433 155.643 956.296C155.673 956.156 155.702 956.012 155.732 955.872C156.182 953.771 156.74 951.666 157.235 949.897C157.478 949.03 157.703 948.243 157.899 947.575C158.172 946.641 158.387 945.902 158.501 945.43C159.624 940.862 160.879 936.25 162.09 931.782L162.507 930.25C162.954 928.603 163.645 927.056 164.313 925.56C165.284 923.389 166.288 921.148 166.525 918.589C166.551 918.323 166.565 918.058 166.573 917.788C166.587 917.397 166.587 916.998 166.573 916.606C166.539 915.406 166.392 914.203 166.251 913.028C166.178 912.404 166.1 911.78 166.041 911.149C166.004 910.754 165.971 910.359 165.952 909.964C165.886 908.716 165.923 907.479 166.189 906.268C166.233 906.053 166.285 905.839 166.347 905.625C166.392 905.47 166.436 905.319 166.48 905.167C166.51 905.056 166.543 904.949 166.573 904.842C167.422 901.899 168.157 899.245 168.655 895.877C169.161 892.443 169.955 889.072 170.727 885.811C171.967 880.55 173.249 875.111 173.322 869.358C173.337 868.125 173.116 866.677 172.876 865.152C172.865 865.093 172.857 865.03 172.846 864.971C172.787 864.595 172.724 864.211 172.665 863.823C172.588 863.288 172.51 862.741 172.451 862.195C172.37 861.486 172.314 860.781 172.303 860.086C172.292 859.739 172.296 859.396 172.314 859.056C172.314 859.056 172.314 859.045 172.314 859.041C172.329 858.646 172.37 858.259 172.433 857.882C172.44 857.801 172.455 857.719 172.47 857.642C172.492 857.527 172.514 857.42 172.54 857.31C172.554 857.25 172.569 857.188 172.584 857.129C172.625 856.948 172.669 856.771 172.71 856.593C172.783 856.287 172.857 855.984 172.935 855.689C172.935 855.677 172.935 855.666 172.942 855.655C173.112 854.991 173.282 854.345 173.459 853.717C173.869 852.24 174.294 850.848 174.711 849.482C176.092 844.94 177.403 840.642 177.757 834.649C178.093 829.033 178.64 823.324 179.175 817.801C179.541 813.979 179.921 810.032 180.227 806.147C182.565 776.412 184.326 744.956 185.607 709.974C185.799 704.775 186.194 699.355 186.582 694.108C187.247 684.958 187.941 675.505 187.612 666.558C187.609 666.473 187.605 666.389 187.601 666.304V666.274C187.579 665.687 187.546 665.1 187.505 664.516C187.457 663.73 187.394 662.947 187.32 662.164C187.32 662.153 187.32 662.146 187.317 662.135C187.276 661.692 187.236 661.245 187.188 660.802C187.158 660.518 187.125 660.23 187.092 659.942C187.04 659.487 186.984 659.029 186.925 658.575C186.881 658.243 186.84 657.907 186.792 657.575C186.719 657.013 186.637 656.452 186.556 655.895C186.242 653.738 185.892 651.604 185.541 649.496C184.525 643.359 183.48 637.041 183.432 630.609C183.425 629.671 183.436 628.733 183.477 627.792C183.477 627.721 183.48 627.648 183.484 627.577C183.495 627.282 183.517 626.994 183.547 626.713C183.58 626.414 183.621 626.123 183.669 625.835C183.728 625.484 183.798 625.144 183.879 624.808C183.905 624.69 183.935 624.572 183.968 624.454C184.415 622.726 185.12 621.141 185.847 619.498C186.874 617.176 187.937 614.779 188.447 611.707C188.905 608.964 188.535 606.442 187.937 604.031C187.874 603.783 187.812 603.54 187.745 603.296C187.679 603.041 187.609 602.79 187.538 602.539C187.402 602.052 187.261 601.568 187.121 601.084C187.088 600.97 187.055 600.851 187.018 600.737C186.885 600.275 186.752 599.818 186.626 599.363C186.582 599.205 186.538 599.046 186.497 598.887C186.043 597.181 185.703 595.505 185.7 593.773C185.7 592.484 185.825 591.247 186.036 590.033C186.087 589.759 186.139 589.49 186.194 589.22C186.246 588.954 186.305 588.692 186.368 588.43C186.471 587.983 186.586 587.537 186.704 587.09V587.082C186.781 586.794 186.863 586.503 186.948 586.215C187.029 585.923 187.114 585.631 187.199 585.336C187.328 584.904 187.457 584.468 187.59 584.029C188.701 580.31 189.854 576.467 189.469 572.095C189.388 571.19 189.159 570.286 188.868 569.388C188.794 569.163 188.716 568.941 188.635 568.716C188.557 568.495 188.476 568.273 188.391 568.052L188.048 567.165C187.963 566.951 187.882 566.737 187.801 566.527C187.693 566.246 187.59 565.969 187.49 565.696C187.35 565.301 187.221 564.913 187.11 564.529C186.848 563.647 186.682 562.786 186.693 561.937C186.711 560.63 187.195 559.563 187.749 558.47C187.801 558.366 187.852 558.259 187.908 558.156C187.93 558.112 187.952 558.071 187.974 558.027C188.048 557.879 188.125 557.728 188.196 557.576C188.236 557.495 188.273 557.417 188.31 557.336C188.557 556.827 188.786 556.302 188.953 555.737C189.019 555.508 189.074 555.276 189.119 555.032C189.178 554.715 189.215 554.386 189.226 554.042C189.233 553.806 189.237 553.577 189.237 553.348C189.244 552.754 189.233 552.174 189.204 551.613C189.122 549.881 188.905 548.275 188.617 546.702C188.572 546.469 188.532 546.24 188.484 546.011C188.436 545.749 188.38 545.491 188.329 545.232C188.14 544.324 187.933 543.423 187.727 542.507C187.612 542.013 187.501 541.514 187.387 541.012C187.372 540.938 187.357 540.868 187.343 540.794C187.25 540.388 187.165 539.982 187.08 539.568C186.844 538.427 186.63 537.253 186.464 536.031C185.914 531.969 185.581 527.775 185.404 523.499C185.341 521.959 185.297 520.408 185.271 518.846C185.264 518.429 185.256 518.012 185.253 517.594V517.462C185.242 516.59 185.238 515.715 185.238 514.836C185.238 514.131 185.242 513.426 185.249 512.72C185.253 511.993 185.264 511.266 185.275 510.535V510.479C185.275 510.221 185.282 509.966 185.286 509.707C185.293 509.231 185.304 508.751 185.319 508.275C185.334 507.51 185.352 506.75 185.375 505.985C185.393 505.313 185.412 504.641 185.434 503.969C185.46 503.109 185.489 502.249 185.522 501.388C185.541 500.846 185.563 500.303 185.585 499.764C185.622 498.737 185.663 497.711 185.707 496.688C185.722 496.341 185.736 495.994 185.751 495.65C185.799 494.528 185.847 493.413 185.895 492.298C186.213 484.983 186.538 477.461 186.538 470.246C186.538 469.8 186.538 469.349 186.538 468.906C186.53 467.953 186.519 467.004 186.501 466.067C186.497 465.838 186.49 465.612 186.486 465.387V465.328C186.479 464.962 186.468 464.593 186.46 464.228C186.442 463.412 186.423 462.592 186.401 461.776C186.386 461.078 186.368 460.377 186.349 459.679C186.331 458.925 186.312 458.172 186.294 457.415C186.276 456.68 186.257 455.949 186.239 455.214C186.22 454.476 186.202 453.737 186.18 452.999C186.18 452.833 186.172 452.667 186.168 452.501C186.154 451.928 186.139 451.36 186.124 450.787C186.106 450.052 186.087 449.314 186.065 448.579C186.047 447.841 186.028 447.106 186.006 446.371C185.988 445.629 185.965 444.89 185.947 444.152C185.925 443.417 185.906 442.682 185.884 441.948C185.866 441.209 185.844 440.471 185.821 439.732C185.803 438.997 185.781 438.263 185.759 437.528C185.736 436.786 185.718 436.047 185.692 435.309C185.674 434.574 185.652 433.839 185.629 433.108C185.607 432.369 185.585 431.627 185.563 430.885L185.496 428.692C185.474 427.95 185.452 427.204 185.43 426.461C185.404 425.73 185.382 424.999 185.36 424.268C185.338 423.526 185.312 422.784 185.29 422.042C185.268 421.311 185.242 420.579 185.219 419.852C185.194 419.106 185.172 418.36 185.146 417.614C185.124 416.887 185.098 416.16 185.072 415.432C185.05 414.686 185.024 413.937 184.998 413.191C184.976 412.467 184.95 411.74 184.924 411.016C184.898 410.266 184.872 409.517 184.85 408.767C184.824 408.044 184.799 407.324 184.773 406.6C184.747 405.847 184.721 405.093 184.691 404.344C184.669 403.624 184.643 402.904 184.614 402.184C184.603 401.855 184.592 401.53 184.581 401.205C184.566 400.777 184.551 400.349 184.536 399.92C184.507 399.204 184.477 398.488 184.448 397.771C184.448 397.749 184.444 397.731 184.444 397.708C184.444 397.668 184.444 397.627 184.444 397.587C184.415 396.885 184.385 396.187 184.352 395.489C184.322 394.78 184.289 394.071 184.252 393.366C184.215 392.591 184.178 391.819 184.134 391.047C184.101 390.357 184.064 389.666 184.023 388.98C183.983 388.182 183.938 387.384 183.89 386.587C183.853 385.93 183.813 385.272 183.768 384.615C183.72 383.777 183.669 382.939 183.613 382.104C183.576 381.495 183.536 380.886 183.495 380.28C183.436 379.387 183.373 378.493 183.311 377.599C183.285 377.263 183.263 376.931 183.24 376.595C183.155 375.417 183.067 374.243 182.978 373.065C182.945 372.607 182.908 372.149 182.871 371.692C182.808 370.857 182.742 370.023 182.675 369.188C182.657 368.952 182.638 368.715 182.616 368.479C182.59 368.147 182.565 367.818 182.535 367.486C181.498 354.754 180.22 342.023 178.905 328.904C178.459 324.451 178.001 319.868 177.554 315.304C177.539 315.164 177.528 315.024 177.513 314.884C177.447 314.211 177.384 313.543 177.318 312.871C177.203 311.675 177.081 310.482 176.96 309.289C176.912 308.824 176.864 308.355 176.816 307.886C176.708 306.878 176.601 305.87 176.491 304.862C176.413 304.153 176.336 303.448 176.254 302.743C176.166 301.934 176.073 301.125 175.977 300.321C175.911 299.715 175.841 299.109 175.767 298.504C175.748 298.338 175.726 298.175 175.708 298.013C175.582 296.96 175.453 295.908 175.324 294.859C174.955 291.876 174.563 288.904 174.153 285.942C172.721 275.578 171.052 265.342 169.15 255.254C168.637 252.537 168.109 249.834 167.562 247.138C167.503 246.854 167.448 246.57 167.389 246.285C167.123 244.978 166.85 243.671 166.576 242.368C166.436 241.699 166.292 241.031 166.152 240.363C165.952 239.432 165.749 238.505 165.546 237.579C165.299 236.449 165.048 235.323 164.797 234.196C164.438 232.609 164.077 231.028 163.707 229.452C163.523 228.654 163.331 227.856 163.142 227.059C162.954 226.261 162.762 225.467 162.57 224.674C162.334 223.699 162.094 222.728 161.854 221.76C161.348 219.715 160.831 217.68 160.307 215.657C160.17 215.136 160.033 214.615 159.893 214.095C159.756 213.552 159.612 213.009 159.465 212.466C159.262 211.709 159.059 210.956 158.856 210.203C158.339 208.29 157.811 206.385 157.275 204.487C157.039 203.645 156.799 202.803 156.559 201.965C156.526 201.858 156.496 201.751 156.467 201.648C156.223 200.809 155.979 199.971 155.735 199.137C155.429 198.084 155.119 197.039 154.805 195.994C154.768 195.876 154.735 195.758 154.698 195.644C154.484 194.924 154.266 194.207 154.048 193.491C153.801 192.69 153.557 191.888 153.306 191.087C153.121 190.489 152.933 189.891 152.745 189.296C152.372 188.1 151.995 186.911 151.607 185.726C151.415 185.135 151.223 184.544 151.031 183.953C150.813 183.289 150.596 182.628 150.378 181.971C150.167 181.332 149.957 180.697 149.739 180.062C149.477 179.282 149.215 178.507 148.952 177.735C146.183 169.59 143.244 161.658 140.164 153.993C139.215 151.626 138.252 149.289 137.273 146.977C135.634 143.1 133.946 139.275 132.222 135.531C131.816 134.648 131.41 133.773 131.003 132.902C130.885 132.651 130.771 132.4 130.653 132.152C130.505 131.835 130.357 131.521 130.206 131.207C129.988 130.742 129.767 130.276 129.545 129.815C129.316 129.339 129.087 128.862 128.858 128.386C128.345 127.33 127.832 126.278 127.315 125.233C127.3 125.199 127.278 125.162 127.256 125.118C127.234 125.078 127.211 125.03 127.186 124.982C127.174 124.963 127.163 124.941 127.152 124.919C126.765 124.202 125.941 122.788 124.933 121.068C122.407 116.751 117.186 107.804 117.168 106.597C117.205 106.549 117.238 106.501 117.275 106.457C118.073 105.389 118.866 104.367 119.642 103.388C119.727 103.281 119.812 103.178 119.893 103.071C119.978 102.967 120.063 102.864 120.144 102.764C120.901 101.826 121.643 100.925 122.378 100.065C130.014 91.0924 136.343 86.2996 140.164 83.9069C142.646 82.3561 144.071 81.8096 144.119 81.7948L166.576 72.1686L192.996 60.8476L219.411 49.5266L245.831 38.2019L272.25 26.8809L283.335 22.1288L283.409 22.0955L288.885 16.0769C291.602 21.8408 294.874 27.3757 298.662 32.6485C305.744 42.511 314.632 51.4467 325.082 59.2119C329.734 62.6717 334.697 65.8989 339.947 68.8713C343.699 70.9981 347.554 72.9662 351.501 74.7755C359.92 78.6304 368.763 81.7616 377.917 84.1469C386.483 86.3734 395.319 87.9427 404.332 88.8289C410.126 89.4012 415.993 89.6892 421.908 89.6892C424.87 89.6892 427.816 89.6191 430.748 89.4714C439.724 89.0357 448.564 87.9243 457.167 86.1704C466.265 84.3168 475.109 81.7321 483.587 78.4532C490.558 75.7614 497.286 72.5896 503.707 68.971C505.852 67.7562 507.949 66.5044 509.999 65.2084C520.057 58.8537 528.919 51.5095 536.418 43.364C543.995 35.1335 550.18 26.0797 554.792 16.3833L559.987 22.0955L562.837 23.3214L589.253 34.6387L615.669 45.9597L642.084 57.2807L668.504 68.6054L694.923 79.9264L699.295 81.8022C699.395 81.8354 708.386 85.262 720.951 99.9838C720.995 100.035 721.04 100.083 721.08 100.135C721.247 100.327 721.409 100.523 721.575 100.719C722.144 101.398 722.724 102.103 723.311 102.831C723.396 102.934 723.48 103.037 723.565 103.144C723.647 103.248 723.728 103.351 723.809 103.455C724.592 104.437 725.382 105.463 726.183 106.53C726.242 106.608 726.302 106.682 726.357 106.759L726.265 106.826C726.231 106.778 726.228 106.737 726.228 106.737C726.327 107.793 720.995 116.917 718.433 121.304C717.443 123.006 716.627 124.402 716.232 125.129L716.229 125.133ZM140.161 153.997C139.212 151.63 138.248 149.293 137.27 146.981C135.63 143.104 133.943 139.279 132.218 135.535C138.266 148.739 143.883 162.888 148.949 177.739C146.179 169.594 143.24 161.662 140.161 153.997ZM140.161 153.997C139.212 151.63 138.248 149.293 137.27 146.981C135.63 143.104 133.943 139.279 132.218 135.535C138.266 148.739 143.883 162.888 148.949 177.739C146.179 169.594 143.24 161.662 140.161 153.997ZM140.161 153.997C139.212 151.63 138.248 149.293 137.27 146.981C135.63 143.104 133.943 139.279 132.218 135.535C138.266 148.739 143.883 162.888 148.949 177.739C146.179 169.594 143.24 161.662 140.161 153.997ZM655.152 555.553C655.045 555.198 654.967 554.829 654.927 554.438C654.912 554.305 654.901 554.164 654.897 554.024C654.879 553.345 654.879 552.687 654.897 552.049C654.897 552.037 654.897 552.026 654.897 552.015C654.919 551.299 654.971 550.605 655.041 549.929C655.111 549.231 655.204 548.548 655.311 547.876C655.119 547.496 654.93 547.108 654.761 546.706C654.343 548.988 654.07 551.347 654.151 554.046C654.151 554.083 654.151 554.116 654.151 554.153C654.166 554.46 654.199 554.751 654.255 555.036C654.336 555.471 654.454 555.885 654.605 556.284C654.768 556.734 654.964 557.163 655.174 557.584C655.222 557.458 655.274 557.329 655.322 557.203C655.396 557.011 655.473 556.819 655.543 556.627C655.388 556.276 655.248 555.922 655.141 555.553H655.152ZM657.054 585.672C656.958 585.328 656.858 584.992 656.755 584.653C656.692 584.442 656.629 584.228 656.566 584.018C656.548 583.951 656.526 583.885 656.507 583.818C655.41 580.17 654.281 576.389 654.654 572.161C654.694 571.726 654.768 571.282 654.875 570.843C654.746 570.363 654.628 569.879 654.517 569.396C654.221 570.293 653.996 571.194 653.915 572.099C653.527 576.47 654.679 580.314 655.794 584.032C655.839 584.184 655.887 584.335 655.931 584.483C656.016 584.771 656.105 585.059 656.186 585.347C656.304 585.742 656.418 586.137 656.526 586.529C656.703 587.164 656.869 587.791 657.017 588.426C657.153 587.891 657.275 587.356 657.375 586.82C657.271 586.436 657.164 586.052 657.054 585.672ZM658.132 502.323C658.124 501.54 658.113 500.753 658.102 499.967C658.087 499.302 658.076 498.638 658.058 497.969C658.043 497.142 658.021 496.315 657.995 495.484C657.984 495.111 657.973 494.735 657.962 494.358C657.929 493.243 657.888 492.128 657.847 491.013C657.825 490.426 657.803 489.838 657.781 489.251C657.744 488.347 657.707 487.446 657.67 486.541C657.648 485.987 657.622 485.433 657.6 484.88C657.563 484.019 657.526 483.163 657.489 482.31C657.489 482.239 657.482 482.166 657.482 482.095C657.456 481.556 657.434 481.017 657.412 480.482C657.386 479.895 657.36 479.308 657.334 478.721C657.319 478.366 657.305 478.015 657.29 477.668C657.268 477.125 657.249 476.586 657.227 476.058C657.19 475.109 657.153 474.179 657.12 473.27C657.102 472.709 657.083 472.155 657.061 471.609C657.031 470.686 657.006 469.777 656.983 468.884C656.965 468.293 656.95 467.71 656.935 467.134C656.921 466.558 656.91 465.989 656.898 465.424C656.884 466.015 656.873 466.606 656.869 467.204C656.858 467.717 656.854 468.234 656.851 468.751C656.843 469.825 656.843 470.907 656.854 471.997C656.854 472.27 656.854 472.543 656.862 472.816C656.924 479.241 657.209 485.854 657.489 492.301C657.519 492.988 657.548 493.675 657.578 494.362C657.585 494.543 657.593 494.727 657.6 494.908C657.652 496.027 657.696 497.142 657.74 498.265C657.763 498.748 657.781 499.236 657.799 499.723C657.836 500.631 657.87 501.54 657.899 502.452C657.921 503.087 657.943 503.718 657.962 504.353C657.988 505.144 658.01 505.937 658.032 506.728C658.051 507.448 658.069 508.168 658.08 508.888C658.087 509.157 658.095 509.427 658.099 509.696C658.106 509.431 658.11 509.161 658.11 508.891C658.128 508.168 658.135 507.44 658.139 506.709C658.139 505.956 658.147 505.199 658.147 504.438C658.143 503.737 658.139 503.028 658.132 502.323ZM659.646 622.681C659.236 621.5 658.734 620.366 658.217 619.199C657.209 616.921 656.164 614.569 655.665 611.589C655.311 609.44 655.488 607.417 655.887 605.463C655.728 605.002 655.58 604.525 655.447 604.031C654.849 606.446 654.48 608.967 654.938 611.711C655.447 614.783 656.511 617.179 657.537 619.502C658.106 620.783 658.66 622.028 659.088 623.335C659.206 623.7 659.317 624.07 659.417 624.446C659.502 624.771 659.579 625.103 659.642 625.439C659.668 625.569 659.69 625.694 659.712 625.823C659.716 625.798 659.716 625.772 659.72 625.746C659.731 625.631 659.738 625.517 659.745 625.403C659.801 624.708 659.841 624.025 659.871 623.357C659.801 623.128 659.727 622.903 659.646 622.681ZM670.461 852.886C670.383 852.613 670.302 852.34 670.224 852.07C669.948 851.114 669.667 850.187 669.386 849.271C669.08 848.278 668.784 847.296 668.5 846.306C667.485 842.809 666.639 839.213 666.366 834.612C666.2 831.795 665.978 828.959 665.734 826.131C665.723 826.016 665.712 825.902 665.705 825.787C665.465 823.077 665.206 820.382 664.948 817.727C664.582 813.912 664.198 809.969 663.896 806.092C663.56 801.816 663.235 797.503 662.925 793.15C662.925 793.12 662.925 793.094 662.917 793.065C662.784 791.337 662.655 789.605 662.529 787.881C662.518 787.759 662.511 787.637 662.504 787.515C662.478 787.227 662.459 786.943 662.437 786.655C662.363 785.643 662.286 784.624 662.212 783.601C662.197 783.38 662.182 783.154 662.164 782.933C662.075 781.707 661.99 780.477 661.902 779.244C661.883 778.986 661.868 778.731 661.85 778.472C661.765 777.283 661.684 776.091 661.603 774.894C661.584 774.592 661.562 774.289 661.544 773.986C661.466 772.838 661.388 771.689 661.315 770.534C661.292 770.198 661.27 769.858 661.248 769.518C661.174 768.403 661.1 767.284 661.03 766.162C661.008 765.796 660.986 765.431 660.96 765.065C660.894 763.972 660.827 762.876 660.757 761.779C660.735 761.388 660.709 760.996 660.687 760.605C660.62 759.534 660.558 758.463 660.495 757.389C660.469 756.979 660.447 756.569 660.421 756.159C660.392 755.624 660.358 755.088 660.329 754.553C660.299 754.032 660.27 753.515 660.24 752.995C660.214 752.566 660.188 752.138 660.166 751.71C660.107 750.676 660.048 749.642 659.993 748.604C659.967 748.161 659.941 747.718 659.919 747.275C659.9 746.987 659.886 746.703 659.871 746.415C659.83 745.676 659.79 744.941 659.753 744.203C659.727 743.749 659.705 743.295 659.679 742.837C659.627 741.825 659.572 740.817 659.52 739.805C659.498 739.333 659.472 738.86 659.45 738.387C659.398 737.39 659.347 736.397 659.299 735.408C659.273 734.92 659.251 734.436 659.225 733.953C659.177 732.967 659.129 731.985 659.081 731.002C659.059 730.504 659.033 730.009 659.011 729.514C658.966 728.54 658.918 727.568 658.874 726.597C658.852 726.088 658.83 725.582 658.804 725.076C658.759 724.109 658.719 723.149 658.675 722.192C658.675 722.13 658.675 722.063 658.667 722C658.649 721.546 658.627 721.092 658.608 720.638C658.564 719.689 658.523 718.74 658.483 717.784C658.46 717.259 658.438 716.731 658.412 716.203C658.375 715.262 658.335 714.316 658.298 713.371C658.276 712.836 658.254 712.3 658.231 711.765C658.195 710.834 658.158 709.9 658.121 708.962C658.099 708.42 658.076 707.877 658.054 707.33C658.017 706.407 657.984 705.48 657.947 704.554C657.925 704.003 657.906 703.45 657.884 702.896C657.851 701.98 657.814 701.064 657.781 700.145C657.781 700.1 657.781 700.056 657.781 700.012C657.763 699.495 657.74 698.982 657.718 698.468C657.678 697.534 657.633 696.604 657.582 695.688C657.556 695.156 657.523 694.632 657.493 694.115C657.434 693.096 657.371 692.106 657.308 691.15C657.279 690.711 657.249 690.279 657.22 689.854C657.209 689.669 657.194 689.488 657.183 689.307C657.12 688.403 657.057 687.495 656.991 686.582C656.965 686.258 656.943 685.929 656.917 685.6C656.884 685.12 656.847 684.64 656.814 684.16C656.762 683.459 656.71 682.753 656.659 682.048C656.64 681.797 656.622 681.546 656.603 681.295C656.518 680.084 656.43 678.869 656.348 677.65C656.33 677.377 656.311 677.104 656.293 676.827V676.82C656.219 675.671 656.145 674.523 656.082 673.375C656.06 673.002 656.038 672.625 656.02 672.252C655.961 671.203 655.913 670.151 655.868 669.106C655.85 668.622 655.831 668.139 655.817 667.659C655.802 667.315 655.791 666.972 655.78 666.632C655.765 667.016 655.754 667.404 655.743 667.792C655.732 668.128 655.724 668.467 655.721 668.807C655.562 677.078 656.197 685.722 656.806 694.111C657.194 699.358 657.589 704.779 657.781 709.978C659.062 744.964 660.824 776.423 663.157 806.151C663.467 810.032 663.844 813.979 664.213 817.797C664.749 823.324 665.295 829.037 665.631 834.653C665.971 840.395 667.186 844.578 668.504 848.917C668.563 849.105 668.618 849.293 668.677 849.485C668.987 850.501 669.301 851.535 669.612 852.605C669.759 853.108 669.903 853.621 670.047 854.145C670.184 854.636 670.317 855.138 670.446 855.652C670.476 855.434 670.513 855.216 670.546 854.994C670.553 854.939 670.564 854.884 670.572 854.828C670.601 854.633 670.634 854.433 670.664 854.23C670.686 854.097 670.708 853.961 670.727 853.828C670.638 853.51 670.553 853.196 670.465 852.886H670.461ZM676.786 902.003C676.646 901.475 676.509 900.947 676.38 900.411C676.025 898.953 675.715 897.45 675.468 895.774C674.958 892.306 674.157 888.921 673.385 885.642C672.152 880.424 670.878 875.022 670.808 869.351C670.8 868.837 670.841 868.276 670.908 867.682C670.76 866.843 670.627 866.002 670.516 865.152C670.273 866.681 670.047 868.128 670.066 869.362C670.14 875.114 671.421 880.553 672.661 885.815C673.433 889.072 674.227 892.447 674.733 895.881C675.25 899.366 676.018 902.095 676.908 905.171C676.963 904.514 677.041 903.856 677.118 903.207C677.004 902.804 676.893 902.405 676.786 902.003ZM686.815 949.513C686.593 948.734 686.386 948.014 686.198 947.372C685.928 946.445 685.718 945.714 685.607 945.26C684.485 940.685 683.226 936.062 682.014 931.594L681.597 930.058C681.132 928.352 680.43 926.783 679.751 925.265C678.761 923.05 677.827 920.956 677.598 918.526C677.436 916.754 677.657 914.908 677.875 913.121C677.886 913.028 677.897 912.932 677.908 912.84C677.753 912.438 677.613 912.028 677.484 911.618C677.436 911.463 677.388 911.308 677.347 911.153C677.288 911.784 677.211 912.408 677.137 913.032C676.919 914.856 676.69 916.743 676.863 918.593C677.1 921.152 678.104 923.393 679.075 925.564C679.744 927.06 680.434 928.607 680.881 930.254L681.298 931.79C682.513 936.254 683.765 940.869 684.883 945.433C684.998 945.906 685.212 946.644 685.489 947.579C685.685 948.247 685.91 949.033 686.154 949.901C686.648 951.67 687.206 953.774 687.656 955.875C687.889 955.624 688.066 955.292 688.199 954.897C687.771 952.999 687.272 951.134 686.815 949.513Z" fill="black"/>
<path d="M711.027 447.582C711.027 447.582 710.289 446.043 708.989 443.343L707.52 440.293C706.253 437.653 704.688 434.393 702.908 430.693L702.697 430.261L703.17 430.172C731.79 424.781 761.739 413.22 797.427 393.795C808.353 387.846 819.164 381.443 829.566 374.764C834.203 371.788 836.818 368.428 837.564 364.484L837.785 363.302L838.701 365.411C840.2 368.856 841.614 372.109 842.497 375.24C842.881 376.606 843.135 377.851 843.276 379.04C843.364 379.782 843.405 380.469 843.401 381.137C843.316 386.266 840.687 390.324 835.119 393.902C824.998 400.397 814.534 406.593 804.018 412.316C768.936 431.413 739.515 442.686 711.43 447.796L711.153 447.848L711.031 447.593L711.027 447.582ZM829.964 375.38C819.548 382.071 808.722 388.481 797.781 394.441C762.223 413.8 732.336 425.361 703.783 430.807C705.478 434.33 706.969 437.439 708.184 439.976L709.654 443.026C710.647 445.086 711.312 446.471 711.57 447.01C739.492 441.896 768.762 430.656 803.66 411.659C814.161 405.943 824.61 399.758 834.717 393.274C840.056 389.844 842.578 385.981 842.659 381.126C842.659 380.491 842.622 379.833 842.541 379.121C842.404 377.969 842.157 376.761 841.784 375.432C840.916 372.353 839.517 369.129 838.032 365.717C837.002 369.399 834.351 372.567 829.968 375.38H829.964Z" fill="black"/>
<path d="M132.248 447.63L131.971 447.579C103.887 442.472 74.4653 431.199 39.3835 412.098C28.8638 406.375 18.3994 400.179 8.28213 393.684C2.71763 390.109 0.084926 386.055 0 380.923C0 380.251 0.0369244 379.568 0.125543 378.825C0.265855 377.633 0.520633 376.388 0.904647 375.026C1.78714 371.895 3.20134 368.642 4.70047 365.197L5.61619 363.088L5.83774 364.27C6.57992 368.213 9.19785 371.577 13.8356 374.55C24.2371 381.229 35.0486 387.632 45.9745 393.58C81.6619 413.01 111.611 424.567 140.231 429.962L140.704 430.051L140.497 430.486C138.717 434.186 137.152 437.446 135.885 440.087L134.416 443.137C133.116 445.836 132.377 447.375 132.377 447.375L132.256 447.63H132.248ZM5.3688 365.507C3.88444 368.919 2.48132 372.146 1.61729 375.222C1.24435 376.551 0.996957 377.755 0.860337 378.91C0.775411 379.623 0.738487 380.276 0.742179 380.915C0.823413 385.771 3.34535 389.633 8.68461 393.063C18.7908 399.547 29.2367 405.732 39.7417 411.448C74.6389 430.446 103.909 441.682 131.831 446.799C132.089 446.26 132.754 444.876 133.747 442.815L135.217 439.765C136.432 437.229 137.927 434.12 139.618 430.597C111.065 425.151 81.1782 413.59 45.62 394.23C34.6793 388.274 23.8531 381.861 13.4368 375.17C9.05016 372.356 6.40268 369.184 5.3688 365.507Z" fill="black"/>
<path d="M142.06 426.561C141.979 426.521 141.898 426.484 141.805 426.465L141.628 426.432C141.126 426.336 140.642 426.665 140.546 427.163C140.498 427.41 140.554 427.654 140.687 427.85C140.764 428.071 140.927 428.26 141.156 428.37C141.193 428.389 141.233 428.4 141.274 428.411C141.292 427.817 141.514 427.23 141.942 426.82C141.979 426.731 142.016 426.642 142.064 426.561H142.06Z" fill="black"/>
<path d="M7.89112 361.382L7.85789 361.216C7.78404 360.828 7.47388 360.533 7.08617 360.478C7.09725 361.161 6.83878 361.848 6.31445 362.283C6.37353 362.328 6.4363 362.372 6.51015 362.401C6.61723 362.449 6.72801 362.472 6.83878 362.479C6.88678 362.486 6.93478 362.49 6.98648 362.49C7.04556 362.49 7.10833 362.483 7.1711 362.472C7.66958 362.368 7.99451 361.881 7.89112 361.382Z" fill="black"/>
<path d="M540.665 10.2724C537.534 17.48 533.469 24.3184 528.587 30.6915C497.423 41.2814 422.123 47.2041 421.99 47.2152H421.399C421.27 47.2041 346.941 41.3553 315.415 30.8983C310.383 24.3664 306.21 17.3397 303.027 9.92896L303.068 9.88465C303.068 9.88465 303.079 9.88465 303.083 9.88834C317.04 24.2334 421.244 32.4343 421.399 32.4454H421.99C422.145 32.4343 526.405 24.2298 540.318 9.87726L540.665 10.2724Z" fill="white"/>
<path d="M551.078 12.126L540.407 0.387707C526.091 14.2343 422.341 22.1509 422.186 22.162H421.392C421.237 22.1509 317.487 14.2343 303.175 0.387707L292.389 12.2515L289.062 15.9107C291.019 17.6461 294.225 19.293 298.367 20.8586C306.432 23.9011 314.939 25.799 323.365 27.5123C343.149 31.5408 363.24 34.1255 383.293 36.3742C403.255 38.6118 422.463 40.2254 442.535 38.2684C460.27 36.5366 477.986 34.4984 495.61 31.8473C512.067 29.3696 529.119 26.8735 544.819 21.1355C548.774 19.6881 551.934 18.1668 554.046 16.5753C554.124 16.2689 554.205 15.9624 554.279 15.6522L551.078 12.1333V12.126Z" fill="#74CEE1"/>
<path d="M551.078 12.126L540.407 0.387707C526.091 14.2343 422.341 22.1509 422.186 22.162H421.392C421.237 22.1509 317.487 14.2343 303.175 0.387707L292.389 12.2515L289.062 15.9107C291.019 17.6461 294.225 19.293 298.367 20.8586C306.432 23.9011 314.939 25.799 323.365 27.5123C343.149 31.5408 363.24 34.1255 383.293 36.3742C403.255 38.6118 422.463 40.2254 442.535 38.2684C460.27 36.5366 477.986 34.4984 495.61 31.8473C512.067 29.3696 529.119 26.8735 544.819 21.1355C548.774 19.6881 551.934 18.1668 554.046 16.5753C554.124 16.2689 554.205 15.9624 554.279 15.6522L551.078 12.1333V12.126Z" fill="black" fill-opacity="0.2"/>
<path d="M423.778 39.3281C409.935 39.3281 396.133 37.9952 383.28 36.5551C365.235 34.5317 343.999 31.8989 323.333 27.6933C315.586 26.1166 306.628 24.1707 298.309 21.0321C293.989 19.4001 290.839 17.7237 288.949 16.051L288.809 15.9255L303.172 0.121849L303.309 0.254777C317.392 13.8799 420.374 21.8998 421.411 21.9774H422.19C423.217 21.8998 526.199 13.8762 540.282 0.254777L540.418 0.121849L554.483 15.5932L554.21 16.675L554.158 16.7157C552.12 18.2554 548.996 19.7988 544.883 21.3053C529.485 26.9363 512.788 29.4472 496.641 31.8768L495.637 32.0282C479.822 34.4098 462.46 36.5108 442.554 38.453C436.484 39.0438 430.343 39.3318 423.778 39.3318V39.3281ZM289.333 15.8959C291.205 17.4984 294.266 19.1083 298.438 20.685C306.732 23.8162 315.675 25.7584 323.407 27.3314C344.055 31.5334 365.283 34.1661 383.32 36.1896C396.162 37.6296 409.954 38.9626 423.778 38.9626C430.332 38.9626 436.462 38.6746 442.517 38.0838C462.416 36.1416 479.774 34.0406 495.581 31.6626L496.586 31.5112C512.714 29.0853 529.393 26.5745 544.753 20.9583C548.8 19.4776 551.869 17.9674 553.881 16.4609L554.073 15.7002L540.4 0.649867C525.726 14.2823 426.44 22.0217 422.209 22.3429H421.4C417.154 22.018 317.868 14.286 303.191 0.649867L289.333 15.8959Z" fill="black"/>
<path d="M421.904 89.6929C482.675 89.6929 534.513 59.0937 554.688 16.0953L540.664 0.668329C523.192 39.6457 476.63 67.5272 421.923 67.5272C367.216 67.5272 320.381 39.4869 303.026 0.33601L288.98 15.7888C309.053 58.946 360.99 89.6929 421.908 89.6929H421.904Z" fill="#74CEE1"/>
<path d="M421.905 89.8776C392.373 89.8776 364.063 82.6884 340.037 69.0855C316.531 55.7779 298.818 37.3748 288.811 15.8664L288.76 15.7556L303.083 0L303.197 0.262163C320.984 40.3842 368.694 67.3426 421.924 67.3426C475.154 67.3426 522.598 40.5171 540.495 0.59079L540.61 0.332319L554.91 16.0621L554.859 16.1729C544.801 37.6038 527.081 55.933 503.611 69.1778C479.618 82.7179 451.367 89.8776 421.905 89.8776ZM289.199 15.8221C309.77 59.9024 363.077 89.5083 421.905 89.5083C480.733 89.5083 533.805 60.0242 554.467 16.1286L540.717 1.00065C531.988 20.3121 516.306 36.8616 495.348 48.8731C473.847 61.1984 448.454 67.7119 421.92 67.7119C395.386 67.7119 369.857 61.1615 348.315 48.7734C327.316 36.6954 311.645 20.0647 302.972 0.672023L289.199 15.8221Z" fill="black"/>
<path d="M287.005 274.163L281.891 274.204L280.68 279.429L285.808 279.388L287.005 274.163Z" fill="white"/>
<path d="M288.995 266.195L283.944 266.136L282.533 272.203L287.588 272.365L288.995 266.195Z" fill="white"/>
<path d="M279.178 286.662L290.233 286.795L291.2 282.512L285.285 282.442L285.651 280.843L280.562 280.68L279.178 286.662Z" fill="white"/>
<path d="M300.671 270.881C300.679 270.102 301.299 269.714 302.521 269.729C303.448 269.74 303.906 270.102 303.895 270.814L303.441 272.875L308.388 273.03L308.51 272.468C308.628 271.915 308.699 271.176 308.71 270.249C308.743 267.373 306.878 265.911 303.123 265.866C301.074 265.841 299.375 266.365 298.024 267.428C296.672 268.492 295.734 270.198 295.21 272.542L295.195 272.601L300.25 272.764L300.675 270.873L300.671 270.881Z" fill="white"/>
<path d="M303.009 274.828L301.846 280.053L306.864 280.012L308.005 274.787L303.009 274.828Z" fill="white"/>
<path d="M301.369 282.205C301.365 282.604 301.154 282.94 300.748 283.213C300.342 283.487 299.929 283.62 299.515 283.616C298.559 283.605 298.086 283.195 298.097 282.383L298.352 281.249L293.356 281.09C293.341 281.253 293.319 281.441 293.282 281.663C293.223 282.047 293.19 282.338 293.186 282.538C293.149 285.71 294.859 287.319 298.315 287.36L298.957 287.367C300.752 287.39 302.295 286.95 303.584 286.057C304.995 285.082 305.966 283.564 306.512 281.515L301.557 281.356L301.369 282.209V282.205Z" fill="white"/>
<path d="M294.687 274.898L293.527 280.123L298.616 280.079L299.782 274.854L294.687 274.898Z" fill="white"/>
<path d="M315.629 271.719C315.788 270.297 316.43 269.592 317.553 269.607C318.435 269.618 318.871 270.065 318.864 270.947V271.095L318.395 273.347L323.431 273.51L323.86 270.729L323.867 269.98C323.897 267.406 322.021 266.092 318.232 266.047C313.975 265.996 311.427 267.868 310.585 271.656L310.271 273.085L315.278 273.248L315.626 271.715L315.629 271.719Z" fill="white"/>
<path d="M309.906 274.773L308.75 279.997L313.772 279.957L314.95 274.728L309.906 274.773Z" fill="white"/>
<path d="M316.42 275.829L315.549 279.514L317.229 279.536L317.14 279.927L322.073 279.89L322.971 275.906L316.42 275.829Z" fill="white"/>
<path d="M316.589 282.39C316.541 282.8 316.29 283.14 315.836 283.413C315.382 283.682 314.932 283.815 314.488 283.812C314.134 283.808 313.835 283.682 313.591 283.439C313.307 283.18 313.185 282.837 313.218 282.409L313.37 281.725L308.411 281.567C308.285 282.213 308.215 282.711 308.211 283.055C308.197 284.417 308.57 285.518 309.326 286.345C310.087 287.172 311.143 287.593 312.498 287.607C313.451 287.619 314.374 287.423 315.26 287.024C316.246 286.581 316.955 285.975 317.376 285.215L316.885 287.109L320.441 287.15L321.6 281.991L316.711 281.836L316.586 282.39H316.589Z" fill="white"/>
<path d="M331.839 271.25C331.846 270.467 332.463 270.083 333.689 270.098C334.616 270.109 335.074 270.471 335.066 271.18L334.472 273.861L339.42 274.019L339.678 272.834C339.8 272.28 339.866 271.542 339.877 270.615C339.911 267.738 338.05 266.28 334.295 266.232C332.245 266.206 330.543 266.73 329.192 267.794C327.844 268.857 326.902 270.563 326.378 272.908L326.227 273.591L331.282 273.753L331.843 271.239L331.839 271.25Z" fill="white"/>
<path d="M325.993 274.64L324.834 279.864L329.922 279.824L331.089 274.599L325.993 274.64Z" fill="white"/>
<path d="M333.154 279.794L338.169 279.754L339.31 274.533L334.314 274.573L333.154 279.794Z" fill="white"/>
<path d="M332.537 282.575C332.533 282.973 332.326 283.309 331.917 283.583C331.51 283.856 331.097 283.989 330.683 283.985C329.731 283.974 329.258 283.564 329.269 282.752L329.384 282.242L324.447 282.087C324.391 282.445 324.362 282.719 324.362 282.911C324.325 286.082 326.031 287.692 329.491 287.733L330.133 287.74C331.924 287.763 333.471 287.323 334.76 286.43C336.019 285.558 336.931 284.244 337.503 282.508L332.592 282.353L332.541 282.582L332.537 282.575Z" fill="white"/>
</g>
<defs>
<clipPath id="clip0_363_1870">
<rect width="843.396" height="1000" fill="white"/>
</clipPath>
</defs>
</svg>
