<svg width="844" height="988" viewBox="0 0 844 988" fill="none" xmlns="http://www.w3.org/2000/svg">
<path fill-rule="evenodd" clip-rule="evenodd" d="M326.589 988H519.435V987.727C523.473 987.605 527.881 987.443 533.263 987.214C560.034 986.081 586.391 983.884 611.601 980.695C612.609 980.761 613.661 980.794 614.728 980.794C644.463 980.794 686.93 955.046 687.336 954.787C690.858 952.613 687.48 940.977 685.856 935.385L685.805 935.209C685.559 934.365 685.365 933.698 685.261 933.273C684.177 928.849 682.964 924.383 681.788 920.049L681.666 919.6L681.252 918.079C680.798 916.398 680.106 914.849 679.435 913.348L679.407 913.284L679.404 913.278L679.404 913.277C678.416 911.064 677.483 908.977 677.258 906.547C677.096 904.775 677.317 902.929 677.531 901.146L677.532 901.143C677.834 898.611 678.148 895.991 677.41 893.445C676.468 890.208 675.66 887.41 675.125 883.799C674.619 880.362 673.827 877 673.062 873.751L673.042 873.67C671.81 868.454 670.536 863.057 670.466 857.387C670.451 856.165 670.684 854.688 670.931 853.123L670.932 853.119L670.932 853.118V853.118C671.338 850.553 671.798 847.643 671.226 845.182C670.565 842.315 669.816 839.851 669.093 837.472L669.092 837.469L669.045 837.312L669.037 837.288C667.671 832.793 666.379 828.545 666.029 822.653C665.703 817.13 665.163 811.521 664.641 806.089L664.641 806.086V806.086L664.611 805.775L664.58 805.45C664.224 801.738 663.857 797.906 663.559 794.14C661.222 764.423 659.465 732.982 658.184 698.024C657.998 692.86 657.605 687.482 657.224 682.274L657.213 682.128C656.538 672.906 655.84 663.371 656.194 654.39C656.416 648.768 657.342 643.145 658.243 637.708C659.424 630.572 660.643 623.193 660.31 615.64C660.17 612.445 659.064 609.946 657.891 607.297L657.89 607.297L657.889 607.293C656.877 605.016 655.836 602.664 655.338 599.685C654.722 595.977 655.699 592.635 656.643 589.403L656.643 589.402L656.645 589.397L656.658 589.352C657.363 586.937 658.092 584.438 658.096 581.877C658.103 578.348 657.125 575.081 656.176 571.921C655.08 568.27 653.95 564.494 654.323 560.267C654.459 558.715 655.085 557.104 655.69 555.548L655.692 555.542C656.397 553.729 657.125 551.858 657.099 550.038C657.073 548.432 656.43 547.164 655.807 545.937L655.803 545.929L655.802 545.927C655.189 544.721 654.611 543.58 654.566 542.131C654.437 537.878 655.217 534.441 656.043 530.804L656.047 530.787L656.069 530.688L656.069 530.687C656.531 528.647 657.008 526.541 657.32 524.245C659.195 510.453 658.535 495.176 657.897 480.402L657.896 480.394L657.893 480.314L657.892 480.307C657.506 471.349 657.107 462.093 657.309 453.479C657.811 431.965 658.454 410.395 659.21 389.379C659.764 373.989 660.333 360.113 660.942 346.956C660.985 346.033 661.182 344.7 661.41 343.156L661.429 343.028C661.824 340.371 662.282 337.277 662.193 334.848C662.496 335.479 662.854 336.221 663.256 337.059L663.895 338.388L663.909 338.069L710.843 435.689L710.965 435.944V435.948L711.242 435.896C739.323 430.791 768.737 419.52 803.81 400.428C814.342 394.695 824.804 388.501 834.9 382.018C839.88 378.82 842.511 375.236 843.069 370.837C843.142 370.292 843.183 369.735 843.193 369.164C843.196 368.496 843.156 367.81 843.067 367.068C842.927 365.879 842.672 364.635 842.288 363.269C841.406 360.139 839.992 356.886 838.493 353.442L837.578 351.334L837.564 351.41C837.181 350.52 836.799 349.618 836.429 348.71L745.307 125.369C739.438 113.626 733.169 103.279 726.68 94.6074L726.344 94.1571L726.329 94.1825C711.064 73.8752 699.688 69.5111 699.208 69.3353C697.965 68.8854 696.726 68.3285 695.524 67.788L695.523 67.7876L695.402 67.7332L695.199 67.6417C694.635 67.3874 694.068 67.1321 693.505 66.8915L567.554 12.9141C564.563 11.6331 562.275 10.3854 560.348 8.98629C559.609 8.44733 558.893 7.7201 558.136 6.94857C556.955 5.74144 555.73 4.49371 554.327 3.94736C552.511 3.23859 549.927 3.13892 547.424 3.04663L547.395 3.04553C546.036 2.99426 544.755 2.94591 543.695 2.7993L543.647 2.79192L543.584 2.78317C540.957 2.42042 538.247 2.04623 535.548 2.04623C534.636 2.04623 533.787 2.08683 532.953 2.17174C530.731 2.39692 528.512 3.17952 526.367 3.93629C525.312 4.30913 524.222 4.69305 523.167 4.99575C514.798 7.40632 506.237 9.0675 498.969 10.378C476.041 14.5088 450.765 17.6355 421.716 19.9427H421.151C392.542 17.6946 367.429 14.5937 344.375 10.4703C338.247 9.3739 330.192 7.84192 322.204 5.69714C320.181 5.15372 318.128 4.45691 315.956 3.71933L315.956 3.71926L315.921 3.70741C310.771 1.95394 305.433 0.137711 300.276 0.392426C295.972 0.599151 292.491 1.5774 289.63 3.37887C287.944 4.44206 286.486 5.70187 285.078 6.91963L285.049 6.94488L285.03 6.96071C283.07 8.65663 281.22 10.2561 278.762 11.4227C277.733 11.9145 276.658 12.3602 275.612 12.794L275.611 12.7941L275.61 12.7945L275.429 12.8698L275.215 12.9584L275.211 12.9598C274.722 13.1625 274.231 13.3659 273.745 13.5749L146.705 68.0211C146.362 68.165 146.019 68.3199 145.676 68.4748L145.675 68.4752C145.015 68.7742 144.328 69.0843 143.652 69.3279C143.538 69.3685 131.854 73.6987 116.335 94.4266L116.188 94.6222L116.263 94.7533C109.856 103.358 103.674 113.595 97.8624 125.218L6.75195 348.532C6.09117 350.142 5.40085 351.737 4.729 353.276C3.52438 356.044 2.35295 358.735 1.47735 361.339C1.26839 361.958 1.07632 362.573 0.904423 363.184C0.631967 364.151 0.424582 365.058 0.276991 365.929C0.0967853 366.985 -0.00217182 368.023 3.61691e-05 369.043C1.20286e-05 369.055 0 369.067 0 369.079C0.010492 369.713 0.0598797 370.33 0.148888 370.932C0.779923 375.205 3.4046 378.705 8.28393 381.837C18.3802 388.32 28.842 394.514 39.3739 400.247C61.2923 412.18 81.003 421.057 99.5596 427.283C103.565 428.627 107.516 429.848 111.424 430.949C118.379 432.908 125.197 434.489 131.939 435.715L132.216 435.767H132.219L132.219 435.767V435.771L132.221 435.767H132.223L132.345 435.512C132.345 435.512 133.083 433.973 134.382 431.274L135.852 428.225C137.118 425.586 138.683 422.326 140.462 418.627L140.669 418.195L179.759 336.886L179.796 336.801V336.709L179.792 336.632L180.191 335.8C180.26 335.658 180.327 335.52 180.391 335.386C180.482 335.197 180.568 335.017 180.653 334.844C180.561 337.244 181.012 340.302 181.401 342.937L181.413 343.021C181.653 344.619 181.856 346.004 181.9 346.952C182.513 360.146 183.078 374.022 183.632 389.376C184.388 410.395 185.027 431.961 185.533 453.475C185.735 462.091 185.336 471.35 184.949 480.31L184.946 480.39L184.945 480.398C184.307 495.173 183.647 510.449 185.522 524.242C185.837 526.552 186.319 528.678 186.784 530.729L186.784 530.73L186.795 530.779L186.799 530.797C187.625 534.434 188.405 537.87 188.276 542.127C188.231 543.577 187.652 544.717 187.04 545.923L187.039 545.926L187.031 545.941C186.41 547.166 185.765 548.435 185.743 550.034C185.717 551.854 186.445 553.726 187.15 555.538L187.152 555.545L187.153 555.546C187.757 557.101 188.383 558.712 188.519 560.263C188.891 564.482 187.763 568.253 186.672 571.897L186.666 571.918C185.717 575.078 184.739 578.344 184.746 581.874C184.75 584.45 185.485 586.964 186.197 589.393L186.199 589.398C187.143 592.631 188.12 595.973 187.504 599.682C187.007 602.651 185.967 605.001 184.963 607.272L184.953 607.293L184.952 607.297C183.778 609.946 182.672 612.445 182.532 615.64C182.196 623.173 183.411 630.534 184.586 637.653L184.595 637.708L184.606 637.771C185.499 643.189 186.423 648.79 186.644 654.39C186.998 663.371 186.301 672.91 185.625 682.132C185.241 687.385 184.846 692.815 184.654 698.024C183.373 732.99 181.616 764.427 179.279 794.14C178.977 798.016 178.596 801.958 178.227 805.772C177.692 811.302 177.142 817.02 176.81 822.649C176.459 828.552 175.163 832.805 173.79 837.308L173.778 837.347C173.044 839.764 172.284 842.263 171.608 845.179C171.04 847.641 171.498 850.55 171.904 853.119C172.151 854.684 172.384 856.161 172.369 857.383C172.299 863.053 171.025 868.45 169.792 873.67L169.767 873.777C169.003 877.018 168.214 880.367 167.71 883.796C167.177 887.394 166.368 890.186 165.434 893.41L165.425 893.442C164.686 895.978 164.998 898.583 165.299 901.105L165.303 901.139L165.304 901.143C165.518 902.928 165.739 904.772 165.576 906.539C165.352 908.96 164.423 911.04 163.439 913.243L163.424 913.276L163.419 913.287C162.742 914.805 162.042 916.37 161.582 918.072L161.169 919.589L161.076 919.929C159.891 924.297 158.667 928.804 157.573 933.27C157.469 933.697 157.273 934.375 157.025 935.23L157.024 935.231L156.979 935.388C154.38 944.337 152.401 952.879 155.495 954.787C155.912 955.049 198.387 980.794 228.107 980.794C229.174 980.794 230.23 980.761 231.237 980.695C256.447 983.884 282.804 986.077 309.575 987.214C314.238 987.413 320.362 987.657 326.589 987.815V988ZM139.915 418.053L178.895 336.975L178.892 336.897C174.8 245.028 152.126 157.083 116.667 95.4528C110.356 103.968 104.26 114.079 98.5379 125.52L7.43857 348.809C6.92361 350.072 6.38847 351.32 5.8576 352.541C6.63081 356.436 9.23874 359.764 13.8321 362.708C24.2311 369.386 35.0399 375.787 45.9631 381.734C81.5248 401.095 111.387 412.637 139.915 418.053ZM18.3164 387.245C15.075 385.267 11.8606 383.255 8.68262 381.214C3.34468 377.788 0.823367 373.926 0.742154 369.072C0.724037 365.204 2.24465 361 4.1181 356.565C4.52058 355.614 4.94066 354.648 5.36747 353.667H5.37116C6.40479 357.344 9.05161 360.515 13.4371 363.328C23.8472 370.017 34.6745 376.429 45.6124 382.384C81.1607 401.738 111.039 413.296 139.585 418.741L131.799 434.936C112.604 431.419 92.7731 425.01 70.9172 415.177C69.0545 414.339 67.177 413.477 65.284 412.589C57.0825 408.74 48.5885 404.419 39.7318 399.597C32.5355 395.682 25.367 391.546 18.3164 387.245ZM842.442 369.242C842.464 364.542 840.207 359.334 837.806 353.821C836.762 357.472 834.117 360.618 829.759 363.413H829.755C819.342 370.102 808.518 376.511 797.58 382.469C762.031 401.823 732.152 413.385 703.605 418.826C704.427 420.534 705.201 422.145 705.919 423.64L707.051 425.998L708.009 427.992L709.478 431.042C710.471 433.102 711.136 434.486 711.394 435.025C739.309 429.912 768.572 418.675 803.461 399.682C813.963 393.968 824.406 387.784 834.51 381.302C839.448 378.13 841.976 374.587 842.391 370.231C842.42 369.906 842.437 369.576 842.442 369.242ZM829.36 362.793C833.923 359.865 836.527 356.565 837.319 352.703C836.792 351.487 836.258 350.241 835.742 348.983L744.631 125.668C738.912 114.228 732.799 104.099 726.477 95.5719L726.415 95.7112L726.348 95.6235C690.922 157.192 668.255 245.048 664.13 336.819L664.134 336.823L703.232 418.147C731.774 412.738 761.649 401.19 797.229 381.819C808.153 375.872 818.961 369.471 829.36 362.793ZM179.72 335.072L180.117 334.249C180.665 333.111 180.95 332.519 181.107 332.205C181.128 332.155 181.149 332.105 181.171 332.056C181.183 332.029 181.194 332.002 181.206 331.976L181.221 331.983C181.287 331.859 181.306 331.847 181.335 331.829L181.335 331.828L182.461 331.079L181.874 332.297C180.883 334.365 181.605 339.263 182.136 342.861L182.144 342.914C182.384 344.535 182.591 345.934 182.639 346.919C183.251 360.116 183.816 373.993 184.37 389.35C185.127 410.373 185.769 431.942 186.271 453.46C186.474 462.1 186.074 471.376 185.687 480.349L185.687 480.35L185.684 480.423C185.045 495.167 184.388 510.413 186.253 524.146C186.566 526.445 187.046 528.568 187.515 530.62L187.521 530.646C188.357 534.328 189.146 537.807 189.014 542.153C188.966 543.77 188.32 545.04 187.696 546.265L187.695 546.268C187.082 547.474 186.504 548.614 186.481 550.045C186.456 551.721 187.127 553.445 187.84 555.269L187.856 555.31C188.475 556.903 189.115 558.55 189.257 560.197C189.644 564.56 188.494 568.397 187.381 572.108L187.375 572.128C186.4 575.38 185.481 578.448 185.485 581.87C185.488 584.326 186.169 586.658 186.891 589.131L186.906 589.183C187.877 592.498 188.877 595.924 188.231 599.8C187.722 602.869 186.66 605.264 185.63 607.585L185.629 607.589L185.621 607.605C184.48 610.183 183.402 612.616 183.27 615.666C182.941 623.141 184.152 630.48 185.326 637.579L185.334 637.628C186.232 643.073 187.161 648.704 187.382 654.353C187.737 663.379 187.039 672.936 186.363 682.18C185.979 687.425 185.584 692.848 185.392 698.046C184.112 733.019 182.351 764.471 180.014 794.191C179.708 798.075 179.327 802.021 178.958 805.838L178.956 805.864C178.425 811.379 177.876 817.08 177.541 822.69C177.186 828.681 175.879 832.975 174.491 837.523L174.491 837.523C173.757 839.937 172.996 842.436 172.321 845.341C171.782 847.667 172.229 850.498 172.623 853.001L172.635 853.075C172.882 854.646 173.114 856.125 173.1 857.39C173.03 863.13 171.75 868.558 170.512 873.809L170.505 873.84L170.479 873.948C169.719 877.174 168.934 880.508 168.434 883.903C167.895 887.565 167.075 890.385 166.126 893.648C165.429 896.049 165.735 898.591 166.03 901.047L166.03 901.054L166.037 901.109C166.253 902.915 166.475 904.779 166.307 906.609C166.071 909.164 165.067 911.412 164.096 913.583C163.428 915.074 162.738 916.621 162.291 918.267L161.877 919.784C160.663 924.255 159.408 928.877 158.286 933.447C158.171 933.916 157.957 934.658 157.684 935.595C156.233 940.586 152.841 952.277 155.882 954.156C156.303 954.415 198.623 980.052 228.103 980.052C229.167 980.052 230.215 980.019 231.219 979.953H231.256H231.293C256.495 983.146 282.841 985.339 309.605 986.472C314.356 986.671 320.624 986.922 326.966 987.081L327.328 987.088V987.254V987.258H518.696V987.007L519.054 986.996C523.189 986.874 527.693 986.708 533.234 986.472C559.997 985.335 586.343 983.142 611.542 979.953H611.579H611.616C612.62 980.019 613.668 980.052 614.731 980.052C644.256 980.052 686.528 954.415 686.952 954.156C689.994 952.277 686.599 940.589 685.147 935.593L685.147 935.591C684.874 934.654 684.66 933.916 684.545 933.447C683.423 928.877 682.172 924.258 680.957 919.788L680.544 918.267C680.097 916.617 679.407 915.074 678.739 913.583L678.738 913.582C677.767 911.411 676.763 909.167 676.527 906.613C676.358 904.765 676.582 902.885 676.8 901.063L676.8 901.057L676.801 901.051C677.096 898.594 677.402 896.053 676.704 893.652C675.756 890.389 674.94 887.568 674.401 883.906C673.892 880.473 673.098 877.099 672.33 873.84L672.325 873.82C671.086 868.569 669.805 863.138 669.735 857.394C669.72 856.109 669.956 854.603 670.211 853.005C670.606 850.502 671.053 847.671 670.514 845.345C669.842 842.436 669.081 839.94 668.343 837.523C666.959 832.978 665.652 828.681 665.298 822.694C664.966 817.089 664.417 811.388 663.887 805.875L663.884 805.846C663.515 802.029 663.134 798.082 662.828 794.199C660.491 764.471 658.73 733.023 657.45 698.053C657.258 692.855 656.863 687.429 656.479 682.183L656.472 682.096L656.472 682.094C655.799 672.878 655.103 663.357 655.46 654.36C655.68 648.72 656.606 643.102 657.503 637.663L657.516 637.586C658.69 630.487 659.901 623.148 659.572 615.669C659.436 612.613 658.358 610.173 657.213 607.592C656.183 605.274 655.124 602.875 654.611 599.803C653.965 595.927 654.969 592.498 655.94 589.187L655.949 589.156C656.673 586.679 657.357 584.337 657.361 581.874C657.368 578.452 656.449 575.384 655.471 572.132C654.356 568.414 653.204 564.571 653.588 560.201C653.736 558.542 654.38 556.883 655.003 555.28L655.003 555.279L655.004 555.278L655.006 555.272C655.718 553.449 656.386 551.721 656.364 550.049C656.342 548.618 655.766 547.484 655.156 546.281L655.15 546.269C654.526 545.043 653.88 543.773 653.832 542.156C653.699 537.811 654.489 534.332 655.325 530.651L655.325 530.65L655.331 530.624C655.799 528.572 656.279 526.449 656.593 524.149C658.457 510.417 657.8 495.171 657.162 480.427L657.158 480.356L657.158 480.351C656.772 471.379 656.372 462.104 656.571 453.464C657.077 431.942 657.715 410.373 658.476 389.353C659.029 373.963 659.598 360.083 660.207 346.923C660.25 345.963 660.451 344.611 660.683 343.047L660.702 342.921C661.237 339.315 661.968 334.379 660.971 332.301L660.384 331.083L661.51 331.832C661.536 331.847 661.551 331.862 661.621 331.987L661.636 331.98C661.673 332.054 661.704 332.129 661.738 332.209L661.746 332.231C661.957 332.648 662.381 333.526 663.289 335.417C665.512 287.988 672.459 242.287 683.94 199.55C694.549 160.058 709.035 123.822 725.831 94.7551C710.648 74.5145 699.426 70.2065 698.953 70.033C697.646 69.5568 696.351 68.9735 695.099 68.4087C694.472 68.1245 693.844 67.8439 693.213 67.5744L567.262 13.597C564.22 12.2939 561.883 11.0203 559.912 9.58801C559.133 9.02385 558.372 8.25155 557.636 7.50463L557.636 7.50419L557.605 7.47276C556.475 6.32101 555.309 5.13234 554.054 4.64506C552.365 3.98426 549.858 3.88934 547.435 3.79754L547.394 3.79601L547.365 3.79493C545.988 3.74365 544.688 3.69526 543.592 3.54129L543.544 3.53391L543.502 3.52806C540.897 3.1681 538.203 2.79561 535.548 2.79561C534.662 2.79561 533.835 2.83621 533.027 2.91743C530.893 3.13154 528.715 3.89937 526.611 4.64137C525.548 5.0179 524.448 5.40551 523.37 5.7156C514.972 8.13355 506.385 9.80211 499.098 11.1163C476.148 15.2508 450.846 18.3812 421.746 20.6921H421.126C392.461 18.4366 367.322 15.3357 344.246 11.2086C338.103 10.1085 330.026 8.57284 322.012 6.42068C319.98 5.87435 317.936 5.18068 315.773 4.44604L315.685 4.41619L315.675 4.41278C310.595 2.6862 305.334 0.898324 300.313 1.1418C296.142 1.34484 292.775 2.28618 290.025 4.0175C288.371 5.05851 286.928 6.30624 285.532 7.51706C283.616 9.17456 281.634 10.8874 279.08 12.1019C278.009 12.6105 276.893 13.0739 275.812 13.5225L275.713 13.5638L275.364 13.7079C274.92 13.8916 274.476 14.0749 274.037 14.2652L146.99 68.704C146.751 68.805 146.515 68.9115 146.278 69.0183L146.275 69.0194L146.137 69.0816C146.083 69.1059 146.029 69.1302 145.974 69.1544C145.299 69.4608 144.601 69.7746 143.889 70.033C143.774 70.0735 132.31 74.4366 117.168 94.5476C133.974 123.623 148.464 159.869 159.079 199.373C170.546 242.058 177.488 287.704 179.72 335.072Z" fill="black"/>
</svg>
