<svg width="61" height="23" viewBox="0 0 61 23" fill="none" xmlns="http://www.w3.org/2000/svg">
<path fill-rule="evenodd" clip-rule="evenodd" d="M21.6712 5.88073C21.6786 5.10162 22.2989 4.71392 23.5211 4.72869C24.4479 4.73977 24.9058 5.10162 24.8947 5.81427L24.4405 7.87466L29.3884 8.02972L29.5102 7.46847C29.6284 6.91461 29.6985 6.17614 29.7096 5.24932C29.7429 2.37292 27.8782 0.910732 24.123 0.86642C22.0737 0.840572 20.3752 1.36489 19.0237 2.42831C17.6723 3.49173 16.7344 5.19763 16.2101 7.54232L16.1953 7.60141L21.2502 7.76388L21.6749 5.87335L21.6712 5.88073ZM9.99594 1.19503L4.9447 1.13595L3.53418 7.20263L8.58911 7.36508L9.99594 1.19503ZM8.0058 9.16329L2.89178 9.20391L1.68066 14.4287L6.80945 14.3881L8.0058 9.16329ZM11.2329 21.7951L0.177734 21.6622L1.56241 15.6804L6.65057 15.8429L6.285 17.4417L12.2003 17.5119L11.2329 21.7951ZM22.8457 15.0527L24.0088 9.82794L29.0047 9.78732L27.8637 15.0121L22.8457 15.0527ZM22.3695 17.2054C22.3658 17.6042 22.1554 17.9402 21.7492 18.2134C21.343 18.4867 20.9295 18.6196 20.5159 18.6159C19.5596 18.6048 19.087 18.195 19.0981 17.3827L19.3528 16.2491L14.3569 16.0903C14.351 16.1554 14.3439 16.2246 14.3352 16.2984C14.3221 16.4089 14.3052 16.5298 14.2831 16.6626C14.224 17.0466 14.1908 17.3383 14.1871 17.5377C14.1502 20.7095 15.8598 22.3194 19.3159 22.36L19.9584 22.3674C21.7529 22.3896 23.2963 21.9502 24.585 21.0566C25.9955 20.0818 26.9666 18.5642 27.5131 16.5149L22.5579 16.3561L22.3695 17.2091V17.2054ZM14.5264 15.1229L15.6858 9.8981L20.7813 9.85379L19.6145 15.0786L14.5264 15.1229ZM36.6292 6.7189C36.788 5.29733 37.4305 4.59207 38.553 4.60684C39.4355 4.61788 39.8712 5.06469 39.8638 5.94717V6.09487L39.3948 8.34725L44.4313 8.50973L44.8596 5.72933L44.867 4.97976C44.8966 2.40612 43.0208 1.09164 39.2324 1.04733C34.975 0.995631 32.4272 2.8677 31.5854 6.65615L31.2715 8.08511L36.2784 8.24758L36.6255 6.71521L36.6292 6.7189ZM29.75 14.9973L30.9057 9.77255L35.9496 9.72824L34.7717 14.9567L29.75 14.9973ZM37.4193 10.8286L36.5479 14.5136L38.2279 14.5358L38.1393 14.9272L43.0724 14.8903L43.9696 10.9061L37.4193 10.8286ZM36.8362 18.4128C37.2904 18.1396 37.5415 17.7999 37.5895 17.39H37.5858L37.7113 16.8362L42.6001 16.9913L41.4407 22.1496L37.8849 22.109L38.376 20.2147C37.955 20.9754 37.2461 21.581 36.2602 22.024C35.374 22.4228 34.4509 22.6185 33.4983 22.6074C32.1432 22.5927 31.0871 22.1717 30.3264 21.3446C29.5695 20.5175 29.1966 19.4172 29.2114 18.0547C29.2151 17.7113 29.2852 17.2128 29.4107 16.5666L34.3697 16.7254L34.2183 17.4085C34.1851 17.8368 34.3069 18.1802 34.5912 18.4387C34.8349 18.6824 35.134 18.8079 35.4885 18.8116C35.9316 18.8153 36.382 18.6824 36.8362 18.4128ZM52.8391 6.24996C52.8465 5.46716 53.4631 5.08316 54.689 5.09793C55.6158 5.109 56.0736 5.47085 56.0663 6.1798L55.4718 8.86053L60.4196 9.01928L60.6781 7.83404C60.8 7.28018 60.8664 6.54168 60.8775 5.61486C60.9107 2.73846 59.0497 1.27996 55.2945 1.23196C53.2452 1.20611 51.543 1.73043 50.1916 2.79385C48.8439 3.85726 47.9023 5.56317 47.3779 7.90786L47.2266 8.59097L52.2815 8.75344L52.8428 6.23889L52.8391 6.24996ZM45.835 14.8644L46.9944 9.63961L52.0899 9.59899L50.9232 14.8238L45.835 14.8644ZM54.1533 14.7942L59.1677 14.7536L60.3086 9.53253L55.3127 9.57315L54.1533 14.7942ZM52.9166 18.5827C53.3265 18.3095 53.5333 17.9735 53.537 17.5747L53.5406 17.5821L53.5923 17.3531L58.5033 17.5082C57.9309 19.2436 57.0189 20.5581 55.7598 21.4296C54.4711 22.3231 52.924 22.7625 51.1332 22.7404L50.4907 22.733C47.0309 22.6924 45.325 21.0825 45.3619 17.9107C45.3619 17.7187 45.3914 17.4454 45.4468 17.0873L50.3836 17.2424L50.2692 17.7519C50.2581 18.5642 50.7307 18.9741 51.6833 18.9852C52.0969 18.9889 52.5105 18.856 52.9166 18.5827Z" fill="white"/>
</svg>
