<svg width="141" height="84" viewBox="0 0 141 84" fill="none" xmlns="http://www.w3.org/2000/svg">
<path d="M140.157 66.3274C138.378 70.0273 136.812 73.2877 135.545 75.9278C134.999 77.0613 134.508 78.0841 134.076 78.9777C132.776 81.6768 132.038 83.2166 132.038 83.2166C99.4852 77.2977 68.4687 63.5138 39.5606 47.7766C28.9818 42.0201 18.6135 35.8796 8.48142 29.3772C2.56245 25.574 0.442989 21.4274 0.369141 16.9189C0.369141 16.2432 0.409757 15.5601 0.490991 14.8696C0.634996 13.6474 0.900851 12.3994 1.25902 11.1255C2.21905 7.71371 3.83264 4.12096 5.47209 0.339905C6.18103 4.0988 8.55527 7.60662 13.6324 10.8633C24.1189 17.5983 34.8491 23.9494 45.7935 29.909C75.3108 45.9784 106.959 60.0725 140.157 66.3274Z" fill="#A7A9AC"/>
</svg>
