<svg width="609" height="994" viewBox="0 0 609 994" fill="none" xmlns="http://www.w3.org/2000/svg">
<path d="M0 102.08C0 101.75 0 101.41 0 101.08C1.17 99.68 2.33 98.28 3.51 96.89C11.4 87.55 19.96 79.25 31.58 74.33C75.17 55.89 118.62 37.14 162.11 18.47C163.91 17.7 165.73 16.79 167.23 15.56C172.89 10.96 178.35 6.12 184.07 1.59C185 0.85 187.01 0.81 188.25 1.24C193.73 3.12 198.95 6.18 204.56 7.18C228.75 11.51 253 15.52 277.3 19.1C287.45 20.59 297.87 21.88 308.04 21.22C326.76 20 345.45 17.74 364.03 15.04C384.16 12.12 404.55 9.74 423.05 0C427.9 3.75 432.7 7.58 437.64 11.25C441.7 14.26 445.55 17.88 450.1 19.85C491.52 37.84 532.97 55.77 574.64 73.16C587.92 78.7 597.92 87.6 606.69 98.5C608.52 100.78 608.72 102.69 607.24 105.21C603.88 110.94 600.47 116.67 597.56 122.64C574.5 170.01 560.6 220.21 553.28 272.15C547.67 311.97 542.74 351.96 541.58 392.24C540.71 422.34 540.12 452.47 540.13 482.58C540.13 502.69 542.13 522.8 537.32 542.72C536.53 545.98 538.14 549.79 538.5 553.36C538.71 555.45 539.32 557.88 538.55 559.63C535.72 566.03 536.25 572.28 538.48 578.57C540.62 584.6 540.79 590.58 538.61 596.64C536.65 602.09 537.74 607.24 539.48 612.67C541.16 617.91 542.3 623.63 542.12 629.09C541.85 637.02 539.43 644.89 539.27 652.81C538.99 667.08 539.36 681.39 540.08 695.65C541.91 732.05 543.81 768.45 546.26 804.82C547.27 819.85 547.52 835.12 552.94 849.57C553.61 851.37 553.89 853.59 553.53 855.46C551.88 864.23 553.68 872.63 555.45 881.14C557.23 889.71 558.43 898.4 559.82 907.05C560.49 911.23 560.67 915.52 561.71 919.6C564.59 930.85 567.91 942 570.85 953.24C571.92 957.35 570.57 960.3 566.38 962.52C542.92 974.93 519.32 985.81 491.83 986.81C461.12 987.92 430.49 993.08 399.82 993.14C321.82 993.28 243.76 995.9 165.8 991.2C145.4 989.97 125.01 988.27 104.71 985.93C84.43 983.6 66.14 975.06 48.29 965.61C36.18 959.2 36.67 959.04 39.58 945.48C42.79 930.53 51.04 916.62 49.1 900.55C48.92 899.01 49.96 897.36 50.25 895.73C52.21 884.62 55.34 873.54 55.61 862.39C55.8 854.64 56.15 847.29 58.6 839.99C59.38 837.65 59.88 835.15 60.11 832.68C61.45 818.1 62.98 803.53 63.88 788.92C65.67 759.68 66.98 730.42 68.7 701.18C69.99 679.26 72.04 657.38 67.14 635.56C65.22 627.01 66.08 618.57 69.84 610.23C71.46 606.65 71.44 601.57 70.35 597.69C68.31 590.44 68.44 583.68 70.88 576.68C72.74 571.35 72.75 566.02 70.64 560.58C69.81 558.45 70.25 555.77 70.37 553.35C70.58 549.15 71.5 544.92 71.21 540.76C70.42 529.68 68.42 518.64 68.23 507.56C67.95 491.43 69.36 475.28 69.13 459.15C68.55 418.21 67.32 377.3 63.08 336.52C59.71 304.09 56.84 271.61 49.98 239.66C39.65 191.49 25.44 144.74 0 102.08Z" fill="#232323"/>
</svg>
