<svg width="266" height="40" viewBox="0 0 266 40" fill="none" xmlns="http://www.w3.org/2000/svg">
<path d="M262.771 12.0011L252.102 0.265789C237.79 14.1127 134.066 22.0236 133.915 22.0347H133.125C132.97 22.0236 29.2452 14.109 14.9332 0.265789L4.15026 12.1266L0.824219 15.7849C2.78073 17.52 5.98495 19.1664 10.1268 20.7316C18.1854 23.7734 26.6944 25.6708 35.1184 27.3837C54.8976 31.4112 74.9832 33.9952 95.0318 36.2434C114.988 38.4804 134.192 40.0936 154.259 38.1371C171.989 36.4058 189.701 34.3681 207.321 31.7176C223.774 29.2405 240.821 26.7451 256.517 21.0084C260.471 19.5614 263.631 18.0405 265.743 16.4457C265.82 16.1393 265.901 15.8329 265.975 15.5228L262.775 12.0048L262.771 12.0011Z" fill="#74CEE1"/>
</svg>
