<svg width="141" height="84" viewBox="0 0 141 84" fill="none" xmlns="http://www.w3.org/2000/svg">
<path d="M140.022 17.0962C139.949 21.6046 137.825 25.7549 131.906 29.5544C121.774 36.0568 111.406 42.1974 100.831 47.9539C71.9228 63.691 40.9063 77.4749 8.35013 83.3939C8.35013 83.3939 7.51196 81.6473 6.05345 78.6121C5.61405 77.7038 5.12296 76.681 4.58386 75.5585C3.36167 73.0181 1.88837 69.9534 0.230469 66.5047C33.4328 60.2497 65.077 46.1557 94.5981 30.0862C105.542 24.1266 116.273 17.7756 126.759 11.0443C131.833 7.78387 134.207 4.27605 134.916 0.517151C136.614 4.42375 138.28 8.13465 139.225 11.6462C139.572 12.9274 139.819 14.1829 139.941 15.4124C139.996 15.9811 140.026 16.5423 140.022 17.0962Z" fill="#A7A9AC"/>
</svg>
