<?xml version="1.0" encoding="utf-8"?>
<!-- Generator: Adobe Illustrator 28.1.0, SVG Export Plug-In . SVG Version: 6.00 Build 0)  -->
<svg version="1.1" xmlns="http://www.w3.org/2000/svg" xmlns:xlink="http://www.w3.org/1999/xlink" x="0px" y="0px"
	 viewBox="0 0 521.53 290.17" style="enable-background:new 0 0 521.53 290.17;" xml:space="preserve">
<style type="text/css">
	.st0{fill:#F8F8F8;}
	.st1{fill:#B7E4EA;}
	.st2{fill:#FFFFFF;}
	.st3{fill:#1497C7;}
	.st4{fill:#00283D;}
	.st5{fill:#EEFBFE;}
	.st6{fill:#1DAAE0;}
	.st7{fill:#5BD3B1;}
	.st8{fill:none;stroke:#00283D;stroke-miterlimit:10;}
	.st9{fill:#E6E6E6;}
</style>
<g id="Layer_2">
</g>
<g id="Layer_1">
	<g>
		<path class="st2" d="M322.71,75.28c-0.08,0-0.16,0-0.24,0c0,8.57,0.01,17.14-0.01,25.71c-0.01,2.59-0.07,2.65-2.34,1.9
			c-11.85-3.89-23.67-7.85-35.54-11.66c-1.79-0.57-2.13-1.45-2.11-3.16c0.11-9.25,0.09-18.5,0.12-27.74
			c0.01-3.27-0.04-6.54,0.02-9.81c0.03-1.64-0.27-2.62-2.23-3.05c-3.05-0.68-5.98-1.91-8.98-2.86
			c-21.29-6.8-42.58-13.59-63.87-20.37c-3.48-1.11-4.03-0.68-4.16,3.07c-0.01,0.34-0.01,0.68-0.01,1.01
			c-0.01,22.44-0.02,44.89-0.01,67.33c0,3.17,0.06,3.22,3.09,4.34c0.63,0.23,1.28,0.44,1.92,0.65c11.36,3.61,22.73,7.21,34.09,10.83
			c2.9,0.92,2.91,0.96,2.92,3.93c0.03,6.65,0.04,13.31,0.06,19.96c0.02,4.29,0.04,8.57,0.07,12.86c0.01,1.63-0.21,2.5-2.3,1.84
			c-2.31-0.73-4.46,0.16-6.11,1.95c-2.29,2.48-4.74,4.86-6.74,7.57c-2.26,3.06-5.07,5.55-8.17,7.47
			c-9.37,5.8-18.99,11.2-28.45,16.84c-1.52,0.9-2.23,0.71-3.23-0.71c-4.96-6.98-9.99-13.9-15.07-20.78
			c-6.5-8.8-13.03-17.6-21.32-24.84c-2.59-2.27-5.66-4.04-8.67-5.75c-1-0.56-1.32-0.56-0.77-1.72c0.8-1.7,1.71-3.53,1.82-5.34
			c0.32-5.28,0.49-10.59,0.25-15.87c-0.12-2.54,0.49-3.96,2.78-4.95c1.43-0.62,2.69-1.63,4-2.51c3.91-2.61,3.91-3.35,0.5-6.54
			c-2.38-2.22-4.6-4.61-6.9-6.92c-0.74-0.75-0.82-1.27,0.05-2.14c1.33-1.33,0.27-1.8-0.98-1.62c-1.41,0.21-2.09-0.47-2.65-1.55
			c-0.41-0.8-0.8-1.62-1.31-2.36c-1.17-1.7-1.19-2.93,0.49-4.6c5.26-5.24,7.21-11.8,6.58-19.13c-0.6-6.93-6.01-9.98-12.23-6.96
			c-0.41,0.2-0.83,0.37-1.2,0.62c-1.2,0.83-2.05,0.64-3.19-0.4c-0.9-0.82-2.37-1.23-3.64-1.4c-3.28-0.45-6.29,0.55-8.86,2.53
			c-2.31,1.78-4.64,3.65-6.52,5.84c-1.51,1.76-3.22,2.66-5.35,3.01c-5.07,0.85-9.67,2.94-14.07,5.46
			c-8.5,4.86-12.83,12.99-11.09,23.69c0.32,1.98,0.4,3.8-0.47,5.58c-1.22,2.53-0.9,4.98,0.04,7.5c1.26,3.4,3.37,6.08,6.48,7.95
			c2.7,1.62,5.31,3.44,8.16,4.74c3.51,1.61,5.16,3.92,4.59,7.84c-0.17,1.18,0.24,2.44,0.38,3.67c-1.26,0.05-2.52,0.03-3.77,0.15
			c-3.91,0.37-7.83,0.73-11.73,1.19c-5.41,0.64-10.55,2.03-15.08,5.31c-9.31,6.74-13.47,16.11-13.81,27.27
			c-0.25,8.28,1.47,16.34,4.31,24.11c5.95,16.27,14.8,31.03,23.93,45.64c0.7,1.11,1.96,1.87,2.96,2.79
			c-0.43-1.32-0.67-2.74-1.32-3.94c-4.39-8.11-8.99-16.11-13.27-24.28c-4.7-8.97-9.08-18.1-11.58-27.99
			c-1.86-7.37-2.8-14.86-1.33-22.39c2.34-11.99,10.59-22.35,26.62-24.39c1.09-0.14,2.21-0.13,3.31-0.19
			c-0.53,0.83-1.07,1.66-1.58,2.5c-0.29,0.48-0.66,0.96-0.77,1.49c-0.29,1.35-0.94,1.93-2.4,2.33c-2.97,0.82-5.42,2.68-7.51,4.97
			c-5.27,5.8-7.01,12.84-6.38,20.34c0.45,5.45,1.46,10.94,2.99,16.19c4.44,15.26,13.12,28.15,24.11,39.36
			c8.2,8.35,17.16,15.95,25.76,23.92c2.75,2.55,5.47,3.39,9.72,0.49c1.65-1.13,2.9-1.25,4.61-0.4c1.7,0.85,3.54,1.42,5.33,2.09
			c5.82,2.19,11.61,2.03,17.47,0.03c5.79-1.97,11.24-4.59,16.31-7.99c9.55-6.41,17.16-14.92,24.85-23.32
			c5.63-6.15,10.9-12.63,16.54-18.76c3.6-3.91,8.34-6.16,13.57-6.87c6.25-0.85,12.01-2.81,17.15-6.44c1.38-0.98,2.48-1,4.02-0.42
			c13.77,5.17,27.57,10.28,41.38,15.35c12.65,4.64,25.32,9.25,38,13.81c6.08,2.18,6.11,2.11,6.1-4.39
			c-0.03-14.66-0.08-29.32-0.1-43.98c0-3.01,0.03-2.98,2.93-2.03c7.58,2.48,15.18,4.91,22.76,7.4
			c26.58,8.71,53.15,17.44,79.73,26.14c3.88,1.27,4.3,0.93,4.27-3.05c-0.14-17.25-0.28-34.51-0.37-51.76
			c-0.08-15.22-0.1-30.45-0.14-45.67c0-1.13,0.01-2.26,0.13-3.37c0.32-2.99,0.36-3.01-2.62-3.99c-9.92-3.27-19.85-6.52-29.78-9.77
			c-30.11-9.83-60.22-19.66-90.33-29.48c-0.85-0.28-1.72-0.61-2.6-0.65c-1.25-0.05-1.98,0.41-1.97,1.99
			C322.75,55.47,322.71,65.37,322.71,75.28z"/>
		<path class="st4" d="M322.71,75.28c0-9.9,0.04-19.81-0.04-29.71c-0.01-1.58,0.72-2.04,1.97-1.99c0.87,0.04,1.75,0.37,2.6,0.65
			c30.11,9.82,60.22,19.65,90.33,29.48c9.93,3.24,19.86,6.5,29.78,9.77c2.98,0.98,2.94,1,2.62,3.99c-0.12,1.12-0.13,2.25-0.13,3.37
			c0.04,15.22,0.06,30.45,0.14,45.67c0.09,17.25,0.24,34.51,0.37,51.76c0.03,3.98-0.38,4.32-4.27,3.05
			c-26.58-8.71-53.15-17.44-79.73-26.14c-7.58-2.48-15.18-4.92-22.76-7.4c-2.9-0.95-2.94-0.98-2.93,2.03
			c0.02,14.66,0.07,29.32,0.1,43.98c0.01,6.5-0.02,6.57-6.1,4.39c-12.69-4.55-25.35-9.16-38-13.81
			c-13.81-5.07-27.6-10.18-41.38-15.35c-1.54-0.58-2.64-0.55-4.02,0.42c-5.14,3.63-10.89,5.59-17.15,6.44
			c-5.23,0.71-9.97,2.96-13.57,6.87c-5.65,6.13-10.92,12.61-16.54,18.76c-7.68,8.4-15.3,16.9-24.85,23.32
			c-5.07,3.4-10.52,6.02-16.31,7.99c-5.86,2-11.65,2.16-17.47-0.03c-1.79-0.67-3.63-1.24-5.33-2.09c-1.7-0.85-2.96-0.73-4.61,0.4
			c-4.25,2.9-6.97,2.06-9.72-0.49c-8.6-7.96-17.56-15.57-25.76-23.92c-11-11.21-19.67-24.09-24.11-39.36
			c-1.53-5.25-2.54-10.74-2.99-16.19c-0.63-7.5,1.11-14.55,6.38-20.34c2.09-2.3,4.54-4.16,7.51-4.97c1.45-0.4,2.1-0.98,2.4-2.33
			c0.12-0.53,0.48-1.01,0.77-1.49c0.51-0.84,1.05-1.67,1.58-2.5c-1.1,0.06-2.22,0.05-3.31,0.19c-16.03,2.04-24.28,12.4-26.62,24.39
			c-1.47,7.52-0.53,15.02,1.33,22.39c2.5,9.89,6.88,19.02,11.58,27.99c4.28,8.17,8.88,16.17,13.27,24.28
			c0.65,1.2,0.89,2.62,1.32,3.94c-1-0.92-2.27-1.68-2.96-2.79C77,215.3,68.14,200.53,62.2,184.26c-2.84-7.77-4.56-15.82-4.31-24.11
			c0.34-11.16,4.5-20.54,13.81-27.27c4.53-3.28,9.67-4.67,15.08-5.31c3.9-0.46,7.81-0.82,11.73-1.19c1.25-0.12,2.51-0.1,3.77-0.15
			c-0.14-1.23-0.55-2.49-0.38-3.67c0.57-3.92-1.09-6.23-4.59-7.84c-2.85-1.3-5.46-3.13-8.16-4.74c-3.11-1.87-5.22-4.54-6.48-7.95
			c-0.93-2.52-1.26-4.97-0.04-7.5c0.86-1.78,0.79-3.6,0.47-5.58c-1.74-10.71,2.59-18.83,11.09-23.69c4.4-2.52,9-4.61,14.07-5.46
			c2.13-0.36,3.84-1.26,5.35-3.01c1.89-2.2,4.21-4.06,6.52-5.84c2.57-1.98,5.59-2.98,8.86-2.53c1.27,0.17,2.74,0.58,3.64,1.4
			c1.14,1.03,1.99,1.23,3.19,0.4c0.37-0.25,0.79-0.43,1.2-0.62c6.22-3.01,11.63,0.03,12.23,6.96c0.64,7.33-1.31,13.89-6.58,19.13
			c-1.67,1.67-1.65,2.9-0.49,4.6c0.51,0.74,0.9,1.56,1.31,2.36c0.56,1.08,1.24,1.76,2.65,1.55c1.25-0.18,2.31,0.29,0.98,1.62
			c-0.87,0.87-0.8,1.39-0.05,2.14c2.3,2.31,4.52,4.7,6.9,6.92c3.41,3.19,3.41,3.93-0.5,6.54c-1.31,0.88-2.57,1.89-4,2.51
			c-2.29,0.99-2.89,2.41-2.78,4.95c0.24,5.28,0.07,10.59-0.25,15.87c-0.11,1.82-1.01,3.65-1.82,5.34c-0.55,1.16-0.23,1.16,0.77,1.72
			c3.02,1.7,6.08,3.48,8.67,5.75c8.28,7.24,14.82,16.04,21.32,24.84c5.08,6.89,10.12,13.81,15.07,20.78
			c1.01,1.42,1.71,1.61,3.23,0.71c9.47-5.65,19.08-11.04,28.45-16.84c3.1-1.92,5.91-4.4,8.17-7.47c2-2.71,4.44-5.09,6.74-7.57
			c1.65-1.79,3.8-2.69,6.11-1.95c2.09,0.66,2.32-0.21,2.3-1.84c-0.04-4.29-0.06-8.57-0.07-12.86c-0.02-6.65-0.03-13.31-0.06-19.96
			c-0.01-2.98-0.02-3.01-2.92-3.93c-11.36-3.62-22.73-7.22-34.09-10.83c-0.64-0.2-1.29-0.41-1.92-0.65
			c-3.03-1.12-3.09-1.17-3.09-4.34c0-22.44,0.01-44.89,0.01-67.33c0-0.34,0-0.68,0.01-1.01c0.13-3.75,0.68-4.17,4.16-3.07
			c21.29,6.78,42.58,13.57,63.87,20.37c2.99,0.96,5.92,2.19,8.98,2.86c1.96,0.43,2.26,1.41,2.23,3.05
			c-0.05,3.27-0.01,6.54-0.02,9.81c-0.02,9.25-0.01,18.5-0.12,27.74c-0.02,1.71,0.32,2.59,2.11,3.16
			c11.87,3.81,23.7,7.78,35.54,11.66c2.27,0.75,2.34,0.69,2.34-1.9c0.02-8.57,0.01-17.14,0.01-25.71
			C322.55,75.28,322.63,75.28,322.71,75.28z M447.6,137.63c0.02,0,0.04,0,0.06,0c0-15.9,0-31.8,0-47.7c0-3.32,0.01-3.33-3.15-4.37
			c-27.42-9-54.85-17.99-82.28-26.99c-11.2-3.68-22.41-7.36-33.61-11.04c-3.4-1.12-3.41-1.13-3.41,2.57c0,4.74,0.02,9.47,0.03,14.21
			c0.03,12.63,0.08,25.26,0.07,37.89c0,1.69,0.44,2.65,2.24,3.15c3.67,1.03,7.25,2.41,10.91,3.5c1.83,0.54,2.39,1.52,2.36,3.4
			c-0.13,7.67-0.09,15.33-0.11,23c-0.01,5.3,0.08,10.6-0.07,15.9c-0.05,1.95,0.66,2.81,2.45,3.34c2.91,0.86,5.73,1.99,8.62,2.94
			c20.28,6.65,40.56,13.3,60.84,19.93c10.89,3.56,21.79,7.08,32.7,10.58c2.21,0.71,2.25,0.63,2.34-1.57
			c0.03-0.79,0.01-1.58,0.01-2.37C447.6,168.53,447.6,153.08,447.6,137.63z M150.21,147.94c-0.23,1.88-0.4,4.24-0.85,6.54
			c-0.52,2.68-0.68,2.71-3.19,1.46c-2.51-1.26-4.98-2.61-7.48-3.88c-1.09-0.55-1.53-0.26-1.58,1.06c-0.16,4.38-0.5,8.75-0.7,13.13
			c-0.16,3.47-0.6,3.88-3.92,3.11c-0.98-0.23-1.97-0.49-2.9-0.88c-8.49-3.55-17.03-7-25.44-10.74c-4.58-2.04-8.27-5.44-11.51-9.24
			c-2.21-2.59-4.11-5.45-4.32-8.96c-0.14-2.23-1.06-1.73-2.27-1.02c-5.36,3.14-8.53,7.84-9.91,13.84
			c-1.27,5.51-0.66,10.97,0.39,16.4c2.68,13.92,9.32,25.95,17.92,37c9.33,11.97,20.98,21.69,31.74,32.27
			c0.29,0.28,0.73,0.41,1.1,0.61c0.06-0.42,0.2-0.85,0.18-1.27c-0.16-3.95,0.11-7.85,1.14-11.69c3.44-12.83,9.75-24.12,18.2-34.27
			c2.44-2.93,5.63-4.85,9.42-5.53c1.96-0.35,3.9-0.02,5.19,1.67c1.22,1.59,0.89,3.41,0.24,5.14c-0.55,1.47-1.27,2.87-1.83,4.33
			c-0.17,0.45-0.25,1.32-0.02,1.49c1.28,0.9,2.61,1.86,4.07,2.32c0.73,0.23,1.86-0.43,2.68-0.91c7.07-4.17,14.12-8.38,21.15-12.62
			c2.39-1.44,2.39-1.52,0.77-3.66c-8.36-11.04-16.65-22.13-25.14-33.05c-4.43-5.7-9.42-10.91-15.4-15.09
			c-3.03-2.11-6.18-3.22-9.77-1.7c-0.55,0.23-1.29,0.95-1.26,1.4c0.07,1.14,0.98,0.71,1.78,0.69c3.91-0.13,7.07,1.19,9.72,4.31
			C150.38,142.51,149.6,145.04,150.21,147.94z M312.25,173.6c0-3.72-0.01-7.45,0-11.17c0.01-3.5-0.03-7,0.1-10.49
			c0.04-0.98,0.63-1.94,0.97-2.92c0.35,1.02,0.89,2.01,1,3.06c0.18,1.67,0.08,3.38,0.07,5.07c-0.01,1.18,0.33,1.45,1.3,0.62
			c4.31-3.69,9.3-5.87,14.93-6.5c1.35-0.15,1.29-0.85,1.1-1.87c-1.09-5.96-2.21-11.91-3.18-17.89c-1.25-7.67-4.66-13.81-11.93-17.27
			c-0.72-0.34-1.79-0.63-2.42-0.34c-4.46,2.09-9.27,2.74-14.04,3.37c-5.55,0.73-11.05,0.12-16.23-2.06
			c-3.85-1.62-6.86-4.02-6.17-8.91c0.19-1.32-0.21-1.84-1.71-1.36c-7.45,2.39-13.71,6.2-17.18,13.62c-2,4.28-3.96,8.59-6.25,12.71
			c-1.23,2.2-1.06,4.01,0.19,5.91c0.8,1.22,1.74,2.34,2.62,3.51c0.94,1.26,1.93,1.21,3.17,0.33c1.36-0.97,2.78-2.04,4.34-2.5
			c1.19-0.35,2.05-0.48,2.26-1.86c0.05-0.31,0.62-0.55,0.95-0.82c0.29,0.42,0.74,0.81,0.82,1.26c0.15,0.88,0.12,1.8,0.12,2.7
			c0.01,7.56,0.1,15.12,0,22.67c-0.07,5.4-0.35,10.8-0.66,16.2c-0.08,1.47,0.6,1.96,1.78,2.38c4.55,1.62,9.08,3.29,13.62,4.96
			c8.74,3.23,17.46,6.5,26.21,9.71c4.21,1.54,4.23,1.5,4.22-2.84C312.25,186.46,312.25,180.03,312.25,173.6z M153.92,241.97
			c1.05-0.15,1.72-0.23,2.39-0.33c8.38-1.34,15.87-4.88,22.78-9.64c7.47-5.14,13.9-11.47,19.93-18.2
			c6.62-7.38,13.06-14.93,19.71-22.28c3.71-4.11,8.48-6.69,13.88-7.77c4.83-0.97,9.66-1.55,14.11-4.06
			c5.53-3.12,10.13-7.09,13.48-12.46c0.68-1.09,0.99-2.44,1.27-3.72c0.09-0.41-0.46-0.95-0.72-1.44c-0.33,0.38-0.69,0.74-1,1.14
			c-1.99,2.56-3.95,5.15-5.98,7.68c-0.2,0.25-0.77,0.21-1.16,0.31c-0.05-0.4-0.28-0.92-0.11-1.19c0.83-1.33,1.8-2.57,2.64-3.9
			c1.13-1.79,2.29-3.58,3.19-5.48c0.27-0.58-0.28-1.55-0.46-2.34c-0.58,0.4-1.22,0.74-1.72,1.21c-2.28,2.17-4.49,4.41-6.8,6.54
			c-0.37,0.34-1.14,0.26-1.72,0.38c0.15-0.5,0.19-1.07,0.47-1.47c0.58-0.83,1.26-1.59,1.94-2.34c1.52-1.67,3.2-3.2,4.54-5
			c0.64-0.86,1.25-2.71,0.83-3.2c-1.21-1.4-2.03,0.4-2.98,0.98c-0.19,0.12-0.33,0.3-0.51,0.44c-2.16,1.62-4.28,3.31-6.52,4.81
			c-0.83,0.56-1.97,0.66-2.97,0.96c0.51-0.86,0.86-1.91,1.57-2.55c1.75-1.58,3.68-2.97,5.51-4.46c4.19-3.41,8.39-6.82,12.52-10.3
			c0.84-0.7,1.42-1.73,2.04-2.65c0.13-0.2,0.05-0.7-0.12-0.88c-0.15-0.16-0.64-0.17-0.86-0.04c-0.77,0.46-1.5,1-2.23,1.52
			c-7.06,5.03-14,10.24-21.22,15.03c-7.95,5.27-15.07,11.76-23.61,16.17c-1,0.52-1.96,1.11-2.92,1.69
			c-17.88,10.65-35.75,21.31-53.63,31.96c-0.96,0.57-1.93,1.18-2.97,1.59c-0.4,0.16-1.01-0.2-1.52-0.33
			c0.15-0.49,0.16-1.19,0.49-1.44c1.71-1.26,3.5-2.43,5.29-3.59c0.97-0.63,0.9-0.88-0.11-1.5c-3.64-2.24-7.29-4.48-10.72-7.03
			c-1.55-1.15-2.2-0.77-3.17,0.48c-7.21,9.36-12.63,19.6-15.95,31c-1.06,3.65-0.14,6.03,2.8,8.04c4.32,2.95,9.09,4.9,14.08,6.32
			C149.85,241.24,152.07,241.58,153.92,241.97z M206,61.78c0.03,0,0.06,0,0.1,0c0,10.6-0.01,21.2,0,31.8c0,3.07,0.02,3.07,2.81,3.97
			c6.32,2.03,12.63,4.08,18.94,6.11c5.14,1.65,10.29,3.24,15.41,4.95c1.66,0.55,2.19,0.21,2.11-1.58c-0.13-2.7-0.2-5.42,0.01-8.11
			c0.17-2.16-0.87-2.8-2.68-2.95c-0.67-0.06-1.36-0.04-2.02-0.15c-6.45-1.06-12.46-3.19-17.13-7.95c-1.24-1.27-2.46-3.23-2.51-4.9
			c-0.24-9.13-0.5-18.29,0.06-27.39c0.28-4.58,0.27-6.49,6.53-7.36c9.62-1.33,18.24,1.39,25.78,7.45c0.92,0.74,1.65,1.91,2.05,3.03
			c0.59,1.64,0.31,4.4,1.29,4.88c1.43,0.71,3.66-0.18,5.54-0.37c0.22-0.02,0.45,0.01,0.68,0.03c6.07,0.44,11.94,6.72,8.41,13.89
			c-1.12,2.28-2.86,4.28-4.5,6.26c-0.97,1.18-1.23,1.71,0.5,2.23c3.44,1.04,6.82,2.26,10.24,3.34c2.09,0.66,2.17,0.62,2.17-1.61
			c0-11.73-0.08-23.45-0.02-35.18c0.01-1.83-0.74-2.56-2.34-3.05c-22.94-7.11-45.87-14.27-68.81-21.4c-2.58-0.8-2.62-0.76-2.62,1.91
			C206,40.35,206,51.06,206,61.78z M337.94,158.73c0.03,0,0.05,0,0.08,0c0-14.78-0.04-29.55,0.05-44.33
			c0.01-2.03-0.58-2.99-2.53-3.59c-7.4-2.29-14.76-4.72-22.13-7.14c-20.82-6.83-41.63-13.69-62.44-20.53
			c-2.89-0.95-2.88-0.94-2.88,1.69c0,19.51-0.02,39.03,0,58.54c0,1.39,0.28,2.78,0.42,4.17c1.15-0.67,2.33-1.29,3.43-2.03
			c2.63-1.78,2.49-1.71,0.76-4.2c-1.2-1.72-2.12-3.68-2.9-5.64c-0.33-0.83-0.25-2.06,0.12-2.89c2.66-5.95,4.91-12.16,8.29-17.67
			c5.76-9.39,14.59-13.9,25.65-12.55c11.07,1.35,21.78,4.43,32.08,8.78c8.18,3.45,13.22,9.5,14.69,18.36
			c1.01,6.09,1.87,12.21,3.07,18.27c0.85,4.29,0,8.01-2.57,11.45c-3.86,5.17-8.78,9.02-14.72,11.5c-1.31,0.54-2.05,1.03-2.04,2.57
			c0.06,7.56,0.04,15.12,0.01,22.67c-0.01,1.15,0.29,1.94,1.43,2.35c6.77,2.42,13.54,4.85,20.3,7.31c1.41,0.51,1.85-0.09,1.82-1.4
			c-0.02-0.79,0.01-1.58,0.01-2.37C337.94,187.6,337.94,173.17,337.94,158.73z M132.55,132.28c1.24,0,2.49,0.1,3.72-0.02
			c4.63-0.46,7.49-2.63,8.09-6.31c0.4-2.43,0.59-4.91,0.71-7.38c0.16-3.38,0.09-6.77,0.24-10.14c0.13-2.83,1.15-5.24,3.74-6.78
			c1.25-0.75,2.4-1.68,3.64-2.45c1.21-0.75,1.1-1.34,0.13-2.28c-2.84-2.73-5.56-5.59-8.41-8.31c-0.44-0.42-1.44-0.71-1.94-0.5
			c-0.4,0.17-0.71,1.25-0.59,1.83c0.75,3.73-0.81,6.51-3.81,8.32c-2.16,1.3-4.66,2.33-7.13,2.78c-4.52,0.81-9.45-3.04-10.15-7.46
			c-0.16-0.97,0.05-2.44-0.5-2.81c-0.79-0.54-2.12-0.29-3.22-0.35c-0.56-0.03-1.13,0.06-1.69-0.01c-1.91-0.24-3.02,0.56-4.04,2.24
			c-1.38,2.29-3.2,4.32-4.89,6.42c-1.08,1.34-2.1,1.5-3.66,0.28c-2.34-1.82-5.05-1.24-6.75,1.19c-1.41,2.01-1.91,4.24-1.29,6.73
			c0.9,3.6,3.35,5.79,6.53,7.26c1.82,0.84,2.72,1.95,2.81,4.09c0.23,5.84,0.77,11.67,1.09,17.52c0.08,1.45,0.15,2.52,1.85,3.09
			c9.16,3.03,18.2,6.44,27.45,9.11c2.93,0.85,5.69,1.8,8.36,3.16c1.39,0.71,2.75,1.46,4.12,2.2c0.25-1.54,0.57-3.07,0.72-4.61
			c0.55-5.68-2.73-10.32-7.86-11.2c-2.34-0.4-2.83,0.08-2.52,2.43c0.18,1.34,0.42,2.68,0.4,4.02c-0.02,1.15-0.37,2.3-0.58,3.44
			c-1.86-0.46-1.39-2.03-1.5-3.27c-0.17-2.04-0.84-3.39-3.02-4.28c-6.13-2.5-12.13-5.34-18.16-8.09c-0.9-0.41-1.72-1.03-2.52-1.63
			c-0.21-0.16-0.39-0.77-0.29-0.86c0.28-0.26,0.7-0.46,1.08-0.5c0.3-0.03,0.62,0.23,0.94,0.31
			C119.86,130.98,126.11,132.29,132.55,132.28z M92.31,106.06c-0.25-2.99,0.46-5.9,2.9-8.09c1.91-1.72,4.13-2.7,6.79-1.68
			c0.98,0.38,2.14,1.21,2.93,0.95c0.92-0.3,1.55-1.55,2.24-2.43c0.55-0.71,1.02-1.48,1.51-2.24c0.52-0.8,0.7-1.59-0.64-1.47
			c-4.96,0.45-10.26-0.28-14.12,4.04c-0.22,0.25-0.51,0.52-0.81,0.58c-0.48,0.09-1,0.01-1.5,0c0.1-0.41,0.08-0.9,0.31-1.22
			c1.53-2.18,3.47-3.93,6.11-4.51c3.17-0.69,6.41-1.59,9.6-1.53c2.91,0.05,3.99-1.21,4.73-3.55c1.12-3.53,2.25-7.06,3.52-10.53
			c0.29-0.79,1.18-1.37,1.79-2.05c0.38,0.74,0.85,1.45,1.1,2.23c0.34,1.06,0.37,2.23,0.77,3.26c0.94,2.41,2.29,3.02,4.44,1.66
			c1.87-1.18,3.67-2.64,5.09-4.32c1.8-2.14,3.12-4.68,4.76-6.96c0.47-0.65,1.41-1.45,2.03-1.37c0.63,0.08,1.35,1.07,1.64,1.82
			c0.7,1.77,1.14,3.64,1.75,5.44c0.37,1.11,0.91,1.32,1.86,0.36c4.16-4.15,5.66-9.4,5.87-15c0.07-2-0.74-4.2-1.68-6.04
			c-1.25-2.43-3.18-2.85-5.73-1.72c-1.44,0.64-2.79,1.46-4.23,2.11c-1.34,0.61-2.84,0.7-3.56-0.76c-1.04-2.1-2.81-2.23-4.57-1.86
			c-1.82,0.38-3.79,0.93-5.23,2.02c-2.86,2.16-5.38,4.77-8.09,7.14c-0.73,0.63-1.63,1.51-2.46,1.52
			c-5.63,0.04-10.39,2.51-15.04,5.21c-8.71,5.05-12.09,12.44-10.49,22.5c0.32,2,0.37,3.83-0.61,5.54c-1.38,2.42-1.23,4.84,0.11,7.05
			c1.21,1.98,2.79,3.74,4.37,5.46c0.64,0.7,1.69,1.01,2.56,1.5C92.31,108.16,92.31,107.21,92.31,106.06z M254.03,72.41
			c0-2.14-0.04-4.28,0.02-6.42c0.03-1.23-0.29-1.51-1.55-1.15c-1.92,0.54-3.92,1.14-5.89,1.14c-7.83,0.03-15.08-2-21.48-6.69
			c-0.52-0.38-1.13-0.65-1.7-0.97c-0.13,0.6-0.38,1.21-0.38,1.81c0,7.32,0.08,14.64,0.03,21.96c-0.01,2.26,0.92,3.75,2.71,5.05
			c5.04,3.67,10.74,5.53,16.81,6.42c2.35,0.35,2.7,0.02,2.73-2.46c0.04-3.38-0.05-6.76-0.01-10.14c0.03-2.06,0.47-2.34,2.45-1.77
			c1.29,0.37,2.56,0.84,3.85,1.23c2.21,0.65,2.33,0.6,2.39-1.59C254.08,76.69,254.03,74.55,254.03,72.41z M90.46,138.42
			c0.78,2.06,1.24,4.31,2.39,6.13c3.2,5.06,7.62,8.91,13.11,11.34c6.88,3.05,13.84,5.93,20.8,8.81c2.17,0.9,4.48,1.47,6.68,2.31
			c1.33,0.51,1.5,0.04,1.48-1.16c-0.08-3.91-0.21-7.83-0.03-11.73c0.15-3.09,0.2-3.28-2.86-4.11c-9.13-2.47-17.93-5.82-26.57-9.64
			c-2.23-0.99-3.02-2.48-2.98-4.71c0.03-1.58-0.07-3.16,0.02-4.74c0.08-1.49-0.63-1.92-1.99-2.04
			C95.11,128.4,91,132.39,90.46,138.42z M246.14,63.87c1.13-0.18,2.47-0.33,3.78-0.64c1.41-0.33,3.23-0.67,3.31-2.33
			c0.05-1.12-0.8-2.63-1.73-3.37c-6.7-5.4-14.51-7.39-22.98-6.75c-1.77,0.14-4.2,0.43-4.69,2.61c-0.49,2.19,1.59,3.36,3.1,4.42
			C232.61,61.81,239.16,63.22,246.14,63.87z M296.95,114.75c3.35-0.56,7.88-1.32,12.41-2.11c0.35-0.06,0.65-0.38,0.98-0.57
			c-0.34-0.23-0.66-0.59-1.04-0.68c-8.8-2.26-17.6-4.53-26.42-6.69c-2.01-0.49-2.94,0.43-2.94,2.5c0,2.34,1.52,3.68,3.37,4.67
			C287.17,113.95,291.42,114.4,296.95,114.75z M140.19,86.43c0.61-0.24,1.41-0.31,1.55-0.66c0.2-0.48,0.03-1.22-0.21-1.74
			c-1.84-3.95-3.74-7.87-5.64-11.8c-0.17-0.35-0.42-0.66-0.63-0.99c-0.27,0.35-0.59,0.68-0.82,1.05c-1.94,3.19-4.2,6.1-7.29,8.28
			c-3.83,2.7-5.97,2.56-9.4-0.67c-0.43-0.4-0.71-0.86-1.05,0.13c-0.79,2.33-1.73,4.61-2.5,6.94c-0.11,0.32,0.38,1.21,0.56,1.2
			c2.72-0.11,5.61,0.76,7.96-1.54c4.68-4.58,9.94-5.01,15.47-1.4C138.84,85.67,139.52,86.03,140.19,86.43z M139.8,91.7
			c-0.2-0.6-0.43-1.34-0.7-2.06c-1.38-3.72-5.91-5.21-10.25-4.09c-3.26,0.84-5.76,3.5-5.88,6.5c-0.11,2.88,2.36,5.85,5.6,6.72
			c3.8,1.01,9.47-1.9,10.84-5.58C139.57,92.76,139.64,92.32,139.8,91.7z M264.68,155.9c0.05,0,0.11,0,0.16,0
			c0-1.58,0.06-3.15-0.03-4.72c-0.03-0.6-0.22-1.39-0.63-1.74c-1.74-1.46-6.51,0.14-7.09,2.31c-0.05,0.19-0.02,0.44,0.06,0.63
			c1.04,2.6,2.18,5.18,3.94,7.38c3.03,3.78,3.28,5.44,0.57,9.39c-1.45,2.12-3.2,4.04-4.91,5.97c-0.78,0.88-1.1,1.4,0.3,1.86
			c1.91,0.64,3.8,1.34,5.69,2.06c1.25,0.48,1.51-0.04,1.52-1.2C264.37,170.51,264.53,163.2,264.68,155.9z M314.4,164.97
			c0,0.86-0.02,1.42,0,1.98c0.1,2.09,0.21,2.27,2.09,1.15c2.97-1.77,5.98-3.56,8.58-5.81c2.16-1.87,3.8-4.37,5.59-6.65
			c1.01-1.29,0.4-1.81-1.04-1.62c-0.77,0.1-1.6,0.17-2.27,0.51c-3.47,1.76-6.94,3.54-10.33,5.45
			C315.04,161.1,313.79,162.77,314.4,164.97z M256.27,76.3c0.01,0,0.01,0,0.02,0c0,1.46-0.09,2.93,0.02,4.39
			c0.13,1.67,1.88,2.52,3.06,1.34c1.97-1.97,3.86-4.09,5.43-6.39c1.35-1.97,1.08-3.66-0.26-4.91c-1.75-1.63-3.78-1.57-5.97-0.96
			c-2.1,0.58-2.46,1.98-2.31,3.83C256.33,74.5,256.27,75.4,256.27,76.3z M269.84,73.25c-0.07-4.73-4.8-8.67-8.79-7.82
			c-0.26,0.06-0.46,0.37-0.69,0.57c0.2,0.22,0.37,0.53,0.62,0.63c0.62,0.26,1.28,0.42,1.92,0.63c4.86,1.61,6.38,5.31,3.78,9.71
			c-1.13,1.91-2.75,3.52-4.11,5.29c-0.29,0.37-0.39,0.89-0.58,1.33c0.49-0.08,1.14,0.01,1.43-0.27c1.43-1.42,2.85-2.87,4.12-4.43
			C268.96,77.13,269.96,75.12,269.84,73.25z M238.03,155.28c0.49-0.35,1.07-0.69,1.56-1.12c0.74-0.65,1.42-1.36,2.12-2.04
			c-0.99,0.35-2.02,0.63-2.97,1.08c-0.47,0.22-0.8,0.75-1.15,1.17c-0.12,0.15-0.22,0.42-0.17,0.58
			C237.47,155.09,237.75,155.14,238.03,155.28z M265.15,146.06c-0.35-0.45-0.56-0.72-0.77-0.98c-0.33,0.39-0.71,0.76-0.96,1.2
			c-0.05,0.08,0.47,0.67,0.56,0.63C264.35,146.75,264.66,146.44,265.15,146.06z"/>
		<path class="st2" d="M447.6,137.63c0,15.45,0,30.9,0,46.35c0,0.79,0.03,1.58-0.01,2.37c-0.09,2.21-0.13,2.28-2.34,1.57
			c-10.91-3.5-21.81-7.03-32.7-10.58c-20.29-6.63-40.57-13.27-60.84-19.93c-2.88-0.95-5.71-2.07-8.62-2.94
			c-1.79-0.53-2.5-1.4-2.45-3.34c0.14-5.3,0.05-10.6,0.07-15.9c0.02-7.67-0.01-15.34,0.11-23c0.03-1.88-0.53-2.86-2.36-3.4
			c-3.66-1.08-7.23-2.47-10.91-3.5c-1.8-0.5-2.24-1.46-2.24-3.15c0.01-12.63-0.04-25.26-0.07-37.89c-0.01-4.74-0.03-9.47-0.03-14.21
			c0-3.7,0-3.69,3.41-2.57c11.2,3.69,22.4,7.37,33.61,11.04c27.42,9,54.85,17.99,82.28,26.99c3.16,1.04,3.15,1.05,3.15,4.37
			c0,15.9,0,31.8,0,47.7C447.65,137.63,447.62,137.63,447.6,137.63z M364.53,84.77c-6.44-0.36-12.35,1.76-14.5,10.66
			c-0.86,3.56-2.24,7.14-4.1,10.29c-2.36,3.99-3.12,8.17-3.09,12.61c0.04,5.8,2.46,10.3,7.84,12.77c4.6,2.11,9.2,4.39,14.03,5.79
			c15.02,4.37,30.13,8.46,45.26,12.45c3.33,0.88,6.89,1.22,10.35,1.22c4.17,0,7.78-1.77,9.67-5.7c1.99-4.13,1.94-8.28-1.23-11.99
			c-0.8-0.94-1.58-1.93-2.48-2.77c-5.62-5.21-10.97-10.78-16.98-15.48c-7.8-6.1-13.1-13.85-17.29-22.6
			c-0.87-1.81-1.93-3.59-3.17-5.16c-2.41-3.04-5.99-4.53-9.33-2.9c-4.29,2.1-8.31,1.89-12.62,0.96
			C366.12,84.76,365.32,84.81,364.53,84.77z M407.26,83.9c-0.04,1.95,1.3,3.47,3.2,3.62c1.8,0.14,3.6-1.37,3.72-3.1
			c0.12-1.75-1.65-3.46-3.7-3.58C408.73,80.73,407.3,82.09,407.26,83.9z M437.48,88.88c-1.8-0.05-3.11,1.3-3.09,3.18
			c0.03,1.94,1.43,3.43,3.31,3.53c1.73,0.09,3.56-1.56,3.61-3.26C441.37,90.6,439.52,88.93,437.48,88.88z M420.54,87.68
			c-0.07,2.09,1.22,3.49,3.23,3.51c1.84,0.02,3.58-1.58,3.62-3.33c0.03-1.61-1.75-3.25-3.64-3.34
			C421.95,84.44,420.6,85.77,420.54,87.68z"/>
		<path class="st7" d="M150.21,147.94c-0.62-2.9,0.17-5.43-1.79-7.74c-2.65-3.12-5.81-4.44-9.72-4.31c-0.8,0.03-1.71,0.45-1.78-0.69
			c-0.03-0.45,0.72-1.16,1.26-1.4c3.59-1.52,6.74-0.42,9.77,1.7c5.98,4.18,10.97,9.39,15.4,15.09c8.5,10.93,16.78,22.02,25.14,33.05
			c1.62,2.14,1.62,2.22-0.77,3.66c-7.03,4.24-14.08,8.45-21.15,12.62c-0.82,0.48-1.95,1.14-2.68,0.91
			c-1.46-0.46-2.79-1.43-4.07-2.32c-0.24-0.16-0.16-1.03,0.02-1.49c0.56-1.46,1.28-2.86,1.83-4.33c0.64-1.73,0.98-3.55-0.24-5.14
			c-1.3-1.7-3.23-2.03-5.19-1.67c-3.79,0.68-6.97,2.59-9.42,5.53c-8.45,10.14-14.76,21.44-18.2,34.27
			c-1.03,3.85-1.3,7.74-1.14,11.69c0.02,0.42-0.12,0.84-0.18,1.27c-0.37-0.2-0.81-0.33-1.1-0.61
			c-10.77-10.57-22.41-20.29-31.74-32.27c-8.61-11.04-15.24-23.08-17.92-37c-1.05-5.43-1.66-10.89-0.39-16.4
			c1.38-6.01,4.55-10.7,9.91-13.84c1.22-0.71,2.14-1.21,2.27,1.02c0.22,3.51,2.11,6.37,4.32,8.96c3.24,3.8,6.93,7.2,11.51,9.24
			c8.41,3.74,16.94,7.19,25.44,10.74c0.93,0.39,1.91,0.65,2.9,0.88c3.32,0.77,3.77,0.36,3.92-3.11c0.2-4.38,0.53-8.75,0.7-13.13
			c0.05-1.33,0.5-1.61,1.58-1.06c2.5,1.27,4.97,2.63,7.48,3.88c2.51,1.25,2.68,1.22,3.19-1.46
			C149.81,152.18,149.98,149.82,150.21,147.94z"/>
		<path class="st2" d="M312.25,173.6c0,6.43,0,12.86,0,19.29c0,4.34-0.02,4.39-4.22,2.84c-8.75-3.21-17.47-6.48-26.21-9.71
			c-4.53-1.67-9.07-3.34-13.62-4.96c-1.18-0.42-1.86-0.91-1.78-2.38c0.31-5.39,0.58-10.8,0.66-16.2c0.1-7.56,0.02-15.12,0-22.67
			c0-0.9,0.03-1.82-0.12-2.7c-0.08-0.46-0.54-0.84-0.82-1.26c-0.33,0.27-0.9,0.51-0.95,0.82c-0.21,1.38-1.07,1.52-2.26,1.86
			c-1.56,0.45-2.97,1.53-4.34,2.5c-1.24,0.88-2.23,0.92-3.17-0.33c-0.87-1.17-1.82-2.29-2.62-3.51c-1.24-1.9-1.41-3.71-0.19-5.91
			c2.3-4.12,4.25-8.43,6.25-12.71c3.47-7.42,9.73-11.23,17.18-13.62c1.5-0.48,1.9,0.04,1.71,1.36c-0.69,4.88,2.32,7.29,6.17,8.91
			c5.19,2.18,10.68,2.79,16.23,2.06c4.78-0.63,9.58-1.28,14.04-3.37c0.63-0.29,1.7,0,2.42,0.34c7.27,3.46,10.68,9.6,11.93,17.27
			c0.98,5.98,2.09,11.93,3.18,17.89c0.19,1.02,0.25,1.72-1.1,1.87c-5.64,0.63-10.62,2.82-14.93,6.5c-0.97,0.83-1.31,0.56-1.3-0.62
			c0.01-1.69,0.1-3.4-0.07-5.07c-0.11-1.04-0.65-2.04-1-3.06c-0.34,0.97-0.93,1.93-0.97,2.92c-0.14,3.49-0.09,6.99-0.1,10.49
			C312.24,166.15,312.25,169.87,312.25,173.6z"/>
		<path class="st2" d="M153.92,241.97c-1.85-0.39-4.07-0.73-6.22-1.34c-4.99-1.42-9.76-3.37-14.08-6.32
			c-2.94-2.01-3.87-4.39-2.8-8.04c3.32-11.39,8.74-21.64,15.95-31c0.97-1.26,1.61-1.64,3.17-0.48c3.43,2.54,7.08,4.78,10.72,7.03
			c1.01,0.62,1.08,0.88,0.11,1.5c-1.79,1.16-3.58,2.33-5.29,3.59c-0.33,0.25-0.34,0.95-0.49,1.44c0.51,0.12,1.12,0.48,1.52,0.33
			c1.04-0.41,2-1.01,2.97-1.59c17.88-10.65,35.76-21.31,53.63-31.96c0.97-0.58,1.92-1.17,2.92-1.69
			c8.54-4.41,15.66-10.9,23.61-16.17c7.22-4.79,14.16-10.01,21.22-15.03c0.73-0.52,1.46-1.06,2.23-1.52
			c0.22-0.13,0.71-0.11,0.86,0.04c0.17,0.18,0.25,0.69,0.12,0.88c-0.63,0.92-1.21,1.95-2.04,2.65c-4.13,3.48-8.33,6.89-12.52,10.3
			c-1.83,1.49-3.76,2.88-5.51,4.46c-0.71,0.64-1.06,1.69-1.57,2.55c1-0.31,2.14-0.41,2.97-0.96c2.24-1.5,4.36-3.19,6.52-4.81
			c0.18-0.13,0.32-0.32,0.51-0.44c0.95-0.58,1.77-2.37,2.98-0.98c0.42,0.49-0.19,2.34-0.83,3.2c-1.34,1.8-3.02,3.34-4.54,5
			c-0.68,0.75-1.36,1.51-1.94,2.34c-0.28,0.4-0.32,0.97-0.47,1.47c0.58-0.12,1.35-0.03,1.72-0.38c2.31-2.13,4.53-4.37,6.8-6.54
			c0.5-0.48,1.14-0.81,1.72-1.21c0.18,0.79,0.73,1.76,0.46,2.34c-0.9,1.91-2.06,3.69-3.19,5.48c-0.84,1.33-1.82,2.57-2.64,3.9
			c-0.17,0.27,0.06,0.79,0.11,1.19c0.4-0.1,0.96-0.06,1.16-0.31c2.03-2.53,3.99-5.12,5.98-7.68c0.31-0.4,0.66-0.76,1-1.14
			c0.26,0.48,0.81,1.03,0.72,1.44c-0.28,1.28-0.59,2.63-1.27,3.72c-3.35,5.37-7.95,9.34-13.48,12.46
			c-4.45,2.51-9.28,3.09-14.11,4.06c-5.4,1.08-10.17,3.66-13.88,7.77c-6.65,7.36-13.09,14.9-19.71,22.28
			c-6.03,6.72-12.46,13.06-19.93,18.2c-6.91,4.76-14.4,8.29-22.78,9.64C155.64,241.74,154.97,241.82,153.92,241.97z"/>
		<path class="st2" d="M206,61.78c0-10.71-0.01-21.43,0-32.14c0-2.67,0.04-2.71,2.62-1.91c22.94,7.13,45.87,14.29,68.81,21.4
			c1.6,0.5,2.35,1.22,2.34,3.05c-0.06,11.73,0.02,23.45,0.02,35.18c0,2.23-0.07,2.28-2.17,1.61c-3.42-1.09-6.81-2.31-10.24-3.34
			c-1.73-0.52-1.47-1.06-0.5-2.23c1.64-1.98,3.38-3.99,4.5-6.26c3.53-7.17-2.35-13.45-8.41-13.89c-0.22-0.02-0.45-0.05-0.68-0.03
			c-1.89,0.2-4.11,1.08-5.54,0.37c-0.98-0.49-0.71-3.25-1.29-4.88c-0.4-1.12-1.13-2.29-2.05-3.03c-7.54-6.06-16.16-8.78-25.78-7.45
			c-6.26,0.86-6.25,2.77-6.53,7.36c-0.56,9.1-0.3,18.26-0.06,27.39c0.04,1.67,1.26,3.63,2.51,4.9c4.67,4.76,10.68,6.89,17.13,7.95
			c0.66,0.11,1.35,0.1,2.02,0.15c1.8,0.15,2.85,0.79,2.68,2.95c-0.21,2.69-0.14,5.41-0.01,8.11c0.08,1.78-0.45,2.13-2.11,1.58
			c-5.12-1.71-10.27-3.3-15.41-4.95c-6.32-2.03-12.63-4.08-18.94-6.11c-2.79-0.9-2.81-0.89-2.81-3.97c-0.01-10.6,0-21.2,0-31.8
			C206.07,61.78,206.03,61.78,206,61.78z"/>
		<path class="st9" d="M337.94,158.73c0,14.44,0,28.88,0,43.31c0,0.79-0.02,1.58-0.01,2.37c0.03,1.31-0.41,1.91-1.82,1.4
			c-6.76-2.45-13.53-4.88-20.3-7.31c-1.14-0.41-1.44-1.2-1.43-2.35c0.04-7.56,0.05-15.12-0.01-22.67c-0.01-1.54,0.73-2.03,2.04-2.57
			c5.94-2.48,10.85-6.33,14.72-11.5c2.57-3.43,3.41-7.16,2.57-11.45c-1.19-6.05-2.06-12.17-3.07-18.27
			c-1.47-8.86-6.51-14.91-14.69-18.36c-10.3-4.34-21-7.43-32.08-8.78c-11.06-1.35-19.89,3.16-25.65,12.55
			c-3.38,5.51-5.64,11.73-8.29,17.67c-0.37,0.83-0.45,2.06-0.12,2.89c0.78,1.96,1.7,3.91,2.9,5.64c1.73,2.49,1.87,2.43-0.76,4.2
			c-1.1,0.74-2.29,1.36-3.43,2.03c-0.15-1.39-0.42-2.78-0.42-4.17c-0.02-19.51,0-39.03,0-58.54c0-2.63-0.01-2.65,2.88-1.69
			c20.81,6.84,41.62,13.69,62.44,20.53c7.36,2.42,14.73,4.85,22.13,7.14c1.95,0.6,2.55,1.56,2.53,3.59
			c-0.09,14.78-0.05,29.55-0.05,44.33C337.99,158.73,337.97,158.73,337.94,158.73z"/>
		<path class="st1" d="M147.68,149.06c-0.16,1.54-0.47,3.07-0.72,4.61c-1.37-0.74-2.74-1.49-4.12-2.2
			c-2.14-1.09-4.34-1.92-6.64-2.64l0.11-1.45c0.2,0.16,0.47,0.27,0.82,0.36c0.2-1.15,0.55-2.28,0.58-3.45
			c0.02-1.32-0.24-2.68-0.41-4.01c-0.3-2.34,0.19-2.83,2.53-2.42C144.95,138.73,148.24,143.37,147.68,149.06z"/>
		<path class="st2" d="M92.31,106.06c0,1.14,0,2.09,0,3.04c-0.86-0.49-1.92-0.8-2.56-1.5c-1.57-1.72-3.16-3.48-4.37-5.46
			c-1.35-2.21-1.49-4.63-0.11-7.05c0.98-1.71,0.93-3.54,0.61-5.54c-1.59-10.07,1.78-17.45,10.49-22.5
			c4.65-2.69,9.41-5.16,15.04-5.21c0.83-0.01,1.73-0.88,2.46-1.52c2.71-2.37,5.23-4.98,8.09-7.14c1.44-1.09,3.41-1.63,5.23-2.02
			c1.76-0.37,3.53-0.25,4.57,1.86c0.72,1.46,2.22,1.37,3.56,0.76c1.43-0.65,2.79-1.47,4.23-2.11c2.55-1.13,4.48-0.72,5.73,1.72
			c0.94,1.84,1.76,4.04,1.68,6.04c-0.21,5.6-1.7,10.85-5.87,15c-0.95,0.95-1.49,0.75-1.86-0.36c-0.61-1.81-1.05-3.67-1.75-5.44
			c-0.3-0.75-1.01-1.74-1.64-1.82c-0.62-0.08-1.56,0.72-2.03,1.37c-1.64,2.28-2.96,4.81-4.76,6.96c-1.41,1.69-3.22,3.15-5.09,4.32
			c-2.15,1.36-3.5,0.75-4.44-1.66c-0.4-1.03-0.43-2.2-0.77-3.26c-0.25-0.78-0.73-1.49-1.1-2.23c-0.61,0.68-1.5,1.25-1.79,2.05
			c-1.27,3.47-2.4,7-3.52,10.53c-0.74,2.34-1.82,3.6-4.73,3.55c-3.19-0.05-6.43,0.84-9.6,1.53c-2.64,0.58-4.58,2.33-6.11,4.51
			c-0.23,0.32-0.21,0.81-0.31,1.22c0.5,0.01,1.02,0.09,1.5,0c0.3-0.06,0.59-0.33,0.81-0.58c3.86-4.32,9.17-3.59,14.12-4.04
			c1.34-0.12,1.16,0.67,0.64,1.47c-0.49,0.75-0.96,1.53-1.51,2.24c-0.69,0.88-1.32,2.13-2.24,2.43c-0.79,0.26-1.95-0.57-2.93-0.95
			c-2.66-1.02-4.87-0.04-6.79,1.68C92.76,100.17,92.06,103.07,92.31,106.06z"/>
		<path class="st2" d="M254.03,72.41c0,2.14,0.05,4.28-0.01,6.42c-0.06,2.18-0.18,2.24-2.39,1.59c-1.29-0.38-2.55-0.86-3.85-1.23
			c-1.99-0.57-2.43-0.28-2.45,1.77c-0.04,3.38,0.04,6.76,0.01,10.14c-0.03,2.48-0.38,2.81-2.73,2.46
			c-6.07-0.89-11.77-2.75-16.81-6.42c-1.79-1.3-2.73-2.79-2.71-5.05c0.05-7.32-0.04-14.64-0.03-21.96c0-0.6,0.25-1.21,0.38-1.81
			c0.57,0.32,1.18,0.59,1.7,0.97c6.4,4.69,13.65,6.71,21.48,6.69c1.97-0.01,3.97-0.6,5.89-1.14c1.26-0.36,1.59-0.08,1.55,1.15
			C253.99,68.13,254.03,70.27,254.03,72.41z"/>
		<path class="st1" d="M90.46,138.42c0.55-6.02,4.66-10.02,10.05-9.55c1.36,0.12,2.07,0.55,1.99,2.04
			c-0.08,1.57,0.01,3.16-0.02,4.74c-0.04,2.24,0.74,3.72,2.98,4.71c8.64,3.83,17.44,7.17,26.57,9.64c3.06,0.83,3.01,1.01,2.86,4.11
			c-0.19,3.9-0.05,7.82,0.03,11.73c0.02,1.2-0.14,1.67-1.48,1.16c-2.2-0.84-4.5-1.41-6.68-2.31c-6.96-2.87-13.92-5.75-20.8-8.81
			c-5.48-2.43-9.91-6.28-13.11-11.34C91.7,142.72,91.23,140.47,90.46,138.42z"/>
		<path class="st2" d="M246.14,63.87c-6.99-0.65-13.54-2.06-19.22-6.05c-1.51-1.06-3.59-2.24-3.1-4.42
			c0.49-2.18,2.92-2.48,4.69-2.61c8.47-0.65,16.28,1.34,22.98,6.75c0.92,0.75,1.78,2.26,1.73,3.37c-0.07,1.66-1.89,2-3.31,2.33
			C248.61,63.54,247.27,63.68,246.14,63.87z"/>
		<path class="st2" d="M296.95,114.75c-5.53-0.36-9.78-0.81-13.64-2.89c-1.85-0.99-3.37-2.33-3.37-4.67c0-2.06,0.93-2.99,2.94-2.5
			c8.83,2.16,17.62,4.43,26.42,6.69c0.38,0.1,0.69,0.45,1.04,0.68c-0.33,0.2-0.63,0.51-0.98,0.57
			C304.83,113.43,300.3,114.19,296.95,114.75z"/>
		<path class="st2" d="M140.19,86.43c-0.67-0.4-1.35-0.76-1.99-1.18c-5.53-3.61-10.79-3.18-15.47,1.4c-2.35,2.3-5.24,1.43-7.96,1.54
			c-0.19,0.01-0.67-0.88-0.56-1.2c0.78-2.33,1.71-4.61,2.5-6.94c0.34-0.99,0.62-0.54,1.05-0.13c3.43,3.23,5.56,3.37,9.4,0.67
			c3.09-2.18,5.35-5.08,7.29-8.28c0.23-0.38,0.54-0.7,0.82-1.05c0.21,0.33,0.47,0.64,0.63,0.99c1.89,3.92,3.79,7.85,5.64,11.8
			c0.24,0.52,0.41,1.26,0.21,1.74C141.6,86.12,140.8,86.2,140.19,86.43z"/>
		<path class="st2" d="M139.8,91.7c-0.16,0.62-0.23,1.07-0.38,1.48c-1.37,3.68-7.04,6.59-10.84,5.58c-3.24-0.86-5.72-3.83-5.6-6.72
			c0.12-3,2.62-5.66,5.88-6.5c4.34-1.12,8.87,0.37,10.25,4.09C139.37,90.35,139.6,91.09,139.8,91.7z M132.08,93.04
			c-1.39-1.11-2.22-2.31-3.13-2.37c-1.23-0.09-1.74,1.24-1.64,2.47c0.09,1.07,0.58,2.18,1.81,1.93
			C130.01,94.88,130.75,93.99,132.08,93.04z"/>
		<path class="st9" d="M264.68,155.9c-0.15,7.31-0.31,14.62-0.42,21.93c-0.02,1.16-0.27,1.68-1.52,1.2
			c-1.88-0.72-3.78-1.42-5.69-2.06c-1.4-0.47-1.08-0.98-0.3-1.86c1.71-1.93,3.46-3.85,4.91-5.97c2.71-3.95,2.46-5.61-0.57-9.39
			c-1.76-2.19-2.89-4.77-3.94-7.38c-0.08-0.19-0.11-0.44-0.06-0.63c0.58-2.17,5.36-3.77,7.09-2.31c0.41,0.35,0.6,1.14,0.63,1.74
			c0.09,1.57,0.03,3.15,0.03,4.72C264.79,155.9,264.73,155.9,264.68,155.9z"/>
		<path class="st2" d="M314.4,164.97c-0.61-2.2,0.65-3.86,2.62-4.98c3.39-1.91,6.86-3.69,10.33-5.45c0.67-0.34,1.5-0.41,2.27-0.51
			c1.44-0.2,2.05,0.33,1.04,1.62c-1.78,2.29-3.42,4.78-5.59,6.65c-2.6,2.24-5.61,4.04-8.58,5.81c-1.88,1.12-1.99,0.94-2.09-1.15
			C314.38,166.39,314.4,165.82,314.4,164.97z"/>
		<path class="st2" d="M256.27,76.3c0-0.9,0.06-1.81-0.01-2.7c-0.16-1.85,0.2-3.25,2.31-3.83c2.2-0.61,4.22-0.68,5.97,0.96
			c1.34,1.25,1.6,2.94,0.26,4.91c-1.57,2.3-3.45,4.41-5.43,6.39c-1.18,1.18-2.93,0.34-3.06-1.34c-0.11-1.45-0.02-2.92-0.02-4.39
			C256.28,76.3,256.27,76.3,256.27,76.3z"/>
		<path class="st2" d="M269.84,73.25c0.12,1.86-0.88,3.87-2.31,5.65c-1.26,1.57-2.68,3.02-4.12,4.43c-0.29,0.28-0.94,0.19-1.43,0.27
			c0.19-0.45,0.3-0.96,0.58-1.33c1.36-1.78,2.98-3.39,4.11-5.29c2.61-4.41,1.08-8.1-3.78-9.71c-0.64-0.21-1.3-0.37-1.92-0.63
			c-0.25-0.11-0.41-0.42-0.62-0.63c0.23-0.2,0.43-0.51,0.69-0.57C265.04,64.58,269.77,68.52,269.84,73.25z"/>
		<path class="st2" d="M238.03,155.28c-0.28-0.14-0.56-0.19-0.61-0.33c-0.06-0.16,0.04-0.43,0.17-0.58
			c0.36-0.42,0.69-0.95,1.15-1.17c0.95-0.45,1.97-0.73,2.97-1.08c-0.7,0.68-1.38,1.4-2.12,2.04
			C239.1,154.59,238.53,154.93,238.03,155.28z"/>
		<path class="st2" d="M265.15,146.06c-0.49,0.38-0.8,0.69-1.17,0.85c-0.09,0.04-0.61-0.55-0.56-0.63c0.26-0.44,0.63-0.81,0.96-1.2
			C264.59,145.35,264.8,145.61,265.15,146.06z"/>
		<path class="st4" d="M364.53,84.77c0.79,0.05,1.6-0.01,2.36,0.15c4.3,0.92,8.32,1.13,12.62-0.96c3.34-1.63,6.92-0.14,9.33,2.9
			c1.25,1.57,2.3,3.35,3.17,5.16c4.19,8.75,9.49,16.49,17.29,22.6c6.02,4.71,11.37,10.27,16.98,15.48c0.9,0.84,1.68,1.82,2.48,2.77
			c3.16,3.71,3.22,7.85,1.23,11.99c-1.89,3.93-5.51,5.7-9.67,5.7c-3.45,0-7.01-0.34-10.35-1.22c-15.13-3.99-30.24-8.07-45.26-12.45
			c-4.83-1.41-9.43-3.68-14.03-5.79c-5.38-2.47-7.81-6.97-7.84-12.77c-0.03-4.44,0.73-8.62,3.09-12.61
			c1.86-3.15,3.24-6.73,4.1-10.29C352.17,86.53,358.09,84.41,364.53,84.77z M420.37,144.52c0.03-0.12,0.07-0.24,0.1-0.37
			c1.34-0.15,2.71-0.18,4.02-0.46c2.78-0.6,4.28-2.13,4.22-4.89c-0.03-1.44-0.72-3.14-1.67-4.23c-2.49-2.89-5.33-5.48-7.96-8.25
			c-1.5-1.59-2.87-2.46-5.27-1.48c-1.4,0.57-3.36,0.27-4.91-0.2c-2.02-0.61-4.02-1.55-5.77-2.72c-10.83-7.29-21.59-14.7-32.4-22.02
			c-0.87-0.59-1.99-1.16-2.98-1.14c-4.64,0.1-8.88-1.09-12.94-3.26c-2.13-1.15-2.25-1.06-2.58,1.52c-0.43,3.42-1.62,6.53-3.42,9.44
			c-0.71,1.15-1.41,2.31-1.97,3.54c-1.83,4.03-1.34,7.59,2.04,10.39c2.21,1.83,4.83,3.52,7.54,4.29c5.49,1.56,11.14,2.74,16.79,3.54
			c10.43,1.48,20.62,3.49,29.8,9.09c2.87,1.75,5.93,3.25,9.04,4.55C414.74,142.98,417.6,143.65,420.37,144.52z M411.64,122.82
			c0.66-0.3,1.25-0.57,1.83-0.85c-0.33-0.54-0.56-1.2-1.01-1.59c-2.39-2.05-4.8-4.08-7.26-6.04c-5.09-4.05-9.19-8.86-12.12-14.72
			c-1.71-3.41-3.74-6.66-5.71-9.93c-1.37-2.28-3.39-3.71-6.15-3.32c-3.53,0.5-6.4,2.08-7.7,5.69c-0.34,0.95-0.5,2.07-1.1,2.81
			c-1.61,1.97-0.47,2.8,1.12,3.86c9.44,6.32,18.81,12.73,28.23,19.06c2.05,1.38,4.19,2.62,6.37,3.79
			C409.2,122.16,410.44,122.41,411.64,122.82z M418.62,148.55c1.87-0.48,3.61-0.9,5.33-1.38c0.27-0.08,0.47-0.42,0.7-0.64
			c-0.35-0.11-0.74-0.38-1.05-0.31c-3.92,0.91-7.63,0.04-11.19-1.47c-3.1-1.31-6.25-2.64-9.12-4.38
			c-9.67-5.88-20.28-8.21-31.38-9.47c-8.56-0.97-17.3-2-24.43-7.78c-0.21-0.17-0.57-0.15-0.86-0.22c0.05,0.31-0.02,0.74,0.16,0.91
			c1.6,1.54,3,3.52,4.91,4.46c4.63,2.28,9.37,4.49,14.29,5.96c13.78,4.11,27.67,7.87,41.54,11.69
			C411.2,146.94,414.95,147.69,418.62,148.55z M364.87,96.4c3.98,0.13,4.88-0.56,5.87-3.91c0.19-0.65,0.38-1.3,0.65-1.92
			c0.66-1.52,0.16-2.44-1.42-2.65c-3.22-0.43-6.49-1.24-9.7-0.25c-1.89,0.58-3.68,1.61-5.38,2.67c-1.15,0.71-1.37,1.78,0.11,2.59
			C358.3,94.73,361.77,95.99,364.87,96.4z"/>
		<path class="st4" d="M407.26,83.9c0.04-1.82,1.47-3.17,3.22-3.07c2.05,0.12,3.82,1.83,3.7,3.58c-0.12,1.74-1.92,3.24-3.72,3.1
			C408.56,87.37,407.22,85.85,407.26,83.9z M410.33,82.73c-0.31,0.77-0.64,1.18-0.54,1.46c0.1,0.29,0.6,0.45,0.92,0.66
			c0.17-0.26,0.51-0.55,0.47-0.77C411.11,83.72,410.79,83.41,410.33,82.73z"/>
		<path class="st4" d="M437.48,88.88c2.04,0.06,3.89,1.72,3.84,3.45c-0.05,1.7-1.88,3.35-3.61,3.26c-1.88-0.1-3.28-1.59-3.31-3.53
			C434.37,90.17,435.68,88.83,437.48,88.88z M437.82,93.37c0.3-0.63,0.68-1.11,0.58-1.27c-0.24-0.37-0.72-0.59-1.1-0.88
			c-0.16,0.36-0.47,0.74-0.43,1.07C436.91,92.59,437.33,92.84,437.82,93.37z"/>
		<path class="st4" d="M420.54,87.68c0.06-1.91,1.41-3.24,3.2-3.15c1.89,0.09,3.67,1.72,3.64,3.34c-0.04,1.75-1.78,3.35-3.62,3.33
			C421.76,91.17,420.47,89.77,420.54,87.68z M423.75,86.62c-0.44,0.46-0.89,0.72-0.92,1.02c-0.03,0.33,0.34,0.69,0.54,1.03
			c0.39-0.27,0.87-0.48,1.12-0.85C424.59,87.69,424.11,87.18,423.75,86.62z"/>
		<path class="st4" d="M123.78,117.81c-4.54-0.01-8.05-1.82-10.42-5.75c-0.26-0.43-0.73-1.07-1.08-1.05
			c-2.44,0.11-1.74-1.01-0.9-2.16c0.47-0.63,1.01-1.23,1.61-1.72c0.67-0.55,1.71-1.52,2.12-1.32c1.3,0.62-0.35,1.52-0.15,2.16
			c0.48,1.54,0.95,3.27,1.99,4.42c1.76,1.96,4.16,2.99,6.91,3.02c1.23,0.01,2.47,0.1,3.69,0.28c0.32,0.05,0.79,0.59,0.77,0.89
			c-0.01,0.3-0.51,0.77-0.85,0.83C126.26,117.62,125.01,117.68,123.78,117.81z"/>
		<path class="st4" d="M132.08,93.04c-1.34,0.95-2.07,1.84-2.96,2.02c-1.23,0.26-1.72-0.86-1.81-1.93c-0.1-1.22,0.41-2.56,1.64-2.47
			C129.86,90.73,130.69,91.93,132.08,93.04z"/>
		<path class="st9" d="M420.37,144.52c-2.77-0.87-5.63-1.54-8.3-2.66c-3.11-1.3-6.17-2.8-9.04-4.55c-9.17-5.6-19.36-7.61-29.8-9.09
			c-5.66-0.8-11.3-1.98-16.79-3.54c-2.71-0.77-5.34-2.46-7.54-4.29c-3.38-2.8-3.88-6.36-2.04-10.39c0.56-1.22,1.26-2.39,1.97-3.54
			c1.8-2.91,2.99-6.03,3.42-9.44c0.33-2.58,0.45-2.67,2.58-1.52c4.05,2.18,8.3,3.36,12.94,3.26c0.99-0.02,2.12,0.55,2.98,1.14
			c10.81,7.32,21.57,14.73,32.4,22.02c1.75,1.18,3.75,2.11,5.77,2.72c1.54,0.47,3.51,0.76,4.91,0.2c2.4-0.97,3.77-0.1,5.27,1.48
			c2.63,2.78,5.46,5.37,7.96,8.25c0.95,1.1,1.63,2.79,1.67,4.23c0.06,2.77-1.44,4.29-4.22,4.89c-1.31,0.28-2.68,0.31-4.02,0.46
			C420.44,144.28,420.41,144.4,420.37,144.52z"/>
		<path class="st2" d="M411.64,122.82c-1.2-0.41-2.44-0.66-3.51-1.23c-2.18-1.17-4.32-2.42-6.37-3.79
			c-9.43-6.33-18.8-12.75-28.23-19.06c-1.59-1.06-2.74-1.89-1.12-3.86c0.61-0.74,0.76-1.86,1.1-2.81c1.3-3.61,4.17-5.2,7.7-5.69
			c2.76-0.39,4.78,1.04,6.15,3.32c1.97,3.27,4,6.52,5.71,9.93c2.93,5.86,7.04,10.67,12.12,14.72c2.46,1.96,4.88,3.99,7.26,6.04
			c0.46,0.39,0.68,1.05,1.01,1.59C412.89,122.25,412.3,122.52,411.64,122.82z"/>
		<path class="st2" d="M418.62,148.55c-3.67-0.86-7.42-1.61-11.1-2.63c-13.87-3.82-27.76-7.58-41.54-11.69
			c-4.92-1.47-9.66-3.69-14.29-5.96c-1.91-0.94-3.31-2.91-4.91-4.46c-0.18-0.17-0.11-0.6-0.16-0.91c0.29,0.07,0.65,0.05,0.86,0.22
			c7.13,5.78,15.86,6.8,24.43,7.78c11.09,1.26,21.71,3.59,31.38,9.47c2.87,1.74,6.01,3.07,9.12,4.38c3.56,1.51,7.27,2.38,11.19,1.47
			c0.31-0.07,0.7,0.2,1.05,0.31c-0.23,0.22-0.43,0.57-0.7,0.64C422.23,147.65,420.49,148.08,418.62,148.55z"/>
		<path class="st2" d="M364.87,96.4c-3.11-0.41-6.57-1.68-9.86-3.47c-1.48-0.81-1.26-1.87-0.11-2.59c1.7-1.05,3.49-2.08,5.38-2.67
			c3.2-0.99,6.47-0.19,9.7,0.25c1.58,0.21,2.09,1.14,1.42,2.65c-0.27,0.62-0.46,1.27-0.65,1.92
			C369.76,95.85,368.85,96.53,364.87,96.4z"/>
		<path class="st2" d="M410.33,82.73c0.45,0.69,0.78,0.99,0.85,1.35c0.04,0.22-0.3,0.51-0.47,0.77c-0.32-0.22-0.82-0.37-0.92-0.66
			C409.69,83.91,410.02,83.49,410.33,82.73z"/>
		<path class="st2" d="M437.82,93.37c-0.49-0.53-0.92-0.78-0.95-1.08c-0.04-0.33,0.27-0.71,0.43-1.07c0.38,0.28,0.86,0.5,1.1,0.88
			C438.5,92.26,438.12,92.74,437.82,93.37z"/>
		<path class="st2" d="M423.75,86.62c0.36,0.55,0.84,1.07,0.75,1.2c-0.25,0.37-0.73,0.58-1.12,0.85c-0.2-0.34-0.57-0.7-0.54-1.03
			C422.86,87.34,423.32,87.08,423.75,86.62z"/>
	</g>
</g>
</svg>
