<?xml version="1.0" encoding="utf-8"?>
<!-- Generator: Adobe Illustrator 28.1.0, SVG Export Plug-In . SVG Version: 6.00 Build 0)  -->
<svg version="1.1" xmlns="http://www.w3.org/2000/svg" xmlns:xlink="http://www.w3.org/1999/xlink" x="0px" y="0px"
	 viewBox="0 0 512.02 279.48" style="enable-background:new 0 0 512.02 279.48;" xml:space="preserve">
<style type="text/css">
	.st0{fill:#F8F8F8;}
	.st1{fill:#B7E4EA;}
	.st2{fill:#FFFFFF;}
	.st3{fill:#1497C7;}
	.st4{fill:#00283D;}
	.st5{fill:#EEFBFE;}
	.st6{fill:#1DAAE0;}
	.st7{fill:#5BD3B1;}
	.st8{fill:none;stroke:#00283D;stroke-miterlimit:10;}
	.st9{fill:#E6E6E6;}
</style>
<g id="Layer_2">
</g>
<g id="Layer_1">
	<g>
		<path class="st4" d="M354.91,250.09c-22.04,0-44.08,0-66.12,0c-3.94,0-4.01-0.02-3.95-4.02c0.07-4.58,0.29-9.17,0.43-13.75
			c0.01-0.29-0.08-0.59-0.12-0.88c-0.33,0.11-0.7,0.17-0.99,0.35c-2.74,1.59-5.38,3.4-8.23,4.77c-3.67,1.77-7.68,1.79-11.68,1.6
			c-1.07-0.05-1.7-0.46-1.7-1.59c0-2.69,0-5.39,0-8.08c0-1.09,0.57-1.61,1.64-1.72c8.65-0.9,14.76-5.82,19.71-12.55
			c0.35-0.48,0.58-1.04,0.93-1.53c0.72-1.03,0.62-1.78-0.59-2.37c-0.89-0.43-1.75-0.97-2.54-1.57c-1.47-1.12-1.61-2.76-0.01-3.29
			c3.31-1.1,3.11-3.47,3.1-6.13c-0.06-13.57-0.02-27.14-0.01-40.7c0-0.8-0.02-1.6,0-2.39c0.02-0.82-0.3-1.2-1.15-1.41
			c-2.27-0.56-4.31-1.66-5.75-3.54c-1.83-2.38-2.78-4.82-1.15-7.93c2.54-4.83,4.77-9.84,7-14.83c0.63-1.41,1.08-3.01,1.18-4.55
			c0.26-4.08,0.35-8.17,0.38-12.26c0.01-1.3,0.4-1.81,1.69-1.77c1.39,0.05,2.79-0.04,4.19-0.04c38.39-0.04,76.79-0.07,115.18-0.13
			c4.69-0.01,9.37-0.17,14.06-0.26c0.7-0.01,1.4-0.06,2.09,0.01c2.45,0.26,2.87,0.7,2.89,3.18c0.03,3.69,0.04,7.38-0.01,11.07
			c-0.02,1.34,0.3,2.49,0.95,3.67c3.34,6,6.53,12.08,9.91,18.05c1.03,1.81,0.93,3.29-0.2,4.91c-2.13,3.07-5.13,4.73-8.75,5.06
			c-1.67,0.15-1.93,0.81-1.92,2.23c0.05,5.09,0.02,10.18,0.02,15.26c0,24.44,0,48.88,0,73.33c0,3.78-0.01,3.8-3.77,3.8
			c-22.24,0.01-44.48,0-66.72,0C354.91,250.1,354.91,250.1,354.91,250.09z M354.97,247.8c0-0.02,0-0.05,0-0.07
			c21.55,0,43.09,0.01,64.64-0.01c3.84,0,3.53,0.54,3.52-3.51c-0.01-28.44-0.04-56.88-0.06-85.32c0-0.4-0.03-0.8,0-1.2
			c0.14-1.35-0.21-2.18-1.76-2.52c-2.16-0.47-4.13-1.54-5.64-3.19c-0.88-0.97-1.43-0.65-2.15,0.11c-1.52,1.62-3.25,3.05-5.51,3.35
			c-1.76,0.24-3.59,0.19-5.37,0.06c-3.16-0.21-6.09-1.08-8.17-3.69c-0.61-0.77-1.06-1.06-1.85-0.21c-2.4,2.55-5.57,3.56-8.88,3.73
			c-4.58,0.24-9.01-0.43-11.99-4.55c-0.8-1.1-1.16-0.93-1.9,0.04c-3.87,5.12-13.3,5.8-17.91,0.24c-0.81-0.98-1.16-0.83-1.99-0.02
			c-4.71,4.68-11.87,4.7-16.52,0.05c-0.62-0.62-0.86-0.57-1.31,0.01c-0.24,0.31-0.48,0.64-0.78,0.91
			c-4.31,3.89-12.15,4.81-16.72,0.71c-0.73-0.66-1.33-1.48-1.98-2.22c-0.66,0.68-1.27,1.44-2.01,2.03c-0.69,0.55-1.47,1.05-2.3,1.36
			c-4.99,1.89-9.92,1.63-13.19-3.38c-0.48-0.74-0.62-0.78-1.04,0.04c-1.01,1.97-2.73,3.08-4.77,3.81c-2.22,0.8-2.21,0.85-2.21,3.38
			c0,13.97,0,27.94,0,41.91c0,0.6,0.01,1.2,0.01,1.8c-0.01,0.88,0.41,1.03,1.12,0.67c1.69-0.86,3.34-1.79,5.06-2.56
			c1.37-0.62,2.06-0.33,2.56,1.05c0.43,1.21,0.64,2.5,0.94,3.75c1.03,4.24,2,8.5,3.15,12.72c0.28,1.04,0.15,1.77-0.53,2.42
			c-0.92,0.88-1.62-0.01-2.36-0.43c-0.35-0.2-0.67-0.43-0.98-0.68c-0.89-0.72-1.46-0.74-1.95,0.51c-1.34,3.38-3.44,6.29-5.95,8.88
			c-0.85,0.88-1.11,1.78-1.09,2.94c0.07,4.89,0.06,9.78,0.1,14.67c0.02,2.41,0.05,2.41,2.52,2.41
			C311.48,247.8,333.23,247.8,354.97,247.8z M355.66,146.51c0-0.02,0-0.04,0-0.07c24.94,0,49.87,0,74.81,0c0.6,0,1.2-0.03,1.8,0
			c1.01,0.05,1.53-0.16,0.93-1.31c-2.88-5.57-5.7-11.17-8.62-16.72c-0.26-0.5-1.03-0.89-1.62-1.01c-0.86-0.17-1.79-0.06-2.68-0.06
			c-26.03,0-52.07,0-78.1-0.01c-17.66,0-35.31,0.02-52.97-0.05c-1.85-0.01-2.79,0.5-3.55,2.27c-2.04,4.75-4.35,9.38-6.6,14.04
			c-1.42,2.94-1.46,2.92,1.79,2.92C305.79,146.51,330.73,146.51,355.66,146.51z M355.37,111.78c-21.73,0-43.46,0-65.19,0
			c-0.8,0-1.61-0.08-2.38,0.05c-0.32,0.05-0.78,0.58-0.78,0.9c0,3.69,0.11,7.38,0.1,11.07c0,1.31,0.48,1.73,1.77,1.68
			c3.88-0.16,7.77-0.31,11.65-0.3c14.45,0.02,28.9,0.13,43.35,0.15c22.63,0.03,45.26,0.04,67.88,0.02c3.19,0,6.38-0.19,9.56-0.22
			c1.25-0.01,1.79-0.45,1.78-1.75c-0.03-2.69-0.03-5.39,0.09-8.08c0.15-3.53,0.21-3.53-3.23-3.53
			C398.44,111.78,376.9,111.78,355.37,111.78z M264.42,232.58c0.01,0,0.03,0,0.04,0c0,0.4,0,0.8,0,1.2c0.01,2.6-0.35,2.65,2.61,2.53
			c4.98-0.19,9.5-1.9,13.63-4.65c4.85-3.23,8.25-7.71,11.01-12.75c0.68-1.25,1.76-2.36,0.81-4.05c-0.39-0.69,0.5-1.32,1.23-0.84
			c1.08,0.7,2.07,1.55,3.11,2.32c0.21,0.15,0.48,0.22,0.72,0.32c-0.03-0.28-0.03-0.56-0.1-0.83c-1.07-4.12-2.14-8.25-3.22-12.37
			c-0.28-1.09-0.79-1.51-1.92-0.87c-1.55,0.88-3.18,1.62-4.76,2.46c-1.13,0.6-2.23,1.24-3.34,1.87c0.93,0.79,1.86,1.59,2.79,2.37
			c0.23,0.19,0.64,0.29,0.71,0.51c0.17,0.59,0.49,1.39,0.24,1.81c-2.95,4.89-6.37,9.38-11.17,12.64c-3.07,2.09-6.37,3.66-10.05,4.28
			c-2.35,0.39-2.36,0.34-2.33,2.57C264.43,231.58,264.42,232.08,264.42,232.58z M322.44,148.36c-2.48,0-4.95-0.01-7.43,0.01
			c-0.34,0-0.68,0.2-1.02,0.31c0.18,0.33,0.32,0.71,0.56,1c3.88,4.57,12.27,4.42,16.02-0.28c0.17-0.22,0.24-0.52,0.36-0.78
			c-0.26-0.09-0.51-0.25-0.77-0.25C327.59,148.35,325.02,148.36,322.44,148.36z M382.61,148.72c0-0.07,0-0.15,0-0.22
			c-2.69,0-5.38-0.01-8.07,0.01c-0.43,0-0.85,0.21-1.28,0.32c0.26,0.41,0.46,0.87,0.78,1.21c1.97,2.14,4.69,2.66,7.34,2.85
			c3.55,0.25,6.91-0.63,9.66-3.11c0.2-0.18,0.29-0.49,0.44-0.74c-0.27-0.11-0.53-0.31-0.8-0.31
			C387.99,148.71,385.3,148.72,382.61,148.72z M404.45,148.78c0-0.01,0-0.03,0-0.04c-2.49,0-4.98-0.02-7.47,0.02
			c-0.46,0.01-0.92,0.25-1.38,0.38c0.23,0.51,0.37,1.11,0.72,1.52c1.23,1.47,3.04,1.89,4.78,2.19c4.05,0.71,7.98,0.61,10.94-2.9
			c0.22-0.26,0.29-0.64,0.43-0.96c-0.29-0.07-0.57-0.2-0.86-0.2C409.23,148.77,406.84,148.78,404.45,148.78z M424.99,148.82
			c0-0.01,0-0.02,0-0.03c-2.49,0-4.97-0.02-7.46,0.02c-0.44,0.01-0.88,0.24-1.31,0.36c0.27,0.4,0.47,0.88,0.82,1.19
			c4.2,3.82,12.05,3.56,16.41-0.54c0.2-0.19,0.29-0.49,0.44-0.74c-0.28-0.09-0.55-0.25-0.83-0.25
			C430.36,148.81,427.68,148.82,424.99,148.82z M285.65,148.36c-2.08,0-4.17-0.01-6.25,0.01c-0.28,0-0.56,0.11-0.84,0.17
			c0.1,0.27,0.15,0.58,0.32,0.8c1.6,2.06,3.75,3.43,6.28,3.59c2.86,0.18,5.46-0.75,7.13-3.41c0.6-0.96,0.27-1.18-0.68-1.17
			C289.62,148.37,287.63,148.36,285.65,148.36z M361.02,148.49c0-0.02,0-0.04,0-0.07c-2.09,0-4.18-0.03-6.27,0.02
			c-0.52,0.01-1.03,0.29-1.55,0.45c0.35,0.45,0.63,0.99,1.07,1.34c3.97,3.16,9.66,3,13.43-0.36c0.27-0.24,0.4-0.63,0.59-0.95
			c-0.33-0.14-0.66-0.4-1-0.41C365.2,148.47,363.11,148.49,361.02,148.49z M303.05,152.54c2.8,0.02,5.21-0.3,6.83-2.58
			c0.26-0.36,0.3-0.88,0.44-1.33c-0.37-0.09-0.74-0.26-1.11-0.26c-3.95-0.02-7.91-0.01-11.86-0.02c-0.77,0-1.16,0.19-0.59,0.99
			C298.37,151.58,300.43,152.92,303.05,152.54z M341.87,148.4c0-0.02,0-0.03,0-0.05c-1.09,0-2.19,0-3.28,0
			c-1.09,0-2.19-0.02-3.28,0.04c-0.86,0.04-1.06,0.58-0.48,1.13c0.7,0.68,1.47,1.43,2.36,1.74c3.54,1.23,7.01,1.17,10.24-1.02
			c0.41-0.28,0.78-0.62,1.14-0.96c0.13-0.12,0.27-0.45,0.22-0.5c-0.17-0.17-0.42-0.36-0.64-0.36
			C346.05,148.39,343.96,148.4,341.87,148.4z"/>
		<path class="st2" d="M354.97,247.8c-21.75,0-43.49,0-65.24,0c-2.48,0-2.5,0-2.52-2.41c-0.04-4.89-0.03-9.78-0.1-14.67
			c-0.02-1.16,0.24-2.06,1.09-2.94c2.51-2.59,4.61-5.5,5.95-8.88c0.49-1.25,1.06-1.23,1.95-0.51c0.31,0.25,0.64,0.48,0.98,0.68
			c0.73,0.42,1.44,1.31,2.36,0.43c0.68-0.65,0.81-1.39,0.53-2.42c-1.15-4.21-2.12-8.47-3.15-12.72c-0.31-1.25-0.51-2.54-0.94-3.75
			c-0.49-1.38-1.18-1.67-2.56-1.05c-1.72,0.78-3.38,1.71-5.06,2.56c-0.71,0.36-1.13,0.21-1.12-0.67c0.01-0.6-0.01-1.2-0.01-1.8
			c0-13.97,0-27.94,0-41.91c0-2.53-0.01-2.58,2.21-3.38c2.04-0.74,3.76-1.84,4.77-3.81c0.42-0.82,0.55-0.78,1.04-0.04
			c3.28,5.01,8.21,5.27,13.19,3.38c0.82-0.31,1.61-0.81,2.3-1.36c0.74-0.59,1.34-1.34,2.01-2.03c0.66,0.74,1.25,1.56,1.98,2.22
			c4.57,4.1,12.41,3.18,16.72-0.71c0.29-0.26,0.53-0.59,0.78-0.91c0.44-0.57,0.69-0.63,1.31-0.01c4.65,4.65,11.81,4.63,16.52-0.05
			c0.82-0.82,1.18-0.96,1.99,0.02c4.61,5.57,14.04,4.89,17.91-0.24c0.73-0.97,1.1-1.15,1.9-0.04c2.98,4.12,7.41,4.79,11.99,4.55
			c3.31-0.18,6.48-1.18,8.88-3.73c0.8-0.85,1.24-0.55,1.85,0.21c2.09,2.6,5.02,3.47,8.17,3.69c1.78,0.12,3.61,0.17,5.37-0.06
			c2.26-0.3,3.99-1.73,5.51-3.35c0.72-0.77,1.27-1.08,2.15-0.11c1.51,1.66,3.48,2.72,5.64,3.19c1.54,0.34,1.89,1.17,1.76,2.52
			c-0.04,0.4-0.01,0.8,0,1.2c0.02,28.44,0.05,56.88,0.06,85.32c0,4.05,0.32,3.51-3.52,3.51c-21.55,0.02-43.09,0.01-64.64,0.01
			C354.97,247.75,354.97,247.77,354.97,247.8z M355.33,218.37c0-0.02,0-0.04,0-0.05c9.67,0,19.35,0.02,29.02-0.01
			c4.15-0.01,5.72-1.63,5.73-5.85c0.02-6.29,0.02-12.57,0-18.86c-0.01-4.89-0.01-9.78-0.11-14.66c-0.06-2.96-1.26-4.12-4.2-4.33
			c-0.7-0.05-1.4-0.02-2.09-0.02c-12.57,0-25.13-0.02-37.7,0.01c-6.98,0.02-13.96,0.07-20.94,0.23c-2.99,0.07-4.37,1.57-4.38,4.5
			c-0.03,11.37-0.03,22.75,0,34.12c0.01,3.17,1.35,4.51,4.75,4.91c0.69,0.08,1.39,0.02,2.09,0.02
			C336.78,218.37,346.05,218.37,355.33,218.37z"/>
		<path class="st1" d="M355.66,146.51c-24.94,0-49.87,0-74.81,0c-3.24,0-3.21,0.01-1.79-2.92c2.25-4.66,4.55-9.29,6.6-14.04
			c0.76-1.77,1.7-2.28,3.55-2.27c17.66,0.07,35.31,0.05,52.97,0.05c26.03,0,52.07,0,78.1,0.01c0.9,0,1.82-0.11,2.68,0.06
			c0.6,0.12,1.36,0.52,1.62,1.01c2.92,5.55,5.74,11.15,8.62,16.72c0.6,1.16,0.08,1.36-0.93,1.31c-0.6-0.03-1.2,0-1.8,0
			c-24.94,0-49.87,0-74.81,0C355.66,146.47,355.66,146.49,355.66,146.51z"/>
		<path class="st2" d="M355.37,111.78c21.53,0,43.06,0,64.6,0c3.43,0,3.38,0,3.23,3.53c-0.12,2.69-0.12,5.38-0.09,8.08
			c0.01,1.3-0.53,1.74-1.78,1.75c-3.19,0.03-6.38,0.21-9.56,0.22c-22.63,0.01-45.26,0.01-67.88-0.02
			c-14.45-0.02-28.9-0.13-43.35-0.15c-3.89-0.01-7.77,0.14-11.65,0.3c-1.29,0.05-1.77-0.38-1.77-1.68c0.01-3.69-0.1-7.38-0.1-11.07
			c0-0.31,0.47-0.84,0.78-0.9c0.77-0.13,1.59-0.05,2.38-0.05C311.91,111.78,333.64,111.78,355.37,111.78z"/>
		<path class="st7" d="M264.42,232.58c0-0.5,0.01-1,0-1.49c-0.03-2.23-0.02-2.18,2.33-2.57c3.69-0.61,6.98-2.19,10.05-4.28
			c4.8-3.26,8.22-7.75,11.17-12.64c0.25-0.41-0.07-1.22-0.24-1.81c-0.06-0.22-0.48-0.32-0.71-0.51c-0.94-0.78-1.86-1.58-2.79-2.37
			c1.11-0.62,2.21-1.27,3.34-1.87c1.58-0.83,3.21-1.58,4.76-2.46c1.14-0.64,1.64-0.21,1.92,0.87c1.07,4.12,2.15,8.24,3.22,12.37
			c0.07,0.27,0.07,0.55,0.1,0.83c-0.24-0.11-0.51-0.17-0.72-0.32c-1.04-0.77-2.03-1.61-3.11-2.32c-0.73-0.48-1.62,0.15-1.23,0.84
			c0.95,1.69-0.13,2.81-0.81,4.05c-2.75,5.04-6.16,9.52-11.01,12.75c-4.13,2.75-8.64,4.46-13.63,4.65c-2.95,0.12-2.6,0.07-2.61-2.53
			c0-0.4,0-0.8,0-1.2C264.45,232.58,264.44,232.58,264.42,232.58z"/>
		<path class="st2" d="M322.44,148.36c2.57,0,5.15-0.01,7.72,0.01c0.26,0,0.51,0.16,0.77,0.25c-0.12,0.26-0.19,0.56-0.36,0.78
			c-3.76,4.7-12.14,4.85-16.02,0.28c-0.24-0.28-0.37-0.66-0.56-1c0.34-0.11,0.68-0.31,1.02-0.31
			C317.49,148.35,319.97,148.36,322.44,148.36z"/>
		<path class="st2" d="M382.61,148.72c2.69,0,5.38-0.01,8.07,0.01c0.27,0,0.53,0.2,0.8,0.31c-0.14,0.25-0.23,0.56-0.44,0.74
			c-2.75,2.48-6.12,3.36-9.66,3.11c-2.65-0.19-5.36-0.71-7.34-2.85c-0.32-0.35-0.52-0.81-0.78-1.21c0.43-0.11,0.85-0.31,1.28-0.32
			c2.69-0.03,5.38-0.01,8.07-0.01C382.61,148.58,382.61,148.65,382.61,148.72z"/>
		<path class="st2" d="M404.45,148.78c2.39,0,4.78-0.01,7.17,0.01c0.29,0,0.57,0.13,0.86,0.2c-0.14,0.32-0.21,0.71-0.43,0.96
			c-2.97,3.51-6.89,3.6-10.94,2.9c-1.74-0.3-3.55-0.72-4.78-2.19c-0.35-0.42-0.49-1.01-0.72-1.52c0.46-0.13,0.92-0.37,1.38-0.38
			c2.49-0.04,4.98-0.02,7.47-0.02C404.45,148.75,404.45,148.76,404.45,148.78z"/>
		<path class="st2" d="M424.99,148.82c2.69,0,5.37-0.01,8.06,0.01c0.28,0,0.55,0.17,0.83,0.25c-0.14,0.25-0.24,0.55-0.44,0.74
			c-4.36,4.1-12.22,4.36-16.41,0.54c-0.35-0.32-0.55-0.79-0.82-1.19c0.44-0.13,0.87-0.36,1.31-0.36c2.49-0.04,4.97-0.02,7.46-0.02
			C424.99,148.8,424.99,148.81,424.99,148.82z"/>
		<path class="st2" d="M285.65,148.36c1.99,0,3.97,0.01,5.96,0c0.95-0.01,1.28,0.21,0.68,1.17c-1.67,2.65-4.27,3.58-7.13,3.41
			c-2.53-0.16-4.68-1.52-6.28-3.59c-0.17-0.22-0.22-0.53-0.32-0.8c0.28-0.06,0.56-0.17,0.84-0.17
			C281.48,148.35,283.56,148.36,285.65,148.36z"/>
		<path class="st2" d="M361.02,148.49c2.09,0,4.18-0.02,6.27,0.02c0.34,0.01,0.67,0.27,1,0.41c-0.19,0.32-0.33,0.71-0.59,0.95
			c-3.77,3.36-9.46,3.52-13.43,0.36c-0.44-0.35-0.72-0.89-1.07-1.34c0.51-0.16,1.03-0.43,1.55-0.45c2.09-0.05,4.18-0.02,6.27-0.02
			C361.02,148.45,361.02,148.47,361.02,148.49z"/>
		<path class="st2" d="M303.05,152.54c-2.63,0.37-4.68-0.96-6.29-3.2c-0.57-0.79-0.18-0.99,0.59-0.99c3.95,0.01,7.91,0,11.86,0.02
			c0.37,0,0.74,0.17,1.11,0.26c-0.14,0.45-0.18,0.97-0.44,1.33C308.27,152.24,305.85,152.56,303.05,152.54z"/>
		<path class="st2" d="M341.87,148.4c2.09,0,4.18-0.01,6.27,0.02c0.22,0,0.47,0.19,0.64,0.36c0.05,0.05-0.1,0.38-0.22,0.5
			c-0.36,0.34-0.73,0.68-1.14,0.96c-3.22,2.19-6.7,2.25-10.24,1.02c-0.89-0.31-1.66-1.07-2.36-1.74c-0.58-0.56-0.38-1.09,0.48-1.13
			c1.09-0.05,2.19-0.03,3.28-0.04c1.09,0,2.19,0,3.28,0C341.87,148.37,341.87,148.39,341.87,148.4z"/>
		<path class="st4" d="M355.33,218.37c-9.27,0-18.55,0-27.82,0c-0.7,0-1.4,0.06-2.09-0.02c-3.4-0.4-4.75-1.74-4.75-4.91
			c-0.02-11.37-0.03-22.75,0-34.12c0.01-2.93,1.39-4.43,4.38-4.5c6.98-0.16,13.96-0.21,20.94-0.23c12.57-0.03,25.13-0.01,37.7-0.01
			c0.7,0,1.4-0.03,2.09,0.02c2.93,0.21,4.14,1.37,4.2,4.33c0.1,4.89,0.1,9.78,0.11,14.66c0.02,6.29,0.02,12.57,0,18.86
			c-0.01,4.21-1.58,5.83-5.73,5.85c-9.67,0.03-19.35,0.01-29.02,0.01C355.33,218.33,355.33,218.35,355.33,218.37z M355.42,176.51
			c0-0.02,0-0.04,0-0.06c-5.98,0-11.96,0-17.94,0c-3.89,0-7.78-0.04-11.66,0c-2.41,0.02-3.15,0.74-3.43,3.14
			c-0.06,0.49-0.09,0.99-0.08,1.49c0.05,10.27,0.1,20.54,0.15,30.81c0.02,3.73,0.88,4.61,4.51,4.61c17.94,0,35.89,0.01,53.83-0.01
			c1.38,0,2.76-0.21,4.12-0.46c3.17-0.57,3.36-0.83,3.37-4.09c0.01-10.47,0.01-20.94,0.02-31.41c0-3.65-0.37-4.02-4.18-4.03
			C374.56,176.51,364.99,176.51,355.42,176.51z"/>
		<path class="st5" d="M355.42,176.51c9.57,0,19.14,0,28.71,0c3.8,0,4.18,0.37,4.18,4.03c-0.01,10.47-0.01,20.94-0.02,31.41
			c0,3.26-0.2,3.51-3.37,4.09c-1.36,0.24-2.75,0.46-4.12,0.46c-17.94,0.03-35.89,0.02-53.83,0.01c-3.63,0-4.49-0.88-4.51-4.61
			c-0.06-10.27-0.11-20.54-0.15-30.81c0-0.5,0.03-1,0.08-1.49c0.28-2.41,1.02-3.12,3.43-3.14c3.89-0.04,7.78,0,11.66,0
			c5.98,0,11.96,0,17.94,0C355.42,176.47,355.42,176.49,355.42,176.51z M339.22,199.28c0-0.05,0.01-0.11,0.01-0.16
			c0.7,0,1.39,0,2.09,0c0.79,0,1.59,0.05,2.38,0c2.6-0.16,3.33-1,3.97-3.4c0.68-2.53-0.09-4.94-0.21-7.39
			c-0.08-1.56-0.93-2.24-2.61-2.26c-4.27-0.06-8.55-0.07-12.82,0.02c-2,0.04-2.73,0.67-2.88,2.68c-0.2,2.67-0.13,5.36-0.1,8.04
			c0.01,1.14,0.66,1.79,1.88,1.86C333.7,198.84,336.46,199.07,339.22,199.28z M371.39,189.68c2.98,0,5.96,0.02,8.95-0.01
			c0.78-0.01,1.6-0.07,2.33-0.31c1.73-0.57,2.65-1.88,2.62-3.53c-0.02-1.63-1.01-2.93-2.78-3.4c-1.04-0.27-2.15-0.43-3.22-0.41
			c-5.56,0.09-11.13,0.26-16.69,0.4c-0.5,0.01-1,0.01-1.48,0.11c-1.84,0.38-3.4,2.3-3.33,4.06c0.07,1.72,1.5,2.88,3.76,3.03
			c0.69,0.05,1.39,0.04,2.09,0.04C366.22,189.69,368.8,189.69,371.39,189.68z M379.56,213.52c2.72,0.22,4.15-0.88,4.88-2.62
			c0.57-1.34,0.74-2.92-0.35-4.24c-1.29-1.57-2.91-2.58-4.96-1.89c-1.26,0.42-2.19,0.56-3.54,0c-1.68-0.7-3.57-0.36-4.89,1.22
			c-1.29,1.53-1.33,3.32-0.64,5.06c0.71,1.78,2.59,2.9,4.64,2.49C376.58,213.17,378.36,213.21,379.56,213.52z"/>
		<path class="st4" d="M339.22,199.28c-2.76-0.21-5.52-0.44-8.28-0.61c-1.22-0.08-1.86-0.72-1.88-1.86c-0.03-2.68-0.1-5.37,0.1-8.04
			c0.15-2.02,0.88-2.64,2.88-2.68c4.27-0.09,8.54-0.08,12.82-0.02c1.67,0.03,2.53,0.7,2.61,2.26c0.12,2.45,0.88,4.86,0.21,7.39
			c-0.64,2.4-1.37,3.24-3.97,3.4c-0.79,0.05-1.59,0-2.38,0c-0.7,0-1.39,0-2.09,0C339.23,199.17,339.22,199.22,339.22,199.28z
			 M337.37,192.83c-0.03,0-0.06,0-0.09,0c0,0.89,0.12,1.81-0.03,2.67c-0.2,1.14,0.3,1.39,1.27,1.4c2.63,0.02,2.55-0.1,2.45-2.41
			c-0.07-1.58,0.02-3.17-0.02-4.76c-0.04-1.76-0.16-1.85-1.84-1.83c-1.63,0.02-1.68,0.07-1.73,1.97
			C337.35,190.85,337.37,191.84,337.37,192.83z M330.73,192.67c0.05,0.01,0.1,0.01,0.15,0.02c0,0.49-0.01,0.98,0,1.47
			c0.01,0.39,0.07,0.77,0.11,1.16c0.4-0.24,0.84-0.43,1.19-0.73c0.45-0.38,0.92-0.78,1.2-1.28c0.19-0.34,0.26-1.02,0.06-1.25
			c-0.69-0.79-1.53-1.44-2.31-2.15C330.99,190.83,330.86,191.75,330.73,192.67z M345.81,192.85c0.03,0,0.06,0,0.09-0.01
			c-0.08-0.77-0.16-1.54-0.25-2.31c-0.37,0.25-0.79,0.46-1.11,0.76c-0.92,0.84-0.72,1.71,0.03,2.55c0.13,0.15,0.23,0.32,0.37,0.45
			c0.14,0.12,0.41,0.32,0.46,0.28c0.18-0.14,0.36-0.36,0.39-0.57C345.85,193.64,345.81,193.24,345.81,192.85z M335.57,189.61
			c-0.02-1.57-0.61-2.03-2.01-1.67c-0.13,0.03-0.31,0.58-0.22,0.7c0.34,0.47,0.75,0.9,1.19,1.27c0.24,0.21,0.61,0.27,0.91,0.4
			C335.49,190.03,335.55,189.75,335.57,189.61z M335.61,195.6c-0.04-0.18-0.1-0.46-0.16-0.75c-0.31,0.11-0.68,0.15-0.91,0.35
			c-0.51,0.45-0.96,0.96-1.39,1.48c-0.07,0.08,0.05,0.49,0.14,0.51C334.19,197.43,335.54,196.54,335.61,195.6z M344.37,188.24
			c-0.38-0.15-0.68-0.36-0.77-0.3c-0.31,0.24-0.58,0.56-0.8,0.89c-0.03,0.05,0.27,0.32,0.42,0.49
			C343.55,189.02,343.89,188.7,344.37,188.24z"/>
		<path class="st4" d="M371.39,189.68c-2.58,0-5.17,0-7.75,0c-0.7,0-1.39,0-2.09-0.04c-2.26-0.15-3.7-1.32-3.76-3.03
			c-0.07-1.76,1.49-3.68,3.33-4.06c0.48-0.1,0.99-0.1,1.48-0.11c5.56-0.15,11.12-0.31,16.69-0.4c1.07-0.02,2.18,0.13,3.22,0.41
			c1.77,0.47,2.76,1.77,2.78,3.4c0.02,1.64-0.89,2.96-2.62,3.53c-0.73,0.24-1.55,0.3-2.33,0.31
			C377.35,189.7,374.37,189.68,371.39,189.68z M371.55,187.83c0.4,0,0.79,0,1.19,0c2.88,0,5.75-0.03,8.63,0
			c1.33,0.02,1.8-0.85,1.81-1.88c0-0.93-0.55-1.69-1.67-1.71c-0.5-0.01-0.99,0-1.49-0.01c-5.95-0.07-11.9-0.13-17.85-0.2
			c-1.25-0.01-2.48,1.17-2.37,2.44c0.12,1.35,1.19,1.36,2.22,1.35C365.2,187.82,368.38,187.83,371.55,187.83z"/>
		<path class="st4" d="M379.56,213.52c-1.19-0.31-2.98-0.35-4.86,0.03c-2.05,0.41-3.93-0.71-4.64-2.49
			c-0.69-1.74-0.65-3.53,0.64-5.06c1.32-1.58,3.21-1.92,4.89-1.22c1.34,0.56,2.28,0.42,3.54,0c2.05-0.69,3.67,0.32,4.96,1.89
			c1.09,1.32,0.92,2.9,0.35,4.24C383.7,212.64,382.27,213.74,379.56,213.52z M382.89,209.18c0.14-1.56-0.63-2.59-2.07-2.74
			c-1.7-0.19-3.28,1.05-3.36,2.62c-0.07,1.35,0.88,2.41,2.32,2.62C381.34,211.89,382.75,210.75,382.89,209.18z M374.52,206.34
			c-1.62,0.03-2.77,0.93-2.94,2.3c-0.16,1.25,0.98,2.74,2.32,3.04c1.03,0.23,1.59-0.3,1.59-1.38c0-0.85-0.07-1.78,0.23-2.53
			C376.27,206.35,375.52,206.31,374.52,206.34z"/>
		<path class="st2" d="M337.37,192.83c0-0.99-0.02-1.98,0-2.98c0.05-1.9,0.1-1.95,1.73-1.97c1.68-0.02,1.8,0.07,1.84,1.83
			c0.04,1.59-0.05,3.18,0.02,4.76c0.1,2.32,0.18,2.44-2.45,2.41c-0.97-0.01-1.47-0.26-1.27-1.4c0.15-0.87,0.03-1.78,0.03-2.67
			C337.31,192.83,337.34,192.83,337.37,192.83z"/>
		<path class="st2" d="M330.73,192.67c0.13-0.92,0.27-1.84,0.4-2.76c0.78,0.71,1.62,1.36,2.31,2.15c0.21,0.24,0.14,0.92-0.06,1.25
			c-0.28,0.5-0.75,0.9-1.2,1.28c-0.35,0.3-0.79,0.49-1.19,0.73c-0.04-0.39-0.09-0.77-0.11-1.16c-0.02-0.49,0-0.98,0-1.47
			C330.83,192.68,330.78,192.67,330.73,192.67z"/>
		<path class="st2" d="M345.81,192.85c0,0.39,0.04,0.79-0.02,1.17c-0.03,0.21-0.22,0.43-0.39,0.57c-0.05,0.04-0.32-0.16-0.46-0.28
			c-0.14-0.13-0.24-0.31-0.37-0.45c-0.75-0.84-0.95-1.71-0.03-2.55c0.33-0.3,0.74-0.51,1.11-0.76c0.08,0.77,0.16,1.54,0.25,2.31
			C345.87,192.84,345.84,192.85,345.81,192.85z"/>
		<path class="st2" d="M335.57,189.61c-0.03,0.14-0.08,0.42-0.13,0.71c-0.31-0.13-0.67-0.19-0.91-0.4c-0.44-0.37-0.85-0.8-1.19-1.27
			c-0.09-0.13,0.08-0.67,0.22-0.7C334.96,187.58,335.55,188.04,335.57,189.61z"/>
		<path class="st2" d="M335.61,195.6c-0.07,0.94-1.42,1.83-2.32,1.6c-0.09-0.02-0.21-0.43-0.14-0.51c0.43-0.52,0.89-1.04,1.39-1.48
			c0.23-0.2,0.6-0.24,0.91-0.35C335.51,195.14,335.57,195.42,335.61,195.6z"/>
		<path class="st2" d="M344.37,188.24c-0.48,0.46-0.82,0.77-1.15,1.09c-0.15-0.17-0.45-0.44-0.42-0.49c0.22-0.33,0.49-0.65,0.8-0.89
			C343.69,187.88,344,188.09,344.37,188.24z"/>
		<path class="st2" d="M371.55,187.83c-3.17,0-6.35-0.01-9.52,0c-1.04,0-2.11-0.01-2.22-1.35c-0.11-1.27,1.12-2.46,2.37-2.44
			c5.95,0.07,11.9,0.14,17.85,0.2c0.5,0.01,0.99,0,1.49,0.01c1.12,0.01,1.67,0.78,1.67,1.71c-0.01,1.03-0.48,1.9-1.81,1.88
			c-2.88-0.03-5.75-0.01-8.63,0C372.35,187.83,371.95,187.83,371.55,187.83z"/>
		<path class="st2" d="M382.89,209.18c-0.14,1.57-1.56,2.71-3.1,2.5c-1.44-0.2-2.39-1.26-2.32-2.62c0.08-1.57,1.66-2.81,3.36-2.62
			C382.26,206.59,383.03,207.61,382.89,209.18z"/>
		<path class="st2" d="M374.52,206.34c1-0.03,1.75,0.02,1.19,1.43c-0.3,0.76-0.23,1.68-0.23,2.53c0.01,1.08-0.56,1.62-1.59,1.38
			c-1.34-0.3-2.48-1.79-2.32-3.04C371.75,207.26,372.9,206.37,374.52,206.34z"/>
		<g>
			<g>
				<path class="st4" d="M134.61,165.48c0-9.8,0-19.6,0-29.4c0-0.49,0.01-0.99,0-1.48c-0.01-0.16-0.09-0.31-0.13-0.46
					c-0.18,0.08-0.43,0.11-0.54,0.25c-1.59,1.99-3.15,4.01-4.74,6c-1.18,1.48-2.39,2.93-3.57,4.41c-1.31,1.64-2.89,1.93-4.82,1.17
					c-2.8-1.1-5.2-2.82-7.47-4.71c-5.04-4.2-9.18-9.18-12.66-14.73c-0.09-0.14-0.15-0.29-0.24-0.43c-1.23-1.89-1.51-3.47-0.13-5.75
					c5.63-9.28,11.31-18.51,17.89-27.16c1.19-1.57,2.55-3.02,3.89-4.47c3.25-3.51,7.51-4.84,12.07-5.49
					c3.08-0.44,6.15-0.92,9.23-1.34c0.89-0.12,1.8-0.14,2.71-0.14c13.5,0,27-0.05,40.5,0.05c6.65,0.05,13.26,0.67,19.8,1.95
					c4.11,0.8,7.41,2.93,10.21,6.01c4.12,4.52,7.52,9.57,10.82,14.68c3.61,5.59,6.95,11.35,10.53,16.96
					c0.8,1.26,0.75,2.27,0.03,3.36c-1.85,2.81-3.61,5.7-5.67,8.35c-3.3,4.24-7.15,7.96-11.68,10.89c-1.29,0.83-2.77,1.38-4.17,2.06
					c-1.67,0.8-3.06,0.29-4.17-1.04c-1.8-2.14-3.52-4.34-5.3-6.49c-1.22-1.48-2.48-2.94-3.73-4.4c-0.04,1.88-0.13,3.76-0.13,5.64
					c0,18.12-0.03,36.23,0.08,54.35c0.02,2.49-0.93,4.05-2.91,5.25c-3.35,2.02-7.04,3.12-10.82,3.92
					c-4.09,0.87-8.22,1.51-12.43,1.58c-3.12,0.05-6.25,0.47-9.35,0.34c-8.45-0.36-16.88-1.06-24.94-3.91
					c-2.3-0.81-4.47-2.04-6.66-3.14c-1.2-0.6-1.6-1.58-1.59-3c0.08-9.88,0.04-19.76,0.04-29.64
					C134.56,165.48,134.59,165.48,134.61,165.48z M136.5,158.65c0,10.87,0,21.74,0,32.61c0,0.99,0.1,1.98,0.03,2.96
					c-0.1,1.35,0.49,2.18,1.67,2.7c1.8,0.79,3.55,1.72,5.4,2.37c5.85,2.05,11.95,3.03,18.08,3.36c9.03,0.49,18.08,0.56,27.01-1.35
					c3.78-0.81,7.49-1.8,10.89-3.72c1.08-0.61,1.72-1.31,1.6-2.71c-0.15-1.71,0.01-3.45,0.01-5.18c0-21.08,0-42.16,0-63.24
					c0-0.58-0.08-1.17,0.05-1.72c0.1-0.43,0.46-0.8,0.7-1.2c0.24,0.37,0.55,0.72,0.71,1.13c0.12,0.29,0.1,0.66,0.05,0.98
					c-0.44,3.08,0.65,5.61,2.78,7.77c0.06,0.06,0.08,0.14,0.13,0.21c2.1,2.84,4.2,5.69,6.3,8.53c0.46,0.62,0.65,0.96,1.26-0.08
					c1.33-2.25,2.77-4.49,4.5-6.43c5.05-5.65,11.02-10.09,18.16-12.8c0.63-0.24,1.08-0.33,0.55-1.12
					c-4.6-6.91-9.12-13.87-13.78-20.74c-2.17-3.19-4.54-6.25-6.96-9.26c-2.6-3.22-5.83-5.48-10.06-6.15
					c-2.99-0.47-5.93-1.19-8.91-1.73c-0.5-0.09-1.13,0.08-1.59,0.32c-0.65,0.33-1.22,0.83-1.79,1.29
					c-4.84,3.89-10.26,6.54-16.49,7.1c-5.4,0.48-10.8,0.46-16.2-0.36c-6.63-1.01-12.67-3.22-17.74-7.76
					c-0.43-0.38-1.19-0.69-1.72-0.6c-3.14,0.54-6.25,1.28-9.39,1.82c-3.39,0.59-6.19,2.21-8.45,4.71c-1.87,2.07-3.72,4.2-5.29,6.5
					c-5.61,8.21-11.09,16.51-16.63,24.76c-0.4,0.6-0.5,0.9,0.37,1.19c4.66,1.57,8.71,4.24,12.47,7.32c4.09,3.34,7.9,6.97,10.32,11.8
					c0.54,1.08,0.58,1.11,1.33,0.12c2.52-3.35,4.95-6.77,7.52-10.08c1.11-1.43,1.73-2.87,1.6-4.72c-0.12-1.64-0.01-3.29,0.09-4.93
					c0.02-0.31,0.45-0.59,0.68-0.89c0.24,0.31,0.61,0.59,0.68,0.93c0.12,0.64,0.06,1.31,0.06,1.97
					C136.5,135.76,136.5,147.2,136.5,158.65z M168.38,83.7c0-0.01,0-0.02,0-0.03c-7.23,0-14.46-0.01-21.7,0.01
					c-0.51,0-1.03,0.18-1.54,0.27c0.39,0.39,0.73,0.9,1.19,1.15c1.93,1.06,3.84,2.2,5.87,3.04c3.8,1.59,7.82,2.22,11.92,2.65
					c6.19,0.64,12.28,0.34,18.25-1.37c3.26-0.93,6.1-2.78,8.78-4.83c0.18-0.14,0.28-0.38,0.42-0.57c-0.25-0.11-0.5-0.29-0.75-0.31
					c-0.57-0.05-1.15-0.02-1.72-0.02C182.19,83.7,175.29,83.7,168.38,83.7z M121.77,144.43c1.46,0.18,1.79-0.12,1.43-1.12
					c-0.35-0.99-0.81-1.97-1.37-2.86c-2.36-3.74-5.47-6.82-9.03-9.35c-3.13-2.23-6.54-4.05-9.84-6.03
					c-0.22-0.13-0.57-0.06-0.87-0.09c0.09,0.29,0.13,0.61,0.29,0.86c3.3,5.26,7.32,9.92,12.06,13.92c1.75,1.47,3.74,2.66,5.66,3.92
					C120.7,144.08,121.43,144.29,121.77,144.43z M215.33,144.77c1.44-0.75,2.96-1.36,4.29-2.27c6.47-4.43,11.56-10.19,15.76-16.77
					c0.14-0.21,0.08-0.55,0.12-0.83c-0.22,0.04-0.48,0.01-0.67,0.12c-2.63,1.5-5.34,2.89-7.85,4.57c-4.33,2.9-8.19,6.34-11.04,10.77
					c-0.61,0.95-1.02,2.04-1.49,3.07C214.12,144.16,214.4,144.53,215.33,144.77z"/>
				<path class="st2" d="M136.5,158.65c0-11.44,0-22.89,0-34.33c0-0.66,0.05-1.33-0.06-1.97c-0.06-0.34-0.44-0.62-0.68-0.93
					c-0.24,0.29-0.67,0.58-0.68,0.89c-0.1,1.64-0.21,3.3-0.09,4.93c0.13,1.85-0.49,3.29-1.6,4.72c-2.57,3.31-5,6.73-7.52,10.08
					c-0.75,0.99-0.79,0.96-1.33-0.12c-2.42-4.83-6.22-8.46-10.32-11.8c-3.77-3.07-7.81-5.75-12.47-7.32
					c-0.87-0.29-0.77-0.59-0.37-1.19c5.54-8.26,11.03-16.55,16.63-24.76c1.57-2.3,3.42-4.43,5.29-6.5c2.26-2.5,5.06-4.12,8.45-4.71
					c3.14-0.54,6.25-1.28,9.39-1.82c0.53-0.09,1.3,0.21,1.72,0.6c5.07,4.54,11.11,6.75,17.74,7.76c5.4,0.82,10.8,0.85,16.2,0.36
					c6.23-0.56,11.64-3.21,16.49-7.1c0.58-0.46,1.14-0.96,1.79-1.29c0.47-0.24,1.09-0.41,1.59-0.32c2.98,0.54,5.92,1.26,8.91,1.73
					c4.24,0.66,7.47,2.92,10.06,6.15c2.42,3.01,4.79,6.07,6.96,9.26c4.67,6.86,9.19,13.83,13.78,20.74c0.53,0.8,0.08,0.89-0.55,1.12
					c-7.14,2.72-13.11,7.16-18.16,12.8c-1.73,1.94-3.17,4.18-4.5,6.43c-0.61,1.04-0.81,0.7-1.26,0.08c-2.1-2.84-4.2-5.68-6.3-8.53
					c-0.05-0.07-0.08-0.15-0.13-0.21c-2.13-2.16-3.21-4.69-2.78-7.77c0.05-0.32,0.06-0.69-0.05-0.98c-0.17-0.4-0.47-0.75-0.71-1.13
					c-0.24,0.4-0.6,0.77-0.7,1.2c-0.13,0.55-0.05,1.15-0.05,1.72c0,21.08,0,42.16,0,63.24c0,1.73-0.16,3.47-0.01,5.18
					c0.12,1.4-0.52,2.1-1.6,2.71c-3.4,1.93-7.11,2.91-10.89,3.72c-8.93,1.91-17.98,1.84-27.01,1.35
					c-6.13-0.34-12.24-1.32-18.08-3.36c-1.85-0.65-3.6-1.58-5.4-2.37c-1.18-0.52-1.78-1.35-1.67-2.7c0.08-0.98-0.03-1.97-0.03-2.96
					C136.5,180.39,136.5,169.52,136.5,158.65z M168.17,113.2c0,0.05-0.01,0.1-0.01,0.15c-0.99,0-1.98-0.06-2.96,0.01
					c-2.7,0.21-5.36,0.63-7.81,1.87c-1.69,0.86-2.61,2.08-2.28,4.15c0.34,2.1,0.47,4.23,0.6,6.36c0.06,0.93,0.44,1.99-0.54,2.75
					c-0.96,0.74-1.07,1.79-0.96,2.89c0.38,3.91,0.72,7.82,1.19,11.72c0.1,0.84,0.73,1.61,1.1,2.41c0.26,0.57,0.57,1.12,0.72,1.72
					c0.22,0.87,0.44,1.77,0.42,2.65c-0.05,2.47,1.5,3.41,3.52,4.08c3.76,1.26,7.58,1.14,11.42,0.62c1.2-0.16,2.42-0.48,3.54-0.95
					c1.4-0.58,2.54-1.42,2.43-3.29c-0.07-1.04,0.22-2.11,0.47-3.14c0.1-0.42,0.44-0.87,0.8-1.12c1.53-1.11,2.25-2.55,2.15-4.44
					c-0.03-0.56,0.19-1.13,0.24-1.7c0.26-2.94,0.53-5.87,0.76-8.81c0.11-1.39-0.33-2.62-1.41-3.52c-0.7-0.59-0.9-1.15-0.73-2.11
					c0.36-2.09,0.37-4.25,0.76-6.34c0.31-1.65-0.29-2.79-1.56-3.54c-1.26-0.73-2.63-1.46-4.04-1.7
					C173.42,113.5,170.78,113.43,168.17,113.2z M173.3,165.73c-2.54-0.06-2.91,0.49-1.62-2.34c0.31-0.67,0.63-1.36,1.07-1.93
					c0.44-0.56,1.04-0.99,1.57-1.47c-0.16,0.67-0.29,1.35-0.5,2.01c-0.1,0.3-0.4,0.53-0.54,0.82c-0.09,0.2-0.15,0.62-0.09,0.65
					c0.27,0.12,0.64,0.26,0.88,0.17c1.1-0.42,2.44-2.6,2.4-3.8c-0.04-1.45-1.45-2.48-2.76-1.83c-0.91,0.46-1.78,1.21-2.38,2.04
					c-0.81,1.11-1.49,2.38-1.98,3.67c-0.46,1.24-1.18,1.59-2.41,1.53c-1.39-0.08-2.8-0.07-4.19,0.02c-0.99,0.06-1.39,0.91-0.91,1.76
					c0.2,0.35,0.56,0.6,0.8,0.92c0.76,1.03,0.83,2.05-0.04,2.87c-0.53,0.5-1.57,1.12-2.01,0.91c-0.84-0.4-0.11-1.28,0.07-1.95
					c0.02-0.08,0.03-0.16,0.07-0.24c0.37-0.81,1.02-1.78,0.02-2.41c-0.86-0.54-1.43,0.42-2,0.98c-1.65,1.62-3.4,3.1-5.71,3.71
					c-1.72,0.45-2.69,0.04-3.28-1.6c-1.03-2.86-0.1-5.32,1.72-7.52c0.35-0.42,0.89-0.72,1.4-0.95c0.92-0.41,1.12-0.21,1.21,0.95
					c0.03,0.35,0.22,0.68,0.33,1.02c0.41-0.18,0.99-0.24,1.19-0.55c0.98-1.52,0.13-3.17-1.69-3.39c-1.21-0.15-2.27,0.2-3.23,0.92
					c-2.84,2.14-4.19,7.25-2.76,10.52c0.87,1.99,2.89,3.1,5,2.58c1.25-0.31,2.5-0.79,3.64-1.4c0.97-0.53,1.51-0.96,2.22,0.43
					c0.7,1.39,1.63,1.48,3.14,0.89c2.38-0.93,3.44-2.61,3.24-5.16c-0.03-0.38-0.08-0.76-0.11-1.14c0.72-0.02,1.44-0.08,2.15,0.01
					c0.1,0.01,0.27,0.89,0.11,1.23c-1.13,2.36-2.33,4.69-3.55,7.01c-0.3,0.58-0.79,1.06-1.07,1.65c-0.14,0.3-0.05,0.75,0.07,1.08
					c0.04,0.09,0.68,0.11,0.87-0.04c0.87-0.73,1.89-1.41,2.46-2.34c1.06-1.74,1.95-3.61,2.74-5.49c1.26-2.97,1.2-2.99,4.42-2.8
					c0.08,0,0.16,0.01,0.25,0c0.73-0.01,1.08,0.2,0.73,1.02c-1.31,3.06-1.93,6.52-5.15,8.44c-0.23,0.13-0.31,0.68-0.26,1.01
					c0.02,0.14,0.57,0.34,0.83,0.29c1.52-0.3,2.79-1.06,3.48-2.48c1.04-2.13,2.05-4.29,2.93-6.49c0.47-1.19,1.01-1.78,2.41-1.94
					c1.31-0.15,1.49,0.09,1.49,1.29c0.01,2.67,1.7,4.05,3.73,4.53c1.71,0.4,4.37-0.57,5.45-2.11c0.12-0.17,0.2-0.59,0.11-0.66
					c-0.21-0.18-0.59-0.36-0.81-0.28c-0.92,0.33-1.8,0.79-2.72,1.14c-1.32,0.49-2.42,0.09-3.3-0.95c-0.27-0.32-0.47-0.75,0.27-0.75
					c1.39-0.01,2.65-0.48,3.5-1.52c0.45-0.54,0.67-1.55,0.5-2.22c-0.14-0.54-1-1.17-1.6-1.24c-1.01-0.11-2.23-0.1-3.08,0.38
					c-1.2,0.68-2.37,0.53-3.57,0.53c-0.19,0-0.57-0.46-0.53-0.52c0.82-1.4,1.67-2.78,2.55-4.15c0.01-0.01,0.55,0.2,0.55,0.31
					c0.01,0.4-0.21,0.84-0.12,1.2c0.05,0.22,0.64,0.54,0.79,0.46c1.1-0.59,1.57-2.43,0.97-3.46c-0.51-0.86-2-1.1-3.09-0.42
					c-0.48,0.3-0.95,0.69-1.26,1.16c-0.73,1.09-1.51,2.18-1.99,3.38C175.71,165.23,174.88,166.18,173.3,165.73z"/>
				<g>
					<path class="st9" d="M168.38,83.7c6.9,0,13.81,0,20.71,0c0.58,0,1.15-0.03,1.72,0.02c0.26,0.02,0.5,0.2,0.75,0.31
						c-0.14,0.19-0.24,0.44-0.42,0.57c-2.68,2.05-5.52,3.9-8.78,4.83c-5.97,1.71-12.06,2.01-18.25,1.37
						c-4.1-0.42-8.12-1.06-11.92-2.65c-2.03-0.85-3.94-1.98-5.87-3.04c-0.47-0.26-0.8-0.76-1.19-1.15c0.51-0.1,1.03-0.27,1.54-0.27
						c7.23-0.02,14.46-0.01,21.7-0.01C168.38,83.68,168.38,83.69,168.38,83.7z"/>
					<path class="st9" d="M121.77,144.43c-0.34-0.15-1.07-0.35-1.67-0.75c-1.92-1.26-3.91-2.45-5.66-3.92
						c-4.74-4-8.76-8.66-12.06-13.92c-0.16-0.25-0.19-0.57-0.29-0.86c0.29,0.02,0.64-0.05,0.87,0.09c3.3,1.98,6.71,3.8,9.84,6.03
						c3.56,2.53,6.67,5.61,9.03,9.35c0.56,0.89,1.02,1.87,1.37,2.86C123.56,144.32,123.23,144.62,121.77,144.43z"/>
					<path class="st9" d="M215.33,144.77c-0.93-0.24-1.21-0.61-0.88-1.33c0.47-1.04,0.88-2.12,1.49-3.07
						c2.85-4.43,6.72-7.87,11.04-10.77c2.51-1.68,5.22-3.07,7.85-4.57c0.18-0.11,0.44-0.08,0.67-0.12
						c-0.03,0.28,0.02,0.61-0.12,0.83c-4.2,6.58-9.29,12.34-15.76,16.77C218.29,143.41,216.77,144.02,215.33,144.77z"/>
				</g>
				<path class="st4" d="M168.17,113.2c2.61,0.22,5.24,0.29,7.82,0.73c1.41,0.24,2.78,0.97,4.04,1.7c1.27,0.74,1.87,1.89,1.56,3.54
					c-0.39,2.09-0.4,4.24-0.76,6.34c-0.17,0.96,0.03,1.52,0.73,2.11c1.08,0.9,1.52,2.14,1.41,3.52c-0.23,2.94-0.49,5.88-0.76,8.81
					c-0.05,0.57-0.27,1.14-0.24,1.7c0.09,1.89-0.63,3.33-2.15,4.44c-0.36,0.26-0.7,0.7-0.8,1.12c-0.25,1.03-0.54,2.11-0.47,3.14
					c0.12,1.87-1.03,2.71-2.43,3.29c-1.12,0.47-2.34,0.79-3.54,0.95c-3.84,0.52-7.66,0.63-11.42-0.62
					c-2.02-0.67-3.57-1.61-3.52-4.08c0.02-0.88-0.21-1.78-0.42-2.65c-0.15-0.6-0.46-1.16-0.72-1.72c-0.37-0.81-1-1.58-1.1-2.41
					c-0.48-3.9-0.81-7.81-1.19-11.72c-0.11-1.1,0-2.15,0.96-2.89c0.98-0.76,0.6-1.81,0.54-2.75c-0.13-2.12-0.26-4.26-0.6-6.36
					c-0.34-2.07,0.58-3.3,2.28-4.15c2.45-1.24,5.12-1.66,7.81-1.87c0.98-0.08,1.97-0.01,2.96-0.01
					C168.16,113.3,168.17,113.25,168.17,113.2z M167.54,134.72c2.55-0.38,4.96-0.8,7.39-1.1c2.07-0.26,3.27-1.04,3.39-3.41
					c0.13-2.6,0.75-5.17,1.12-7.76c0.11-0.78,0-1.23-1.06-0.83c-2.93,1.11-6.01,1.56-9.14,1.62c-3.96,0.07-7.85-0.32-11.54-1.9
					c-0.73-0.31-0.71-0.02-0.62,0.65c0.44,3.25,0.85,6.5,1.15,9.76c0.1,1.13,0.69,1.62,1.63,1.78
					C162.45,133.95,165.03,134.32,167.54,134.72z M168.18,121.3c2.95,0.08,5.81-0.07,8.54-1.06c0.83-0.3,1.66-0.72,2.37-1.24
					c0.82-0.59,0.81-1.22-0.05-1.74c-1.11-0.67-2.32-1.19-3.51-1.74c-0.16-0.07-0.47,0.05-0.64,0.17c-2.1,1.62-4.55,1.02-6.89,1.07
					c-0.92,0.02-1.83-0.12-1.82-1.43c0-0.15-0.59-0.48-0.85-0.43c-1.92,0.36-3.84,0.72-5.72,1.24c-1.15,0.32-2.69,0.76-2.68,2.12
					c0.01,1.24,1.58,1.52,2.61,1.9C162.35,121.21,165.29,121.4,168.18,121.3z M167.78,153.53c2.08-0.36,4.11-0.58,6.08-1.07
					c3.18-0.79,3.19-0.89,3.55-4.01c0.09-0.75-0.14-1.04-0.96-0.89c-1.84,0.34-3.68,0.74-5.54,0.86c-3.77,0.25-7.53,0.07-11.17-1.11
					c-0.78-0.25-1.06-0.13-0.97,0.67c0.05,0.49,0.19,0.97,0.18,1.46c0,1.76,0.87,2.68,2.59,2.96
					C163.63,152.75,165.71,153.16,167.78,153.53z M167.95,143.2c-0.1,0-0.19,0-0.29,0c0,0.16,0,0.33,0,0.49
					c-0.01,3.5-0.01,3.5,3.36,2.89c1.72-0.31,1.75-0.38,1.99-2.17c0.26-1.95,0.53-3.89,0.89-5.82c0.54-2.9,0.57-2.87-2.23-2.56
					c-0.98,0.11-1.98,0-2.96,0.1c-0.27,0.03-0.72,0.43-0.73,0.67C167.93,138.93,167.95,141.06,167.95,143.2z M161.2,137.62
					c0.04,0,0.08,0,0.11,0c0.13,2.36,0.31,4.72,0.36,7.09c0.02,1.06,0.6,1.46,1.46,1.63c0.56,0.11,1.14,0.06,1.71,0.12
					c0.94,0.09,1.32-0.3,1.3-1.26c-0.04-1.72-0.02-3.44,0.01-5.16c0.02-1.26,0.09-2.53,0.13-3.79c-1.28-0.19-2.56-0.38-3.84-0.58
					c-0.77-0.12-1.3,0.03-1.25,0.97C161.22,136.96,161.2,137.29,161.2,137.62z M160.18,143.46c-0.01,0-0.03,0-0.04,0
					c-0.15-2.44-0.32-4.88-0.42-7.32c-0.03-0.69-0.3-1.02-0.94-1.2c-0.62-0.18-1.21-0.49-1.84-0.64c-0.18-0.04-0.6,0.25-0.63,0.42
					c-0.06,0.48,0.01,0.97,0.07,1.46c0.28,2.26,0.61,4.51,0.85,6.77c0.16,1.49,0.45,1.9,1.97,2.35c0.6,0.18,0.95,0.06,0.97-0.61
					C160.19,144.27,160.18,143.86,160.18,143.46z M178.44,135.25c-0.05-0.1-0.09-0.4-0.26-0.51c-0.55-0.34-2.51,0.83-2.61,1.53
					c-0.39,3-0.71,6.01-1.21,8.98c-0.17,0.99,0.12,0.84,0.81,0.77c1.12-0.1,1.57-0.73,1.73-1.73c0.15-0.97,0.31-1.93,0.47-2.9
					C177.72,139.39,178.07,137.38,178.44,135.25z M181.3,133.75c0.02,0.05-0.09-0.21-0.2-0.48c-0.28,0.16-0.76,0.27-0.82,0.48
					c-0.24,0.94-0.35,1.92-0.53,2.87c-0.41,2.16-0.87,4.32-1.24,6.49c-0.06,0.35,0.25,0.77,0.39,1.16c0.33-0.32,0.71-0.6,0.99-0.96
					c0.13-0.16,0.04-0.48,0.07-0.72C180.39,139.76,180.82,136.93,181.3,133.75z"/>
				<path class="st4" d="M173.3,165.73c1.58,0.45,2.41-0.5,3.04-2.07c0.48-1.2,1.26-2.29,1.99-3.38c0.31-0.46,0.78-0.86,1.26-1.16
					c1.09-0.68,2.58-0.44,3.09,0.42c0.61,1.03,0.13,2.86-0.97,3.46c-0.15,0.08-0.74-0.24-0.79-0.46c-0.09-0.37,0.13-0.8,0.12-1.2
					c0-0.12-0.54-0.33-0.55-0.31c-0.88,1.37-1.74,2.75-2.55,4.15c-0.03,0.06,0.35,0.52,0.53,0.52c1.21,0,2.37,0.15,3.57-0.53
					c0.84-0.48,2.06-0.49,3.08-0.38c0.6,0.07,1.46,0.7,1.6,1.24c0.17,0.67-0.05,1.68-0.5,2.22c-0.85,1.03-2.12,1.51-3.5,1.52
					c-0.74,0-0.54,0.43-0.27,0.75c0.88,1.04,1.99,1.44,3.3,0.95c0.92-0.35,1.8-0.81,2.72-1.14c0.22-0.08,0.6,0.1,0.81,0.28
					c0.09,0.08,0.02,0.49-0.11,0.66c-1.08,1.54-3.74,2.51-5.45,2.11c-2.04-0.48-3.72-1.85-3.73-4.53c-0.01-1.21-0.18-1.45-1.49-1.29
					c-1.4,0.16-1.94,0.76-2.41,1.94c-0.88,2.2-1.89,4.36-2.93,6.49c-0.69,1.42-1.96,2.18-3.48,2.48c-0.26,0.05-0.81-0.15-0.83-0.29
					c-0.05-0.33,0.04-0.88,0.26-1.01c3.22-1.91,3.84-5.37,5.15-8.44c0.35-0.82,0-1.03-0.73-1.02c-0.08,0-0.16,0-0.25,0
					c-3.22-0.19-3.16-0.17-4.42,2.8c-0.8,1.88-1.68,3.75-2.74,5.49c-0.57,0.94-1.59,1.61-2.46,2.34c-0.19,0.16-0.83,0.14-0.87,0.04
					c-0.13-0.33-0.21-0.79-0.07-1.08c0.28-0.59,0.77-1.07,1.07-1.65c1.21-2.32,2.41-4.65,3.55-7.01c0.16-0.33-0.01-1.21-0.11-1.23
					c-0.7-0.09-1.43-0.03-2.15-0.01c0.04,0.38,0.08,0.76,0.11,1.14c0.2,2.55-0.86,4.23-3.24,5.16c-1.51,0.59-2.44,0.5-3.14-0.89
					c-0.7-1.39-1.24-0.96-2.22-0.43c-1.13,0.62-2.38,1.09-3.64,1.4c-2.11,0.53-4.13-0.59-5-2.58c-1.43-3.27-0.08-8.38,2.76-10.52
					c0.96-0.72,2.02-1.07,3.23-0.92c1.82,0.23,2.68,1.87,1.69,3.39c-0.2,0.31-0.78,0.37-1.19,0.55c-0.12-0.34-0.31-0.67-0.33-1.02
					c-0.1-1.16-0.29-1.36-1.21-0.95c-0.51,0.23-1.06,0.53-1.4,0.95c-1.83,2.2-2.76,4.66-1.72,7.52c0.59,1.64,1.56,2.05,3.28,1.6
					c2.32-0.61,4.06-2.09,5.71-3.71c0.57-0.56,1.14-1.52,2-0.98c1,0.63,0.35,1.6-0.02,2.41c-0.03,0.07-0.05,0.16-0.07,0.24
					c-0.18,0.67-0.91,1.55-0.07,1.95c0.44,0.21,1.48-0.41,2.01-0.91c0.87-0.82,0.8-1.84,0.04-2.87c-0.24-0.33-0.61-0.58-0.8-0.92
					c-0.48-0.85-0.08-1.7,0.91-1.76c1.39-0.09,2.8-0.1,4.19-0.02c1.22,0.07,1.95-0.29,2.41-1.53c0.48-1.29,1.16-2.56,1.98-3.67
					c0.6-0.83,1.47-1.58,2.38-2.04c1.31-0.65,2.71,0.38,2.76,1.83c0.04,1.2-1.3,3.38-2.4,3.8c-0.25,0.09-0.61-0.05-0.88-0.17
					c-0.06-0.03,0-0.45,0.09-0.65c0.14-0.29,0.44-0.52,0.54-0.82c0.21-0.66,0.34-1.34,0.5-2.01c-0.53,0.49-1.14,0.91-1.57,1.47
					c-0.45,0.58-0.77,1.26-1.07,1.93C170.39,166.22,170.76,165.67,173.3,165.73z M182.46,168.44c0.51-0.24,1.07-0.42,1.52-0.75
					c0.33-0.25,0.51-0.7,0.75-1.07c-0.44-0.03-0.99-0.24-1.31-0.06c-0.53,0.3-0.93,0.85-1.36,1.32c-0.07,0.08-0.05,0.32,0.02,0.44
					C182.13,168.41,182.32,168.41,182.46,168.44z"/>
				<path class="st2" d="M167.54,134.72c-2.51-0.39-5.09-0.77-7.67-1.21c-0.93-0.16-1.52-0.65-1.63-1.78
					c-0.3-3.26-0.71-6.51-1.15-9.76c-0.09-0.67-0.11-0.96,0.62-0.65c3.69,1.58,7.58,1.98,11.54,1.9c3.13-0.06,6.21-0.5,9.14-1.62
					c1.05-0.4,1.17,0.05,1.06,0.83c-0.37,2.59-1,5.16-1.12,7.76c-0.12,2.38-1.32,3.16-3.39,3.41
					C172.51,133.92,170.09,134.33,167.54,134.72z"/>
				<path class="st2" d="M168.18,121.3c-2.89,0.1-5.83-0.09-8.63-1.13c-1.03-0.38-2.6-0.66-2.61-1.9c-0.02-1.36,1.53-1.8,2.68-2.12
					c1.88-0.53,3.8-0.88,5.72-1.24c0.26-0.05,0.85,0.28,0.85,0.43c-0.01,1.31,0.9,1.45,1.82,1.43c2.34-0.05,4.79,0.55,6.89-1.07
					c0.17-0.13,0.48-0.25,0.64-0.17c1.19,0.54,2.39,1.06,3.51,1.74c0.86,0.52,0.87,1.15,0.05,1.74c-0.72,0.52-1.54,0.94-2.37,1.24
					C173.98,121.23,171.13,121.38,168.18,121.3z"/>
				<path class="st2" d="M167.78,153.53c-2.08-0.38-4.15-0.78-6.24-1.12c-1.72-0.28-2.59-1.2-2.59-2.96c0-0.49-0.13-0.97-0.18-1.46
					c-0.08-0.81,0.2-0.93,0.97-0.67c3.64,1.18,7.4,1.36,11.17,1.11c1.86-0.12,3.7-0.52,5.54-0.86c0.81-0.15,1.05,0.14,0.96,0.89
					c-0.37,3.11-0.37,3.21-3.55,4.01C171.9,152.95,169.86,153.18,167.78,153.53z"/>
				<g>
					<path class="st7" d="M167.95,143.2c0-2.14-0.02-4.27,0.03-6.4c0.01-0.24,0.46-0.64,0.73-0.67c0.98-0.1,1.98,0.01,2.96-0.1
						c2.81-0.31,2.77-0.34,2.23,2.56c-0.36,1.93-0.63,3.88-0.89,5.82c-0.24,1.8-0.27,1.86-1.99,2.17c-3.38,0.61-3.38,0.61-3.36-2.89
						c0-0.16,0-0.33,0-0.49C167.76,143.2,167.86,143.2,167.95,143.2z"/>
					<path class="st7" d="M161.2,137.62c0-0.33,0.01-0.66,0-0.98c-0.05-0.93,0.48-1.09,1.25-0.97c1.28,0.2,2.56,0.39,3.84,0.58
						c-0.05,1.26-0.12,2.53-0.13,3.79c-0.03,1.72-0.05,3.44-0.01,5.16c0.02,0.95-0.36,1.35-1.3,1.26c-0.57-0.06-1.15-0.01-1.71-0.12
						c-0.86-0.17-1.43-0.57-1.46-1.63c-0.05-2.36-0.23-4.73-0.36-7.09C161.28,137.62,161.24,137.62,161.2,137.62z"/>
					<path class="st7" d="M160.18,143.46c0,0.41,0.01,0.82,0,1.23c-0.02,0.67-0.37,0.8-0.97,0.61c-1.52-0.46-1.81-0.87-1.97-2.35
						c-0.24-2.26-0.57-4.51-0.85-6.77c-0.06-0.48-0.13-0.98-0.07-1.46c0.02-0.17,0.45-0.46,0.63-0.42c0.63,0.15,1.21,0.46,1.84,0.64
						c0.63,0.18,0.91,0.51,0.94,1.2c0.1,2.44,0.28,4.88,0.42,7.32C160.16,143.46,160.17,143.46,160.18,143.46z"/>
					<path class="st7" d="M178.44,135.25c-0.37,2.14-0.72,4.14-1.06,6.15c-0.16,0.96-0.32,1.93-0.47,2.9
						c-0.16,1-0.62,1.63-1.73,1.73c-0.69,0.06-0.98,0.22-0.81-0.77c0.5-2.98,0.82-5.99,1.21-8.98c0.09-0.7,2.06-1.87,2.61-1.53
						C178.35,134.84,178.39,135.15,178.44,135.25z"/>
					<path class="st7" d="M181.3,133.75c-0.48,3.18-0.91,6.01-1.33,8.85c-0.04,0.24,0.05,0.56-0.07,0.72
						c-0.28,0.36-0.65,0.65-0.99,0.96c-0.14-0.39-0.45-0.8-0.39-1.16c0.37-2.17,0.83-4.33,1.24-6.49c0.18-0.96,0.29-1.93,0.53-2.87
						c0.06-0.22,0.53-0.33,0.82-0.48C181.21,133.54,181.32,133.8,181.3,133.75z"/>
				</g>
				<path class="st2" d="M182.46,168.44c-0.14-0.04-0.33-0.04-0.37-0.12c-0.06-0.12-0.09-0.36-0.02-0.44
					c0.43-0.47,0.82-1.01,1.36-1.32c0.32-0.18,0.86,0.03,1.31,0.06c-0.25,0.36-0.42,0.82-0.75,1.07
					C183.53,168.03,182.97,168.2,182.46,168.44z"/>
			</g>
			<path class="st4" d="M169.36,70.48c-40.36,0-80.73,0-121.09,0c-0.19,0-0.39,0-0.58,0c-2.93-0.05-2.98-0.07-2.98-2.91
				c-0.01-10.12,0-20.24,0-30.36c0-0.58-0.15-1.26,0.09-1.73c0.31-0.61,0.86-1.27,1.47-1.51c0.68-0.27,1.53-0.1,2.31-0.1
				c15.85,0.02,31.71,0,47.56,0.08c7.97,0.04,15.94,0.35,23.92,0.36c34.33,0.03,68.67-0.01,103,0c22.18,0,44.35,0.04,66.53,0.06
				c3.53,0,3.3-0.28,3.35,3.35c0.09,7.88,0.01,15.76,0.05,23.64c0.01,2.52,0.16,5.04,0.3,7.56c0.06,1.04-0.11,1.74-1.36,1.65
				c-0.48-0.03-0.97-0.02-1.46-0.02c-40.36,0-80.73,0-121.09,0C169.36,70.55,169.36,70.51,169.36,70.48z M169.04,36.54
				c0-0.06,0-0.13,0-0.19c-14.98,0-29.96,0.02-44.94-0.01c-12.35-0.02-24.71-0.12-37.06-0.14c-12.74-0.03-25.49-0.01-38.23-0.01
				c-2.33,0-2.32,0.03-2.32,2.39c0.01,8.95-0.01,17.91,0.02,26.86c0.01,3.3-0.7,3.4,3.56,3.27c4.18-0.13,8.36-0.3,12.54-0.3
				c75-0.05,150-0.07,225-0.1c0.68,0,1.36-0.02,2.04-0.02c0.82,0.01,1.28-0.36,1.28-1.21c0-0.49,0.03-0.97,0.03-1.46
				c0-9.15,0.01-18.29,0-27.44c0-1.86-0.02-1.91-1.99-1.88c-3.4,0.05-6.81,0.23-10.21,0.23C242.19,36.55,205.62,36.54,169.04,36.54z
				"/>
			<path class="st4" d="M185.67,228.28c-0.1,0-0.2,0.01-0.29,0c-1.21-0.17-3.05,0.06-3.48-0.61c-0.76-1.18,0.85-2.06,1.64-2.95
				c0.45-0.5,0.71-0.95,0.08-1.43c-1.3-0.99-2.56-2.06-3.96-2.87c-1.29-0.75-2.6-0.34-3.81,0.49c-0.3,0.21-0.85,0.04-1.29,0.04
				c0.05-0.44-0.05-0.98,0.16-1.31c0.78-1.24,2.05-1.73,3.44-1.87c2.98-0.3,5.81,0.23,8.24,2.07c0.98,0.75,1.6,1.04,2.68,0.04
				c1.13-1.05,1.45-0.87,1.71,0.78c0.26,1.71,0.28,3.46,0.41,5.2c0.11,1.47-0.72,2.18-2.03,2.31c-1.15,0.12-2.32,0.02-3.49,0.02
				C185.67,228.23,185.67,228.25,185.67,228.28z"/>
			<path class="st4" d="M151.64,228.23c-5.96,0.17-5.39-0.49-5.26-5.78c0.01-0.29,0.04-0.58,0.12-0.86c0.2-0.74,0.42-1.48,0.64-2.21
				c0.65,0.34,1.35,0.6,1.93,1.02c0.79,0.58,1.23,0.05,1.76-0.36c2.51-1.92,5.37-2.58,8.47-2.28c1.39,0.14,2.66,0.61,3.48,1.81
				c0.23,0.34,0.18,0.88,0.26,1.32c-0.43,0.03-0.93,0.21-1.29,0.06c-3.08-1.23-6.15-0.31-7.94,2.51c-0.16,0.26-0.03,0.87,0.17,1.17
				c0.49,0.71,1.18,1.29,1.66,2c0.56,0.84,0.25,1.48-0.78,1.57C153.78,228.31,152.71,228.23,151.64,228.23z"/>
			<path class="st2" d="M169.04,36.54c36.58,0,73.15,0.01,109.73-0.01c3.4,0,6.81-0.19,10.21-0.23c1.97-0.03,1.99,0.02,1.99,1.88
				c0.01,9.15,0,18.29,0,27.44c0,0.49-0.02,0.97-0.03,1.46c-0.01,0.85-0.46,1.22-1.28,1.21c-0.68-0.01-1.36,0.01-2.04,0.02
				c-75,0.03-150,0.05-225,0.1c-4.18,0-8.36,0.17-12.54,0.3c-4.26,0.14-3.55,0.04-3.56-3.27c-0.03-8.95-0.01-17.91-0.02-26.86
				c0-2.36-0.01-2.39,2.32-2.39c12.74-0.01,25.49-0.02,38.23,0.01c12.35,0.03,24.71,0.12,37.06,0.14
				c14.98,0.03,29.96,0.01,44.94,0.01C169.04,36.41,169.04,36.48,169.04,36.54z M135.23,62.65c0-0.06,0.01-0.12,0.01-0.18
				c3.2,0,6.41,0.05,9.61-0.01c2.78-0.05,3.62-0.58,3.89-3.19c0.36-3.46,0.4-6.96,0.44-10.44c0.04-2.81-1.01-3.83-3.79-3.93
				c-2.52-0.09-5.04-0.13-7.57-0.17c-0.71-0.01-1.41-0.01-1.58-0.9c-0.48-2.42-2.21-2.57-4.19-2.45c-1.45,0.09-2.91,0.04-4.36,0
				c-1.29-0.04-2.43,0.35-2.78,1.62c-0.31,1.12-0.95,1.3-1.89,1.31c-1.34,0.01-1.86,0.75-1.9,2.03c-0.15,4.45-0.37,8.9-0.48,13.35
				c-0.03,1.31,0.69,2.16,2.14,2.24C126.93,62.15,131.08,62.4,135.23,62.65z M270.28,64.51c0,0.08,0,0.17,0,0.25
				c2.33,0,4.66,0.02,6.98-0.01c2.71-0.03,3.35-0.62,3.87-3.25c0.14-0.7,0.34-1.58,0.83-1.99c1.68-1.37,2.05-3.17,2.11-5.16
				c0.09-2.91,0.2-5.82,0.32-8.72c0.12-2.89-0.94-4.15-3.85-4.2c-4.36-0.08-8.73,0-13.09-0.05c-1.53-0.02-2.47,0.66-2.59,2.11
				c-0.1,1.18-0.57,1.5-1.64,1.38c-0.67-0.08-1.36-0.06-2.03-0.01c-1.98,0.13-2.76,0.89-2.78,2.93c-0.05,4.56-0.06,9.12-0.01,13.68
				c0.02,2.38,0.38,2.86,2.89,3C264.27,64.64,267.28,64.51,270.28,64.51z M206.2,63.01c0,0.09,0,0.18,0,0.27
				c3.01,0,6.01-0.08,9.02,0.03c2.05,0.07,2.35-0.03,2.35-2.19c0.01-5.83-0.01-11.65-0.07-17.48c-0.02-1.91-0.3-2.23-2.2-2.22
				c-5.62,0.05-11.25,0.13-16.87,0.33c-2.41,0.08-2.98,0.99-3.12,3.55c-0.27,4.93-0.6,9.86-0.97,14.79
				c-0.16,2.06,0.42,2.87,2.54,2.9C199.99,63.05,203.09,63.01,206.2,63.01z M73.2,51.98c-0.03,1.43,0.88,2.51,2.16,2.55
				c1.35,0.05,3.08-1.59,3.09-2.93c0.01-1.19-1.47-2.63-2.64-2.59C74.49,49.06,73.23,50.49,73.2,51.98z M75.83,42.01
				c-1.42,0.03-2.72,1.62-2.63,3.23c0.08,1.41,1.1,2.36,2.42,2.24c1.35-0.11,2.8-1.58,2.83-2.86
				C78.47,43.44,77.01,41.98,75.83,42.01z M73.19,59.1c0.01,1.42,0.96,2.43,2.28,2.42c1.41-0.01,3.03-1.67,2.96-3.02
				c-0.05-1.08-1.38-2.41-2.45-2.48C74.58,55.94,73.18,57.49,73.19,59.1z M70.91,51.45c-0.01-1.25-1.36-2.44-2.74-2.41
				c-1.3,0.04-2.49,1.37-2.42,2.71c0.07,1.25,1.19,2.41,2.38,2.46C69.46,54.28,70.92,52.82,70.91,51.45z M68.17,47.22
				c1.33,0.04,2.77-1.44,2.74-2.8c-0.03-1.15-1.2-2.26-2.48-2.36c-1.32-0.11-2.59,1.06-2.68,2.45
				C65.67,45.83,66.87,47.18,68.17,47.22z M68.24,61.24c1.34,0,2.75-1.52,2.67-2.87c-0.06-1.14-1.28-2.24-2.55-2.31
				c-1.3-0.07-2.58,1.16-2.62,2.53C65.71,59.92,66.94,61.24,68.24,61.24z M63.83,51.27c-0.06-1.11-1.42-2.29-2.58-2.25
				c-1.51,0.05-2.68,1.4-2.53,2.92c0.12,1.16,1.21,2.19,2.31,2.17C62.33,54.08,63.89,52.49,63.83,51.27z M60.93,61.12
				c1.29,0.05,2.9-1.48,2.9-2.75c0-1.1-1.31-2.34-2.48-2.35c-1.35-0.01-2.57,1.17-2.63,2.54C58.66,59.87,59.71,61.08,60.93,61.12z
				 M63.83,44.31c-0.03-1.09-1.37-2.32-2.52-2.31c-1.37,0.01-2.55,1.2-2.59,2.58c-0.03,1.3,1.04,2.5,2.26,2.51
				C62.24,47.12,63.86,45.53,63.83,44.31z"/>
			<path class="st4" d="M135.23,62.65c-4.15-0.24-8.3-0.5-12.46-0.72c-1.45-0.08-2.17-0.93-2.14-2.24c0.1-4.45,0.33-8.9,0.48-13.35
				c0.04-1.28,0.57-2.03,1.9-2.03c0.94,0,1.58-0.18,1.89-1.31c0.35-1.28,1.49-1.66,2.78-1.62c1.45,0.04,2.91,0.09,4.36,0
				c1.99-0.13,3.72,0.03,4.19,2.45c0.17,0.88,0.87,0.88,1.58,0.9c2.52,0.04,5.04,0.08,7.57,0.17c2.78,0.1,3.83,1.11,3.79,3.93
				c-0.05,3.48-0.08,6.98-0.44,10.44c-0.27,2.61-1.11,3.14-3.89,3.19c-3.2,0.06-6.4,0.01-9.61,0.01
				C135.24,62.53,135.24,62.59,135.23,62.65z M133.91,49.43c-2.48,0.04-4.56,2.1-4.46,4.41c0.1,2.29,2.11,4.06,4.51,3.98
				c2.18-0.08,4.12-2.01,4.1-4.11C138.05,51.51,136,49.4,133.91,49.43z"/>
			<path class="st4" d="M270.28,64.51c-3,0-6,0.13-8.99-0.04c-2.51-0.14-2.87-0.62-2.89-3c-0.04-4.56-0.04-9.12,0.01-13.68
				c0.02-2.05,0.8-2.8,2.78-2.93c0.68-0.04,1.36-0.06,2.03,0.01c1.08,0.12,1.55-0.2,1.64-1.38c0.12-1.46,1.06-2.13,2.59-2.11
				c4.36,0.05,8.73-0.03,13.09,0.05c2.91,0.05,3.97,1.31,3.85,4.2c-0.12,2.91-0.23,5.81-0.32,8.72c-0.06,1.99-0.43,3.79-2.11,5.16
				c-0.49,0.4-0.69,1.29-0.83,1.99c-0.52,2.63-1.16,3.23-3.87,3.25c-2.33,0.02-4.66,0.01-6.98,0.01
				C270.28,64.68,270.28,64.59,270.28,64.51z M266.56,47.52c0,1.07,0.02,2.14-0.01,3.21c-0.02,1.05,0.43,1.05,1.23,0.69
				c2.62-1.19,5.06-0.95,7.3,0.98c1.82,1.58,3.84,1.53,5.99,0.66c0.85-0.34,1.26-0.79,1.24-1.7c-0.04-1.75-0.01-3.5-0.04-5.25
				c-0.04-2.3-0.17-2.42-2.49-2.51c-3.01-0.11-6.02-0.11-9.02-0.32c-4.21-0.3-4.2-0.37-4.2,3.95
				C266.55,47.33,266.55,47.42,266.56,47.52z M264.17,51.31c0.08-0.93,0.22-2.28,0.29-3.64c0.02-0.31-0.23-0.9-0.36-0.9
				c-1.15-0.02-2.38-0.16-3.41,0.23c-0.41,0.16-0.51,1.54-0.49,2.36c0.05,2.82,0.27,5.63,0.32,8.45c0.02,1.26-0.23,2.52-0.26,3.78
				c-0.02,0.93,0.47,1.36,1.48,1.26c2.02-0.19,4.04-0.35,6.07-0.4c2.82-0.07,5.64,0.04,8.46-0.05c0.97-0.03,2.53,0.75,2.54-1.32
				c0.01-1.44-0.06-1.5-2.68-1.52c-2.24-0.02-4.47-0.02-6.71-0.07c-0.77-0.02-1.56-0.06-2.3-0.25c-2.14-0.55-2.88-1.49-2.96-3.7
				C264.13,54.27,264.17,53.01,264.17,51.31z M274.22,57.69C274.22,57.69,274.22,57.68,274.22,57.69c1.94-0.01,3.88-0.04,5.82,0
				c1.12,0.02,1.89-0.42,2.22-1.46c0.1-0.32-0.1-0.73-0.16-1.09c-0.26,0.04-0.54,0.03-0.76,0.14c-2.7,1.31-5.06,0.6-7.24-1.21
				c-0.22-0.18-0.5-0.3-0.72-0.48c-1.98-1.63-3.94-1.03-5.95-0.04c-1.32,0.65-0.9,1.81-0.87,2.79c0.03,1.12,0.88,1.35,1.85,1.35
				C270.34,57.68,272.28,57.69,274.22,57.69z"/>
			<path class="st4" d="M206.2,63.01c-3.11,0-6.21,0.04-9.32-0.01c-2.13-0.04-2.7-0.84-2.54-2.9c0.37-4.93,0.7-9.86,0.97-14.79
				c0.14-2.57,0.71-3.47,3.12-3.55c5.62-0.2,11.24-0.28,16.87-0.33c1.9-0.02,2.19,0.31,2.2,2.22c0.06,5.83,0.08,11.65,0.07,17.48
				c-0.01,2.16-0.3,2.26-2.35,2.19c-3-0.1-6.01-0.03-9.02-0.03C206.2,63.18,206.2,63.1,206.2,63.01z M206.69,43.74
				c0-0.02,0-0.03,0-0.05c-2.33,0-4.67,0-7,0c-2.32,0-2.46,0.14-2.54,2.45c-0.17,4.56-0.31,9.12-0.53,13.68
				c-0.06,1.27,0.59,1.45,1.59,1.43c4.28-0.07,8.55-0.09,12.83-0.17c0.97-0.02,1.93-0.2,2.9-0.26c0.81-0.05,1.24-0.38,1.27-1.24
				c0.17-4.76,0.33-9.52,0.55-14.28c0.06-1.37-0.64-1.6-1.78-1.59C211.55,43.77,209.12,43.74,206.69,43.74z"/>
			<path class="st4" d="M73.2,51.98c0.04-1.48,1.3-2.92,2.61-2.96c1.18-0.04,2.65,1.4,2.64,2.59c-0.01,1.34-1.74,2.98-3.09,2.93
				C74.08,54.49,73.16,53.41,73.2,51.98z"/>
			<path class="st4" d="M75.83,42.01c1.18-0.03,2.65,1.43,2.62,2.61c-0.03,1.28-1.47,2.75-2.83,2.86c-1.33,0.11-2.35-0.83-2.42-2.24
				C73.11,43.63,74.41,42.04,75.83,42.01z"/>
			<path class="st4" d="M73.19,59.1c-0.01-1.61,1.39-3.16,2.79-3.08c1.08,0.06,2.4,1.4,2.45,2.48c0.07,1.36-1.55,3.01-2.96,3.02
				C74.15,61.53,73.2,60.52,73.19,59.1z"/>
			<path class="st4" d="M70.91,51.45c0.01,1.37-1.45,2.83-2.78,2.77c-1.19-0.05-2.32-1.21-2.38-2.46c-0.07-1.34,1.12-2.68,2.42-2.71
				C69.55,49.01,70.91,50.2,70.91,51.45z"/>
			<path class="st4" d="M68.17,47.22c-1.3-0.04-2.5-1.38-2.42-2.72c0.08-1.39,1.36-2.56,2.68-2.45c1.29,0.1,2.46,1.22,2.48,2.36
				C70.94,45.78,69.5,47.25,68.17,47.22z"/>
			<path class="st4" d="M68.24,61.24c-1.29,0-2.53-1.31-2.49-2.65c0.04-1.36,1.32-2.59,2.62-2.53c1.27,0.07,2.48,1.17,2.55,2.31
				C70.98,59.72,69.57,61.23,68.24,61.24z"/>
			<path class="st4" d="M63.83,51.27c0.07,1.22-1.5,2.82-2.79,2.84c-1.1,0.02-2.19-1-2.31-2.17c-0.15-1.52,1.01-2.87,2.53-2.92
				C62.41,48.98,63.76,50.16,63.83,51.27z"/>
			<path class="st4" d="M60.93,61.12c-1.22-0.05-2.27-1.26-2.21-2.56c0.06-1.37,1.28-2.55,2.63-2.54c1.17,0.01,2.48,1.26,2.48,2.35
				C63.83,59.64,62.22,61.17,60.93,61.12z"/>
			<path class="st4" d="M63.83,44.31c0.03,1.22-1.58,2.8-2.85,2.79c-1.22-0.01-2.3-1.21-2.26-2.51c0.04-1.39,1.22-2.57,2.59-2.58
				C62.45,41.99,63.8,43.22,63.83,44.31z"/>
			<path class="st2" d="M133.91,49.43c2.09-0.04,4.13,2.07,4.15,4.27c0.01,2.09-1.92,4.03-4.1,4.11c-2.4,0.09-4.41-1.69-4.51-3.98
				C129.35,51.53,131.43,49.48,133.91,49.43z"/>
			<path class="st2" d="M266.56,47.52c0-0.1,0-0.19,0-0.29c0-4.31,0-4.25,4.2-3.95c3,0.22,6.01,0.21,9.02,0.32
				c2.33,0.09,2.45,0.21,2.49,2.51c0.03,1.75,0.01,3.5,0.04,5.25c0.02,0.91-0.39,1.35-1.24,1.7c-2.15,0.87-4.17,0.92-5.99-0.66
				c-2.24-1.93-4.68-2.17-7.3-0.98c-0.81,0.36-1.25,0.36-1.23-0.69C266.58,49.66,266.56,48.59,266.56,47.52z M277.81,45.38
				c-1.5-0.18-2.55,0.57-2.7,1.93c-0.15,1.33,0.89,2.61,2.31,2.85c1.56,0.26,3.03-0.81,3.1-2.26
				C280.58,46.68,279.39,45.57,277.81,45.38z"/>
			<path class="st2" d="M264.17,51.31c0,1.7-0.04,2.96,0.01,4.22c0.08,2.22,0.81,3.15,2.96,3.7c0.74,0.19,1.53,0.24,2.3,0.25
				c2.23,0.05,4.47,0.05,6.71,0.07c2.62,0.02,2.69,0.08,2.68,1.52c-0.02,2.07-1.57,1.29-2.54,1.32c-2.82,0.09-5.64-0.02-8.46,0.05
				c-2.03,0.05-4.05,0.21-6.07,0.4c-1.01,0.09-1.5-0.33-1.48-1.26c0.03-1.26,0.29-2.52,0.26-3.78c-0.06-2.82-0.27-5.63-0.32-8.45
				c-0.02-0.82,0.08-2.21,0.49-2.36c1.02-0.39,2.26-0.25,3.41-0.23c0.13,0,0.37,0.59,0.36,0.9
				C264.39,49.03,264.25,50.38,264.17,51.31z"/>
			<path class="st2" d="M274.22,57.69c-1.94,0-3.88-0.01-5.81,0c-0.97,0.01-1.83-0.23-1.85-1.35c-0.03-0.99-0.45-2.14,0.87-2.79
				c2.01-0.99,3.97-1.59,5.95,0.04c0.22,0.18,0.5,0.3,0.72,0.48c2.18,1.8,4.54,2.52,7.24,1.21c0.22-0.11,0.51-0.1,0.76-0.14
				c0.06,0.37,0.26,0.78,0.16,1.09c-0.33,1.05-1.11,1.49-2.22,1.46C278.1,57.65,276.16,57.68,274.22,57.69
				C274.22,57.68,274.22,57.69,274.22,57.69z"/>
			<path class="st2" d="M206.69,43.74c2.43,0,4.86,0.03,7.29-0.01c1.14-0.02,1.84,0.22,1.78,1.59c-0.22,4.76-0.38,9.52-0.55,14.28
				c-0.03,0.86-0.46,1.19-1.27,1.24c-0.97,0.06-1.93,0.24-2.9,0.26c-4.28,0.08-8.55,0.1-12.83,0.17c-1.01,0.02-1.66-0.16-1.59-1.43
				c0.22-4.56,0.36-9.12,0.53-13.68c0.09-2.31,0.22-2.44,2.54-2.45c2.33,0,4.67,0,7,0C206.69,43.71,206.69,43.72,206.69,43.74z
				 M212.95,57.62c-0.05-0.4-0.03-0.62-0.1-0.78c-1.53-3.34-2.92-6.75-4.66-9.97c-1.06-1.96-2.38-1.81-3.4,0.16
				c-1.64,3.19-3.2,6.42-4.73,9.66c-0.29,0.61-1.1,1.44-0.06,2.02c0.95,0.53,1.33-0.41,1.75-1.04c0.11-0.16,0.25-0.31,0.31-0.49
				c0.79-2.23,2.75-2.05,4.56-2.3c2.08-0.28,3.62,0.12,4.07,2.47c0.05,0.27,0.25,0.57,0.47,0.72c0.37,0.26,0.88,0.64,1.19,0.54
				C212.68,58.5,212.81,57.87,212.95,57.62z"/>
			<path class="st4" d="M277.81,45.38c1.58,0.19,2.77,1.3,2.71,2.51c-0.08,1.45-1.55,2.52-3.1,2.26c-1.41-0.23-2.46-1.52-2.31-2.85
				C275.26,45.94,276.31,45.19,277.81,45.38z"/>
			<path class="st4" d="M212.95,57.62c-0.13,0.25-0.27,0.88-0.59,0.98c-0.31,0.1-0.83-0.28-1.19-0.54
				c-0.22-0.15-0.42-0.46-0.47-0.72c-0.45-2.35-1.99-2.75-4.07-2.47c-1.81,0.25-3.77,0.07-4.56,2.3c-0.06,0.18-0.2,0.33-0.31,0.49
				c-0.43,0.62-0.8,1.56-1.75,1.04c-1.04-0.58-0.23-1.4,0.06-2.02c1.53-3.24,3.09-6.48,4.73-9.66c1.02-1.97,2.34-2.12,3.4-0.16
				c1.74,3.22,3.13,6.63,4.66,9.97C212.92,57,212.9,57.22,212.95,57.62z M206.14,53.01c0.2-0.03,0.67-0.09,1.14-0.18
				c0.94-0.18,1.37-0.65,0.82-1.59c-0.47-0.79-0.97-1.56-1.45-2.34c-0.43,0.74-0.86,1.49-1.28,2.24c-0.14,0.25-0.22,0.53-0.36,0.79
				C204.45,52.94,205.07,53.04,206.14,53.01z"/>
			<path class="st2" d="M206.14,53.01c-1.07,0.04-1.69-0.07-1.13-1.09c0.14-0.25,0.22-0.53,0.36-0.79c0.42-0.75,0.85-1.49,1.28-2.24
				c0.49,0.78,0.99,1.55,1.45,2.34c0.55,0.94,0.12,1.41-0.82,1.59C206.81,52.92,206.34,52.98,206.14,53.01z"/>
		</g>
	</g>
</g>
</svg>
