<?xml version="1.0" encoding="utf-8"?>
<!-- Generator: Adobe Illustrator 28.1.0, SVG Export Plug-In . SVG Version: 6.00 Build 0)  -->
<svg version="1.1" xmlns="http://www.w3.org/2000/svg" xmlns:xlink="http://www.w3.org/1999/xlink" x="0px" y="0px"
	 viewBox="0 0 507.99 279.48" style="enable-background:new 0 0 507.99 279.48;" xml:space="preserve">
<style type="text/css">
	.st0{fill:#F8F8F8;}
	.st1{fill:#B7E4EA;}
	.st2{fill:#FFFFFF;}
	.st3{fill:#1497C7;}
	.st4{fill:#00283D;}
	.st5{fill:#EEFBFE;}
	.st6{fill:#1DAAE0;}
	.st7{fill:#5BD3B1;}
	.st8{fill:none;stroke:#00283D;stroke-miterlimit:10;}
	.st9{fill:#E6E6E6;}
</style>
<g id="Layer_2">
</g>
<g id="Layer_1">
	<g>
		<path class="st4" d="M199.15,136.64c0,19.81,0,39.61,0,59.42c0,0.75-0.02,1.5,0.01,2.25c0.07,2.08,0.08,2.09,2.17,2.15
			c0.75,0.02,1.5,0.01,2.25,0.01c25.47,0,50.94,0,76.42,0c0.64,0,1.29,0.05,1.92-0.02c0.61-0.07,1.57-0.07,1.75-0.42
			c0.43-0.82,0.59-1.83,0.63-2.77c0.01-0.27-0.74-0.77-1.19-0.83c-4.25-0.58-8.43-2.49-12.84-0.74c-1.06,0.42-1.87-0.28-1.49-1.17
			c1.99-4.65,2.47-9.66,3.5-14.53c3.25-15.42,6.73-30.78,11.04-45.94c0.15-0.51,0.4-0.99,0.54-1.5c2.17-8.21,8.05-12.52,15.73-14.88
			c1.64-0.5,3.13-0.97,4.43-2.28c1.7-1.71,4-2.36,6.46-2.29c0.29,0.01,0.59-0.4,0.88-0.62c-0.33-0.19-0.64-0.5-0.99-0.54
			c-2.43-0.27-4.93-0.21-7.28-0.78c-3.24-0.78-5.51-2.81-5.74-6.42c-0.26-4.04-0.45-8.09-0.64-12.13c-0.05-1.17-0.02-2.36,0.05-3.53
			c0.07-1.11-0.34-1.75-1.37-2.24c-1.24-0.6-2.48-1.3-3.5-2.21c-1.63-1.44-1.75-2.69-0.5-4.49c1.22-1.75,2.58-3.41,3.97-5.03
			c0.95-1.11,1.58-2.21,1.35-3.76c-0.19-1.31,0.31-2.21,1.8-2.53c2.37-0.5,2.57-2.84,3.41-4.55c0.17-0.36-0.6-1.24-1.02-1.81
			c-3.14-4.26-4.61-9.12-4.78-14.33c-0.16-4.95,3.58-8.36,8.47-7.44c2.21,0.42,3.54,0.08,5.5-1.06c4.72-2.74,9.56-1.94,13.51,2.49
			c1.48,1.66,3.06,3.32,4.89,4.53c1.92,1.27,4.18,2.06,6.34,2.97c1.27,0.53,2.63,0.84,3.93,1.32c4.73,1.74,8.71,4.6,11.79,8.56
			c3.28,4.2,4.43,8.94,2.61,14.15c-0.28,0.8-0.82,1.68,0.41,2.09c2.47,0.83,3.39,2.72,3.78,5.09c0.4,2.48-0.29,4.71-1.83,6.56
			c-1.15,1.37-2.56,2.59-4.04,3.61c-2.2,1.51-4.51,2.87-6.86,4.12c-2.63,1.4-4.07,3.33-3.54,6.41c0.07,0.42,0,0.86,0.08,1.28
			c0.27,1.45,0.14,3.3,1,4.21c0.69,0.73,2.59,0.3,3.95,0.4c3.57,0.27,6.97,1.08,9.82,3.38c0.74,0.59,1.63,1.29,1.89,2.11
			c0.63,2.03,2.27,2.33,3.9,2.72c3.32,0.78,6.65,1.51,9.97,2.25c0.62,0.14,1.25,0.36,1.87,0.33c5.29-0.26,8.85,2.58,11.77,6.55
			c2.27,3.1,3.32,6.7,3.83,10.42c1.37,10.01,0.9,20.09,0.55,30.13c-0.28,8.1-1.19,16.18-1.84,24.27c-0.2,2.45-0.54,4.88-0.66,7.33
			c-0.14,2.83-1.75,4.43-4.15,5.48c-0.49,0.21-0.98,0.49-1.49,0.56c-1.27,0.17-1.74,0.91-2.03,2.09c-1.44,5.83-3.96,11.24-6.39,16.7
			c-1.94,4.36-4.97,6.99-9.71,7.87c-7.64,1.42-15.23,3.03-23.07,3.14c-4.68,0.07-9.35,0.75-14.03,1.11
			c-3.72,0.29-7.46,0.47-11.18,0.74c-4.89,0.36-9.78,0.79-14.67,1.14c-1.71,0.12-3.43,0.03-5.13,0.15
			c-5.63,0.4-11.26,0.84-16.89,1.3c-0.62,0.05-1.25,0.29-1.82,0.55c-7.45,3.32-15.4,4.08-23.39,4.44c-2.33,0.1-4.71-0.17-7.01-0.58
			c-4.38-0.79-9.84-4.86-7.44-11.44c1.09-2.97,2.39-5.88,3.81-8.71c0.36-0.73,1.44-1.29,2.3-1.56c6.31-1.93,12.61-3.9,19-5.56
			c2.66-0.7,5.51-0.66,8.24,0.22c1.11,0.36,2.31,0.5,3.38,0.96c7.3,3.14,14.69,2.96,22.21,0.88c14.65-4.06,29.33-8.05,43.99-12.08
			c0.51-0.14,1.02-0.33,1.5-0.54c0.25-0.11,0.46-0.33,0.69-0.5c-0.31-0.07-0.61-0.19-0.92-0.19c-5.35,0-10.7,0.01-16.05,0.02
			c-39.38,0.01-78.77,0.02-118.15,0.03c-2.57,0-5.14,0.09-7.7,0.04c-1.39-0.03-1.92,0.52-1.87,1.89c0.06,1.6,0.07,3.22-0.04,4.82
			c-0.17,2.56-1.05,3.16-3.51,2.79c-8.42-1.29-16.85-2.53-25.27-3.8c-8-1.21-16-2.47-24.01-3.64c-6.64-0.97-13.3-1.84-19.95-2.76
			c-1.9-0.26-3.8-0.55-5.69-0.83c-1.44-0.21-1.66-0.01-1.13,1.39c3.26,8.62,6.97,17,13.14,24.03c0.69,0.79,1.23,1.75,1.69,2.7
			c0.43,0.89-0.09,1.52-0.96,1.58c-1.05,0.07-2.13-0.03-3.19-0.18c-6.64-0.98-13.27-1.98-19.91-2.99c-8-1.21-16.01-2.44-24.01-3.65
			c-2.11-0.32-4.23-0.54-6.33-0.89c-2.3-0.38-2.8-1.14-1.94-3.28c1.19-2.97,2.68-5.82,3.83-8.81c1.58-4.07,3.04-8.2,4.4-12.35
			c0.77-2.34,0.41-2.73-2.08-3.07c-9.82-1.33-19.63-2.65-29.45-4.01c-2.53-0.35-5.05-0.8-7.57-1.2c-2.69-0.43-2.95-0.7-2.95-3.52
			c0.01-10.39,0.05-20.77,0.06-31.16c0.02-16.27,0.02-32.55,0.04-48.82c0-1.5-0.01-3,0.07-4.5c0.15-2.79,0.47-3.32,3.22-3.94
			c5.09-1.14,10.21-2.13,15.33-3.13c10.56-2.06,21.12-4.07,31.68-6.14c10.24-2,20.47-4.04,30.7-6.07c4.48-0.89,8.95-1.82,13.42-2.73
			c9.06-1.84,18.11-3.73,27.18-5.5c9.73-1.89,19.47-3.68,29.22-5.48c2.23-0.41,3,0.06,3.34,2.21c0.32,2,0.49,4.04,0.49,6.06
			c0.03,19.49,0.02,38.97,0.02,58.46C199.1,136.64,199.13,136.64,199.15,136.64z M196.52,135.75c0.03,0,0.05,0,0.08,0
			c0-19.91,0-39.83,0-59.74c0-0.64-0.01-1.29,0.01-1.93c0.04-1.22-0.53-1.42-1.61-1.13c-1.54,0.41-3.11,0.73-4.68,1.03
			c-8.49,1.59-16.98,3.13-25.46,4.76c-10.46,2.01-20.91,4.1-31.37,6.11c-12.76,2.45-25.53,4.81-38.29,7.27
			c-11.81,2.28-23.61,4.65-35.41,6.97c-3.45,0.68-6.9,1.31-10.35,1.98c-2.43,0.47-2.46,0.51-2.47,3.17
			c-0.01,2.14,0.06,4.28,0.06,6.42c0.05,24.41,0.1,48.82,0.15,73.24c0,0.64,0,1.29,0.02,1.93c0.09,2.3,0.08,2.35,2.48,2.83
			c1.36,0.27,2.75,0.34,4.12,0.55c5.06,0.76,10.11,1.55,15.16,2.3c5.27,0.79,10.54,1.51,15.8,2.34c2.58,0.41,2.9,0.24,3.26-2.44
			c0.41-3.06,0.95-6.12,1.19-9.19c0.25-3.08,0.25-6.19,0.26-9.28c0-1.37,0.25-3.22-0.5-4c-0.86-0.9-2.72-0.8-4.11-1.24
			c-0.44-0.14-0.77-0.61-1.15-0.94c0.45-0.32,0.9-0.91,1.35-0.92c3.1-0.04,6.21-0.03,9.31,0.12c7.15,0.34,14.29,0.75,21.44,1.17
			c2.55,0.15,5.1,0.41,7.65,0.65c0.4,0.04,0.83,0.2,1.17,0.42c0.22,0.15,0.43,0.53,0.4,0.78c-0.02,0.23-0.35,0.57-0.58,0.61
			c-0.73,0.11-1.49,0.13-2.23,0.14c-2.14,0.02-4.28,0.09-6.42-0.01c-1.6-0.07-2.1,0.61-1.97,2.09c0.21,2.23,0.42,4.46,0.52,6.7
			c0.28,6.23,1.84,12.21,3.33,18.21c0.32,1.3,1.05,1.84,2.44,2.02c5.39,0.71,10.75,1.61,16.12,2.38c6.65,0.95,13.3,1.83,19.95,2.78
			c6.75,0.97,13.49,2,20.24,2.99c6.01,0.88,12.03,1.7,18.03,2.67c1.04,0.17,1.5,0.33,1.53-0.96c0.15-5.88,0.5-11.76,0.52-17.64
			C196.56,172.59,196.52,154.17,196.52,135.75z M313.83,200.47c0,0.02,0,0.04,0,0.06c8.24,0,16.47,0,24.71,0
			c2.25,0,2.24-0.02,2.47-2.43c0.04-0.42,0.12-0.84,0.23-1.25c1.87-6.88,3.79-13.74,5.6-20.63c2.66-10.1,5.47-20.15,9.52-29.8
			c3.64-8.64,7.21-17.34,12.37-25.24c0.58-0.89,0.49-1.32-0.54-1.55c-2.59-0.59-5.19-1.18-7.77-1.8c-0.93-0.22-1.67-0.23-1.97,0.93
			c-1.05,4.07-3.84,7.02-7.08,9.23c-7.5,5.1-15.24,9.85-22.93,14.65c-1.98,1.24-2.77,0.99-3.95-0.97
			c-2.25-3.74-4.41-7.52-6.51-11.34c-0.62-1.12-0.9-1.12-1.76-0.2c-3.09,3.34-7.15,5.36-10.99,7.66c-0.27,0.16-0.57,0.29-0.88,0.37
			c-1.92,0.47-2.8-0.05-3.13-2.02c-0.3-1.78-0.6-3.6-0.58-5.4c0.04-3.3,0.3-6.59,0.49-9.89c0.04-0.71-0.03-1.47-0.95-1.09
			c-5.09,2.09-10.16,4.35-12.4,9.89c-1.52,3.74-2.88,7.58-3.84,11.5c-4.09,16.74-8,33.53-12,50.3c-0.25,1.05,0.1,1.31,1.05,1.37
			c2.44,0.17,4.88,0.39,7.32,0.63c1.35,0.13,3.26,0.94,3.91,0.35c0.88-0.8,0.87-2.65,1.08-4.08c1.27-8.42,2.48-16.85,3.77-25.27
			c0.35-2.31,0.89-4.59,1.4-6.88c0.07-0.33,0.5-0.58,0.76-0.86c0.12,0.27,0.33,0.54,0.33,0.81c-0.01,1.81,0.08,3.65-0.14,5.44
			c-0.72,5.92-1.55,11.83-2.33,17.74c-0.77,5.81-1.53,11.62-2.34,17.42c-0.31,2.23-0.33,2.32,2.05,2.33
			C297.14,200.49,305.49,200.47,313.83,200.47z M363.59,191.06c-3.65,0.6-7.32,1.14-10.96,1.87c-0.8,0.16-1.81,0.9-2.12,1.63
			c-0.97,2.24-1.65,4.6-2.42,6.92c-0.26,0.77,0.04,0.97,0.77,0.67c0.29-0.12,0.6-0.28,0.91-0.29c1.33-0.04,3.4-1.56,3.76-0.24
			c0.51,1.84-2,1.7-3.25,2.1c-17.9,5.82-36.02,10.89-54.32,15.31c-7.17,1.73-14.1,1.4-20.96-1.22c-0.8-0.3-1.6-0.6-2.42-0.81
			c-2.36-0.6-4.66-1.26-7.2-0.52c-6.53,1.9-13.12,3.59-19.69,5.38c-0.2,0.05-0.4,0.16-0.56,0.3c-0.23,0.2-0.42,0.44-0.63,0.66
			c0.31,0.06,0.62,0.17,0.93,0.18c0.64,0.02,1.29,0.05,1.92-0.04c4.74-0.69,9.51-1.19,14.19-2.19c2.87-0.61,5.5,0.51,8.25,0.39
			c0.1,0,0.23,0.05,0.29,0.12c0.27,0.31,0.69,0.62,0.7,0.95c0.01,0.24-0.52,0.7-0.82,0.72c-1.92,0.09-3.96-0.32-5.74,0.2
			c-4.27,1.25-8.47,2.81-12.6,4.48c-1.33,0.53-2.41,1.72-3.52,2.7c-0.32,0.29-0.34,0.92-0.49,1.39c0.48-0.03,1.01,0.07,1.43-0.11
			c3.45-1.41,6.8-3.09,10.33-4.24c2.28-0.74,4.8-0.75,7.22-1.05c0.22-0.03,0.49,0.24,0.73,0.38c-0.2,0.21-0.37,0.54-0.62,0.61
			c-1.02,0.31-2.1,0.44-3.08,0.82c-4.16,1.61-8.3,3.28-12.44,4.96c-0.3,0.12-0.49,0.51-0.72,0.78c0.36,0.19,0.7,0.48,1.09,0.55
			c0.4,0.08,0.85,0,1.27-0.07c3.76-0.7,7.5-1.53,11.28-2.1c2.94-0.45,5.93-0.6,8.9-0.83c0.31-0.02,0.65,0.33,0.98,0.51
			c-0.32,0.22-0.61,0.57-0.96,0.64c-5.3,1.12-10.61,2.2-15.92,3.31c-0.35,0.07-0.68,0.27-1.02,0.4c0.32,0.25,0.62,0.68,0.96,0.73
			c0.84,0.11,1.71,0.11,2.55,0.03c1.8-0.16,3.59-0.38,5.39-0.58c2.33-0.26,4.65-0.53,6.98-0.78c5.39-0.59,10.78-1.22,16.19-1.74
			c2.72-0.26,5.42-0.41,8.19-0.34c5.19,0.12,10.41-0.65,15.61-1.03c3.19-0.24,6.39-0.43,9.58-0.67c7.87-0.59,15.72-1.39,23.6-1.75
			c6.66-0.31,13.04-1.92,19.46-3.41c2.7-0.63,4.75-2.27,6.04-4.85c4.12-8.24,6.84-16.96,8.82-25.92c0.11-0.51-0.36-1.47-0.84-1.74
			c-1.09-0.62-2.32-1.14-3.56-1.37C371.29,192.19,367.51,191.67,363.59,191.06z M387.53,153.8c-0.27-4.71-0.49-10.36-0.94-16
			c-0.26-3.3-1.02-6.52-2.52-9.52c-1.65-3.29-4.12-5.67-7.56-7.04c-2.12-0.84-4.05-0.5-5.51,1.25c-1.08,1.3-2.11,2.72-2.84,4.25
			c-3.12,6.54-6.27,13.08-9.12,19.74c-4.4,10.3-7.43,21.06-10.27,31.88c-1.19,4.53-2.49,9.03-3.7,13.55
			c-0.1,0.37,0.07,0.81,0.11,1.22c0.28-0.07,0.58-0.11,0.84-0.23c8-3.53,16.26-4.82,24.95-3.31c4.24,0.74,8.32,1.72,11.91,4.25
			c1.96,1.38,2.27,1.21,2.44-1.04c0.44-5.63,0.94-11.26,1.25-16.91C386.97,168.85,387.19,161.8,387.53,153.8z M94.29,168.55
			c-2.31-0.11-2.32-0.05-2.38,2.14c-0.16,5.54-0.27,11.09-0.61,16.63c-0.45,7.18-2.07,14.13-4.76,20.8
			c-1.59,3.96-3.37,7.84-5.11,11.74c-0.35,0.79-0.31,1.16,0.6,1.29c1.79,0.26,3.58,0.56,5.36,0.84c6.42,0.99,12.84,1.99,19.26,2.95
			c6.43,0.96,12.86,1.87,19.29,2.78c1.14,0.16,2.3,0.2,3.45,0.3c-0.54-1.08-0.96-2.24-1.65-3.21c-5.69-8.02-9.47-16.98-12.29-26.27
			c-2.67-8.78-3.96-17.89-4.21-27.09c-0.03-1.17-0.35-1.71-1.62-1.79C104.5,169.33,99.39,168.92,94.29,168.55z M298.66,95.68
			c-0.08,0.01-0.16,0.02-0.23,0.02c0.3,3.07,0.56,6.15,0.91,9.22c0.25,2.15,1.61,3.54,3.6,4.05c1.84,0.47,3.81,0.9,5.67,0.75
			c3.49-0.28,6.97-0.89,10.42-1.54c3.03-0.57,6-1.44,9.03-2.01c0.91-0.17,1.93,0.2,2.9,0.33c-0.76,0.51-1.45,1.25-2.28,1.48
			c-4.2,1.16-8.41,2.26-12.66,3.22c-2.44,0.55-2.5,0.4-2.49,3.05c0.01,2.24,0.18,4.48,0.14,6.72c-0.04,2.13,0.06,2.4,2.07,3.34
			c0.77,0.36,1.51,0.82,2.32,1.07c0.63,0.19,1.44,0.35,2.01,0.13c5.35-2.11,10.73-4.16,15.96-6.54c2.59-1.18,4.88-3.02,7.28-4.6
			c1-0.66,0.91-1.32-0.17-1.84c-2.26-1.09-3.22-3.03-3.47-5.39c-0.24-2.33-0.24-4.7-0.63-7c-0.37-2.16,0.42-3.64,1.85-5.09
			c1.11-1.13,2.13-2.41,2.93-3.78c0.96-1.64,0.61-3.26-0.69-4.7c-1.57-1.75-3.47-2.68-5.01-1.77c-1.84,1.09-3.01,0.41-4.18-0.83
			c-1.31-1.39-2.88-2.68-3.77-4.32c-1.19-2.2-2.95-2.87-5.14-3.03c-1.07-0.08-2.15,0.02-3.21-0.09c-1.54-0.15-1.98,0.43-2,1.98
			c-0.05,3.43-1.27,5.01-4.21,6.02c-5.47,1.88-10.7-0.94-12.06-6.51c-0.1-0.41-0.09-0.89-0.3-1.23c-0.35-0.56-0.77-1.17-1.31-1.52
			c-0.7-0.46-1.53-0.81-2.35-0.96c-0.49-0.09-1.24,0.12-1.56,0.48c-1.13,1.27-2.1,2.7-3.19,4.01c-3.04,3.66-2.84,4.59,1.55,6.52
			c0.39,0.17,0.83,0.23,1.21,0.42c0.74,0.35,1.47,0.76,2.2,1.14c-0.35,0.59-0.79,1.15-1.02,1.78c-0.18,0.48-0.11,1.05-0.11,1.59
			C298.66,92.04,298.66,93.86,298.66,95.68z M298.04,49.01c0.33,1.56,0.64,4.01,1.4,6.32c0.65,2,1.75,3.87,2.76,5.73
			c0.43,0.8,1.12,1.03,1.61-0.06c0.69-1.56,1.35-3.13,2.07-4.67c0.52-1.12,1.16-1.19,1.81-0.2c0.41,0.62,0.63,1.37,1.07,1.96
			c1.97,2.64,3.93,5.3,6.01,7.86c1.07,1.32,2.62,1.74,4.33,1.6c1.63-0.13,2.69-1.04,3.68-2.26c0.55-0.68,1.43-1.43,2.22-1.5
			c1.48-0.13,1.31,1.44,1.67,2.35c0.92,2.38,1.73,4.8,2.55,7.22c0.47,1.38,1.33,2,2.86,2c1.91,0,3.84,0.48,5.74,0.4
			c3.3-0.14,5.75,1.35,7.85,3.64c0.38,0.41,0.52,1.04,0.77,1.57c-0.6-0.02-1.26,0.12-1.78-0.09c-0.68-0.27-1.22-0.86-1.87-1.23
			c-1.1-0.62-2.19-1.47-3.38-1.7c-2.19-0.43-4.45-0.5-6.68-0.7c-0.92-0.08-1.22,0.35-0.65,1.08c0.91,1.17,1.93,2.27,2.89,3.41
			c0.74,0.88,1.42,1.07,2.71,0.77c4.15-0.94,8.01,1.98,8.54,6.13c0.12,0.92,0.21,1.84,0.32,2.76c0.83-0.46,1.68-0.9,2.5-1.37
			c0.92-0.53,1.85-1.07,2.74-1.66c1.94-1.31,3.19-3.17,3.87-5.36c0.75-2.43-0.62-5.11-2.8-5.73c-0.87-0.25-2.27-0.19-2.52-0.7
			c-0.33-0.69,0.21-1.81,0.41-2.73c0.18-0.83,0.35-1.67,0.59-2.49c1.06-3.6-0.1-6.71-2.14-9.59c-3.12-4.4-7.23-7.62-12.35-9.25
			c-6.12-1.95-11.62-4.63-15.76-9.8c-2.39-2.98-6.07-3.16-9.63-1.61c-0.7,0.3-1.6,1.06-1.68,1.7c-0.23,1.69-0.96,1.64-2.16,1.06
			c-0.67-0.32-1.37-0.6-2.07-0.86C301.58,41.54,298.1,43.93,298.04,49.01z M356.91,116.29c-0.56-1.09-0.9-2.4-1.71-3.24
			c-1.67-1.72-3.95-2.47-6.25-3.04c-0.79-0.2-1.51,0-1.45,1.1c0.12,2.18-1.09,3.65-2.77,4.73c-3.23,2.07-6.37,4.32-9.81,5.97
			c-4.5,2.16-9.24,3.83-13.89,5.67c-1.14,0.45-1.71,0.97-0.98,2.21c2,3.4,4,6.8,5.95,10.24c0.7,1.23,1.39,0.52,2.08,0.1
			c6.48-3.94,13.03-7.75,19.38-11.89c2.56-1.67,4.74-3.96,6.92-6.14C355.82,120.54,356.63,118.64,356.91,116.29z M307.77,115.7
			c-0.4,0.18-0.7,0.29-0.97,0.45c-2.37,1.32-3.43,3.56-3.55,6.06c-0.2,4.25-0.05,8.51-0.07,12.76c0,1.46,0.68,1.26,1.56,0.69
			c2.86-1.84,5.75-3.62,8.56-5.53c0.86-0.58,1.52-1.46,2.24-2.23c0.58-0.63,0.37-0.99-0.37-1.43c-1.27-0.75-2.49-1.61-3.63-2.55
			c-2.35-1.92-4.52-3.97-3.44-7.5C308.16,116.25,307.9,115.97,307.77,115.7z M310.9,68.81c2.6,0.51,5.78,0.97,7.25,4.52
			c0.23,0.56,0.98,1.2,1.56,1.29c2.21,0.31,4.45,0.42,6.68,0.57c0.83,0.06,1.09-0.21,0.75-1.11c-0.78-2.09-1.46-4.22-2.12-6.36
			c-0.31-1.02-0.79-0.81-1.3-0.27c-1.22,1.3-2.6,2.05-4.48,2.13c-2.65,0.11-4.92-0.67-6.59-2.64c-1.86-2.19-3.46-4.59-5.2-6.88
			c-0.23-0.3-0.53-1.12-1.06-0.12c-1.98,3.78-4,7.53-5.99,11.3c-0.13,0.24-0.22,0.76-0.11,0.84c0.96,0.65,1.92,1.33,2.99,1.73
			c0.22,0.08,0.96-0.94,1.32-1.54C305.89,70.09,307.71,68.82,310.9,68.81z M312.67,83.25c2.68-0.28,4.65-1.27,5.18-2.84
			c1.33-3.92-1.73-8.69-5.87-9.16c-3.13-0.36-4.74,0.67-5.78,3.69c-1.01,2.95-0.23,5.43,2.37,6.82
			C309.83,82.44,311.29,82.77,312.67,83.25z M259.71,239.23c-1.02-0.05-2.05-0.03-3.07-0.16c-0.83-0.11-1.78-0.17-2.42-0.62
			c-1.63-1.13-3.58-1.7-5.18-2.71c-4.07-2.55-5.36-4.97-0.66-8.48c1.03-0.76,2.12-1.44,3.16-2.18c0.19-0.14,0.3-0.4,0.44-0.6
			c-0.21-0.04-0.42-0.14-0.62-0.11c-1.37,0.19-2.72,0.49-4.1,0.6c-4.63,0.39-4.65,0.36-5.96,4.92c-0.26,0.91-0.38,1.88-0.5,2.82
			c-0.31,2.3,0.73,3.96,2.63,5.07c1,0.58,2.11,1.03,3.22,1.32C250.97,240.18,255.35,239.62,259.71,239.23z M347.63,195.34
			c-0.44-0.03-0.79-0.16-0.99-0.04c-0.8,0.5-1.65,0.99-2.29,1.67c-0.43,0.45-0.94,1.43-0.74,1.77c0.38,0.66,1.24,1.07,1.94,1.51
			c0.1,0.06,0.57-0.2,0.63-0.4C346.67,198.46,347.09,197.05,347.63,195.34z M383.77,197.97c-0.52-0.42-1.23-0.99-1.94-1.56
			c-0.23,1.28-0.46,2.55-0.68,3.83c-0.01,0.04,0.14,0.13,0.23,0.15C382.16,200.58,383.91,199.08,383.77,197.97z"/>
		<path class="st4" d="M434.22,54.77c0.13,3.84-0.87,7.4-2.48,10.82c-0.42,0.9-0.53,1.56,0.05,2.6c4.84,8.66,9.56,17.4,14.31,26.11
			c0.26,0.47,0.55,0.93,0.74,1.42c0.82,2.25,0.19,3.67-2.06,4.58c-2.58,1.05-5.25,0.97-7.87,0.32c-1.85-0.45-3.68-1.1-5.44-1.85
			c-1.27-0.54-1.93-0.34-2.51,0.91c-1.4,3-2.87,5.96-4.39,8.9c-0.68,1.32-1.4,2.67-2.34,3.81c-1.61,1.95-2.63,1.77-3.68-0.5
			c-0.62-1.35-1.25-2.72-1.7-4.14c-2.7-8.42-5.54-16.81-6.48-25.68c-0.02-0.21,0-0.46-0.11-0.63c-0.32-0.5-0.68-0.97-1.03-1.45
			c-0.22,0.53-0.58,1.06-0.63,1.6c-0.81,9.2-3.04,18.06-6.12,26.73c-0.36,1-0.77,2-1.33,2.9c-0.86,1.39-2.07,1.46-3.11,0.19
			c-0.52-0.64-0.83-1.48-1.15-2.26c-1.6-3.95-3.15-7.92-4.78-11.86c-0.87-2.09-0.93-2.03-3.27-1.63c-4.19,0.72-8.38,1.45-12.59,2.04
			c-1.19,0.17-2.71,0.57-3.5-0.82c-0.81-1.43,0.12-2.68,0.89-3.83c5.05-7.59,8.87-15.8,12.44-24.15c0.68-1.6,0.67-2.86,0-4.48
			c-5.89-14.14,1.7-29.73,16.4-33.76c7.33-2.01,14.12-0.82,20.25,3.85c1.65,1.26,3.67,1.93,5.13,3.59
			C432.07,42.9,434.11,48.45,434.22,54.77z M386.99,54.81c0.24,1.79,0.36,3.61,0.74,5.37c2.33,10.86,14.36,18.59,25.35,16.47
			c9.98-1.93,17.6-9.69,18.42-20.51c0.49-6.5-1.93-12.12-6.28-16.93c-1.05-1.16-1.88-2.76-3.18-3.41
			c-4.99-2.51-10.15-3.98-15.97-3.07C396.07,34.3,386.95,43.18,386.99,54.81z M439.21,97.87c1.44-0.16,2.31-0.17,3.13-0.36
			c1.54-0.36,1.77-0.83,1.11-2.22c-0.5-1.06-1.13-2.05-1.67-3.09c-3.75-7.18-7.5-14.35-11.21-21.54c-0.48-0.94-0.82-1.55-1.71-0.4
			c-3.81,4.94-8.84,7.92-14.88,9.26c-1.28,0.28-1.86,0.79-1.49,2.16c2.41,8.93,4.8,17.87,7.21,26.8c0.11,0.39,0.43,0.73,0.65,1.09
			c0.33-0.36,0.76-0.68,0.97-1.1c1.6-3.25,3.09-6.55,4.73-9.77c2.11-4.15,2.37-4.17,6.65-2.69C435,96.79,437.38,97.35,439.21,97.87z
			 M406.25,80.65c0.32-0.74-0.43-0.8-1.23-0.96c-6.29-1.26-11.57-4.23-15.59-9.32c-1.11-1.41-1.25-0.12-1.53,0.62
			c-3.01,7.89-6.53,15.53-11.27,22.56c-0.27,0.4-0.35,0.94-0.51,1.41c0.52,0.06,1.07,0.25,1.57,0.17c3.87-0.68,7.75-1.37,11.6-2.16
			c3.03-0.62,3.53-0.53,4.74,2.2c1.56,3.5,2.95,7.08,4.43,10.61c0.27,0.65,0.63,1.27,0.95,1.91c0.37-0.59,0.87-1.13,1.09-1.77
			C403.33,97.84,404.75,89.44,406.25,80.65z"/>
		<path class="st5" d="M196.52,135.75c0,18.42,0.04,36.83-0.03,55.25c-0.02,5.88-0.38,11.76-0.52,17.64
			c-0.03,1.29-0.49,1.13-1.53,0.96c-6-0.97-12.02-1.79-18.03-2.67c-6.75-0.99-13.49-2.02-20.24-2.99
			c-6.65-0.95-13.3-1.83-19.95-2.78c-5.38-0.77-10.74-1.67-16.12-2.38c-1.38-0.18-2.11-0.72-2.44-2.02c-1.5-6-3.05-11.99-3.33-18.21
			c-0.1-2.24-0.32-4.47-0.52-6.7c-0.14-1.48,0.37-2.16,1.97-2.09c2.14,0.1,4.28,0.03,6.42,0.01c0.75-0.01,1.5-0.03,2.23-0.14
			c0.23-0.04,0.56-0.38,0.58-0.61c0.03-0.25-0.18-0.63-0.4-0.78c-0.34-0.23-0.76-0.39-1.17-0.42c-2.55-0.24-5.1-0.5-7.65-0.65
			c-7.14-0.42-14.29-0.83-21.44-1.17c-3.1-0.15-6.2-0.15-9.31-0.12c-0.45,0.01-0.9,0.6-1.35,0.92c0.38,0.32,0.71,0.8,1.15,0.94
			c1.39,0.44,3.25,0.34,4.11,1.24c0.75,0.78,0.51,2.62,0.5,4c-0.01,3.09-0.02,6.2-0.26,9.28c-0.25,3.08-0.78,6.13-1.19,9.19
			c-0.36,2.68-0.68,2.85-3.26,2.44c-5.26-0.83-10.53-1.55-15.8-2.34c-5.06-0.76-10.11-1.54-15.16-2.3
			c-1.37-0.21-2.77-0.28-4.12-0.55c-2.4-0.48-2.39-0.52-2.48-2.83c-0.02-0.64-0.02-1.28-0.02-1.93c-0.05-24.41-0.1-48.82-0.15-73.24
			c0-2.14-0.07-4.28-0.06-6.42c0.01-2.66,0.04-2.7,2.47-3.17c3.45-0.67,6.9-1.31,10.35-1.98c11.8-2.32,23.6-4.69,35.41-6.97
			c12.76-2.46,25.53-4.83,38.29-7.27c10.46-2.01,20.91-4.11,31.37-6.11c8.48-1.63,16.98-3.16,25.46-4.76
			c1.57-0.29,3.14-0.61,4.68-1.03c1.08-0.29,1.65-0.09,1.61,1.13c-0.02,0.64-0.01,1.28-0.01,1.93c0,19.91,0,39.83,0,59.74
			C196.57,135.75,196.54,135.75,196.52,135.75z"/>
		<path class="st7" d="M313.83,200.47c-8.34,0-16.69,0.01-25.03-0.01c-2.38-0.01-2.36-0.1-2.05-2.33c0.81-5.8,1.56-11.61,2.34-17.42
			c0.79-5.91,1.62-11.82,2.33-17.74c0.22-1.79,0.13-3.63,0.14-5.44c0-0.27-0.21-0.54-0.33-0.81c-0.26,0.29-0.68,0.53-0.76,0.86
			c-0.51,2.28-1.04,4.57-1.4,6.88c-1.29,8.42-2.49,16.85-3.77,25.27c-0.22,1.42-0.21,3.27-1.08,4.08c-0.65,0.6-2.56-0.22-3.91-0.35
			c-2.44-0.24-4.88-0.46-7.32-0.63c-0.95-0.07-1.3-0.32-1.05-1.37c4-16.77,7.91-33.56,12-50.3c0.96-3.91,2.32-7.76,3.84-11.5
			c2.25-5.54,7.32-7.8,12.4-9.89c0.92-0.38,0.99,0.38,0.95,1.09c-0.18,3.3-0.45,6.59-0.49,9.89c-0.02,1.8,0.28,3.61,0.58,5.4
			c0.33,1.98,1.21,2.49,3.13,2.02c0.3-0.07,0.61-0.2,0.88-0.37c3.84-2.3,7.89-4.31,10.99-7.66c0.85-0.92,1.14-0.92,1.76,0.2
			c2.1,3.82,4.26,7.61,6.51,11.34c1.18,1.96,1.96,2.2,3.95,0.97c7.7-4.8,15.44-9.55,22.93-14.65c3.24-2.21,6.03-5.16,7.08-9.23
			c0.3-1.16,1.04-1.15,1.97-0.93c2.59,0.61,5.18,1.21,7.77,1.8c1.03,0.23,1.13,0.66,0.54,1.55c-5.16,7.9-8.73,16.59-12.37,25.24
			c-4.06,9.64-6.86,19.7-9.52,29.8c-1.82,6.89-3.74,13.75-5.6,20.63c-0.11,0.41-0.19,0.83-0.23,1.25c-0.22,2.41-0.22,2.42-2.47,2.43
			c-8.24,0.01-16.47,0-24.71,0C313.83,200.51,313.83,200.49,313.83,200.47z"/>
		<path class="st2" d="M363.59,191.06c3.92,0.61,7.71,1.14,11.46,1.82c1.23,0.22,2.46,0.74,3.56,1.37c0.47,0.27,0.95,1.23,0.84,1.74
			c-1.98,8.96-4.7,17.68-8.82,25.92c-1.29,2.58-3.35,4.23-6.04,4.85c-6.42,1.49-12.8,3.1-19.46,3.41
			c-7.88,0.36-15.73,1.15-23.6,1.75c-3.19,0.24-6.39,0.44-9.58,0.67c-5.21,0.38-10.42,1.15-15.61,1.03
			c-2.77-0.06-5.47,0.08-8.19,0.34c-5.4,0.51-10.79,1.15-16.19,1.74c-2.33,0.25-4.65,0.52-6.98,0.78c-1.8,0.2-3.59,0.43-5.39,0.58
			c-0.85,0.07-1.72,0.08-2.55-0.03c-0.35-0.05-0.64-0.47-0.96-0.73c0.34-0.14,0.67-0.33,1.02-0.4c5.31-1.11,10.62-2.19,15.92-3.31
			c0.35-0.07,0.64-0.42,0.96-0.64c-0.33-0.18-0.67-0.53-0.98-0.51c-2.97,0.23-5.96,0.39-8.9,0.83c-3.78,0.57-7.52,1.4-11.28,2.1
			c-0.42,0.08-0.86,0.16-1.27,0.07c-0.38-0.08-0.73-0.36-1.09-0.55c0.24-0.27,0.43-0.66,0.72-0.78c4.14-1.68,8.28-3.35,12.44-4.96
			c0.99-0.38,2.07-0.51,3.08-0.82c0.24-0.07,0.41-0.4,0.62-0.61c-0.24-0.13-0.51-0.4-0.73-0.38c-2.42,0.3-4.94,0.31-7.22,1.05
			c-3.53,1.15-6.88,2.83-10.33,4.24c-0.42,0.17-0.95,0.08-1.43,0.11c0.16-0.47,0.17-1.1,0.49-1.39c1.11-0.99,2.19-2.17,3.52-2.7
			c4.14-1.66,8.33-3.23,12.6-4.48c1.78-0.52,3.82-0.1,5.74-0.2c0.31-0.01,0.84-0.48,0.82-0.72c-0.02-0.33-0.44-0.64-0.7-0.95
			c-0.06-0.07-0.19-0.13-0.29-0.12c-2.75,0.12-5.37-1-8.25-0.39c-4.67,0.99-9.45,1.5-14.19,2.19c-0.63,0.09-1.28,0.06-1.92,0.04
			c-0.31-0.01-0.62-0.12-0.93-0.18c0.21-0.22,0.4-0.46,0.63-0.66c0.16-0.13,0.36-0.24,0.56-0.3c6.56-1.78,13.15-3.48,19.69-5.38
			c2.54-0.74,4.84-0.08,7.2,0.52c0.82,0.21,1.63,0.51,2.42,0.81c6.86,2.61,13.79,2.95,20.96,1.22c18.3-4.42,36.42-9.49,54.32-15.31
			c1.25-0.4,3.76-0.27,3.25-2.1c-0.37-1.32-2.44,0.21-3.76,0.24c-0.31,0.01-0.61,0.17-0.91,0.29c-0.73,0.3-1.03,0.09-0.77-0.67
			c0.77-2.32,1.46-4.68,2.42-6.92c0.31-0.73,1.32-1.46,2.12-1.63C356.26,192.19,359.94,191.66,363.59,191.06z"/>
		<path class="st7" d="M387.53,153.8c-0.34,8-0.56,15.04-0.95,22.08c-0.31,5.64-0.82,11.27-1.25,16.91
			c-0.17,2.25-0.48,2.42-2.44,1.04c-3.59-2.53-7.68-3.51-11.91-4.25c-8.68-1.52-16.95-0.22-24.95,3.31
			c-0.26,0.12-0.56,0.15-0.84,0.23c-0.04-0.41-0.21-0.85-0.11-1.22c1.21-4.52,2.51-9.02,3.7-13.55
			c2.84-10.82,5.87-21.58,10.27-31.88c2.85-6.66,6-13.2,9.12-19.74c0.73-1.52,1.75-2.94,2.84-4.25c1.46-1.75,3.38-2.09,5.51-1.25
			c3.43,1.36,5.9,3.75,7.56,7.04c1.51,3,2.26,6.23,2.52,9.52C387.03,143.44,387.26,149.09,387.53,153.8z"/>
		<path class="st2" d="M94.29,168.55c5.11,0.37,10.21,0.78,15.32,1.09c1.27,0.08,1.59,0.62,1.62,1.79
			c0.25,9.21,1.54,18.31,4.21,27.09c2.82,9.3,6.6,18.26,12.29,26.27c0.69,0.97,1.1,2.14,1.65,3.21c-1.15-0.1-2.31-0.14-3.45-0.3
			c-6.43-0.91-12.86-1.82-19.29-2.78c-6.42-0.96-12.84-1.96-19.26-2.95c-1.79-0.27-3.57-0.58-5.36-0.84
			c-0.91-0.13-0.95-0.51-0.6-1.29c1.74-3.89,3.52-7.78,5.11-11.74c2.69-6.67,4.31-13.62,4.76-20.8c0.34-5.53,0.45-11.08,0.61-16.63
			C91.96,168.5,91.97,168.43,94.29,168.55z"/>
		<path class="st2" d="M298.66,95.68c0-1.82-0.01-3.64,0-5.46c0-0.53-0.06-1.11,0.11-1.59c0.23-0.63,0.67-1.19,1.02-1.78
			c-0.73-0.38-1.45-0.79-2.2-1.14c-0.38-0.18-0.82-0.24-1.21-0.42c-4.38-1.93-4.59-2.86-1.55-6.52c1.09-1.31,2.06-2.74,3.19-4.01
			c0.32-0.36,1.07-0.57,1.56-0.48c0.82,0.16,1.65,0.51,2.35,0.96c0.54,0.35,0.95,0.96,1.31,1.52c0.21,0.34,0.2,0.82,0.3,1.23
			c1.36,5.57,6.59,8.39,12.06,6.51c2.94-1.01,4.16-2.58,4.21-6.02c0.02-1.56,0.46-2.14,2-1.98c1.06,0.1,2.14,0.01,3.21,0.09
			c2.2,0.16,3.96,0.83,5.14,3.03c0.89,1.64,2.46,2.92,3.77,4.32c1.17,1.24,2.34,1.92,4.18,0.83c1.53-0.91,3.43,0.02,5.01,1.77
			c1.29,1.44,1.65,3.06,0.69,4.7c-0.8,1.37-1.82,2.65-2.93,3.78c-1.43,1.46-2.22,2.94-1.85,5.09c0.4,2.3,0.39,4.67,0.63,7
			c0.25,2.36,1.21,4.3,3.47,5.39c1.08,0.52,1.16,1.18,0.17,1.84c-2.4,1.58-4.69,3.42-7.28,4.6c-5.23,2.39-10.61,4.43-15.96,6.54
			c-0.57,0.23-1.38,0.06-2.01-0.13c-0.81-0.24-1.55-0.7-2.32-1.07c-2.01-0.94-2.1-1.21-2.07-3.34c0.04-2.24-0.12-4.48-0.14-6.72
			c-0.02-2.65,0.04-2.5,2.49-3.05c4.25-0.95,8.46-2.06,12.66-3.22c0.83-0.23,1.53-0.97,2.28-1.48c-0.97-0.12-1.99-0.5-2.9-0.33
			c-3.03,0.57-6,1.44-9.03,2.01c-3.45,0.64-6.93,1.26-10.42,1.54c-1.86,0.15-3.83-0.28-5.67-0.75c-2-0.51-3.35-1.9-3.6-4.05
			c-0.35-3.07-0.61-6.14-0.91-9.22C298.51,95.7,298.59,95.69,298.66,95.68z M315.58,95.98c3.16,0,5.71-1.48,8.07-3.37
			c1.47-1.18,2.74-2.67,4.96-2.07c0.2,0.05,0.64-0.44,0.8-0.76c0.06-0.13-0.27-0.57-0.52-0.72c-1.14-0.72-2.3-1.41-3.48-2.07
			c-0.41-0.23-0.9-0.34-1.35-0.51c-0.09,0.5-0.31,1.02-0.24,1.5c0.12,0.76,0.96,1.46-0.1,2.23c-2.77,1.99-5.49,4.03-9.07,4.3
			c-0.69,0.05-1.98,0.32-1.97,0.4c0.1,1.22,1.2,0.87,1.95,1.06C314.92,96.05,315.26,95.98,315.58,95.98z"/>
		<path class="st2" d="M298.04,49.01c0.06-5.08,3.54-7.47,7.49-6c0.7,0.26,1.4,0.53,2.07,0.86c1.2,0.58,1.93,0.63,2.16-1.06
			c0.09-0.64,0.98-1.39,1.68-1.7c3.56-1.55,7.24-1.37,9.63,1.61c4.14,5.17,9.64,7.86,15.76,9.8c5.12,1.63,9.23,4.85,12.35,9.25
			c2.04,2.88,3.2,5.99,2.14,9.59c-0.24,0.82-0.42,1.65-0.59,2.49c-0.2,0.93-0.74,2.04-0.41,2.73c0.25,0.52,1.64,0.46,2.52,0.7
			c2.19,0.63,3.56,3.31,2.8,5.73c-0.68,2.19-1.94,4.05-3.87,5.36c-0.88,0.6-1.81,1.13-2.74,1.66c-0.82,0.48-1.67,0.92-2.5,1.37
			c-0.11-0.92-0.2-1.84-0.32-2.76c-0.53-4.16-4.39-7.08-8.54-6.13c-1.29,0.29-1.97,0.11-2.71-0.77c-0.96-1.14-1.98-2.23-2.89-3.41
			c-0.57-0.73-0.28-1.17,0.65-1.08c2.23,0.2,4.49,0.27,6.68,0.7c1.19,0.24,2.28,1.08,3.38,1.7c0.65,0.37,1.19,0.96,1.87,1.23
			c0.52,0.21,1.18,0.07,1.78,0.09c-0.25-0.53-0.39-1.16-0.77-1.57c-2.1-2.29-4.54-3.78-7.85-3.64c-1.9,0.08-3.83-0.41-5.74-0.4
			c-1.54,0-2.39-0.62-2.86-2c-0.83-2.42-1.63-4.84-2.55-7.22c-0.35-0.91-0.19-2.48-1.67-2.35c-0.79,0.07-1.68,0.82-2.22,1.5
			c-0.99,1.23-2.05,2.13-3.68,2.26c-1.71,0.14-3.26-0.28-4.33-1.6c-2.08-2.56-4.04-5.21-6.01-7.86c-0.44-0.59-0.66-1.34-1.07-1.96
			c-0.65-0.99-1.29-0.92-1.81,0.2c-0.72,1.54-1.37,3.12-2.07,4.67c-0.49,1.09-1.18,0.86-1.61,0.06c-1.01-1.87-2.1-3.73-2.76-5.73
			C298.68,53.02,298.37,50.57,298.04,49.01z"/>
		<path class="st1" d="M356.91,116.29c-0.28,2.34-1.09,4.24-2.54,5.7c-2.18,2.18-4.36,4.48-6.92,6.14
			c-6.34,4.14-12.9,7.96-19.38,11.89c-0.69,0.42-1.38,1.13-2.08-0.1c-1.95-3.43-3.95-6.83-5.95-10.24
			c-0.73-1.24-0.16-1.76,0.98-2.21c4.65-1.83,9.39-3.5,13.89-5.67c3.43-1.65,6.58-3.91,9.81-5.97c1.68-1.08,2.9-2.54,2.77-4.73
			c-0.06-1.11,0.66-1.3,1.45-1.1c2.29,0.57,4.58,1.32,6.25,3.04C356.01,113.9,356.36,115.2,356.91,116.29z"/>
		<path class="st1" d="M307.77,115.7c0.13,0.27,0.39,0.55,0.34,0.73c-1.08,3.53,1.09,5.58,3.44,7.5c1.14,0.94,2.36,1.8,3.63,2.55
			c0.74,0.43,0.95,0.8,0.37,1.43c-0.72,0.77-1.38,1.65-2.24,2.23c-2.81,1.9-5.7,3.69-8.56,5.53c-0.88,0.57-1.57,0.77-1.56-0.69
			c0.01-4.26-0.14-8.52,0.07-12.76c0.12-2.5,1.18-4.74,3.55-6.06C307.07,115.99,307.36,115.88,307.77,115.7z"/>
		<path class="st2" d="M310.9,68.81c-3.19,0.01-5.01,1.28-6.32,3.46c-0.36,0.6-1.09,1.62-1.32,1.54c-1.07-0.39-2.03-1.08-2.99-1.73
			c-0.11-0.07-0.02-0.59,0.11-0.84c1.99-3.77,4.01-7.53,5.99-11.3c0.52-1,0.83-0.18,1.06,0.12c1.75,2.29,3.35,4.69,5.2,6.88
			c1.67,1.97,3.94,2.75,6.59,2.64c1.87-0.08,3.26-0.83,4.48-2.13c0.52-0.55,0.99-0.75,1.3,0.27c0.66,2.14,1.34,4.27,2.12,6.36
			c0.34,0.91,0.08,1.17-0.75,1.11c-2.23-0.16-4.47-0.26-6.68-0.57c-0.58-0.08-1.32-0.72-1.56-1.29
			C316.68,69.78,313.5,69.32,310.9,68.81z"/>
		<path class="st2" d="M312.67,83.25c-1.37-0.49-2.83-0.81-4.1-1.49c-2.6-1.39-3.38-3.87-2.37-6.82c1.04-3.02,2.64-4.05,5.78-3.69
			c4.14,0.47,7.2,5.24,5.87,9.16C317.31,81.98,315.35,82.97,312.67,83.25z M310.19,78.37c-0.81-0.7-1.31-1.29-1.95-1.58
			c-0.18-0.08-1.01,0.68-1.11,1.15c-0.2,0.93,0.32,1.71,1.33,1.68C308.92,79.61,309.36,79.01,310.19,78.37z"/>
		<path class="st4" d="M347.63,195.34c-0.54,1.71-0.96,3.12-1.44,4.51c-0.07,0.19-0.54,0.46-0.63,0.4c-0.7-0.45-1.55-0.85-1.94-1.51
			c-0.2-0.35,0.3-1.32,0.74-1.77c0.64-0.67,1.49-1.16,2.29-1.67C346.84,195.17,347.19,195.31,347.63,195.34z"/>
		<path class="st4" d="M383.77,197.97c0.14,1.11-1.61,2.61-2.39,2.42c-0.09-0.02-0.23-0.11-0.23-0.15c0.22-1.28,0.45-2.55,0.68-3.83
			C382.54,196.99,383.26,197.56,383.77,197.97z"/>
		<path class="st5" d="M386.99,54.81c-0.04-11.63,9.08-20.51,19.08-22.08c5.82-0.91,10.98,0.56,15.97,3.07
			c1.3,0.66,2.13,2.25,3.18,3.41c4.35,4.81,6.77,10.43,6.28,16.93c-0.82,10.82-8.45,18.58-18.42,20.51
			c-10.99,2.12-23.01-5.61-25.35-16.47C387.36,58.42,387.24,56.61,386.99,54.81z M408.36,65.91c0.71-0.46,1.64-0.91,2.4-1.57
			c5.06-4.44,10.06-8.95,15.14-13.36c1.13-0.98,1.01-1.77,0.04-2.62c-1.21-1.05-2.46-2.05-3.71-3.05c-1.03-0.83-1.98-0.93-3.12,0
			c-3.39,2.77-6.91,5.37-10.27,8.18c-2.18,1.83-2.07,1.89-4.52,0.69c-5.84-2.86-4.54-2.75-8.99,1.76c-0.08,0.08-0.15,0.16-0.21,0.24
			c-1.15,1.45-1.16,2.53,0.39,3.45c3.29,1.95,6.67,3.73,10.06,5.51C406.3,65.52,407.19,65.6,408.36,65.91z"/>
		<path class="st2" d="M439.21,97.87c-1.84-0.52-4.22-1.08-6.51-1.88c-4.27-1.48-4.54-1.46-6.65,2.69
			c-1.64,3.23-3.13,6.53-4.73,9.77c-0.21,0.42-0.64,0.74-0.97,1.1c-0.22-0.36-0.54-0.69-0.65-1.09c-2.41-8.93-4.8-17.87-7.21-26.8
			c-0.37-1.37,0.21-1.88,1.49-2.16c6.03-1.34,11.07-4.33,14.88-9.26c0.89-1.15,1.23-0.54,1.71,0.4c3.71,7.19,7.46,14.37,11.21,21.54
			c0.54,1.04,1.17,2.04,1.67,3.09c0.66,1.4,0.43,1.86-1.11,2.22C441.52,97.7,440.65,97.71,439.21,97.87z"/>
		<path class="st2" d="M406.25,80.65c-1.5,8.79-2.92,17.19-5.75,25.27c-0.22,0.64-0.72,1.18-1.09,1.77
			c-0.32-0.63-0.67-1.25-0.95-1.91c-1.48-3.54-2.88-7.11-4.43-10.61c-1.21-2.72-1.72-2.82-4.74-2.2c-3.85,0.79-7.73,1.48-11.6,2.16
			c-0.5,0.09-1.04-0.1-1.57-0.17c0.17-0.47,0.24-1.01,0.51-1.41c4.74-7.03,8.25-14.67,11.27-22.56c0.29-0.75,0.42-2.03,1.53-0.62
			c4.02,5.09,9.3,8.06,15.59,9.32C405.82,79.85,406.57,79.91,406.25,80.65z"/>
		<path class="st4" d="M315.58,95.98c-0.32,0-0.65,0.07-0.95-0.01c-0.75-0.2-1.85,0.15-1.95-1.06c-0.01-0.08,1.28-0.35,1.97-0.4
			c3.58-0.26,6.31-2.31,9.07-4.3c1.06-0.76,0.22-1.46,0.1-2.23c-0.07-0.48,0.15-1,0.24-1.5c0.45,0.17,0.93,0.28,1.35,0.51
			c1.18,0.66,2.34,1.35,3.48,2.07c0.25,0.15,0.58,0.59,0.52,0.72c-0.16,0.32-0.6,0.82-0.8,0.76c-2.22-0.6-3.49,0.89-4.96,2.07
			C321.29,94.5,318.74,95.98,315.58,95.98z"/>
		<path class="st4" d="M310.19,78.37c-0.84,0.64-1.27,1.24-1.73,1.26c-1.01,0.03-1.53-0.76-1.33-1.68c0.1-0.47,0.93-1.23,1.11-1.15
			C308.88,77.08,309.39,77.68,310.19,78.37z"/>
		<path class="st4" d="M408.36,65.91c-1.18-0.32-2.06-0.39-2.79-0.78c-3.38-1.78-6.77-3.56-10.06-5.51c-1.55-0.92-1.54-2-0.39-3.45
			c0.07-0.08,0.14-0.16,0.21-0.24c4.45-4.51,3.15-4.62,8.99-1.76c2.45,1.2,2.34,1.14,4.52-0.69c3.36-2.81,6.88-5.41,10.27-8.18
			c1.14-0.93,2.09-0.83,3.12,0c1.25,1,2.5,2,3.71,3.05c0.97,0.85,1.09,1.63-0.04,2.62c-5.08,4.42-10.08,8.93-15.14,13.36
			C410.01,65,409.07,65.46,408.36,65.91z M399.72,54.15c-0.7,0.89-1.39,1.83-2.16,2.71c-0.65,0.74-0.65,1.24,0.27,1.74
			c3.09,1.67,6.16,3.37,9.23,5.07c0.93,0.52,1.58,0.13,2.24-0.53c4.5-4.59,9.27-8.86,14.46-12.67c0.26-0.19,0.5-0.89,0.41-0.97
			c-0.96-0.84-1.9-1.79-3.03-2.28c-0.49-0.21-1.51,0.48-2.12,0.97c-3.25,2.6-6.49,5.23-9.66,7.94c-2.29,1.97-2.27,2.04-4.98,0.52
			c-1.11-0.63-2.21-1.28-3.33-1.91C400.69,54.54,400.28,54.39,399.72,54.15z"/>
		<path class="st7" d="M399.72,54.15c0.56,0.25,0.97,0.39,1.34,0.6c1.12,0.62,2.21,1.28,3.33,1.91c2.71,1.52,2.68,1.45,4.98-0.52
			c3.16-2.71,6.4-5.34,9.66-7.94c0.61-0.49,1.64-1.18,2.12-0.97c1.13,0.49,2.07,1.44,3.03,2.28c0.09,0.08-0.16,0.78-0.41,0.97
			c-5.19,3.8-9.96,8.08-14.46,12.67c-0.65,0.67-1.3,1.05-2.24,0.53c-3.07-1.7-6.14-3.4-9.23-5.07c-0.92-0.5-0.92-1-0.27-1.74
			C398.33,55.98,399.02,55.03,399.72,54.15z"/>
		<path class="st4" d="M433.55,73.9c-3.51,1.67-15.85,8.13-18.83,17.19c-0.84-3.02-1.67-6.04-2.51-9.06
			c-0.09-0.32-0.12-0.65-0.17-0.97c-0.62-2.74-0.64-2.81,2.16-3.45c5.82-1.32,10.57-4.3,14.42-8.68c1.39-1.6,1.41-1.57,2.35,0.2
			C431.82,70.71,432.69,72.31,433.55,73.9z"/>
		<path class="st4" d="M407.01,78.44c-0.91,4.61-1.67,9.02-2.6,13.3c-2.56-8.06-17.83-20.55-17.83-20.55
			c0.43-1.05,0.83-2.11,1.23-3.18c0.61-1.62,0.96-1.71,2.04-0.37c3.92,4.84,9.05,7.8,15.12,9.06
			C406.57,77.03,407.51,77.44,407.01,78.44z"/>
		<path class="st4" d="M90.84,178.62c0,0,16.95,3.37,23.37,15.44l-2.6-25.31l-20.77-0.58V178.62z"/>
	</g>
</g>
</svg>
