<?xml version="1.0" encoding="utf-8"?>
<!-- Generator: Adobe Illustrator 28.1.0, SVG Export Plug-In . SVG Version: 6.00 Build 0)  -->
<svg version="1.1" xmlns="http://www.w3.org/2000/svg" xmlns:xlink="http://www.w3.org/1999/xlink" x="0px" y="0px"
	 viewBox="0 0 517.41 279.48" style="enable-background:new 0 0 517.41 279.48;" xml:space="preserve">
<style type="text/css">
	.st0{fill:#F8F8F8;}
	.st1{fill:#B7E4EA;}
	.st2{fill:#FFFFFF;}
	.st3{fill:#1497C7;}
	.st4{fill:#00283D;}
	.st5{fill:#EEFBFE;}
	.st6{fill:#1DAAE0;}
	.st7{fill:#5BD3B1;}
	.st8{fill:none;stroke:#00283D;stroke-miterlimit:10;}
	.st9{fill:#E6E6E6;}
</style>
<g id="Layer_2">
</g>
<g id="Layer_1">
	<g>
		<path class="st4" d="M256.3,233.61c-47.22,0-94.44,0.01-141.66-0.02c-3.59,0-7.18-0.27-10.77-0.5c-2.22-0.15-2.51-0.47-2.49-2.71
			c0.04-3.39,0.27-6.77,0.27-10.16c0.04-37.81,0.05-75.62,0.08-113.44c0.01-22.88,0.05-45.76,0.04-68.63c0-5.63,0.43-4.68,4.66-4.69
			c29.11-0.09,58.23-0.17,87.34-0.23c69.24-0.14,138.48-0.26,207.72-0.38c0.42,0,0.85-0.01,1.27,0c2.78,0.08,3.31,0.58,3.35,3.4
			c0.06,4.34,0.07,8.68,0.07,13.03c0.06,50.42,0.11,100.83,0.17,151.25c0.01,9.85,0.04,19.69,0.07,29.54c0,1.11,0.43,2.89-0.06,3.18
			c-0.95,0.58-2.41,0.42-3.65,0.42c-48.81,0.01-97.62,0.01-146.42,0.01C256.3,233.65,256.3,233.63,256.3,233.61z M404.03,229.85
			c-0.04-0.53-0.01-1.06-0.01-1.59c0.07-62.92,0.15-125.84,0.2-188.76c0-4.66,0.59-4.07-4.01-4.07
			c-48.81-0.01-97.63-0.01-146.44-0.01c0-0.02,0-0.04,0-0.06c-41.93,0-83.86,0-125.79,0c-6.78,0-13.55-0.06-20.33-0.03
			c-4.01,0.02-4.01,0.08-4.01,4.11c0.02,60.59,0.04,121.18,0.06,181.77c0,2.54,0.02,5.08,0.07,7.63c0.04,2.36,0.06,2.37,2.54,2.36
			c3.39-0.01,6.78-0.04,10.16-0.04c94.45-0.01,188.9-0.01,283.35-0.02"/>
		<path class="st4" d="M213.09,162.17c0-12.61,0-25.21,0-37.82c0-0.64,0.02-1.27,0-1.91c-0.01-0.2-0.11-0.4-0.17-0.59
			c-0.24,0.1-0.55,0.14-0.7,0.32c-2.05,2.56-4.06,5.15-6.1,7.72c-1.51,1.9-3.07,3.77-4.59,5.67c-1.69,2.11-3.71,2.48-6.2,1.5
			c-3.6-1.41-6.69-3.62-9.61-6.06c-6.48-5.4-11.81-11.81-16.28-18.95c-0.11-0.18-0.2-0.37-0.31-0.55c-1.58-2.43-1.94-4.46-0.16-7.4
			c7.24-11.94,14.55-23.82,23.01-34.94c1.53-2.02,3.28-3.88,5-5.74c4.18-4.52,9.66-6.22,15.53-7.06c3.96-0.57,7.91-1.19,11.88-1.73
			c1.15-0.16,2.32-0.18,3.48-0.18c17.37,0,34.73-0.07,52.1,0.06c8.55,0.06,17.06,0.86,25.47,2.51c5.29,1.04,9.54,3.77,13.14,7.73
			c5.3,5.82,9.67,12.31,13.92,18.89c4.64,7.19,8.94,14.6,13.54,21.81c1.03,1.62,0.96,2.92,0.03,4.33
			c-2.39,3.61-4.64,7.33-7.29,10.74c-4.24,5.45-9.19,10.25-15.03,14.01c-1.67,1.07-3.57,1.78-5.37,2.64
			c-2.15,1.03-3.94,0.37-5.37-1.33c-2.31-2.75-4.53-5.58-6.82-8.36c-1.57-1.91-3.2-3.78-4.8-5.67c-0.06,2.42-0.16,4.84-0.16,7.26
			c0,23.31-0.04,46.61,0.1,69.92c0.02,3.21-1.2,5.21-3.75,6.75c-4.31,2.6-9.06,4.01-13.92,5.04c-5.27,1.12-10.58,1.94-15.99,2.03
			c-4.01,0.06-8.04,0.6-12.03,0.43c-10.87-0.46-21.72-1.37-32.08-5.03c-2.96-1.05-5.74-2.63-8.57-4.04
			c-1.54-0.77-2.05-2.03-2.04-3.86c0.1-12.71,0.05-25.42,0.05-38.14C213.03,162.17,213.06,162.17,213.09,162.17z M215.53,153.39
			c0,13.98,0,27.97,0,41.95c0,1.27,0.13,2.55,0.04,3.81c-0.13,1.74,0.63,2.8,2.15,3.47c2.31,1.02,4.56,2.21,6.94,3.05
			c7.52,2.63,15.38,3.89,23.27,4.32c11.61,0.63,23.26,0.72,34.75-1.74c4.86-1.04,9.64-2.31,14.01-4.79
			c1.39-0.79,2.21-1.68,2.06-3.48c-0.19-2.21,0.02-4.44,0.02-6.67c0-27.12,0-54.24,0-81.36c0-0.74-0.1-1.51,0.06-2.22
			c0.13-0.55,0.59-1.03,0.9-1.54c0.31,0.48,0.71,0.93,0.92,1.45c0.15,0.37,0.13,0.85,0.07,1.26c-0.56,3.96,0.83,7.22,3.57,10
			c0.07,0.07,0.11,0.18,0.17,0.27c2.7,3.66,5.4,7.31,8.11,10.97c0.59,0.79,0.84,1.23,1.63-0.1c1.71-2.89,3.56-5.77,5.79-8.27
			c6.5-7.26,14.18-12.97,23.36-16.47c0.81-0.31,1.39-0.42,0.71-1.45c-5.92-8.89-11.73-17.85-17.73-26.68
			c-2.79-4.1-5.84-8.05-8.96-11.92c-3.34-4.15-7.49-7.06-12.95-7.91c-3.84-0.6-7.63-1.53-11.46-2.22c-0.65-0.12-1.45,0.1-2.05,0.41
			c-0.83,0.43-1.57,1.07-2.31,1.66c-6.23,5-13.2,8.41-21.21,9.13c-6.94,0.62-13.89,0.59-20.84-0.47c-8.53-1.3-16.3-4.15-22.83-9.99
			c-0.55-0.49-1.53-0.89-2.22-0.77c-4.04,0.7-8.04,1.65-12.08,2.35c-4.36,0.76-7.96,2.84-10.87,6.06c-2.41,2.66-4.79,5.4-6.81,8.36
			c-7.22,10.56-14.27,21.23-21.4,31.86c-0.52,0.77-0.64,1.16,0.47,1.53c6,2.01,11.2,5.46,16.05,9.41
			c5.26,4.3,10.16,8.97,13.27,15.18c0.7,1.39,0.75,1.43,1.71,0.15c3.24-4.31,6.37-8.7,9.67-12.97c1.43-1.84,2.23-3.7,2.06-6.07
			c-0.15-2.1-0.01-4.24,0.12-6.35c0.02-0.4,0.57-0.76,0.88-1.14c0.3,0.4,0.79,0.76,0.87,1.2c0.15,0.82,0.08,1.69,0.08,2.53
			C215.53,123.94,215.52,138.66,215.53,153.39z M256.54,56.97c0-0.01,0-0.02,0-0.03c-9.3,0-18.61-0.01-27.91,0.02
			c-0.66,0-1.32,0.23-1.98,0.35c0.51,0.5,0.93,1.15,1.54,1.48c2.48,1.37,4.94,2.82,7.55,3.91c4.89,2.04,10.06,2.86,15.33,3.41
			c7.96,0.83,15.79,0.44,23.48-1.76c4.2-1.2,7.85-3.57,11.3-6.22c0.23-0.18,0.36-0.49,0.53-0.74c-0.32-0.14-0.64-0.37-0.97-0.4
			c-0.73-0.06-1.48-0.02-2.22-0.02C274.3,56.97,265.42,56.97,256.54,56.97z M196.57,135.1c1.88,0.24,2.3-0.15,1.84-1.44
			c-0.45-1.28-1.04-2.54-1.76-3.68c-3.03-4.81-7.04-8.77-11.61-12.03c-4.02-2.86-8.41-5.21-12.66-7.76
			c-0.29-0.17-0.74-0.08-1.11-0.11c0.12,0.37,0.17,0.78,0.37,1.1c4.25,6.77,9.42,12.77,15.51,17.91c2.25,1.9,4.81,3.42,7.28,5.04
			C195.2,134.65,196.14,134.91,196.57,135.1z M316.94,135.53c1.85-0.96,3.81-1.75,5.52-2.92c8.33-5.7,14.87-13.11,20.28-21.58
			c0.18-0.27,0.11-0.71,0.15-1.07c-0.29,0.05-0.62,0.01-0.86,0.15c-3.38,1.94-6.87,3.72-10.1,5.88c-5.56,3.73-10.53,8.16-14.2,13.86
			c-0.79,1.22-1.31,2.62-1.92,3.96C315.39,134.75,315.74,135.22,316.94,135.53z"/>
		<path class="st4" d="M356.75,47.63c-0.05,2.41-1.86,4.25-4.15,4.22c-2.18-0.03-4.26-2.1-4.26-4.25c0-2.36,1.77-4,4.3-3.97
			C355.41,43.66,356.8,45.01,356.75,47.63z M352.53,49.2c1.05-0.07,1.83-1,1.48-2c-0.22-0.64-0.93-1.47-1.52-1.56
			c-1.07-0.15-1.61,0.72-1.6,1.8C350.91,48.58,351.57,49.09,352.53,49.2z"/>
		<path class="st4" d="M372.34,43.63c2.77,0.03,4.16,1.38,4.11,4c-0.05,2.41-1.86,4.25-4.16,4.22c-2.18-0.03-4.26-2.1-4.26-4.25
			C368.04,45.24,369.81,43.61,372.34,43.63z M372.08,45.56c-1.09,0.24-1.56,0.94-1.49,2.01c0.06,1,0.97,1.8,1.86,1.6
			c0.93-0.2,1.38-0.83,1.32-1.8C373.69,46.32,373.22,45.63,372.08,45.56z"/>
		<path class="st4" d="M391.45,43.63c2.76,0.05,4.13,1.42,4.06,4.06c-0.07,2.39-1.93,4.23-4.21,4.16c-2.19-0.07-4.23-2.16-4.2-4.3
			C387.13,45.19,388.91,43.59,391.45,43.63z M393.48,47.5c-0.99-0.86-1.55-1.75-2.24-1.86c-1.06-0.17-1.62,0.72-1.59,1.8
			c0.02,1.12,0.68,1.84,1.73,1.68C392,49.03,392.53,48.28,393.48,47.5z"/>
		<path class="st2" d="M215.53,153.39c0-14.72,0-29.45,0-44.17c0-0.85,0.07-1.71-0.08-2.53c-0.08-0.44-0.57-0.8-0.87-1.2
			c-0.31,0.38-0.86,0.74-0.88,1.14c-0.13,2.11-0.27,4.24-0.12,6.35c0.17,2.38-0.63,4.23-2.06,6.07c-3.3,4.26-6.44,8.65-9.67,12.97
			c-0.96,1.28-1.01,1.23-1.71-0.15c-3.11-6.21-8.01-10.88-13.27-15.18c-4.85-3.96-10.05-7.4-16.05-9.41
			c-1.11-0.37-0.99-0.76-0.47-1.53c7.13-10.62,14.18-21.29,21.4-31.86c2.02-2.96,4.4-5.7,6.81-8.36c2.91-3.21,6.51-5.3,10.87-6.06
			c4.04-0.7,8.04-1.65,12.08-2.35c0.68-0.12,1.67,0.28,2.22,0.77c6.52,5.84,14.3,8.69,22.83,9.99c6.95,1.06,13.9,1.09,20.84,0.47
			c8.01-0.72,14.98-4.13,21.21-9.13c0.74-0.59,1.47-1.23,2.31-1.66c0.6-0.31,1.4-0.53,2.05-0.41c3.83,0.69,7.62,1.62,11.46,2.22
			c5.45,0.85,9.61,3.76,12.95,7.91c3.12,3.87,6.17,7.81,8.96,11.92c6.01,8.83,11.82,17.79,17.73,26.68c0.68,1.02,0.1,1.14-0.71,1.45
			c-9.18,3.5-16.86,9.21-23.36,16.47c-2.23,2.49-4.08,5.38-5.79,8.27c-0.79,1.33-1.04,0.9-1.63,0.1c-2.71-3.65-5.41-7.31-8.11-10.97
			c-0.06-0.08-0.1-0.19-0.17-0.27c-2.74-2.78-4.13-6.04-3.57-10c0.06-0.41,0.08-0.89-0.07-1.26c-0.21-0.52-0.6-0.97-0.92-1.45
			c-0.31,0.51-0.77,0.99-0.9,1.54c-0.16,0.71-0.06,1.47-0.06,2.22c0,27.12,0,54.24,0,81.36c0,2.22-0.2,4.46-0.02,6.67
			c0.15,1.8-0.67,2.7-2.06,3.48c-4.37,2.48-9.15,3.75-14.01,4.79c-11.49,2.46-23.13,2.37-34.75,1.74
			c-7.89-0.43-15.74-1.69-23.27-4.32c-2.38-0.83-4.63-2.03-6.94-3.05c-1.52-0.67-2.29-1.73-2.15-3.47c0.1-1.26-0.04-2.54-0.04-3.81
			C215.52,181.36,215.53,167.37,215.53,153.39z M256.27,94.92c-0.01,0.06-0.01,0.13-0.02,0.19c-1.27,0-2.54-0.08-3.81,0.02
			c-3.47,0.27-6.9,0.81-10.05,2.4c-2.18,1.1-3.36,2.68-2.93,5.34c0.44,2.7,0.61,5.44,0.77,8.18c0.07,1.2,0.57,2.56-0.69,3.53
			c-1.24,0.96-1.38,2.3-1.24,3.72c0.49,5.03,0.92,10.06,1.54,15.08c0.13,1.08,0.94,2.07,1.42,3.1c0.33,0.73,0.73,1.45,0.92,2.21
			c0.28,1.12,0.57,2.27,0.54,3.41c-0.07,3.18,1.93,4.39,4.52,5.25c4.84,1.61,9.76,1.47,14.69,0.8c1.55-0.21,3.11-0.62,4.55-1.22
			c1.8-0.75,3.27-1.83,3.12-4.23c-0.08-1.33,0.29-2.72,0.61-4.04c0.13-0.54,0.57-1.11,1.03-1.45c1.96-1.42,2.89-3.28,2.77-5.71
			c-0.04-0.72,0.25-1.45,0.31-2.19c0.34-3.78,0.68-7.56,0.97-11.34c0.14-1.78-0.42-3.37-1.81-4.53c-0.91-0.76-1.16-1.48-0.94-2.71
			c0.47-2.69,0.48-5.47,0.98-8.15c0.4-2.12-0.37-3.59-2.01-4.55c-1.62-0.94-3.39-1.88-5.2-2.18
			C263.02,95.3,259.63,95.21,256.27,94.92z M262.87,162.5c-3.27-0.08-3.75,0.63-2.09-3.01c0.39-0.86,0.81-1.75,1.38-2.49
			c0.56-0.72,1.34-1.27,2.02-1.89c-0.21,0.86-0.37,1.74-0.65,2.59c-0.12,0.38-0.51,0.68-0.69,1.05c-0.12,0.25-0.19,0.8-0.12,0.83
			c0.35,0.16,0.82,0.34,1.14,0.22c1.42-0.54,3.13-3.34,3.09-4.88c-0.06-1.86-1.87-3.19-3.55-2.35c-1.18,0.59-2.29,1.56-3.07,2.62
			c-1.05,1.43-1.92,3.06-2.54,4.72c-0.59,1.59-1.52,2.05-3.09,1.96c-1.79-0.1-3.6-0.09-5.39,0.03c-1.27,0.08-1.79,1.17-1.17,2.26
			c0.25,0.45,0.72,0.77,1.03,1.19c0.98,1.33,1.06,2.64-0.05,3.69c-0.68,0.64-2.02,1.44-2.58,1.17c-1.08-0.52-0.14-1.65,0.1-2.51
			c0.03-0.1,0.04-0.21,0.09-0.31c0.47-1.05,1.31-2.29,0.02-3.1c-1.11-0.7-1.84,0.54-2.58,1.26c-2.13,2.09-4.37,3.99-7.35,4.78
			c-2.21,0.58-3.46,0.05-4.22-2.06c-1.33-3.68-0.13-6.84,2.22-9.68c0.45-0.54,1.15-0.93,1.81-1.22c1.18-0.53,1.43-0.27,1.56,1.22
			c0.04,0.44,0.28,0.87,0.43,1.31c0.52-0.23,1.27-0.31,1.53-0.71c1.27-1.96,0.16-4.08-2.18-4.37c-1.55-0.19-2.92,0.25-4.15,1.18
			c-3.66,2.75-5.39,9.32-3.55,13.53c1.12,2.56,3.72,3.99,6.43,3.31c1.61-0.4,3.22-1.01,4.68-1.81c1.25-0.68,1.95-1.24,2.85,0.56
			c0.91,1.79,2.1,1.9,4.04,1.15c3.06-1.19,4.42-3.36,4.17-6.64c-0.04-0.49-0.1-0.98-0.15-1.46c0.92-0.02,1.86-0.1,2.76,0.01
			c0.13,0.02,0.34,1.15,0.14,1.58c-1.46,3.03-3,6.03-4.56,9.01c-0.39,0.74-1.02,1.37-1.38,2.12c-0.18,0.38-0.07,0.97,0.09,1.39
			c0.05,0.12,0.88,0.15,1.12-0.06c1.12-0.94,2.43-1.81,3.17-3.01c1.37-2.24,2.5-4.64,3.53-7.06c1.62-3.82,1.55-3.85,5.68-3.6
			c0.11,0.01,0.21,0.01,0.32,0.01c0.94-0.01,1.39,0.25,0.94,1.31c-1.68,3.94-2.49,8.39-6.63,10.85c-0.29,0.17-0.4,0.88-0.34,1.3
			c0.02,0.18,0.73,0.44,1.07,0.37c1.96-0.39,3.59-1.36,4.48-3.19c1.34-2.75,2.64-5.52,3.77-8.35c0.61-1.53,1.3-2.29,3.1-2.5
			c1.69-0.2,1.91,0.11,1.92,1.66c0.02,3.44,2.18,5.22,4.8,5.83c2.2,0.51,5.62-0.73,7.01-2.71c0.16-0.22,0.25-0.76,0.14-0.85
			c-0.27-0.23-0.76-0.46-1.04-0.36c-1.19,0.43-2.32,1.02-3.5,1.46c-1.69,0.64-3.12,0.12-4.25-1.22c-0.35-0.41-0.6-0.96,0.35-0.97
			c1.78-0.01,3.41-0.62,4.51-1.95c0.57-0.7,0.86-2,0.64-2.86c-0.18-0.69-1.29-1.51-2.06-1.6c-1.3-0.15-2.87-0.12-3.96,0.49
			c-1.54,0.87-3.05,0.68-4.6,0.68c-0.24,0-0.73-0.59-0.68-0.67c1.05-1.81,2.15-3.58,3.28-5.34c0.01-0.02,0.7,0.25,0.71,0.4
			c0.02,0.52-0.27,1.08-0.15,1.55c0.07,0.28,0.82,0.7,1.02,0.59c1.42-0.76,2.03-3.13,1.24-4.45c-0.66-1.11-2.57-1.41-3.98-0.54
			c-0.62,0.38-1.23,0.89-1.63,1.49c-0.94,1.4-1.95,2.8-2.56,4.35C265.97,161.86,264.9,163.07,262.87,162.5z"/>
		<g>
			<path class="st9" d="M256.54,56.97c8.88,0,17.76,0,26.64,0c0.74,0,1.48-0.04,2.22,0.02c0.33,0.03,0.65,0.26,0.97,0.4
				c-0.18,0.25-0.3,0.56-0.53,0.74c-3.45,2.64-7.1,5.02-11.3,6.22c-7.68,2.2-15.52,2.59-23.48,1.76
				c-5.27-0.55-10.44-1.37-15.33-3.41c-2.61-1.09-5.07-2.54-7.55-3.91c-0.6-0.33-1.03-0.98-1.54-1.48c0.66-0.12,1.32-0.35,1.98-0.35
				c9.3-0.02,18.61-0.02,27.91-0.02C256.54,56.95,256.54,56.96,256.54,56.97z"/>
			<path class="st9" d="M196.57,135.1c-0.43-0.19-1.37-0.45-2.15-0.96c-2.47-1.62-5.03-3.15-7.28-5.04
				c-6.1-5.15-11.27-11.14-15.51-17.91c-0.2-0.32-0.25-0.73-0.37-1.1c0.37,0.03,0.82-0.06,1.11,0.11c4.25,2.54,8.64,4.89,12.66,7.76
				c4.58,3.26,8.58,7.22,11.61,12.03c0.72,1.14,1.31,2.41,1.76,3.68C198.87,134.95,198.45,135.34,196.57,135.1z"/>
			<path class="st9" d="M316.94,135.53c-1.2-0.31-1.55-0.78-1.14-1.71c0.6-1.34,1.13-2.73,1.92-3.96c3.67-5.7,8.64-10.13,14.2-13.86
				c3.23-2.17,6.72-3.95,10.1-5.88c0.24-0.14,0.57-0.1,0.86-0.15c-0.04,0.36,0.03,0.79-0.15,1.07c-5.4,8.46-11.95,15.87-20.28,21.58
				C320.75,133.78,318.79,134.57,316.94,135.53z"/>
		</g>
		<path class="st2" d="M352.53,49.2c-0.96-0.11-1.62-0.63-1.64-1.75c-0.02-1.09,0.53-1.95,1.6-1.8c0.59,0.08,1.3,0.91,1.52,1.56
			C354.35,48.2,353.58,49.13,352.53,49.2z"/>
		<path class="st2" d="M372.08,45.56c1.14,0.06,1.61,0.76,1.68,1.81c0.07,0.97-0.39,1.59-1.32,1.8c-0.89,0.2-1.8-0.6-1.86-1.6
			C370.52,46.5,370.98,45.8,372.08,45.56z"/>
		<path class="st2" d="M393.48,47.5c-0.96,0.78-1.48,1.53-2.1,1.63c-1.05,0.16-1.71-0.56-1.73-1.68c-0.02-1.08,0.53-1.97,1.59-1.8
			C391.93,45.76,392.49,46.64,393.48,47.5z"/>
		<path class="st4" d="M256.27,94.92c3.36,0.29,6.75,0.38,10.06,0.94c1.81,0.31,3.58,1.24,5.2,2.18c1.64,0.96,2.41,2.43,2.01,4.55
			c-0.5,2.68-0.52,5.46-0.98,8.15c-0.21,1.23,0.04,1.95,0.94,2.71c1.39,1.16,1.95,2.75,1.81,4.53c-0.29,3.78-0.63,7.56-0.97,11.34
			c-0.07,0.73-0.35,1.46-0.31,2.19c0.12,2.43-0.81,4.29-2.77,5.71c-0.46,0.33-0.9,0.91-1.03,1.45c-0.32,1.32-0.69,2.71-0.61,4.04
			c0.15,2.4-1.32,3.48-3.12,4.23c-1.44,0.6-3,1.01-4.55,1.22c-4.94,0.67-9.86,0.81-14.69-0.8c-2.59-0.87-4.59-2.07-4.52-5.25
			c0.03-1.13-0.27-2.29-0.54-3.41c-0.19-0.77-0.59-1.49-0.92-2.21c-0.48-1.04-1.29-2.03-1.42-3.1c-0.61-5.01-1.05-10.05-1.54-15.08
			c-0.14-1.42,0-2.76,1.24-3.72c1.27-0.98,0.77-2.33,0.69-3.53c-0.17-2.73-0.34-5.48-0.77-8.18c-0.43-2.66,0.75-4.24,2.93-5.34
			c3.16-1.59,6.58-2.13,10.05-2.4c1.26-0.1,2.54-0.02,3.81-0.02C256.26,95.05,256.26,94.99,256.27,94.92z M255.46,122.6
			c3.28-0.49,6.39-1.03,9.51-1.41c2.67-0.33,4.21-1.34,4.36-4.39c0.17-3.35,0.97-6.66,1.45-9.99c0.14-1.01,0-1.59-1.36-1.07
			c-3.77,1.43-7.74,2-11.76,2.08c-5.09,0.09-10.09-0.42-14.84-2.45c-0.94-0.4-0.92-0.02-0.8,0.83c0.57,4.18,1.1,8.36,1.48,12.56
			c0.13,1.46,0.89,2.08,2.09,2.29C248.91,121.61,252.23,122.1,255.46,122.6z M256.28,105.34c3.79,0.1,7.47-0.09,10.99-1.36
			c1.07-0.39,2.13-0.93,3.05-1.59c1.05-0.76,1.04-1.57-0.07-2.24c-1.43-0.87-2.98-1.53-4.51-2.23c-0.2-0.09-0.61,0.06-0.82,0.22
			c-2.71,2.08-5.86,1.31-8.86,1.37c-1.19,0.03-2.36-0.15-2.35-1.84c0-0.2-0.76-0.62-1.09-0.56c-2.47,0.47-4.95,0.92-7.36,1.6
			c-1.48,0.42-3.47,0.98-3.45,2.73c0.02,1.59,2.03,1.95,3.36,2.45C248.78,105.23,252.56,105.47,256.28,105.34z M255.77,146.81
			c2.68-0.46,5.29-0.75,7.82-1.38c4.1-1.02,4.1-1.15,4.57-5.15c0.11-0.97-0.18-1.34-1.23-1.15c-2.37,0.43-4.74,0.95-7.13,1.11
			c-4.85,0.32-9.69,0.09-14.37-1.42c-1-0.32-1.36-0.17-1.25,0.87c0.07,0.63,0.24,1.25,0.24,1.88c-0.01,2.27,1.12,3.45,3.33,3.81
			C250.43,145.8,253.1,146.33,255.77,146.81z M255.99,133.51c-0.12,0-0.25,0-0.37,0c0,0.21,0,0.42,0,0.64
			c-0.02,4.5-0.02,4.5,4.33,3.72c2.22-0.4,2.25-0.49,2.56-2.8c0.33-2.5,0.68-5.01,1.14-7.49c0.69-3.73,0.74-3.69-2.87-3.29
			c-1.26,0.14-2.54,0-3.8,0.12c-0.35,0.04-0.93,0.55-0.94,0.86C255.96,128.02,255.99,130.76,255.99,133.51z M247.31,126.33
			c0.05,0,0.1,0,0.14-0.01c0.17,3.04,0.4,6.08,0.47,9.12c0.03,1.36,0.77,1.88,1.88,2.1c0.72,0.14,1.47,0.08,2.2,0.15
			c1.21,0.12,1.7-0.39,1.67-1.62c-0.05-2.21-0.02-4.42,0.01-6.64c0.03-1.63,0.11-3.25,0.17-4.88c-1.65-0.25-3.29-0.49-4.94-0.75
			c-0.99-0.16-1.67,0.04-1.61,1.24C247.32,125.49,247.31,125.91,247.31,126.33z M245.99,133.84c-0.02,0-0.04,0-0.05,0
			c-0.19-3.14-0.41-6.28-0.54-9.42c-0.04-0.89-0.39-1.31-1.21-1.55c-0.8-0.23-1.56-0.63-2.36-0.82c-0.23-0.05-0.78,0.32-0.8,0.54
			c-0.08,0.61,0.01,1.25,0.09,1.88c0.36,2.9,0.79,5.8,1.1,8.71c0.21,1.91,0.58,2.44,2.54,3.03c0.77,0.23,1.22,0.08,1.25-0.79
			C246.01,134.89,245.99,134.37,245.99,133.84z M269.48,123.28c-0.06-0.12-0.12-0.52-0.34-0.65c-0.71-0.44-3.23,1.06-3.35,1.97
			c-0.51,3.85-0.91,7.73-1.56,11.56c-0.21,1.27,0.15,1.07,1.04,0.99c1.43-0.13,2.03-0.94,2.23-2.22c0.2-1.24,0.4-2.48,0.61-3.73
			C268.55,128.61,269,126.03,269.48,123.28z M273.16,121.35c0.03,0.07-0.11-0.27-0.25-0.61c-0.36,0.2-0.98,0.34-1.05,0.62
			c-0.31,1.21-0.45,2.47-0.68,3.7c-0.53,2.78-1.12,5.56-1.59,8.35c-0.08,0.45,0.32,0.99,0.5,1.49c0.43-0.41,0.91-0.77,1.27-1.24
			c0.16-0.21,0.05-0.62,0.09-0.93C271.99,129.09,272.54,125.45,273.16,121.35z"/>
		<path class="st4" d="M262.87,162.5c2.04,0.57,3.1-0.64,3.91-2.67c0.61-1.55,1.62-2.95,2.56-4.35c0.4-0.6,1.01-1.1,1.63-1.49
			c1.4-0.88,3.32-0.57,3.98,0.54c0.78,1.32,0.17,3.68-1.24,4.45c-0.2,0.11-0.95-0.31-1.02-0.59c-0.12-0.47,0.17-1.03,0.15-1.55
			c-0.01-0.15-0.7-0.42-0.71-0.4c-1.13,1.76-2.23,3.53-3.28,5.34c-0.04,0.08,0.44,0.67,0.68,0.67c1.55,0,3.06,0.19,4.6-0.68
			c1.09-0.61,2.66-0.64,3.96-0.49c0.77,0.09,1.88,0.9,2.06,1.6c0.22,0.86-0.07,2.16-0.64,2.86c-1.1,1.33-2.72,1.94-4.51,1.95
			c-0.95,0.01-0.7,0.56-0.35,0.97c1.13,1.34,2.56,1.86,4.25,1.22c1.18-0.44,2.31-1.04,3.5-1.46c0.28-0.1,0.77,0.13,1.04,0.36
			c0.12,0.1,0.02,0.63-0.14,0.85c-1.39,1.98-4.81,3.23-7.01,2.71c-2.62-0.61-4.79-2.39-4.8-5.83c-0.01-1.55-0.23-1.86-1.92-1.66
			c-1.8,0.21-2.5,0.97-3.1,2.5c-1.13,2.84-2.43,5.61-3.77,8.35c-0.89,1.83-2.53,2.8-4.48,3.19c-0.34,0.07-1.05-0.19-1.07-0.37
			c-0.06-0.42,0.05-1.13,0.34-1.3c4.14-2.46,4.94-6.91,6.63-10.85c0.45-1.06,0-1.32-0.94-1.31c-0.11,0-0.21,0-0.32-0.01
			c-4.14-0.24-4.07-0.21-5.68,3.6c-1.03,2.42-2.16,4.82-3.53,7.06c-0.74,1.2-2.05,2.07-3.17,3.01c-0.24,0.2-1.07,0.17-1.12,0.06
			c-0.16-0.42-0.27-1.01-0.09-1.39c0.35-0.76,0.99-1.38,1.38-2.12c1.56-2.98,3.1-5.98,4.56-9.01c0.21-0.43-0.01-1.56-0.14-1.58
			c-0.9-0.12-1.84-0.03-2.76-0.01c0.05,0.49,0.11,0.97,0.15,1.46c0.26,3.28-1.1,5.44-4.17,6.64c-1.94,0.76-3.14,0.64-4.04-1.15
			c-0.91-1.79-1.6-1.24-2.85-0.56c-1.46,0.8-3.06,1.41-4.68,1.81c-2.72,0.68-5.32-0.76-6.43-3.31c-1.84-4.21-0.11-10.78,3.55-13.53
			c1.24-0.93,2.6-1.37,4.15-1.18c2.34,0.29,3.44,2.41,2.18,4.37c-0.26,0.4-1.01,0.48-1.53,0.71c-0.15-0.44-0.39-0.86-0.43-1.31
			c-0.12-1.49-0.38-1.75-1.56-1.22c-0.66,0.29-1.36,0.68-1.81,1.22c-2.35,2.84-3.55,6-2.22,9.68c0.76,2.1,2.01,2.64,4.22,2.06
			c2.98-0.79,5.22-2.69,7.35-4.78c0.73-0.72,1.47-1.96,2.58-1.26c1.29,0.81,0.45,2.06-0.02,3.1c-0.04,0.1-0.06,0.2-0.09,0.31
			c-0.23,0.87-1.17,2-0.1,2.51c0.57,0.27,1.9-0.53,2.58-1.17c1.12-1.06,1.03-2.37,0.05-3.69c-0.31-0.42-0.78-0.74-1.03-1.19
			c-0.62-1.1-0.1-2.18,1.17-2.26c1.79-0.11,3.6-0.12,5.39-0.03c1.57,0.09,2.5-0.38,3.09-1.96c0.62-1.66,1.49-3.29,2.54-4.72
			c0.78-1.07,1.89-2.04,3.07-2.62c1.68-0.84,3.49,0.49,3.55,2.35c0.05,1.54-1.67,4.34-3.09,4.88c-0.32,0.12-0.79-0.06-1.14-0.22
			c-0.08-0.03-0.01-0.58,0.12-0.83c0.18-0.38,0.57-0.67,0.69-1.05c0.27-0.84,0.44-1.72,0.65-2.59c-0.68,0.62-1.46,1.17-2.02,1.89
			c-0.58,0.74-0.99,1.62-1.38,2.49C259.12,163.13,259.6,162.42,262.87,162.5z M274.65,165.99c0.65-0.31,1.38-0.54,1.96-0.97
			c0.43-0.32,0.65-0.91,0.97-1.37c-0.57-0.04-1.27-0.31-1.68-0.08c-0.68,0.39-1.2,1.09-1.74,1.69c-0.1,0.11-0.06,0.41,0.02,0.57
			C274.23,165.94,274.48,165.94,274.65,165.99z"/>
		<path class="st2" d="M255.46,122.6c-3.23-0.5-6.55-0.98-9.87-1.56c-1.2-0.21-1.96-0.83-2.09-2.29c-0.38-4.2-0.91-8.38-1.48-12.56
			c-0.12-0.86-0.14-1.23,0.8-0.83c4.75,2.03,9.75,2.54,14.84,2.45c4.02-0.07,7.99-0.65,11.76-2.08c1.36-0.51,1.5,0.07,1.36,1.07
			c-0.48,3.33-1.28,6.64-1.45,9.99c-0.15,3.06-1.69,4.06-4.36,4.39C261.84,121.57,258.73,122.11,255.46,122.6z"/>
		<path class="st2" d="M256.28,105.34c-3.72,0.12-7.5-0.12-11.1-1.46c-1.33-0.49-3.35-0.85-3.36-2.45
			c-0.02-1.75,1.97-2.31,3.45-2.73c2.41-0.68,4.89-1.13,7.36-1.6c0.34-0.06,1.1,0.36,1.09,0.56c-0.01,1.69,1.16,1.87,2.35,1.84
			c3.01-0.07,6.16,0.7,8.86-1.37c0.21-0.16,0.62-0.32,0.82-0.22c1.53,0.7,3.08,1.37,4.51,2.23c1.1,0.67,1.12,1.48,0.07,2.24
			c-0.92,0.67-1.98,1.2-3.05,1.59C263.75,105.25,260.07,105.44,256.28,105.34z"/>
		<path class="st2" d="M255.77,146.81c-2.67-0.48-5.34-1.01-8.02-1.44c-2.21-0.36-3.33-1.54-3.33-3.81c0-0.63-0.17-1.25-0.24-1.88
			c-0.11-1.04,0.25-1.19,1.25-0.87c4.68,1.51,9.52,1.75,14.37,1.42c2.39-0.16,4.76-0.68,7.13-1.11c1.05-0.19,1.35,0.18,1.23,1.15
			c-0.47,4.01-0.48,4.14-4.57,5.15C261.06,146.06,258.45,146.35,255.77,146.81z"/>
		<g>
			<path class="st7" d="M255.99,133.51c0-2.75-0.03-5.49,0.04-8.24c0.01-0.31,0.59-0.83,0.94-0.86c1.26-0.13,2.55,0.01,3.8-0.12
				c3.61-0.39,3.56-0.44,2.87,3.29c-0.46,2.48-0.81,4.99-1.14,7.49c-0.31,2.31-0.34,2.4-2.56,2.8c-4.35,0.79-4.35,0.79-4.33-3.72
				c0-0.21,0-0.42,0-0.64C255.74,133.51,255.86,133.51,255.99,133.51z"/>
			<path class="st7" d="M247.31,126.33c0-0.42,0.02-0.84,0-1.26c-0.06-1.2,0.62-1.4,1.61-1.24c1.65,0.26,3.29,0.5,4.94,0.75
				c-0.06,1.63-0.15,3.25-0.17,4.88c-0.03,2.21-0.06,4.42-0.01,6.64c0.03,1.23-0.46,1.74-1.67,1.62c-0.73-0.07-1.48-0.01-2.2-0.15
				c-1.11-0.22-1.85-0.74-1.88-2.1c-0.07-3.04-0.3-6.08-0.47-9.12C247.4,126.33,247.35,126.33,247.31,126.33z"/>
			<path class="st7" d="M245.99,133.84c0,0.53,0.01,1.05,0,1.58c-0.03,0.87-0.48,1.02-1.25,0.79c-1.95-0.59-2.33-1.11-2.54-3.03
				c-0.31-2.91-0.74-5.81-1.1-8.71c-0.08-0.62-0.17-1.26-0.09-1.88c0.03-0.22,0.58-0.6,0.8-0.54c0.81,0.2,1.56,0.59,2.36,0.82
				c0.82,0.23,1.17,0.66,1.21,1.55c0.13,3.14,0.35,6.28,0.54,9.42C245.96,133.85,245.98,133.84,245.99,133.84z"/>
			<path class="st7" d="M269.48,123.28c-0.48,2.75-0.93,5.33-1.37,7.91c-0.21,1.24-0.41,2.48-0.61,3.73
				c-0.21,1.28-0.8,2.09-2.23,2.22c-0.89,0.08-1.26,0.28-1.04-0.99c0.64-3.83,1.05-7.7,1.56-11.56c0.12-0.9,2.65-2.41,3.35-1.97
				C269.36,122.76,269.42,123.16,269.48,123.28z"/>
			<path class="st7" d="M273.16,121.35c-0.62,4.1-1.17,7.74-1.71,11.38c-0.05,0.31,0.07,0.72-0.09,0.93
				c-0.35,0.46-0.84,0.83-1.27,1.24c-0.18-0.5-0.58-1.03-0.5-1.49c0.47-2.79,1.06-5.57,1.59-8.35c0.24-1.23,0.37-2.49,0.68-3.7
				c0.07-0.28,0.68-0.42,1.05-0.62C273.05,121.08,273.19,121.42,273.16,121.35z"/>
		</g>
		<path class="st2" d="M274.65,165.99c-0.17-0.05-0.42-0.05-0.48-0.15c-0.08-0.16-0.12-0.47-0.02-0.57c0.55-0.6,1.06-1.3,1.74-1.69
			c0.41-0.23,1.11,0.03,1.68,0.08c-0.32,0.47-0.54,1.05-0.97,1.37C276.03,165.45,275.3,165.68,274.65,165.99z"/>
	</g>
</g>
</svg>
