<?xml version="1.0" encoding="utf-8"?>
<!-- Generator: Adobe Illustrator 28.1.0, SVG Export Plug-In . SVG Version: 6.00 Build 0)  -->
<svg version="1.1" xmlns="http://www.w3.org/2000/svg" xmlns:xlink="http://www.w3.org/1999/xlink" x="0px" y="0px"
	 viewBox="0 0 507.99 279.48" style="enable-background:new 0 0 507.99 279.48;" xml:space="preserve">
<style type="text/css">
	.st0{fill:#F8F8F8;}
	.st1{fill:#B7E4EA;}
	.st2{fill:#FFFFFF;}
	.st3{fill:#1497C7;}
	.st4{fill:#00283D;}
	.st5{fill:#EEFBFE;}
	.st6{fill:#1DAAE0;}
	.st7{fill:#5BD3B1;}
	.st8{fill:none;stroke:#00283D;stroke-miterlimit:10;}
	.st9{fill:#E6E6E6;}
</style>
<g id="Layer_2">
</g>
<g id="Layer_1">
	<g>
		<g>
			<path class="st4" d="M211.85,175.45c0-10.95,0-21.9,0-32.85c0-0.55,0.01-1.1,0-1.66c-0.01-0.17-0.1-0.34-0.15-0.52
				c-0.2,0.09-0.48,0.12-0.6,0.28c-1.78,2.23-3.52,4.48-5.3,6.71c-1.31,1.65-2.67,3.27-3.99,4.92c-1.47,1.83-3.23,2.15-5.39,1.3
				c-3.13-1.23-5.81-3.15-8.35-5.26c-5.63-4.69-10.26-10.26-14.14-16.46c-0.1-0.16-0.17-0.33-0.27-0.48
				c-1.37-2.11-1.69-3.88-0.14-6.43c6.29-10.37,12.64-20.69,19.99-30.36c1.33-1.75,2.85-3.37,4.34-4.99
				c3.63-3.92,8.4-5.4,13.49-6.14c3.44-0.49,6.88-1.03,10.32-1.5c1-0.14,2.02-0.15,3.03-0.15c15.09,0,30.17-0.06,45.26,0.05
				c7.43,0.05,14.82,0.75,22.13,2.18c4.6,0.9,8.29,3.28,11.41,6.71c4.6,5.05,8.4,10.7,12.09,16.41c4.03,6.25,7.77,12.68,11.76,18.95
				c0.9,1.41,0.84,2.53,0.03,3.76c-2.07,3.14-4.03,6.37-6.33,9.33c-3.69,4.74-7.99,8.9-13.06,12.17c-1.45,0.93-3.1,1.55-4.66,2.3
				c-1.87,0.9-3.42,0.32-4.66-1.16c-2.01-2.39-3.94-4.85-5.92-7.26c-1.37-1.66-2.78-3.28-4.17-4.92c-0.05,2.1-0.14,4.2-0.14,6.31
				c0,20.25-0.03,40.49,0.09,60.74c0.02,2.78-1.04,4.53-3.26,5.87c-3.75,2.26-7.87,3.49-12.1,4.38c-4.58,0.97-9.19,1.69-13.89,1.76
				c-3.49,0.06-6.98,0.52-10.45,0.38c-9.45-0.4-18.87-1.19-27.87-4.37c-2.57-0.91-4.99-2.28-7.44-3.51
				c-1.34-0.67-1.79-1.76-1.77-3.36c0.09-11.04,0.05-22.09,0.05-33.13C211.8,175.45,211.83,175.45,211.85,175.45z M213.97,167.82
				c0,12.15,0,24.3,0,36.44c0,1.1,0.11,2.21,0.03,3.31c-0.12,1.51,0.55,2.44,1.87,3.02c2.01,0.88,3.97,1.92,6.03,2.65
				c6.54,2.29,13.36,3.38,20.21,3.76c10.09,0.55,20.2,0.63,30.18-1.51c4.22-0.9,8.37-2.01,12.17-4.16c1.21-0.68,1.92-1.46,1.79-3.03
				c-0.16-1.92,0.01-3.86,0.01-5.79c0-23.56,0-47.12,0-70.68c0-0.64-0.09-1.31,0.05-1.92c0.11-0.48,0.51-0.9,0.78-1.34
				c0.27,0.42,0.61,0.81,0.8,1.26c0.13,0.32,0.11,0.73,0.06,1.09c-0.49,3.44,0.72,6.27,3.1,8.69c0.06,0.06,0.09,0.16,0.15,0.23
				c2.35,3.18,4.69,6.35,7.04,9.53c0.51,0.69,0.73,1.07,1.41-0.09c1.49-2.51,3.09-5.01,5.03-7.18c5.65-6.31,12.31-11.27,20.29-14.31
				c0.7-0.27,1.21-0.37,0.62-1.26c-5.14-7.72-10.19-15.5-15.41-23.17c-2.43-3.57-5.08-6.99-7.78-10.35
				c-2.9-3.6-6.51-6.13-11.25-6.87c-3.34-0.52-6.63-1.33-9.95-1.93c-0.56-0.1-1.26,0.09-1.78,0.36c-0.72,0.37-1.36,0.93-2,1.45
				c-5.41,4.34-11.47,7.31-18.43,7.93c-6.03,0.54-12.07,0.52-18.1-0.41c-7.41-1.13-14.16-3.6-19.83-8.68
				c-0.48-0.43-1.33-0.77-1.93-0.67c-3.51,0.61-6.98,1.43-10.49,2.04c-3.79,0.66-6.91,2.47-9.44,5.26
				c-2.09,2.31-4.16,4.69-5.91,7.26c-6.27,9.18-12.4,18.45-18.59,27.67c-0.45,0.67-0.56,1,0.41,1.33c5.21,1.75,9.73,4.74,13.94,8.18
				c4.57,3.73,8.83,7.79,11.53,13.19c0.6,1.21,0.65,1.24,1.49,0.13c2.81-3.75,5.53-7.56,8.4-11.26c1.24-1.6,1.94-3.21,1.79-5.28
				c-0.13-1.83-0.01-3.68,0.1-5.52c0.02-0.34,0.5-0.66,0.76-0.99c0.26,0.34,0.69,0.66,0.76,1.04c0.13,0.71,0.07,1.47,0.07,2.2
				C213.97,142.24,213.97,155.03,213.97,167.82z M249.6,84.06c0-0.01,0-0.02,0-0.03c-8.08,0-16.17-0.01-24.25,0.01
				c-0.57,0-1.15,0.2-1.72,0.31c0.44,0.44,0.81,1,1.33,1.29c2.16,1.19,4.29,2.45,6.56,3.4c4.25,1.77,8.74,2.49,13.32,2.96
				c6.92,0.72,13.72,0.38,20.4-1.53c3.65-1.04,6.82-3.11,9.82-5.4c0.2-0.15,0.31-0.43,0.46-0.64c-0.28-0.12-0.55-0.32-0.84-0.35
				c-0.64-0.05-1.28-0.02-1.93-0.02C265.03,84.06,257.32,84.06,249.6,84.06z M197.5,151.93c1.63,0.2,2-0.13,1.6-1.25
				c-0.39-1.11-0.9-2.2-1.53-3.2c-2.64-4.18-6.11-7.62-10.09-10.45c-3.49-2.49-7.31-4.53-11-6.74c-0.25-0.15-0.64-0.07-0.97-0.1
				c0.1,0.32,0.15,0.68,0.32,0.96c3.69,5.88,8.18,11.09,13.48,15.56c1.95,1.65,4.18,2.97,6.32,4.38
				C196.31,151.54,197.13,151.77,197.5,151.93z M302.07,152.3c1.6-0.84,3.31-1.52,4.79-2.53c7.23-4.95,12.92-11.39,17.61-18.74
				c0.15-0.24,0.09-0.61,0.13-0.93c-0.25,0.04-0.54,0.01-0.75,0.13c-2.94,1.68-5.97,3.23-8.78,5.11
				c-4.83,3.24-9.15,7.09-12.34,12.04c-0.68,1.06-1.14,2.27-1.66,3.44C300.72,151.63,301.03,152.04,302.07,152.3z"/>
			<path class="st2" d="M213.97,167.82c0-12.79,0-25.58,0-38.37c0-0.74,0.06-1.49-0.07-2.2c-0.07-0.38-0.49-0.7-0.76-1.04
				c-0.27,0.33-0.74,0.65-0.76,0.99c-0.11,1.84-0.24,3.69-0.1,5.52c0.15,2.06-0.55,3.68-1.79,5.28c-2.87,3.7-5.59,7.52-8.4,11.26
				c-0.83,1.11-0.88,1.07-1.49-0.13c-2.7-5.39-6.96-9.45-11.53-13.19c-4.21-3.44-8.73-6.43-13.94-8.18
				c-0.97-0.33-0.86-0.66-0.41-1.33c6.19-9.23,12.32-18.5,18.59-27.67c1.76-2.57,3.82-4.95,5.91-7.26c2.52-2.79,5.65-4.6,9.44-5.26
				c3.51-0.61,6.98-1.43,10.49-2.04c0.59-0.1,1.45,0.24,1.93,0.67c5.67,5.08,12.42,7.55,19.83,8.68c6.03,0.92,12.07,0.95,18.1,0.41
				c6.96-0.63,13.01-3.59,18.43-7.93c0.64-0.52,1.28-1.07,2-1.45c0.52-0.27,1.22-0.46,1.78-0.36c3.33,0.6,6.62,1.41,9.95,1.93
				c4.74,0.74,8.34,3.27,11.25,6.87c2.71,3.36,5.36,6.79,7.78,10.35c5.22,7.67,10.27,15.45,15.41,23.17
				c0.59,0.89,0.09,0.99-0.62,1.26c-7.98,3.04-14.65,8-20.29,14.31c-1.94,2.17-3.55,4.67-5.03,7.18c-0.69,1.16-0.9,0.78-1.41,0.09
				c-2.35-3.17-4.7-6.35-7.04-9.53c-0.05-0.07-0.09-0.17-0.15-0.23c-2.38-2.42-3.59-5.24-3.1-8.69c0.05-0.36,0.07-0.77-0.06-1.09
				c-0.18-0.45-0.52-0.84-0.8-1.26c-0.27,0.44-0.67,0.86-0.78,1.34c-0.14,0.61-0.05,1.28-0.05,1.92c0,23.56,0,47.12,0,70.68
				c0,1.93-0.18,3.88-0.01,5.79c0.13,1.56-0.58,2.34-1.79,3.03c-3.8,2.15-7.95,3.25-12.17,4.16c-9.98,2.14-20.1,2.06-30.18,1.51
				c-6.85-0.37-13.68-1.47-20.21-3.76c-2.07-0.72-4.02-1.76-6.03-2.65c-1.32-0.58-1.99-1.51-1.87-3.02c0.08-1.1-0.03-2.21-0.03-3.31
				C213.97,192.11,213.97,179.97,213.97,167.82z M249.36,117.03c-0.01,0.05-0.01,0.11-0.02,0.16c-1.1,0-2.21-0.07-3.31,0.01
				c-3.02,0.23-5.99,0.7-8.73,2.09c-1.89,0.96-2.92,2.33-2.54,4.64c0.38,2.34,0.53,4.73,0.67,7.1c0.06,1.04,0.5,2.22-0.6,3.07
				c-1.08,0.83-1.2,2-1.08,3.23c0.43,4.37,0.8,8.74,1.33,13.1c0.11,0.93,0.82,1.79,1.23,2.7c0.29,0.63,0.64,1.26,0.8,1.92
				c0.24,0.97,0.49,1.98,0.47,2.96c-0.06,2.76,1.68,3.81,3.93,4.56c4.2,1.4,8.48,1.28,12.76,0.7c1.34-0.18,2.7-0.54,3.95-1.06
				c1.56-0.65,2.84-1.59,2.71-3.67c-0.07-1.16,0.25-2.36,0.53-3.51c0.11-0.47,0.49-0.97,0.89-1.26c1.71-1.24,2.51-2.85,2.41-4.96
				c-0.03-0.63,0.21-1.26,0.27-1.9c0.29-3.28,0.59-6.56,0.84-9.85c0.12-1.55-0.37-2.93-1.57-3.94c-0.79-0.66-1-1.29-0.82-2.35
				c0.41-2.34,0.42-4.75,0.85-7.08c0.35-1.85-0.32-3.12-1.75-3.95c-1.41-0.82-2.94-1.63-4.51-1.9
				C255.23,117.36,252.28,117.28,249.36,117.03z M255.1,175.73c-2.84-0.07-3.26,0.55-1.81-2.61c0.34-0.75,0.7-1.52,1.2-2.16
				c0.49-0.63,1.16-1.1,1.76-1.65c-0.18,0.75-0.32,1.51-0.56,2.25c-0.11,0.33-0.44,0.59-0.6,0.92c-0.11,0.22-0.17,0.69-0.1,0.72
				c0.3,0.14,0.71,0.3,0.99,0.19c1.23-0.47,2.72-2.9,2.68-4.24c-0.05-1.62-1.62-2.77-3.08-2.04c-1.02,0.51-1.99,1.35-2.66,2.28
				c-0.91,1.25-1.67,2.66-2.21,4.1c-0.51,1.38-1.32,1.78-2.69,1.71c-1.56-0.08-3.13-0.08-4.69,0.02c-1.1,0.07-1.55,1.02-1.02,1.97
				c0.22,0.39,0.63,0.67,0.9,1.03c0.85,1.15,0.92,2.29-0.05,3.21c-0.59,0.56-1.75,1.25-2.24,1.02c-0.94-0.45-0.12-1.43,0.08-2.18
				c0.02-0.09,0.04-0.18,0.08-0.27c0.41-0.91,1.14-1.99,0.02-2.7c-0.96-0.61-1.6,0.47-2.24,1.09c-1.85,1.81-3.8,3.47-6.38,4.15
				c-1.92,0.51-3.01,0.04-3.67-1.79c-1.16-3.19-0.11-5.94,1.93-8.41c0.39-0.47,1-0.8,1.57-1.06c1.03-0.46,1.25-0.23,1.35,1.06
				c0.03,0.39,0.24,0.76,0.37,1.14c0.45-0.2,1.11-0.27,1.33-0.61c1.1-1.7,0.14-3.54-1.89-3.79c-1.35-0.17-2.53,0.22-3.61,1.03
				c-3.18,2.39-4.68,8.1-3.09,11.76c0.97,2.22,3.23,3.47,5.59,2.88c1.4-0.35,2.8-0.88,4.06-1.57c1.09-0.59,1.69-1.07,2.48,0.48
				c0.79,1.55,1.82,1.65,3.51,1c2.66-1.04,3.84-2.92,3.62-5.77c-0.03-0.42-0.08-0.85-0.13-1.27c0.8-0.02,1.61-0.09,2.4,0.01
				c0.11,0.01,0.3,1,0.12,1.37c-1.27,2.64-2.61,5.24-3.96,7.83c-0.34,0.65-0.89,1.19-1.2,1.84c-0.16,0.33-0.06,0.84,0.08,1.21
				c0.04,0.1,0.76,0.13,0.97-0.05c0.97-0.82,2.11-1.57,2.75-2.62c1.19-1.94,2.17-4.03,3.07-6.13c1.41-3.32,1.34-3.34,4.94-3.13
				c0.09,0.01,0.18,0.01,0.28,0.01c0.81-0.01,1.21,0.22,0.82,1.14c-1.46,3.42-2.16,7.29-5.76,9.43c-0.25,0.15-0.34,0.76-0.29,1.13
				c0.02,0.15,0.64,0.38,0.93,0.32c1.7-0.34,3.12-1.18,3.89-2.77c1.16-2.39,2.29-4.79,3.27-7.26c0.53-1.33,1.13-1.99,2.7-2.17
				c1.47-0.17,1.66,0.1,1.67,1.44c0.01,2.99,1.89,4.53,4.17,5.06c1.91,0.44,4.88-0.64,6.09-2.36c0.14-0.19,0.22-0.66,0.12-0.74
				c-0.23-0.2-0.66-0.4-0.9-0.31c-1.03,0.37-2.01,0.89-3.04,1.27c-1.47,0.55-2.71,0.1-3.69-1.06c-0.3-0.36-0.53-0.84,0.3-0.84
				c1.55-0.01,2.96-0.54,3.92-1.69c0.5-0.6,0.75-1.74,0.56-2.48c-0.16-0.6-1.12-1.31-1.79-1.39c-1.13-0.13-2.5-0.11-3.44,0.42
				c-1.34,0.76-2.65,0.59-3.99,0.59c-0.21,0-0.63-0.51-0.59-0.58c0.91-1.57,1.87-3.11,2.85-4.64c0.01-0.02,0.61,0.22,0.61,0.35
				c0.02,0.45-0.23,0.94-0.13,1.35c0.06,0.24,0.72,0.61,0.89,0.51c1.23-0.66,1.76-2.72,1.08-3.86c-0.57-0.96-2.24-1.23-3.45-0.47
				c-0.54,0.33-1.06,0.78-1.41,1.29c-0.82,1.21-1.69,2.43-2.23,3.78C257.79,175.17,256.87,176.23,255.1,175.73z"/>
			<g>
				<path class="st9" d="M249.6,84.06c7.72,0,15.43,0,23.15,0c0.64,0,1.29-0.03,1.93,0.02c0.29,0.02,0.56,0.23,0.84,0.35
					c-0.15,0.22-0.26,0.49-0.46,0.64c-3,2.3-6.17,4.36-9.82,5.4c-6.68,1.91-13.48,2.25-20.4,1.53c-4.58-0.47-9.07-1.19-13.32-2.96
					c-2.27-0.95-4.4-2.21-6.56-3.4c-0.52-0.29-0.89-0.85-1.33-1.29c0.57-0.11,1.15-0.31,1.72-0.31c8.08-0.02,16.17-0.01,24.25-0.01
					C249.6,84.04,249.6,84.05,249.6,84.06z"/>
				<path class="st9" d="M197.5,151.93c-0.38-0.16-1.19-0.39-1.87-0.83c-2.14-1.41-4.37-2.73-6.32-4.38
					c-5.3-4.47-9.79-9.68-13.48-15.56c-0.17-0.28-0.22-0.64-0.32-0.96c0.33,0.03,0.72-0.05,0.97,0.1c3.69,2.21,7.5,4.25,11,6.74
					c3.98,2.83,7.45,6.27,10.09,10.45c0.63,0.99,1.13,2.09,1.53,3.2C199.5,151.8,199.13,152.13,197.5,151.93z"/>
				<path class="st9" d="M302.07,152.3c-1.04-0.27-1.35-0.68-0.99-1.49c0.52-1.16,0.98-2.37,1.66-3.44
					c3.19-4.95,7.51-8.8,12.34-12.04c2.81-1.88,5.84-3.43,8.78-5.11c0.21-0.12,0.49-0.09,0.75-0.13c-0.04,0.31,0.02,0.69-0.13,0.93
					c-4.69,7.35-10.38,13.79-17.61,18.74C305.38,150.78,303.67,151.47,302.07,152.3z"/>
			</g>
			<path class="st4" d="M249.36,117.03c2.92,0.25,5.86,0.33,8.74,0.81c1.57,0.27,3.11,1.08,4.51,1.9c1.42,0.83,2.09,2.11,1.75,3.95
				c-0.44,2.33-0.45,4.74-0.85,7.08c-0.19,1.07,0.03,1.7,0.82,2.35c1.21,1.01,1.69,2.39,1.57,3.94c-0.26,3.28-0.55,6.57-0.84,9.85
				c-0.06,0.64-0.3,1.27-0.27,1.9c0.1,2.11-0.7,3.72-2.41,4.96c-0.4,0.29-0.78,0.79-0.89,1.26c-0.28,1.15-0.6,2.35-0.53,3.51
				c0.13,2.09-1.15,3.02-2.71,3.67c-1.25,0.52-2.61,0.88-3.95,1.06c-4.29,0.58-8.56,0.71-12.76-0.7c-2.25-0.75-3.99-1.8-3.93-4.56
				c0.02-0.99-0.23-1.99-0.47-2.96c-0.17-0.67-0.51-1.29-0.8-1.92c-0.41-0.9-1.12-1.76-1.23-2.7c-0.53-4.35-0.91-8.73-1.33-13.1
				c-0.12-1.23,0-2.4,1.08-3.23c1.1-0.85,0.67-2.03,0.6-3.07c-0.15-2.37-0.29-4.76-0.67-7.1c-0.37-2.31,0.65-3.69,2.54-4.64
				c2.74-1.39,5.72-1.85,8.73-2.09c1.1-0.08,2.2-0.01,3.31-0.01C249.35,117.14,249.36,117.08,249.36,117.03z M248.66,141.07
				c2.85-0.43,5.55-0.89,8.26-1.23c2.32-0.29,3.66-1.16,3.79-3.82c0.14-2.91,0.84-5.78,1.26-8.68c0.13-0.87,0-1.38-1.18-0.93
				c-3.28,1.24-6.72,1.74-10.22,1.81c-4.42,0.08-8.77-0.36-12.89-2.13c-0.81-0.35-0.8-0.02-0.69,0.72
				c0.49,3.63,0.95,7.26,1.28,10.91c0.12,1.27,0.77,1.81,1.82,1.99C242.97,140.21,245.86,140.63,248.66,141.07z M249.37,126.08
				c3.3,0.08,6.49-0.08,9.55-1.18c0.93-0.34,1.85-0.8,2.65-1.38c0.91-0.66,0.9-1.37-0.06-1.95c-1.24-0.75-2.59-1.33-3.92-1.94
				c-0.18-0.08-0.53,0.05-0.71,0.19c-2.35,1.81-5.09,1.14-7.7,1.19c-1.03,0.02-2.05-0.13-2.04-1.6c0-0.17-0.66-0.54-0.95-0.48
				c-2.14,0.4-4.3,0.8-6.39,1.39c-1.28,0.36-3.01,0.85-2.99,2.37c0.02,1.38,1.77,1.7,2.92,2.13
				C242.86,125.98,246.14,126.19,249.37,126.08z M248.93,162.1c2.33-0.4,4.6-0.65,6.8-1.2c3.56-0.88,3.56-1,3.97-4.48
				c0.1-0.84-0.16-1.16-1.07-1c-2.06,0.38-4.12,0.82-6.19,0.96c-4.22,0.28-8.42,0.08-12.48-1.24c-0.87-0.28-1.18-0.15-1.09,0.75
				c0.06,0.55,0.21,1.09,0.21,1.63c0,1.97,0.97,3,2.89,3.31C244.29,161.23,246.61,161.68,248.93,162.1z M249.12,150.55
				c-0.11,0-0.21,0-0.32,0c0,0.18,0,0.37,0,0.55c-0.02,3.91-0.02,3.91,3.76,3.23c1.93-0.35,1.96-0.42,2.23-2.43
				c0.29-2.17,0.59-4.35,0.99-6.51c0.6-3.24,0.64-3.2-2.5-2.86c-1.09,0.12-2.21,0-3.31,0.11c-0.31,0.03-0.81,0.48-0.82,0.75
				C249.09,145.78,249.12,148.16,249.12,150.55z M241.58,144.32c0.04,0,0.08,0,0.13-0.01c0.14,2.64,0.34,5.28,0.4,7.92
				c0.03,1.19,0.67,1.64,1.63,1.83c0.62,0.12,1.28,0.07,1.91,0.13c1.05,0.11,1.48-0.34,1.45-1.4c-0.04-1.92-0.02-3.84,0.01-5.76
				c0.02-1.41,0.1-2.82,0.15-4.24c-1.43-0.22-2.86-0.42-4.29-0.65c-0.86-0.14-1.45,0.04-1.4,1.08
				C241.59,143.58,241.58,143.95,241.58,144.32z M240.44,150.84c-0.02,0-0.03,0-0.05,0c-0.16-2.73-0.35-5.46-0.47-8.19
				c-0.03-0.77-0.34-1.14-1.05-1.34c-0.7-0.2-1.35-0.55-2.05-0.72c-0.2-0.05-0.67,0.28-0.7,0.47c-0.07,0.53,0.01,1.09,0.08,1.63
				c0.31,2.52,0.68,5.04,0.96,7.57c0.18,1.66,0.51,2.12,2.2,2.63c0.67,0.2,1.06,0.07,1.08-0.69
				C240.45,151.75,240.44,151.29,240.44,150.84z M260.84,141.66c-0.05-0.11-0.1-0.45-0.29-0.57c-0.61-0.38-2.81,0.93-2.91,1.71
				c-0.44,3.35-0.79,6.71-1.35,10.04c-0.19,1.1,0.13,0.93,0.91,0.86c1.25-0.12,1.76-0.82,1.94-1.93c0.17-1.08,0.34-2.16,0.53-3.24
				C260.04,146.29,260.43,144.05,260.84,141.66z M264.04,139.99c0.02,0.06-0.1-0.24-0.22-0.53c-0.32,0.18-0.85,0.3-0.91,0.54
				c-0.27,1.05-0.39,2.14-0.59,3.21c-0.46,2.42-0.97,4.83-1.39,7.26c-0.07,0.39,0.28,0.86,0.44,1.29c0.37-0.35,0.79-0.67,1.1-1.07
				c0.14-0.18,0.04-0.54,0.08-0.81C263.02,146.71,263.5,143.55,264.04,139.99z"/>
			<path class="st4" d="M255.1,175.73c1.77,0.5,2.7-0.56,3.39-2.32c0.53-1.34,1.41-2.56,2.23-3.78c0.35-0.52,0.88-0.96,1.41-1.29
				c1.22-0.76,2.88-0.5,3.45,0.47c0.68,1.15,0.15,3.2-1.08,3.86c-0.17,0.09-0.83-0.27-0.89-0.51c-0.1-0.41,0.15-0.9,0.13-1.35
				c0-0.13-0.6-0.37-0.61-0.35c-0.98,1.53-1.94,3.07-2.85,4.64c-0.04,0.07,0.39,0.58,0.59,0.58c1.35,0,2.65,0.16,3.99-0.59
				c0.94-0.53,2.31-0.55,3.44-0.42c0.67,0.08,1.63,0.79,1.79,1.39c0.19,0.75-0.06,1.88-0.56,2.48c-0.95,1.15-2.36,1.68-3.92,1.69
				c-0.83,0-0.6,0.49-0.3,0.84c0.98,1.16,2.22,1.61,3.69,1.06c1.03-0.39,2.01-0.9,3.04-1.27c0.24-0.09,0.67,0.11,0.9,0.31
				c0.1,0.09,0.02,0.55-0.12,0.74c-1.21,1.72-4.18,2.8-6.09,2.36c-2.28-0.53-4.16-2.07-4.17-5.06c-0.01-1.35-0.2-1.62-1.67-1.44
				c-1.57,0.18-2.17,0.85-2.7,2.17c-0.98,2.46-2.11,4.87-3.27,7.26c-0.77,1.59-2.2,2.44-3.89,2.77c-0.3,0.06-0.91-0.17-0.93-0.32
				c-0.05-0.37,0.04-0.98,0.29-1.13c3.59-2.14,4.3-6.01,5.76-9.43c0.39-0.92,0-1.15-0.82-1.14c-0.09,0-0.18,0-0.28-0.01
				c-3.6-0.21-3.53-0.19-4.94,3.13c-0.89,2.1-1.88,4.19-3.07,6.13c-0.64,1.05-1.78,1.8-2.75,2.62c-0.21,0.18-0.93,0.15-0.97,0.05
				c-0.14-0.37-0.24-0.88-0.08-1.21c0.31-0.66,0.86-1.2,1.2-1.84c1.35-2.59,2.69-5.19,3.96-7.83c0.18-0.37-0.01-1.36-0.12-1.37
				c-0.79-0.1-1.6-0.03-2.4-0.01c0.04,0.42,0.09,0.85,0.13,1.27c0.22,2.85-0.96,4.73-3.62,5.77c-1.69,0.66-2.72,0.56-3.51-1
				c-0.79-1.56-1.39-1.08-2.48-0.48c-1.27,0.69-2.66,1.22-4.06,1.57c-2.36,0.59-4.62-0.66-5.59-2.88
				c-1.59-3.66-0.09-9.37,3.09-11.76c1.07-0.81,2.26-1.19,3.61-1.03c2.03,0.25,2.99,2.09,1.89,3.79c-0.22,0.35-0.88,0.42-1.33,0.61
				c-0.13-0.38-0.34-0.75-0.37-1.14c-0.11-1.29-0.33-1.52-1.35-1.06c-0.57,0.26-1.18,0.59-1.57,1.06c-2.04,2.46-3.08,5.21-1.93,8.41
				c0.66,1.83,1.75,2.29,3.67,1.79c2.59-0.68,4.53-2.34,6.38-4.15c0.64-0.62,1.27-1.7,2.24-1.09c1.12,0.71,0.39,1.79-0.02,2.7
				c-0.04,0.08-0.05,0.18-0.08,0.27c-0.2,0.75-1.02,1.74-0.08,2.18c0.49,0.23,1.65-0.46,2.24-1.02c0.97-0.92,0.89-2.06,0.05-3.21
				c-0.27-0.37-0.68-0.64-0.9-1.03c-0.54-0.95-0.08-1.9,1.02-1.97c1.56-0.1,3.13-0.11,4.69-0.02c1.36,0.07,2.17-0.33,2.69-1.71
				c0.54-1.45,1.3-2.86,2.21-4.1c0.68-0.93,1.64-1.77,2.66-2.28c1.46-0.73,3.03,0.43,3.08,2.04c0.04,1.34-1.45,3.77-2.68,4.24
				c-0.27,0.1-0.68-0.06-0.99-0.19c-0.07-0.03-0.01-0.5,0.1-0.72c0.16-0.33,0.49-0.58,0.6-0.92c0.24-0.73,0.38-1.5,0.56-2.25
				c-0.59,0.54-1.27,1.02-1.76,1.65c-0.5,0.64-0.86,1.41-1.2,2.16C251.84,176.28,252.25,175.66,255.1,175.73z M265.33,178.76
				c0.57-0.27,1.2-0.47,1.7-0.84c0.37-0.28,0.57-0.79,0.84-1.19c-0.49-0.04-1.1-0.27-1.46-0.07c-0.59,0.34-1.04,0.95-1.52,1.47
				c-0.08,0.09-0.05,0.36,0.02,0.5C264.96,178.72,265.18,178.72,265.33,178.76z"/>
			<path class="st2" d="M248.66,141.07c-2.8-0.44-5.69-0.86-8.57-1.35c-1.04-0.18-1.7-0.72-1.82-1.99
				c-0.33-3.64-0.79-7.28-1.28-10.91c-0.1-0.74-0.12-1.07,0.69-0.72c4.12,1.77,8.47,2.21,12.89,2.13c3.49-0.06,6.94-0.56,10.22-1.81
				c1.18-0.45,1.3,0.06,1.18,0.93c-0.42,2.9-1.11,5.77-1.26,8.68c-0.13,2.66-1.47,3.53-3.79,3.82
				C254.21,140.18,251.51,140.64,248.66,141.07z"/>
			<path class="st2" d="M249.37,126.08c-3.23,0.11-6.52-0.1-9.65-1.26c-1.15-0.43-2.91-0.74-2.92-2.13
				c-0.02-1.52,1.71-2.01,2.99-2.37c2.1-0.59,4.25-0.99,6.39-1.39c0.29-0.05,0.95,0.31,0.95,0.48c-0.01,1.47,1.01,1.62,2.04,1.6
				c2.61-0.06,5.35,0.61,7.7-1.19c0.19-0.14,0.54-0.28,0.71-0.19c1.33,0.61,2.68,1.19,3.92,1.94c0.96,0.58,0.97,1.29,0.06,1.95
				c-0.8,0.58-1.72,1.05-2.65,1.38C255.86,126,252.67,126.16,249.37,126.08z"/>
			<path class="st2" d="M248.93,162.1c-2.32-0.42-4.64-0.88-6.97-1.25c-1.92-0.31-2.9-1.34-2.89-3.31c0-0.54-0.15-1.09-0.21-1.63
				c-0.09-0.9,0.22-1.03,1.09-0.75c4.06,1.31,8.27,1.52,12.48,1.24c2.08-0.14,4.14-0.59,6.19-0.96c0.91-0.17,1.17,0.16,1.07,1
				c-0.41,3.48-0.41,3.59-3.97,4.48C253.53,161.45,251.26,161.7,248.93,162.1z"/>
			<g>
				<path class="st7" d="M249.12,150.55c0-2.39-0.03-4.77,0.04-7.16c0.01-0.27,0.51-0.72,0.82-0.75c1.09-0.11,2.21,0.01,3.31-0.11
					c3.14-0.34,3.1-0.38,2.5,2.86c-0.4,2.16-0.7,4.33-0.99,6.51c-0.27,2.01-0.3,2.08-2.23,2.43c-3.78,0.68-3.78,0.68-3.76-3.23
					c0-0.18,0-0.37,0-0.55C248.91,150.55,249.01,150.55,249.12,150.55z"/>
				<path class="st7" d="M241.58,144.32c0-0.37,0.02-0.73,0-1.1c-0.05-1.04,0.54-1.21,1.4-1.08c1.43,0.23,2.86,0.43,4.29,0.65
					c-0.05,1.41-0.13,2.82-0.15,4.24c-0.03,1.92-0.05,3.84-0.01,5.76c0.02,1.07-0.4,1.51-1.45,1.4c-0.64-0.06-1.29-0.01-1.91-0.13
					c-0.96-0.19-1.6-0.64-1.63-1.83c-0.06-2.64-0.26-5.28-0.4-7.92C241.66,144.31,241.62,144.31,241.58,144.32z"/>
				<path class="st7" d="M240.44,150.84c0,0.46,0.01,0.91,0,1.37c-0.02,0.75-0.42,0.89-1.08,0.69c-1.7-0.51-2.03-0.97-2.2-2.63
					c-0.27-2.53-0.64-5.05-0.96-7.57c-0.07-0.54-0.14-1.1-0.08-1.63c0.03-0.19,0.5-0.52,0.7-0.47c0.7,0.17,1.36,0.52,2.05,0.72
					c0.71,0.2,1.02,0.57,1.05,1.34c0.12,2.73,0.31,5.46,0.47,8.19C240.41,150.84,240.42,150.84,240.44,150.84z"/>
				<path class="st7" d="M260.84,141.66c-0.41,2.39-0.8,4.63-1.19,6.87c-0.18,1.08-0.36,2.16-0.53,3.24
					c-0.18,1.11-0.69,1.82-1.94,1.93c-0.77,0.07-1.09,0.24-0.91-0.86c0.56-3.33,0.91-6.69,1.35-10.04c0.1-0.78,2.3-2.09,2.91-1.71
					C260.74,141.21,260.79,141.55,260.84,141.66z"/>
				<path class="st7" d="M264.04,139.99c-0.54,3.56-1.02,6.72-1.49,9.89c-0.04,0.27,0.06,0.63-0.08,0.81
					c-0.31,0.4-0.73,0.72-1.1,1.07c-0.16-0.43-0.5-0.9-0.44-1.29c0.41-2.43,0.92-4.84,1.39-7.26c0.2-1.07,0.32-2.16,0.59-3.21
					c0.06-0.24,0.59-0.36,0.91-0.54C263.94,139.75,264.06,140.05,264.04,139.99z"/>
			</g>
			<path class="st2" d="M265.33,178.76c-0.15-0.04-0.37-0.04-0.41-0.13c-0.07-0.14-0.1-0.4-0.02-0.5c0.48-0.53,0.92-1.13,1.52-1.47
				c0.36-0.2,0.96,0.03,1.46,0.07c-0.27,0.41-0.47,0.91-0.84,1.19C266.53,178.3,265.9,178.49,265.33,178.76z"/>
		</g>
		<path class="st4" d="M250.69,69.28c-45.11,0-90.22,0-135.33,0c-0.22,0-0.43,0-0.65,0c-3.27-0.05-3.33-0.08-3.34-3.25
			c-0.01-11.31,0-22.62,0-33.93c0-0.65-0.17-1.41,0.1-1.93c0.35-0.68,0.96-1.42,1.64-1.68c0.76-0.3,1.71-0.11,2.58-0.11
			c17.72,0.02,35.44,0,53.15,0.09c8.91,0.04,17.82,0.4,26.73,0.4c38.37,0.04,76.74-0.01,115.11,0c24.78,0,49.57,0.04,74.35,0.07
			c3.94,0,3.69-0.31,3.74,3.75c0.1,8.81,0.01,17.62,0.06,26.42c0.01,2.82,0.18,5.63,0.34,8.44c0.07,1.16-0.13,1.94-1.52,1.85
			c-0.54-0.04-1.09-0.02-1.63-0.02c-45.11,0-90.22,0-135.33,0C250.69,69.35,250.69,69.32,250.69,69.28z M250.34,31.35
			c0-0.07,0-0.14,0-0.21c-16.74,0-33.48,0.02-50.22-0.01C186.31,31.1,172.5,31,158.7,30.97c-14.24-0.03-28.48-0.02-42.73-0.01
			c-2.6,0-2.59,0.03-2.59,2.67c0.01,10.01-0.01,20.01,0.03,30.02c0.01,3.69-0.78,3.8,3.98,3.65c4.67-0.15,9.34-0.34,14.01-0.34
			c83.82-0.05,167.64-0.08,251.46-0.11c0.76,0,1.52-0.02,2.28-0.02c0.92,0.01,1.43-0.4,1.43-1.35c0-0.54,0.03-1.09,0.03-1.63
			c0-10.22,0.01-20.45,0-30.67c0-2.08-0.03-2.14-2.23-2.1c-3.8,0.05-7.61,0.26-11.41,0.26C332.09,31.36,291.22,31.35,250.34,31.35z"
			/>
		<path class="st4" d="M369.87,126.21c-5.54,0-11.07,0.02-16.6-0.01c-2.66-0.02-3.07-0.37-3.07-2.98
			c-0.01-10.64,0.04-21.28,0.08-31.92c0-0.54,0.08-1.08,0.08-1.63c0.02-1.5,0.78-2.02,2.26-2.05c6.83-0.13,13.66-0.38,20.49-0.51
			c4.34-0.08,8.68-0.06,13.02-0.04c2.69,0.01,3.16,0.39,3.18,2.9c0.08,11.18,0.11,22.37,0.1,33.55c0,2.45-0.36,2.73-2.94,2.75
			c-5.54,0.04-11.07,0.01-16.61,0.01C369.87,126.24,369.87,126.22,369.87,126.21z M370.05,124.18c0-0.03,0-0.06,0-0.09
			c4.56,0,9.13,0,13.69,0c0.76,0,1.52,0,2.28-0.01c0.8,0,1.01-0.33,1.02-1.19c0.05-10.21,0.16-20.42,0.25-30.63
			c0.02-2.47,0.03-2.51-2.53-2.53c-9.78-0.04-19.56-0.07-29.34-0.08c-2.59,0-2.62,0.04-2.62,2.71c0.01,9.89,0.03,19.78,0.06,29.67
			c0.01,2.07,0.02,2.11,2.19,2.12C360.05,124.2,365.05,124.18,370.05,124.18z"/>
		<path class="st4" d="M268.92,245.64c-0.11,0-0.22,0.01-0.32,0c-1.35-0.19-3.41,0.07-3.89-0.68c-0.85-1.32,0.95-2.3,1.83-3.29
			c0.5-0.56,0.8-1.06,0.09-1.59c-1.45-1.1-2.86-2.3-4.43-3.21c-1.44-0.83-2.9-0.38-4.26,0.55c-0.34,0.23-0.96,0.04-1.44,0.05
			c0.05-0.49-0.06-1.09,0.18-1.47c0.87-1.38,2.29-1.93,3.84-2.09c3.34-0.34,6.49,0.25,9.2,2.31c1.1,0.84,1.79,1.17,3,0.04
			c1.26-1.17,1.62-0.98,1.91,0.88c0.29,1.92,0.31,3.87,0.46,5.81c0.12,1.64-0.81,2.44-2.27,2.59c-1.29,0.13-2.6,0.03-3.9,0.03
			C268.92,245.58,268.92,245.61,268.92,245.64z"/>
		<path class="st4" d="M230.89,245.59c-6.66,0.19-6.03-0.55-5.88-6.46c0.01-0.32,0.05-0.65,0.13-0.96c0.22-0.83,0.47-1.65,0.71-2.47
			c0.72,0.37,1.51,0.67,2.16,1.14c0.88,0.65,1.37,0.06,1.97-0.4c2.8-2.14,6-2.89,9.46-2.54c1.55,0.15,2.97,0.69,3.88,2.02
			c0.26,0.38,0.2,0.98,0.29,1.48c-0.48,0.03-1.04,0.23-1.44,0.07c-3.44-1.37-6.87-0.35-8.87,2.8c-0.18,0.29-0.04,0.97,0.19,1.31
			c0.55,0.79,1.31,1.44,1.85,2.24c0.63,0.93,0.28,1.65-0.87,1.75C233.28,245.67,232.08,245.59,230.89,245.59z"/>
		<path class="st2" d="M250.34,31.35c40.88,0,81.75,0.01,122.63-0.01c3.8,0,7.61-0.21,11.41-0.26c2.2-0.03,2.23,0.02,2.23,2.1
			c0.01,10.22,0.01,20.45,0,30.67c0,0.54-0.03,1.09-0.03,1.63c-0.01,0.95-0.51,1.36-1.43,1.35c-0.76-0.01-1.52,0.02-2.28,0.02
			c-83.82,0.03-167.64,0.06-251.46,0.11c-4.67,0-9.34,0.19-14.01,0.34c-4.77,0.15-3.97,0.04-3.98-3.65
			c-0.03-10.01-0.02-20.01-0.03-30.02c0-2.64-0.01-2.67,2.59-2.67c14.24-0.01,28.48-0.02,42.73,0.01
			c13.81,0.03,27.61,0.14,41.42,0.16c16.74,0.03,33.48,0.01,50.22,0.01C250.34,31.21,250.34,31.28,250.34,31.35z M212.55,60.52
			c0-0.07,0.01-0.13,0.01-0.2c3.58,0,7.16,0.05,10.74-0.02c3.11-0.06,4.04-0.65,4.35-3.57c0.4-3.87,0.44-7.78,0.49-11.67
			c0.04-3.15-1.13-4.28-4.23-4.39c-2.82-0.1-5.64-0.14-8.46-0.19c-0.79-0.01-1.57-0.02-1.77-1c-0.53-2.7-2.47-2.87-4.69-2.73
			c-1.62,0.1-3.25,0.05-4.88,0c-1.44-0.04-2.72,0.39-3.11,1.81c-0.34,1.25-1.07,1.45-2.12,1.46c-1.49,0.01-2.08,0.83-2.13,2.27
			c-0.16,4.97-0.42,9.94-0.54,14.92c-0.03,1.46,0.77,2.41,2.39,2.5C203.27,59.97,207.91,60.25,212.55,60.52z M363.48,62.61
			c0,0.09,0,0.19,0,0.28c2.6,0,5.2,0.02,7.8-0.01c3.03-0.03,3.74-0.69,4.33-3.64c0.16-0.78,0.38-1.77,0.93-2.22
			c1.88-1.54,2.29-3.54,2.36-5.77c0.1-3.25,0.22-6.5,0.36-9.75c0.14-3.23-1.06-4.64-4.3-4.69c-4.88-0.09-9.75,0-14.63-0.06
			c-1.71-0.02-2.76,0.73-2.9,2.36c-0.11,1.32-0.63,1.68-1.84,1.54c-0.75-0.09-1.52-0.06-2.27-0.02c-2.21,0.15-3.08,0.99-3.11,3.28
			c-0.06,5.1-0.06,10.19-0.02,15.29c0.02,2.66,0.43,3.19,3.23,3.35C356.77,62.75,360.13,62.61,363.48,62.61z M291.87,60.93
			c0,0.1,0,0.2,0,0.3c3.36,0,6.72-0.09,10.08,0.03c2.3,0.08,2.62-0.03,2.63-2.44c0.02-6.51-0.01-13.03-0.07-19.54
			c-0.02-2.13-0.34-2.5-2.46-2.48c-6.28,0.06-12.57,0.15-18.85,0.37c-2.7,0.09-3.34,1.1-3.49,3.97c-0.3,5.51-0.67,11.02-1.08,16.53
			c-0.17,2.3,0.47,3.2,2.84,3.25C284.92,60.97,288.39,60.93,291.87,60.93z M143.22,48.6c-0.04,1.6,0.98,2.8,2.42,2.85
			c1.51,0.06,3.44-1.78,3.45-3.28c0.01-1.32-1.64-2.94-2.96-2.89C144.67,45.34,143.26,46.94,143.22,48.6z M146.16,37.45
			c-1.59,0.04-3.04,1.82-2.94,3.61c0.09,1.58,1.23,2.63,2.71,2.51c1.51-0.13,3.13-1.76,3.16-3.2
			C149.12,39.06,147.48,37.42,146.16,37.45z M143.21,56.56c0.01,1.59,1.08,2.72,2.55,2.71c1.57-0.01,3.39-1.86,3.31-3.38
			c-0.06-1.2-1.54-2.7-2.74-2.77C144.77,53.03,143.2,54.76,143.21,56.56z M140.67,48.02c-0.01-1.4-1.52-2.73-3.06-2.69
			c-1.46,0.04-2.79,1.53-2.71,3.03c0.07,1.4,1.33,2.69,2.66,2.75C139.04,51.18,140.68,49.55,140.67,48.02z M137.6,43.28
			c1.48,0.04,3.1-1.61,3.07-3.13c-0.03-1.28-1.34-2.53-2.78-2.64c-1.47-0.12-2.9,1.19-2.99,2.74
			C134.81,41.73,136.15,43.24,137.6,43.28z M137.67,58.95c1.49,0,3.07-1.7,2.99-3.21c-0.07-1.28-1.43-2.5-2.85-2.58
			c-1.45-0.08-2.88,1.3-2.92,2.82C134.85,57.48,136.23,58.95,137.67,58.95z M132.75,47.81c-0.07-1.24-1.58-2.56-2.88-2.51
			c-1.69,0.06-2.99,1.57-2.82,3.27c0.13,1.3,1.35,2.45,2.58,2.42C131.07,50.95,132.82,49.17,132.75,47.81z M129.51,58.82
			c1.44,0.05,3.24-1.66,3.24-3.07c0-1.23-1.47-2.62-2.77-2.63c-1.51-0.02-2.88,1.31-2.94,2.84
			C126.97,57.42,128.14,58.77,129.51,58.82z M132.75,40.03c-0.03-1.22-1.53-2.59-2.82-2.58c-1.53,0.02-2.85,1.34-2.89,2.89
			c-0.04,1.46,1.17,2.79,2.53,2.81C130.98,43.17,132.78,41.4,132.75,40.03z"/>
		<path class="st5" d="M370.05,124.18c-5,0-10,0.02-15-0.01c-2.18-0.01-2.19-0.06-2.19-2.12c-0.03-9.89-0.05-19.78-0.06-29.67
			c0-2.68,0.03-2.72,2.62-2.71c9.78,0.01,19.56,0.03,29.34,0.08c2.56,0.01,2.56,0.05,2.53,2.53c-0.1,10.21-0.21,20.42-0.25,30.63
			c0,0.87-0.21,1.19-1.02,1.19c-0.76,0-1.52,0.01-2.28,0.01c-4.56,0-9.13,0-13.69,0C370.05,124.12,370.05,124.15,370.05,124.18z
			 M368.2,95.21c-1.33,0.37-2.81,0.49-3.96,1.17c-3.08,1.81-5.15,5.47-3.36,10.13c1.29,3.37,5.66,6.16,9.21,4.72
			c2.27-0.92,3.62-0.16,4.88,1.56c0.51,0.7,1.08,1.36,1.65,2.01c0.35,0.4,0.69,0.94,1.14,1.1c0.53,0.19,1.32,0.25,1.75-0.02
			c0.26-0.17,0.28-1.21,0.02-1.61c-0.89-1.35-1.9-2.63-2.96-3.86c-1.04-1.21-1.47-2.19-0.75-3.97
			C377.89,101.3,374.47,95.19,368.2,95.21z"/>
		<path class="st4" d="M212.55,60.52c-4.64-0.27-9.28-0.56-13.92-0.81c-1.62-0.09-2.43-1.04-2.39-2.5
			c0.12-4.97,0.37-9.94,0.54-14.92c0.05-1.44,0.63-2.26,2.13-2.27c1.05-0.01,1.77-0.21,2.12-1.46c0.39-1.43,1.67-1.85,3.11-1.81
			c1.63,0.04,3.26,0.1,4.88,0c2.22-0.14,4.16,0.03,4.69,2.73c0.19,0.99,0.98,0.99,1.77,1c2.82,0.05,5.64,0.09,8.46,0.19
			c3.11,0.11,4.28,1.25,4.23,4.39c-0.05,3.89-0.09,7.8-0.49,11.67c-0.3,2.91-1.24,3.51-4.35,3.57c-3.58,0.07-7.16,0.02-10.74,0.02
			C212.56,60.39,212.55,60.46,212.55,60.52z M211.08,45.76c-2.77,0.05-5.1,2.35-4.99,4.93c0.11,2.56,2.36,4.54,5.04,4.44
			c2.44-0.09,4.6-2.25,4.59-4.59C215.7,48.07,213.41,45.72,211.08,45.76z"/>
		<path class="st4" d="M363.48,62.61c-3.35,0-6.71,0.15-10.05-0.04c-2.8-0.16-3.21-0.69-3.23-3.35c-0.05-5.1-0.04-10.19,0.02-15.29
			c0.03-2.29,0.9-3.13,3.11-3.28c0.76-0.05,1.52-0.07,2.27,0.02c1.2,0.14,1.73-0.22,1.84-1.54c0.14-1.63,1.19-2.38,2.9-2.36
			c4.88,0.06,9.75-0.03,14.63,0.06c3.25,0.06,4.44,1.47,4.3,4.69c-0.14,3.25-0.26,6.5-0.36,9.75c-0.07,2.23-0.48,4.23-2.36,5.77
			c-0.55,0.45-0.77,1.44-0.93,2.22c-0.58,2.94-1.3,3.6-4.33,3.64c-2.6,0.03-5.2,0.01-7.8,0.01
			C363.48,62.79,363.48,62.7,363.48,62.61z M359.32,43.62c0,1.19,0.02,2.39-0.01,3.58c-0.03,1.17,0.48,1.18,1.38,0.77
			c2.93-1.33,5.66-1.06,8.16,1.1c2.04,1.76,4.29,1.71,6.69,0.74c0.95-0.38,1.4-0.88,1.38-1.9c-0.04-1.95-0.01-3.91-0.05-5.86
			c-0.05-2.57-0.19-2.71-2.79-2.8c-3.36-0.13-6.73-0.12-10.08-0.36c-4.7-0.34-4.7-0.41-4.7,4.41
			C359.32,43.4,359.32,43.51,359.32,43.62z M356.65,47.85c0.09-1.04,0.25-2.55,0.32-4.06c0.02-0.34-0.25-1-0.4-1
			c-1.28-0.02-2.67-0.18-3.81,0.25c-0.46,0.17-0.56,1.72-0.55,2.64c0.06,3.15,0.3,6.29,0.36,9.44c0.03,1.4-0.26,2.81-0.29,4.22
			c-0.02,1.04,0.53,1.52,1.66,1.41c2.26-0.21,4.52-0.39,6.78-0.45c3.15-0.08,6.3,0.04,9.45-0.06c1.08-0.03,2.82,0.84,2.84-1.47
			c0.01-1.6-0.07-1.67-2.99-1.7c-2.5-0.02-5-0.02-7.49-0.08c-0.86-0.02-1.75-0.07-2.57-0.28c-2.4-0.62-3.21-1.66-3.3-4.14
			C356.61,51.16,356.65,49.75,356.65,47.85z M367.89,54.98C367.89,54.98,367.89,54.98,367.89,54.98c2.17-0.01,4.33-0.04,6.5,0.01
			c1.25,0.03,2.11-0.47,2.48-1.64c0.11-0.35-0.11-0.81-0.17-1.22c-0.29,0.05-0.6,0.03-0.85,0.16c-3.02,1.47-5.66,0.67-8.1-1.35
			c-0.25-0.21-0.56-0.33-0.81-0.54c-2.21-1.82-4.4-1.15-6.65-0.04c-1.48,0.73-1,2.02-0.97,3.12c0.03,1.25,0.99,1.51,2.07,1.51
			C363.55,54.97,365.72,54.98,367.89,54.98z"/>
		<path class="st4" d="M291.87,60.93c-3.47,0-6.94,0.05-10.41-0.02c-2.38-0.04-3.02-0.94-2.84-3.25c0.41-5.51,0.78-11.01,1.08-16.53
			c0.16-2.87,0.79-3.88,3.49-3.97c6.28-0.22,12.56-0.31,18.85-0.37c2.13-0.02,2.44,0.34,2.46,2.48c0.06,6.51,0.09,13.03,0.07,19.54
			c-0.01,2.41-0.33,2.52-2.63,2.44c-3.35-0.12-6.72-0.03-10.08-0.03C291.87,61.12,291.87,61.03,291.87,60.93z M292.41,39.39
			c0-0.02,0-0.03,0-0.05c-2.61,0-5.22,0-7.82,0c-2.59,0-2.75,0.16-2.84,2.74c-0.19,5.1-0.35,10.2-0.59,15.29
			c-0.07,1.42,0.65,1.62,1.78,1.6c4.78-0.07,9.56-0.11,14.34-0.19c1.08-0.02,2.16-0.22,3.25-0.29c0.91-0.05,1.38-0.42,1.42-1.38
			c0.19-5.32,0.37-10.64,0.61-15.96c0.07-1.53-0.72-1.79-1.99-1.77C297.85,39.42,295.13,39.39,292.41,39.39z"/>
		<path class="st4" d="M143.22,48.6c0.04-1.66,1.45-3.26,2.91-3.31c1.32-0.05,2.97,1.57,2.96,2.89c-0.01,1.5-1.94,3.33-3.45,3.28
			C144.2,51.4,143.18,50.2,143.22,48.6z"/>
		<path class="st4" d="M146.16,37.45c1.32-0.03,2.96,1.6,2.93,2.92c-0.03,1.44-1.65,3.07-3.16,3.2c-1.48,0.12-2.62-0.93-2.71-2.51
			C143.12,39.27,144.57,37.49,146.16,37.45z"/>
		<path class="st4" d="M143.21,56.56c-0.02-1.8,1.56-3.53,3.12-3.44c1.2,0.07,2.68,1.56,2.74,2.77c0.08,1.52-1.74,3.36-3.31,3.38
			C144.29,59.28,143.23,58.15,143.21,56.56z"/>
		<path class="st4" d="M140.67,48.02c0.01,1.53-1.63,3.16-3.11,3.09c-1.33-0.06-2.59-1.36-2.66-2.75c-0.08-1.5,1.25-2.99,2.71-3.03
			C139.14,45.29,140.66,46.62,140.67,48.02z"/>
		<path class="st4" d="M137.6,43.28c-1.45-0.04-2.79-1.55-2.7-3.04c0.09-1.55,1.52-2.86,2.99-2.74c1.44,0.12,2.75,1.36,2.78,2.64
			C140.7,41.67,139.08,43.32,137.6,43.28z"/>
		<path class="st4" d="M137.67,58.95c-1.45,0-2.83-1.47-2.78-2.96c0.05-1.52,1.47-2.9,2.92-2.82c1.42,0.07,2.78,1.3,2.85,2.58
			C140.75,57.25,139.17,58.94,137.67,58.95z"/>
		<path class="st4" d="M132.75,47.81c0.08,1.37-1.67,3.15-3.12,3.18c-1.23,0.02-2.45-1.12-2.58-2.42c-0.17-1.7,1.13-3.21,2.82-3.27
			C131.16,45.25,132.68,46.57,132.75,47.81z"/>
		<path class="st4" d="M129.51,58.82c-1.37-0.05-2.54-1.4-2.47-2.86c0.06-1.53,1.43-2.85,2.94-2.84c1.3,0.01,2.77,1.4,2.77,2.63
			C132.75,57.16,130.95,58.87,129.51,58.82z"/>
		<path class="st4" d="M132.75,40.03c0.04,1.37-1.77,3.13-3.18,3.12c-1.36-0.02-2.57-1.35-2.53-2.81c0.04-1.55,1.36-2.87,2.89-2.89
			C131.21,37.44,132.71,38.81,132.75,40.03z"/>
		<path class="st4" d="M368.2,95.21c6.27-0.02,9.69,6.09,7.61,11.24c-0.72,1.78-0.29,2.76,0.75,3.97c1.06,1.23,2.07,2.51,2.96,3.86
			c0.26,0.4,0.24,1.44-0.02,1.61c-0.43,0.27-1.21,0.22-1.75,0.02c-0.46-0.16-0.79-0.7-1.14-1.1c-0.57-0.65-1.14-1.31-1.65-2.01
			c-1.25-1.72-2.61-2.48-4.88-1.56c-3.55,1.44-7.91-1.35-9.21-4.72c-1.79-4.67,0.27-8.32,3.36-10.13
			C365.38,95.7,366.86,95.58,368.2,95.21z M368.7,98.07c-3.49-0.33-5.69,2.39-5.86,5.2c-0.16,2.66,2.38,5.18,5.14,5.29
			c2.93,0.12,5.59-2.27,5.68-5.11C373.75,100.6,371.53,98.19,368.7,98.07z"/>
		<path class="st2" d="M211.08,45.76c2.33-0.04,4.62,2.32,4.64,4.78c0.01,2.34-2.15,4.5-4.59,4.59c-2.68,0.1-4.93-1.89-5.04-4.44
			C205.98,48.1,208.3,45.81,211.08,45.76z"/>
		<path class="st2" d="M359.32,43.62c0-0.11,0-0.22,0-0.33c0-4.82-0.01-4.75,4.7-4.41c3.35,0.24,6.72,0.24,10.08,0.36
			c2.6,0.1,2.74,0.24,2.79,2.8c0.04,1.95,0.01,3.91,0.05,5.86c0.02,1.02-0.43,1.51-1.38,1.9c-2.4,0.97-4.66,1.02-6.69-0.74
			c-2.5-2.16-5.23-2.42-8.16-1.1c-0.9,0.41-1.4,0.4-1.38-0.77C359.34,46.01,359.32,44.81,359.32,43.62z M371.9,41.22
			c-1.67-0.21-2.85,0.63-3.02,2.16c-0.17,1.48,1,2.92,2.58,3.18c1.74,0.29,3.38-0.91,3.47-2.53C375,42.68,373.66,41.44,371.9,41.22z
			"/>
		<path class="st2" d="M356.65,47.85c0,1.9-0.04,3.31,0.01,4.72c0.09,2.48,0.91,3.52,3.3,4.14c0.83,0.21,1.71,0.27,2.57,0.28
			c2.5,0.05,5,0.05,7.49,0.08c2.92,0.03,3,0.09,2.99,1.7c-0.02,2.31-1.76,1.44-2.84,1.47c-3.15,0.1-6.3-0.02-9.45,0.06
			c-2.26,0.05-4.53,0.24-6.78,0.45c-1.13,0.11-1.68-0.37-1.66-1.41c0.03-1.41,0.32-2.82,0.29-4.22c-0.06-3.15-0.3-6.29-0.36-9.44
			c-0.02-0.92,0.09-2.47,0.55-2.64c1.14-0.43,2.53-0.28,3.81-0.25c0.15,0,0.41,0.66,0.4,1C356.9,45.31,356.74,46.82,356.65,47.85z"
			/>
		<path class="st2" d="M367.89,54.98c-2.17,0-4.33-0.01-6.5,0.01c-1.08,0.01-2.04-0.26-2.07-1.51c-0.03-1.1-0.51-2.39,0.97-3.12
			c2.25-1.11,4.44-1.78,6.65,0.04c0.25,0.21,0.56,0.33,0.81,0.54c2.44,2.02,5.07,2.81,8.1,1.35c0.25-0.12,0.57-0.11,0.85-0.16
			c0.07,0.41,0.29,0.87,0.17,1.22c-0.37,1.17-1.24,1.66-2.48,1.64C372.22,54.94,370.05,54.97,367.89,54.98
			C367.89,54.98,367.89,54.98,367.89,54.98z"/>
		<path class="st2" d="M292.41,39.39c2.72,0,5.43,0.03,8.15-0.01c1.27-0.02,2.06,0.24,1.99,1.77c-0.24,5.32-0.43,10.64-0.61,15.96
			c-0.03,0.96-0.51,1.33-1.42,1.38c-1.08,0.06-2.16,0.27-3.25,0.29c-4.78,0.09-9.56,0.12-14.34,0.19c-1.13,0.02-1.85-0.18-1.78-1.6
			c0.25-5.09,0.4-10.19,0.59-15.29c0.1-2.58,0.25-2.73,2.84-2.74c2.61,0,5.22,0,7.82,0C292.41,39.36,292.41,39.37,292.41,39.39z
			 M299.41,54.91c-0.05-0.45-0.03-0.69-0.12-0.88c-1.71-3.73-3.26-7.54-5.21-11.15c-1.18-2.19-2.66-2.02-3.8,0.18
			c-1.84,3.56-3.57,7.18-5.28,10.8c-0.32,0.68-1.23,1.61-0.07,2.25c1.06,0.59,1.48-0.46,1.96-1.16c0.12-0.18,0.28-0.35,0.35-0.55
			c0.89-2.49,3.07-2.3,5.1-2.57c2.32-0.31,4.05,0.13,4.55,2.76c0.06,0.3,0.28,0.63,0.52,0.81c0.41,0.29,0.99,0.71,1.33,0.6
			C299.1,55.89,299.26,55.18,299.41,54.91z"/>
		<path class="st5" d="M368.7,98.07c2.83,0.11,5.05,2.53,4.96,5.39c-0.09,2.84-2.75,5.23-5.68,5.11c-2.76-0.12-5.3-2.63-5.14-5.29
			C363.01,100.47,365.21,97.74,368.7,98.07z"/>
		<path class="st4" d="M371.9,41.22c1.76,0.22,3.1,1.46,3.02,2.81c-0.09,1.62-1.73,2.81-3.47,2.53c-1.58-0.26-2.74-1.7-2.58-3.18
			C369.05,41.86,370.23,41.02,371.9,41.22z"/>
		<path class="st4" d="M299.41,54.91c-0.15,0.28-0.31,0.98-0.66,1.1c-0.34,0.12-0.92-0.31-1.33-0.6c-0.25-0.17-0.47-0.51-0.52-0.81
			c-0.5-2.63-2.23-3.07-4.55-2.76c-2.03,0.27-4.21,0.08-5.1,2.57c-0.07,0.2-0.23,0.37-0.35,0.55c-0.48,0.7-0.9,1.75-1.96,1.16
			c-1.16-0.64-0.26-1.57,0.07-2.25c1.71-3.62,3.45-7.24,5.28-10.8c1.14-2.2,2.62-2.37,3.8-0.18c1.95,3.6,3.5,7.42,5.21,11.15
			C299.38,54.22,299.35,54.46,299.41,54.91z M291.8,49.75c0.22-0.03,0.75-0.1,1.28-0.2c1.05-0.2,1.53-0.73,0.91-1.78
			c-0.52-0.88-1.08-1.75-1.62-2.62c-0.48,0.83-0.96,1.66-1.43,2.5c-0.16,0.28-0.25,0.6-0.4,0.88
			C289.91,49.68,290.6,49.79,291.8,49.75z"/>
		<path class="st2" d="M291.8,49.75c-1.2,0.04-1.89-0.07-1.26-1.22c0.15-0.28,0.24-0.6,0.4-0.88c0.47-0.84,0.95-1.67,1.43-2.5
			c0.54,0.87,1.1,1.73,1.62,2.62c0.62,1.05,0.13,1.57-0.91,1.78C292.55,49.65,292.02,49.72,291.8,49.75z"/>
	</g>
</g>
</svg>
